<svg width="1920" height="626" viewBox="0 0 1920 626" fill="none" xmlns="http://www.w3.org/2000/svg">
<g clip-path="url(#clip0_412_6490)">
<rect width="1920" height="656" fill="white"/>
<rect width="1920" height="656" fill="#E4F0F9"/>
<rect y="436" width="1920" height="162" fill="#92C57D"/>
<g clip-path="url(#clip1_412_6490)">
<path d="M90.1573 446.38C81.1522 436.48 71.9811 426.71 62.5701 417.179C61.5183 416.108 60.448 414.981 59.2117 414.206C57.4218 413.079 55.9086 414.095 56.0193 416.2C56.0562 416.792 56.2223 417.383 56.4253 417.937C60.9278 430.237 63.8618 443.018 68.1429 455.375C69.4346 459.124 70.9662 462.707 74.2693 465.145C78.2182 468.045 82.7207 470.04 87.5185 470.501C98.7932 471.554 110.031 471.074 121.103 468.193C127.857 466.438 132.913 463.003 136.308 456.594C142.434 445.032 148.136 433.248 153.894 421.52C154.226 420.855 154.41 420.116 154.706 419.414C155.148 418.361 155.185 417.346 154.263 416.533C153.303 415.665 152.233 415.96 151.347 416.533C150.074 417.327 148.893 418.269 147.712 419.193C141.807 423.884 136.677 429.351 131.455 435.335C130.495 433.599 130.901 432.121 131.049 430.736C132.359 418.214 131.215 405.765 129.739 393.372C126.989 370.507 122.893 347.881 117.357 325.514C116.785 323.187 116.121 320.86 115.364 318.588C115.013 317.554 114.22 316.797 112.947 317.037C111.895 317.24 111.489 318.09 111.323 318.976C111.138 320.011 111.083 321.063 111.083 322.116C111.12 331.148 111.175 340.179 111.231 349.211C111.378 371.19 111.341 393.169 110.677 415.148C110.566 418.897 110.253 422.646 110.031 426.414C108.463 426.71 108.389 425.306 107.927 424.53C100.159 411.602 91.1537 399.559 81.7058 387.831C80.6724 386.557 79.7129 384.063 77.5908 385.301C75.5979 386.464 77.0188 388.57 77.5539 390.195C83.4773 408.222 87.5923 426.691 91.2644 445.29C91.6704 446.435 91.1906 446.675 90.1757 446.361L90.1573 446.38Z" fill="#087474"/>
</g>
<g clip-path="url(#clip2_412_6490)">
<path d="M371.8 161.625C369.058 161.664 366.276 161.308 363.613 162.279C362.739 164.221 363.315 166.341 362.918 168.6C362.381 166.42 363.116 164.181 361.507 162.536C359.043 162.239 356.718 162.972 354.373 163.547C352.286 167.035 354.035 170.72 353.916 174.604C351.809 171.335 354.631 166.896 350.915 164.419C345.013 164.775 339.608 166.995 334.143 168.937C330.507 170.225 330.507 170.265 328.381 167.253C325.956 163.804 323.313 160.555 320.174 157.701C318.485 156.175 316.716 154.768 314.669 153.757C309.88 151.419 305.787 152.529 302.945 157.047C300.362 161.129 299.487 165.766 299.308 170.463C299.09 175.615 298.931 180.827 299.428 185.959C299.785 189.546 298.732 192.023 296.467 194.599C289.83 202.11 284.981 210.71 282.815 220.5C278.384 240.475 284.266 257.656 298.792 271.646C302.528 275.253 302.726 277.849 301.256 282.268C296.427 296.813 291.678 311.398 286.452 325.824C285.935 327.271 285.935 329.035 284.206 330.283C278.94 325.071 273.475 320.097 267.752 315.381C261.652 310.328 255.571 305.235 249.57 300.043C243.31 294.613 237.865 288.45 232.838 281.871C224.194 270.497 222.465 258.131 227.055 244.795C228.724 239.92 230.712 235.124 232.46 230.269C234.726 223.987 236.315 217.587 235.66 210.829C234.527 199.078 228.307 190.557 218.113 185.127C194.386 172.484 163.228 182.709 156.332 212.652C153.848 223.472 155.259 234.173 157.624 244.814C161.638 262.986 171.931 277.036 186.279 288.53C199.553 299.151 213.423 308.98 226.976 319.226C240.588 329.51 253.286 340.726 264.215 353.865C267.534 357.848 270.435 362.128 272.959 366.666C273.873 368.331 274.091 369.896 273.654 371.759C270.435 385.274 268.249 398.967 266.461 412.74C261.831 448.568 285.458 473.339 313.159 480.275C333.309 485.308 353.578 484.991 373.867 481.226C374.304 481.146 374.682 480.73 375.079 480.493C371.005 477.243 369.296 472.804 369.038 467.79C368.442 455.88 366.991 444.03 366.693 432.061C366.415 420.785 365.719 409.51 364.845 398.254C363.971 387.157 362.977 376.059 361.725 365.002C363.494 374.89 364.15 384.898 364.964 394.885C366.932 419.16 366.932 443.554 369.694 467.77C369.833 469.058 369.952 470.346 370.35 471.575C371.482 475.043 372.376 475.043 375.317 473.022C379.113 470.406 380.643 466.779 381.597 462.578C383.803 452.948 384.617 443.138 385.313 433.309C387.022 409.292 385.909 385.234 386.386 361.197C386.247 379.607 386.366 398.036 386.346 416.445C386.346 429.366 385.452 442.247 383.544 455.028C382.292 463.391 380.246 471.496 375.397 478.65C375.019 479.204 374.92 479.839 375.019 480.493C380.106 480.215 384.737 478.233 389.446 476.589C400.038 472.863 409.815 467.513 419.055 461.191C434.594 450.53 442.007 435.331 443.119 416.901C443.974 402.931 441.55 389.237 438.768 375.623C432.289 344.115 423.009 313.419 411.047 283.556C409.656 280.108 410.113 280.048 413.034 278.443C424.798 272.023 434.376 263.402 440.576 251.314C446.637 239.523 447.73 227.376 443.696 214.733C440.039 203.279 433.879 193.351 425.513 184.79C423.506 182.749 422.83 180.827 423.268 177.953C424.321 170.859 423.923 163.765 421.757 156.888C420.366 152.469 418.359 148.169 413.252 147.198C408.006 146.207 404.986 150.012 402.085 153.559C400.137 155.957 398.746 158.712 397.574 161.545C396.64 163.765 395.487 164.141 393.122 163.586C387.141 162.16 381.04 161.426 374.841 161.684C373.41 163.666 374.046 165.945 373.807 168.263C372.933 166.044 374.443 163.25 371.919 161.664L371.8 161.625Z" fill="#F79392"/>
<path d="M350.893 164.399C351.986 167.966 351.409 171.731 352.224 175.338C352.482 176.447 352.661 177.834 354.092 177.656C355.404 177.498 355.622 176.19 355.503 174.981C355.125 171.156 354.728 167.332 354.35 163.527C353.973 163.547 353.595 163.566 353.198 163.606C352.482 164.22 351.35 163.606 350.694 164.458L350.873 164.399H350.893Z" fill="#191303"/>
<path d="M371.798 161.625C371.878 164.637 371.918 167.629 372.037 170.641C372.057 171.493 372.474 172.226 373.428 172.207C374.322 172.187 374.898 171.533 374.898 170.661C374.898 167.649 374.799 164.656 374.739 161.644C373.766 161.644 372.792 161.644 371.798 161.644V161.625Z" fill="#010100"/>
<path d="M361.506 162.536C361.446 165.231 361.366 167.926 361.366 170.621C361.366 171.473 361.804 172.227 362.758 172.207C363.652 172.207 364.248 171.533 364.208 170.641C364.089 167.847 365.043 164.974 363.612 162.259C362.916 162.338 362.201 162.437 361.486 162.516L361.506 162.536Z" fill="#020200"/>
<path d="M350.734 164.458C351.688 164.538 352.483 164.141 353.238 163.606C352.245 163.448 351.39 163.606 350.734 164.458Z" fill="#FDBE00"/>
<path d="M412.994 251.572C414.186 249.432 413.848 247.193 413.371 244.953C410.669 242.476 407.589 244.22 404.489 244.26C406.834 242.496 409.914 242.912 411.98 241.03C412.1 239.603 410.927 238.572 410.748 237.225C407.549 234.53 404.767 237.998 401.587 237.78C403.038 235.877 406.078 236.333 407.152 234.015C402.124 228.525 395.348 227.277 388.452 226.484C384.14 225.989 379.788 226.306 375.556 227.396C372.853 228.288 373.111 231.141 371.919 233.024C370.389 235.402 368.938 235.877 366.474 234.312C363.553 232.449 361.646 229.774 359.837 226.98C349.663 223.987 339.747 224.622 330.109 229.08C328.619 229.774 327.287 230.646 326.294 231.973C328.619 234.589 332.236 233.975 335.037 235.441C336.866 236.393 338.992 236.769 340.482 238.493C336.17 236.65 331.838 234.906 327.168 234.351C325.3 234.133 323.333 233.48 321.823 235.322C321.187 237.681 318.504 239.325 319.339 242.199C322.578 244.161 326.334 242.793 329.752 243.804C332.057 244.478 334.501 244.755 336.707 246.023C332.077 244.359 327.307 244.398 322.518 244.577C320.809 244.636 318.882 244.24 317.749 246.142C318.166 249.095 318.743 251.988 320.094 254.683C322.578 256.407 325.082 254.961 327.506 254.545C331.162 253.93 334.719 253.474 338.217 255.179C334.282 254.009 330.368 254.703 326.532 255.555C324.982 255.892 322.876 255.694 322.399 257.993C328.062 265.364 336.17 267.94 344.874 268.872C351.014 269.526 357.155 268.773 363.076 266.791C367.051 265.463 370.806 265.523 374.801 267.366C380.424 269.942 386.445 271.012 392.705 270.318C402.184 269.288 408.145 263.66 412.298 255.595C411.841 252.087 408.403 253.177 406.396 251.909C408.662 250.839 410.927 252.9 413.034 251.592L412.994 251.572Z" fill="#FFDB73"/>
<path d="M374.96 480.453C377.981 478.075 379.71 474.904 381.001 471.337C384.519 461.508 385.81 451.303 386.704 440.998C388.354 422.153 387.658 403.248 387.698 384.363C387.698 376.614 387.996 368.866 388.175 361.118C388.175 360.484 388.394 359.81 388.254 359.196C388.016 358.046 388.374 356.223 386.486 356.322C384.618 356.421 385.075 358.165 385.035 359.354C384.201 379.032 384.618 398.73 384.32 418.427C384.081 433.25 383.505 448.112 379.968 462.658C379.511 464.54 378.835 466.363 378.358 468.226C377.981 469.653 377.703 470.644 375.855 469.554C374.841 468.959 374.146 469.911 373.867 471.001C373.589 472.051 373.987 473.279 372.675 474.548C371.841 472.566 371.344 470.703 371.165 468.741C369.893 454.117 368.741 439.492 368.184 424.808C367.429 404.813 366.058 384.858 363.435 365.002C363.415 364.843 363.415 364.685 363.375 364.526C362.998 362.862 362.978 360.206 360.871 360.523C358.407 360.9 359.739 363.397 359.957 364.982C361.626 376.813 362.58 388.722 363.415 400.632C364.925 422.529 365.402 444.486 367.35 466.344C367.648 469.732 368.303 473.042 369.357 476.272C370.271 479.046 371.98 480.651 375.06 480.433L374.98 480.473L374.96 480.453Z" fill="#020100"/>
<path d="M324.625 467.81C324.526 456.99 324.427 446.17 324.327 435.35C324.089 412.581 323.155 389.852 319.558 367.301C319.3 365.715 319.022 364.11 318.743 362.525C318.525 361.237 318.386 359.671 316.597 359.988C315.147 360.226 315.345 361.673 315.465 362.763C315.941 366.765 316.458 370.768 317.015 374.771C319.24 390.783 320.532 406.854 320.651 423.025C320.77 439.651 321.188 456.277 321.486 472.903C321.525 474.686 321.724 476.47 322.598 478.055C323.811 480.255 325.818 480.572 327.845 478.848C329.732 477.243 330.905 475.083 331.998 472.923C335.674 465.63 337.562 457.783 338.953 449.836C342.112 431.724 345.312 413.592 347.458 395.321C348.392 387.315 348.948 379.25 349.584 371.204C349.703 369.738 350.458 367.36 348.253 367.162C345.888 366.944 346.584 369.381 346.464 370.828C344.298 399.185 339.609 427.186 334.283 455.108C333.806 457.644 333.071 460.121 332.316 462.598C330.865 467.414 330.825 467.394 326.473 468.84C325.639 469.375 325.38 470.267 325.102 471.06C325.023 470.882 325.142 470.782 325.142 470.644C325.48 469.593 325.063 468.702 324.625 467.83V467.81Z" fill="#020100"/>
<path d="M359.857 226.98C360.055 232.607 364.825 234.411 368.501 237.007C369.673 237.839 370.925 236.769 371.7 235.639C373.429 233.103 374.681 230.348 375.555 227.416C375.337 220.678 373.687 214.039 374.244 207.242C376.052 204.765 376.747 201.555 379.371 199.672C380.245 199.672 379.808 200.366 379.927 200.782C381.199 207.579 383.563 209.343 391.393 209.363C397.712 207.104 398.149 206.549 398.865 199.851C400.891 199.197 402.64 201.555 404.707 200.564C405.303 200.782 405.899 201.099 406.515 201.178C407.151 201.258 407.827 201.119 408.065 200.366C408.264 199.712 408.224 199.018 407.608 198.642C406.396 197.869 405.164 197.076 403.832 196.522C398.109 194.124 392.128 192.994 385.928 193.272C375.515 193.747 369.514 200.663 370.428 211.126C370.687 214.158 371.044 217.21 371.541 220.202C371.899 222.362 371.243 223.036 369.017 222.996C365.421 222.917 361.884 223.333 359.837 226.98H359.857Z" fill="#010100"/>
<path d="M356.776 206.073C360.134 205.32 360.333 204.825 358.267 202.288C349.404 191.29 333.864 191.151 324.723 201.991C324.008 202.843 323.332 203.755 322.736 204.706C322.2 205.578 322.08 206.628 322.955 207.322C323.948 208.114 324.684 207.084 325.498 206.668C327.446 205.835 328.38 202.942 330.347 203.121C332.374 203.319 332.294 206.47 333.924 207.778C334.54 208.273 335.096 208.848 335.812 209.224C336.587 209.7 337.421 210.017 338.256 210.314C338.693 210.393 339.15 210.413 339.607 210.413C340.76 210.274 341.833 210.869 342.965 210.79C347.397 209.977 349.821 206.925 351.252 202.962C353.656 203.358 354.471 206.053 356.776 206.073Z" fill="#020101"/>
<path d="M321.804 235.302C328.242 235.104 334.244 236.63 339.828 239.82C340.523 240.217 341.159 240.732 341.894 241.009C342.252 241.128 342.848 240.91 343.206 240.653C343.862 240.217 343.722 239.503 343.385 238.949C342.53 237.482 341.099 236.749 339.649 235.996C335.436 233.816 330.885 232.845 326.275 231.953C321.466 231.755 316.677 231.121 311.848 231.299C309.742 231.379 307.675 231.557 305.668 232.191C304.397 232.587 303.065 233.182 303.602 234.787C304.039 236.154 305.271 235.798 306.443 235.56C311.53 234.569 316.657 234.688 321.784 235.302H321.804Z" fill="#0C0903"/>
<path d="M308.945 181.144C308.945 183.502 308.945 185.444 308.945 187.386C308.945 188.754 309.223 190.161 310.912 190.121C312.284 190.081 312.582 188.793 312.601 187.604C312.681 184.057 312.701 180.51 312.78 176.943C312.8 175.813 312.78 174.664 313.039 173.574C313.476 171.573 314.41 171.236 316.119 172.544C318.623 174.426 320.351 176.963 321.663 179.777C322.08 180.649 322.339 181.6 322.875 182.393C323.233 182.928 323.968 183.165 324.604 182.769C324.962 182.531 325.18 182.075 325.419 181.679C325.498 181.56 325.478 181.362 325.478 181.204C325.498 177.458 319 169.195 315.364 168.323C312.78 167.709 310.674 168.917 310.058 171.929C309.402 175.08 309.263 178.33 308.945 181.124V181.144Z" fill="#0B0800"/>
<path d="M407.129 219.311C407.149 220.123 407.348 220.896 407.865 221.55C410.309 224.621 416.926 224.919 419.728 222.085C422.172 219.608 421.655 216.081 418.615 214.376C415.893 212.85 410.309 213.861 408.202 216.199C407.388 217.111 407.05 218.122 407.109 219.291L407.129 219.311Z" fill="#FFDB73"/>
<path d="M407.17 234.034C404.904 234.827 402.599 235.56 400.373 236.472C399.519 236.828 398.645 237.542 399.082 238.711C399.539 239.88 400.433 239.702 401.466 239.405C404.507 238.493 407.388 236.828 410.746 237.264C416.768 236.452 422.65 237.443 428.512 238.691C429.287 238.85 430.042 239.226 430.797 239.484C431.671 239.761 432.426 239.543 432.883 238.77C433.519 237.661 432.764 236.908 431.969 236.373C430.896 235.639 429.644 235.322 428.353 235.085C421.338 233.797 414.284 233.083 407.15 234.054L407.17 234.034Z" fill="#0E0A02"/>
<path d="M317.73 246.122C324.625 245.29 331.481 244.814 337.9 248.282C338.893 248.817 339.708 248.936 340.304 247.886C340.9 246.836 340.245 245.983 339.45 245.448C337.284 243.982 334.76 243.467 332.276 242.892C328.004 241.881 323.652 242.357 319.32 242.218C316.657 242.674 313.974 243.09 311.331 243.605C310.238 243.823 309.185 244.2 308.152 244.616C307.178 245.012 306.562 245.765 306.9 246.875C307.278 248.104 308.37 247.985 309.285 247.727C312.047 246.954 314.809 246.102 317.73 246.142V246.122Z" fill="#0D0A06"/>
<path d="M409.756 166.182C411.425 168.184 411.067 170.027 411.147 171.731C411.226 173.812 411.008 175.912 410.948 177.993C410.948 178.766 410.888 179.678 411.961 179.856C413.174 180.054 413.67 179.281 413.968 178.271C414.008 178.112 414.048 177.953 414.068 177.795C414.485 173.931 414.604 170.066 413.77 166.262C413.392 164.558 412.776 162.734 410.67 162.338C408.563 161.942 407.232 163.289 406.377 164.855C404.37 168.521 402.562 172.306 400.714 176.051C400.237 177.022 400.336 177.993 401.39 178.528C402.502 179.103 403.277 178.33 403.754 177.478C404.609 175.932 405.304 174.307 406.119 172.722C407.192 170.621 407.868 168.263 409.775 166.143L409.756 166.182Z" fill="#090700"/>
<path d="M319.993 223.591C320.808 223.591 321.603 223.63 322.417 223.591C324.802 223.432 326.511 221.926 326.948 219.885C327.365 217.963 325.358 216.813 323.788 216.12C320.629 214.733 317.33 214.019 313.992 215.684C311.249 217.051 311.011 219.39 313.356 221.371C315.542 223.214 316.754 223.63 319.993 223.611V223.591Z" fill="#FFDB73"/>
<path d="M411.979 241.049C409.277 241.426 406.554 241.604 403.991 242.714C402.759 243.249 401.368 243.725 401.984 245.369C402.56 246.875 403.852 246.162 404.885 245.785C407.647 244.775 410.429 244.141 413.37 244.973C417.921 244.953 422.193 246.261 426.486 247.51C427.777 247.886 429.546 248.877 430.142 246.974C430.718 245.151 428.771 244.636 427.479 244.22C422.452 242.555 417.166 242.02 411.979 241.069V241.049Z" fill="#0F0B04"/>
<path d="M322.38 257.973C327.984 256.308 333.568 254.624 339.371 257.18C340.185 257.537 341 257.378 341.457 256.566C342.113 255.436 341.318 254.643 340.483 254.227C337.026 252.503 333.33 252.325 329.594 252.899C326.394 253.395 323.235 254.069 320.075 254.663C318.386 255.813 316.18 256.011 314.69 257.537C313.855 258.389 313.259 259.34 314.193 260.43C315.048 261.421 315.922 260.747 316.677 260.212C318.406 259.003 320.314 258.329 322.38 257.973Z" fill="#0C0804"/>
<path d="M391.553 208.927C384.359 209.165 380.425 205.063 381.001 199.256C381.041 198.305 380.763 197.731 379.65 198.147C376.291 200.267 373.947 202.982 374.225 207.242C379.63 210.572 385.552 210.552 391.553 209.779C391.771 209.581 391.831 209.383 391.752 209.204C391.672 209.026 391.593 208.927 391.513 208.927H391.553Z" fill="#F9EEC4"/>
<path d="M356.777 206.073C355.267 203.576 352.942 201.931 350.061 199.514C350.279 205.26 347.597 208.372 343.026 209.977C342.45 210.631 341.337 210.175 340.84 211.007C347.199 212.711 352.743 211.859 356.757 206.073H356.777Z" fill="#F8EDC1"/>
<path d="M391.552 208.927C391.552 209.204 391.552 209.501 391.572 209.779C395.487 209.422 398.865 207.817 401.826 205.3C403.336 204.032 404.449 202.565 404.688 200.564C402.581 199.117 400.316 198.186 397.355 197.988C398.686 203.517 396.58 207.064 391.532 208.946L391.552 208.927Z" fill="#F5EBBF"/>
<path d="M412.995 251.572C410.71 250.918 408.504 249.689 405.98 250.324C404.728 250.641 403.158 250.799 403.377 252.543C403.596 254.188 405.066 253.633 406.119 253.554C408.464 253.375 410.61 253.712 412.26 255.595C413.73 256.011 414.724 257.022 415.499 258.25C416.194 259.34 417.009 260.034 418.162 258.944C419.155 257.973 418.718 256.903 418.062 255.932C416.77 254.029 414.585 253.177 413.015 251.612L412.995 251.572Z" fill="#110D05"/>
<path d="M336.188 208.847C333.863 206.529 332.074 203.953 331.975 200.227C328.875 201.693 326.749 203.735 325.497 206.648C328.815 208.352 332.074 210.234 335.989 210.135C336.168 210.036 336.327 209.937 336.506 209.838C336.645 209.442 336.565 209.105 336.208 208.847H336.188Z" fill="#F3EABD"/>
<path d="M325.5 471.754C325.937 470.822 326.553 469.95 326.473 468.841C325.857 468.504 325.241 468.167 324.625 467.81C324.625 469.078 324.625 470.366 324.625 471.635C324.864 472.15 325.162 472.19 325.52 471.754H325.5Z" fill="#C28B00"/>
<path d="M340.838 211.008C341.692 210.928 342.507 210.77 343.023 209.977C341.692 209.977 340.341 209.977 339.009 209.997C338.731 210.195 338.652 210.393 338.751 210.572C338.85 210.73 338.97 210.809 339.069 210.809C339.665 210.869 340.241 210.928 340.838 211.008Z" fill="#C7E5B9"/>
<path d="M339.07 210.829C339.07 210.551 339.031 210.294 338.991 210.016C338.772 209.798 338.534 209.759 338.275 209.897C337.58 209.462 336.884 209.402 336.189 209.897L335.97 210.155C336.884 210.928 337.958 210.968 339.07 210.849V210.829Z" fill="#F3EABD"/>
<path d="M369.814 250.838C374.166 255.614 377.226 256.466 381.439 254.287C384.459 252.741 386.526 249.174 385.989 246.38C385.83 245.547 385.453 244.814 384.439 244.894C383.764 244.953 383.227 245.31 383.068 246.023C382.85 246.954 382.81 247.965 382.412 248.817C381.32 251.116 379.352 252.047 376.848 251.889C374.504 251.75 373.53 250.185 373.053 248.124C372.695 246.558 372.377 244.973 371.94 243.427C371.761 242.793 371.185 242.377 370.509 242.317C369.794 242.278 369.257 242.753 368.999 243.348C368.681 244.081 368.423 244.854 368.324 245.647C367.906 248.5 366.018 249.848 363.375 250.165C360.872 250.462 358.924 249.194 357.811 247.054C356.619 244.775 355.685 242.357 354.791 239.939C354.374 238.81 354.036 237.621 352.585 237.978C351.154 238.314 351.194 239.622 351.492 240.732C352.426 244.16 353.519 247.569 355.824 250.363C359.342 254.584 364.15 254.742 369.794 250.819L369.814 250.838Z" fill="#070604"/>
<path d="M325.5 471.753C325.202 471.714 324.904 471.674 324.606 471.634C324.606 472.15 324.228 472.823 325.122 472.922C325.202 472.922 325.361 472.15 325.5 471.753Z" fill="#714C00"/>
<path d="M379.667 198.146C380.104 198.523 380.561 198.88 380.998 199.256C381.436 198.82 381.912 198.186 381.475 197.71C380.839 197.037 380.124 197.354 379.647 198.146H379.667Z" fill="#81A387"/>
<path d="M336.211 209.898C336.906 209.898 337.602 209.898 338.277 209.898C337.741 209.204 337.006 208.966 336.171 208.867C336.171 209.204 336.171 209.561 336.191 209.898H336.211Z" fill="#C7E5B9"/>
</g>
<g clip-path="url(#clip3_412_6490)">
<path d="M1601.42 107.881C1604.58 107.927 1607.78 107.515 1610.85 108.636C1611.85 110.878 1611.19 113.325 1611.65 115.933C1612.26 113.417 1611.42 110.832 1613.27 108.933C1616.11 108.59 1618.78 109.437 1621.48 110.1C1623.88 114.126 1621.87 118.38 1622.01 122.864C1624.43 119.09 1621.19 113.966 1625.46 111.106C1632.26 111.518 1638.48 114.08 1644.77 116.322C1648.96 117.809 1648.96 117.854 1651.4 114.377C1654.2 110.397 1657.24 106.646 1660.85 103.352C1662.8 101.591 1664.83 99.9667 1667.19 98.8001C1672.7 96.1009 1677.42 97.3819 1680.69 102.597C1683.66 107.309 1684.67 112.662 1684.87 118.083C1685.12 124.03 1685.31 130.046 1684.74 135.971C1684.32 140.111 1685.54 142.97 1688.14 145.944C1695.78 154.613 1701.37 164.541 1703.86 175.841C1708.96 198.898 1702.19 218.73 1685.47 234.879C1681.17 239.042 1680.94 242.039 1682.63 247.14C1688.19 263.93 1693.66 280.765 1699.67 297.417C1700.27 299.087 1700.27 301.123 1702.26 302.564C1708.32 296.548 1714.61 290.807 1721.2 285.363C1728.22 279.53 1735.22 273.651 1742.13 267.658C1749.34 261.39 1755.61 254.277 1761.39 246.682C1771.35 233.552 1773.34 219.279 1768.05 203.885C1766.13 198.257 1763.84 192.722 1761.83 187.118C1759.22 179.867 1757.39 172.478 1758.15 164.678C1759.45 151.114 1766.61 141.278 1778.35 135.01C1805.66 120.416 1841.53 132.219 1849.47 166.782C1852.33 179.272 1850.7 191.624 1847.98 203.907C1843.36 224.883 1831.51 241.101 1814.99 254.368C1799.71 266.629 1783.74 277.974 1768.14 289.8C1752.47 301.672 1737.85 314.619 1725.27 329.785C1721.45 334.382 1718.11 339.323 1715.21 344.561C1714.15 346.483 1713.9 348.29 1714.41 350.44C1718.11 366.04 1720.63 381.846 1722.69 397.744C1728.02 439.101 1700.82 467.694 1668.93 475.7C1645.73 481.51 1622.4 481.144 1599.04 476.798C1598.54 476.706 1598.1 476.226 1597.65 475.951C1602.34 472.2 1604.3 467.076 1604.6 461.289C1605.29 447.541 1606.96 433.863 1607.3 420.046C1607.62 407.031 1608.42 394.016 1609.43 381.023C1610.43 368.213 1611.58 355.404 1613.02 342.64C1610.98 354.054 1610.23 365.606 1609.29 377.134C1607.03 405.155 1607.03 433.314 1603.85 461.266C1603.69 462.753 1603.55 464.24 1603.09 465.658C1601.79 469.661 1600.76 469.661 1597.37 467.328C1593 464.308 1591.24 460.122 1590.14 455.273C1587.6 444.156 1586.67 432.833 1585.86 421.488C1583.9 393.764 1585.18 365.995 1584.63 338.248C1584.79 359.498 1584.65 380.771 1584.67 402.022C1584.67 416.936 1585.7 431.804 1587.9 446.558C1589.34 456.211 1591.7 465.566 1597.28 473.824C1597.71 474.464 1597.83 475.196 1597.71 475.951C1591.86 475.631 1586.53 473.344 1581.11 471.445C1568.91 467.145 1557.66 460.969 1547.02 453.672C1529.13 441.365 1520.6 423.821 1519.32 402.548C1518.33 386.421 1521.12 370.615 1524.33 354.901C1531.78 318.53 1542.47 283.098 1556.24 248.627C1557.84 244.647 1557.31 244.578 1553.95 242.725C1540.41 235.314 1529.38 225.363 1522.25 211.41C1515.27 197.8 1514.01 183.778 1518.65 169.184C1522.86 155.963 1529.95 144.503 1539.59 134.621C1541.9 132.265 1542.67 130.046 1542.17 126.73C1540.96 118.541 1541.42 110.352 1543.91 102.414C1545.51 97.3132 1547.82 92.3495 1553.7 91.2287C1559.74 90.085 1563.22 94.4768 1566.56 98.5713C1568.8 101.339 1570.4 104.519 1571.75 107.79C1572.83 110.352 1574.15 110.786 1576.87 110.146C1583.76 108.499 1590.78 107.652 1597.92 107.95C1599.57 110.237 1598.84 112.868 1599.11 115.544C1600.12 112.982 1598.38 109.757 1601.28 107.927L1601.42 107.881Z" fill="#FDBE00"/>
<path d="M1625.48 111.084C1624.23 115.201 1624.89 119.547 1623.95 123.71C1623.65 124.991 1623.45 126.592 1621.8 126.387C1620.29 126.204 1620.04 124.694 1620.18 123.298C1620.61 118.884 1621.07 114.469 1621.5 110.077C1621.94 110.1 1622.37 110.123 1622.83 110.169C1623.65 110.878 1624.96 110.169 1625.71 111.152L1625.51 111.084H1625.48Z" fill="#191303"/>
<path d="M1601.42 107.881C1601.33 111.358 1601.28 114.812 1601.15 118.289C1601.12 119.273 1600.64 120.119 1599.54 120.096C1598.51 120.073 1597.85 119.318 1597.85 118.312C1597.85 114.835 1597.97 111.381 1598.03 107.904C1599.16 107.904 1600.28 107.904 1601.42 107.904V107.881Z" fill="#010100"/>
<path d="M1613.27 108.934C1613.34 112.044 1613.43 115.155 1613.43 118.266C1613.43 119.25 1612.93 120.119 1611.83 120.096C1610.8 120.096 1610.11 119.318 1610.16 118.289C1610.3 115.064 1609.2 111.747 1610.84 108.613C1611.65 108.705 1612.47 108.819 1613.29 108.911L1613.27 108.934Z" fill="#020200"/>
<path d="M1625.67 111.152C1624.57 111.244 1623.65 110.786 1622.79 110.168C1623.93 109.985 1624.91 110.168 1625.67 111.152Z" fill="#FDBE00"/>
<path d="M1554 211.707C1552.62 209.237 1553.01 206.652 1553.56 204.067C1556.67 201.208 1560.22 203.221 1563.79 203.267C1561.09 201.231 1557.54 201.711 1555.16 199.538C1555.03 197.891 1556.38 196.702 1556.58 195.146C1560.26 192.036 1563.47 196.039 1567.13 195.787C1565.46 193.591 1561.96 194.117 1560.72 191.441C1566.51 185.105 1574.31 183.664 1582.25 182.749C1587.21 182.177 1592.22 182.543 1597.1 183.801C1600.21 184.83 1599.91 188.124 1601.28 190.297C1603.04 193.042 1604.71 193.591 1607.55 191.784C1610.91 189.634 1613.11 186.546 1615.19 183.32C1626.9 179.866 1638.32 180.598 1649.41 185.745C1651.13 186.546 1652.66 187.552 1653.81 189.085C1651.13 192.104 1646.97 191.395 1643.74 193.088C1641.64 194.186 1639.19 194.62 1637.47 196.61C1642.44 194.483 1647.42 192.47 1652.8 191.83C1654.95 191.578 1657.21 190.823 1658.95 192.951C1659.68 195.673 1662.77 197.571 1661.81 200.888C1658.08 203.152 1653.76 201.574 1649.83 202.741C1647.17 203.518 1644.36 203.839 1641.82 205.303C1647.15 203.381 1652.64 203.427 1658.15 203.633C1660.12 203.701 1662.34 203.244 1663.64 205.44C1663.16 208.848 1662.5 212.188 1660.94 215.299C1658.08 217.289 1655.2 215.619 1652.41 215.139C1648.2 214.429 1644.11 213.903 1640.08 215.871C1644.61 214.521 1649.12 215.322 1653.53 216.305C1655.32 216.694 1657.74 216.465 1658.29 219.119C1651.77 227.628 1642.44 230.602 1632.42 231.677C1625.35 232.432 1618.28 231.562 1611.46 229.275C1606.89 227.742 1602.56 227.811 1597.96 229.938C1591.49 232.912 1584.56 234.147 1577.35 233.347C1566.44 232.157 1559.58 225.661 1554.8 216.351C1555.32 212.302 1559.28 213.56 1561.59 212.096C1558.98 210.861 1556.38 213.24 1553.95 211.73L1554 211.707Z" fill="#FFE8A3"/>
<path d="M1597.78 475.906C1594.31 473.161 1592.32 469.501 1590.83 465.383C1586.78 454.038 1585.29 442.258 1584.26 430.363C1582.36 408.61 1583.17 386.787 1583.12 364.988C1583.12 356.044 1582.78 347.101 1582.57 338.157C1582.57 337.425 1582.32 336.647 1582.48 335.938C1582.75 334.611 1582.34 332.507 1584.52 332.621C1586.67 332.736 1586.14 334.748 1586.19 336.121C1587.15 358.835 1586.67 381.572 1587.01 404.309C1587.28 421.419 1587.95 438.575 1592.02 455.365C1592.54 457.538 1593.32 459.642 1593.87 461.792C1594.31 463.439 1594.63 464.583 1596.75 463.325C1597.92 462.639 1598.72 463.737 1599.04 464.995C1599.36 466.207 1598.9 467.625 1600.41 469.089C1601.37 466.802 1601.95 464.652 1602.15 462.387C1603.62 445.506 1604.94 428.625 1605.58 411.675C1606.45 388.595 1608.03 365.56 1611.05 342.64C1611.07 342.457 1611.07 342.274 1611.12 342.091C1611.55 340.17 1611.58 337.105 1614 337.471C1616.84 337.905 1615.31 340.787 1615.05 342.617C1613.13 356.273 1612.04 370.021 1611.07 383.768C1609.34 409.044 1608.79 434.389 1606.54 459.619C1606.2 463.531 1605.45 467.351 1604.23 471.079C1603.18 474.282 1601.21 476.134 1597.67 475.883L1597.76 475.929L1597.78 475.906Z" fill="#020100"/>
<path d="M1655.73 461.311C1655.84 448.822 1655.96 436.333 1656.07 423.843C1656.35 397.561 1657.42 371.324 1661.56 345.293C1661.86 343.463 1662.18 341.61 1662.5 339.78C1662.75 338.294 1662.91 336.487 1664.97 336.853C1666.64 337.127 1666.41 338.797 1666.27 340.055C1665.73 344.676 1665.13 349.296 1664.49 353.917C1661.93 372.399 1660.44 390.95 1660.3 409.616C1660.17 428.807 1659.69 447.999 1659.34 467.19C1659.3 469.249 1659.07 471.308 1658.06 473.137C1656.67 475.677 1654.36 476.043 1652.02 474.052C1649.85 472.2 1648.5 469.706 1647.24 467.213C1643.01 458.795 1640.84 449.737 1639.23 440.565C1635.6 419.657 1631.91 398.727 1629.44 377.637C1628.37 368.396 1627.73 359.086 1627 349.799C1626.86 348.107 1625.99 345.362 1628.53 345.133C1631.25 344.881 1630.45 347.695 1630.59 349.365C1633.08 382.098 1638.48 414.419 1644.61 446.649C1645.16 449.577 1646.01 452.436 1646.88 455.296C1648.55 460.854 1648.59 460.831 1653.6 462.501C1654.56 463.119 1654.86 464.148 1655.18 465.063C1655.27 464.857 1655.13 464.743 1655.13 464.583C1654.75 463.37 1655.23 462.341 1655.73 461.334V461.311Z" fill="#020100"/>
<path d="M1615.17 183.32C1614.94 189.817 1609.45 191.898 1605.22 194.895C1603.87 195.856 1602.43 194.62 1601.53 193.316C1599.54 190.389 1598.1 187.209 1597.1 183.824C1597.35 176.046 1599.25 168.384 1598.61 160.538C1596.52 157.678 1595.72 153.973 1592.7 151.8C1591.7 151.8 1592.2 152.6 1592.06 153.081C1590.6 160.927 1587.88 162.962 1578.86 162.985C1571.59 160.378 1571.08 159.737 1570.26 152.006C1567.93 151.251 1565.91 153.973 1563.54 152.829C1562.85 153.081 1562.16 153.447 1561.45 153.538C1560.72 153.63 1559.94 153.469 1559.67 152.6C1559.44 151.845 1559.49 151.045 1560.2 150.61C1561.59 149.718 1563.01 148.803 1564.54 148.163C1571.13 145.395 1578.02 144.091 1585.15 144.411C1597.14 144.96 1604.05 152.943 1603 165.021C1602.7 168.521 1602.29 172.043 1601.72 175.497C1601.3 177.991 1602.06 178.768 1604.62 178.723C1608.76 178.631 1612.83 179.112 1615.19 183.32H1615.17Z" fill="#010100"/>
<path d="M1618.71 159.188C1614.85 158.319 1614.62 157.747 1617 154.819C1627.2 142.124 1645.09 141.964 1655.61 154.476C1656.44 155.46 1657.21 156.512 1657.9 157.61C1658.52 158.616 1658.66 159.829 1657.65 160.629C1656.51 161.544 1655.66 160.355 1654.72 159.874C1652.48 158.914 1651.4 155.574 1649.14 155.78C1646.81 156.009 1646.9 159.646 1645.02 161.155C1644.31 161.727 1643.67 162.391 1642.85 162.825C1641.96 163.374 1641 163.74 1640.03 164.083C1639.53 164.175 1639.01 164.198 1638.48 164.198C1637.15 164.037 1635.92 164.724 1634.61 164.632C1629.51 163.694 1626.72 160.172 1625.07 155.597C1622.31 156.054 1621.37 159.165 1618.71 159.188Z" fill="#020101"/>
<path d="M1658.98 192.928C1651.57 192.699 1644.66 194.46 1638.23 198.143C1637.43 198.601 1636.7 199.195 1635.85 199.515C1635.44 199.653 1634.75 199.401 1634.34 199.104C1633.59 198.601 1633.75 197.777 1634.13 197.137C1635.12 195.444 1636.77 194.598 1638.44 193.728C1643.29 191.212 1648.52 190.091 1653.83 189.062C1659.37 188.833 1664.88 188.101 1670.44 188.307C1672.86 188.399 1675.24 188.604 1677.55 189.336C1679.02 189.794 1680.55 190.48 1679.93 192.333C1679.43 193.911 1678.01 193.5 1676.66 193.225C1670.81 192.081 1664.9 192.219 1659 192.928H1658.98Z" fill="#0C0903"/>
<path d="M1673.78 130.413C1673.78 133.135 1673.78 135.376 1673.78 137.618C1673.78 139.196 1673.46 140.82 1671.51 140.775C1669.93 140.729 1669.59 139.242 1669.57 137.87C1669.48 133.775 1669.45 129.681 1669.36 125.563C1669.34 124.259 1669.36 122.933 1669.07 121.675C1668.56 119.364 1667.49 118.975 1665.52 120.485C1662.64 122.658 1660.65 125.586 1659.14 128.834C1658.66 129.841 1658.36 130.939 1657.74 131.854C1657.33 132.471 1656.48 132.746 1655.75 132.288C1655.34 132.014 1655.09 131.488 1654.81 131.03C1654.72 130.893 1654.74 130.664 1654.74 130.481C1654.72 126.158 1662.2 116.619 1666.39 115.613C1669.36 114.904 1671.79 116.299 1672.5 119.776C1673.25 123.413 1673.41 127.164 1673.78 130.39V130.413Z" fill="#0B0800"/>
<path d="M1560.75 174.468C1560.72 175.406 1560.5 176.298 1559.9 177.053C1557.09 180.598 1549.47 180.942 1546.24 177.671C1543.43 174.811 1544.03 170.74 1547.53 168.772C1550.66 167.011 1557.09 168.178 1559.51 170.877C1560.45 171.929 1560.84 173.096 1560.77 174.445L1560.75 174.468Z" fill="#FF6D32"/>
<path d="M1560.7 191.464C1563.31 192.379 1565.96 193.225 1568.52 194.277C1569.51 194.689 1570.51 195.512 1570.01 196.862C1569.48 198.212 1568.45 198.006 1567.27 197.663C1563.77 196.61 1560.45 194.689 1556.58 195.192C1549.65 194.254 1542.88 195.398 1536.13 196.839C1535.24 197.022 1534.37 197.457 1533.5 197.754C1532.49 198.074 1531.62 197.823 1531.1 196.931C1530.37 195.65 1531.24 194.78 1532.15 194.163C1533.39 193.316 1534.83 192.95 1536.31 192.676C1544.39 191.189 1552.51 190.366 1560.72 191.487L1560.7 191.464Z" fill="#0E0A02"/>
<path d="M1663.67 205.417C1655.73 204.457 1647.84 203.908 1640.45 207.911C1639.3 208.528 1638.37 208.666 1637.68 207.453C1636.99 206.241 1637.75 205.257 1638.66 204.64C1641.16 202.947 1644.06 202.352 1646.92 201.689C1651.84 200.522 1656.85 201.071 1661.84 200.911C1664.9 201.437 1667.99 201.918 1671.03 202.512C1672.29 202.764 1673.5 203.199 1674.69 203.679C1675.81 204.136 1676.52 205.006 1676.13 206.287C1675.7 207.705 1674.44 207.568 1673.39 207.27C1670.21 206.378 1667.03 205.394 1663.67 205.44V205.417Z" fill="#0D0A06"/>
<path d="M1557.73 113.142C1555.8 115.453 1556.22 117.58 1556.13 119.547C1556.03 121.949 1556.29 124.374 1556.35 126.775C1556.35 127.668 1556.42 128.72 1555.19 128.926C1553.79 129.154 1553.22 128.262 1552.88 127.096C1552.83 126.913 1552.79 126.73 1552.76 126.547C1552.28 122.086 1552.14 117.626 1553.11 113.234C1553.54 111.267 1554.25 109.162 1556.67 108.705C1559.1 108.247 1560.63 109.803 1561.62 111.61C1563.93 115.842 1566.01 120.211 1568.14 124.534C1568.68 125.655 1568.57 126.775 1567.36 127.393C1566.08 128.056 1565.18 127.164 1564.64 126.181C1563.65 124.397 1562.85 122.521 1561.91 120.691C1560.68 118.266 1559.9 115.544 1557.7 113.097L1557.73 113.142Z" fill="#090700"/>
<path d="M1661.06 179.409C1660.12 179.409 1659.21 179.455 1658.27 179.409C1655.52 179.226 1653.56 177.488 1653.05 175.132C1652.57 172.913 1654.88 171.586 1656.69 170.785C1660.33 169.184 1664.12 168.361 1667.97 170.282C1671.12 171.86 1671.4 174.56 1668.7 176.847C1666.18 178.974 1664.79 179.455 1661.06 179.432V179.409Z" fill="#FF6C32"/>
<path d="M1555.17 199.562C1558.28 199.996 1561.41 200.202 1564.36 201.483C1565.78 202.101 1567.38 202.65 1566.67 204.548C1566.01 206.287 1564.52 205.463 1563.33 205.028C1560.15 203.862 1556.95 203.13 1553.56 204.091C1548.33 204.068 1543.41 205.577 1538.47 207.019C1536.98 207.453 1534.94 208.597 1534.26 206.401C1533.59 204.297 1535.83 203.702 1537.32 203.221C1543.11 201.3 1549.19 200.682 1555.17 199.584V199.562Z" fill="#0F0B04"/>
<path d="M1658.31 219.096C1651.86 217.175 1645.43 215.23 1638.75 218.181C1637.82 218.593 1636.88 218.41 1636.35 217.472C1635.6 216.168 1636.51 215.253 1637.47 214.773C1641.45 212.783 1645.71 212.577 1650.01 213.24C1653.69 213.812 1657.33 214.59 1660.97 215.276C1662.91 216.603 1665.45 216.832 1667.17 218.593C1668.13 219.576 1668.81 220.674 1667.74 221.933C1666.76 223.076 1665.75 222.299 1664.88 221.681C1662.89 220.286 1660.69 219.508 1658.31 219.096Z" fill="#0C0804"/>
<path d="M1578.68 162.482C1586.96 162.757 1591.49 158.022 1590.83 151.319C1590.78 150.222 1591.1 149.558 1592.38 150.039C1596.25 152.486 1598.95 155.62 1598.63 160.538C1592.41 164.381 1585.59 164.358 1578.68 163.466C1578.43 163.237 1578.36 163.008 1578.45 162.802C1578.54 162.596 1578.64 162.482 1578.73 162.482H1578.68Z" fill="#F9EEC4"/>
<path d="M1618.71 159.188C1620.45 156.306 1623.13 154.407 1626.45 151.617C1626.2 158.25 1629.28 161.842 1634.55 163.694C1635.21 164.449 1636.49 163.923 1637.06 164.884C1629.74 166.851 1623.36 165.867 1618.74 159.188H1618.71Z" fill="#F8EDC1"/>
<path d="M1578.68 162.482C1578.68 162.802 1578.68 163.145 1578.66 163.466C1574.15 163.054 1570.26 161.201 1566.85 158.296C1565.11 156.832 1563.83 155.139 1563.56 152.829C1565.98 151.159 1568.59 150.084 1572 149.855C1570.47 156.237 1572.89 160.332 1578.7 162.505L1578.68 162.482Z" fill="#F5EBBF"/>
<path d="M1554 211.707C1556.63 210.953 1559.17 209.534 1562.07 210.266C1563.51 210.632 1565.32 210.815 1565.07 212.828C1564.82 214.727 1563.12 214.086 1561.91 213.995C1559.21 213.789 1556.74 214.178 1554.84 216.351C1553.15 216.831 1552.01 217.998 1551.11 219.416C1550.31 220.674 1549.37 221.475 1548.05 220.217C1546.9 219.096 1547.41 217.861 1548.16 216.74C1549.65 214.544 1552.17 213.56 1553.97 211.753L1554 211.707Z" fill="#110D05"/>
<path d="M1642.41 162.391C1645.09 159.714 1647.15 156.741 1647.26 152.44C1650.83 154.133 1653.28 156.489 1654.72 159.852C1650.9 161.819 1647.15 163.992 1642.64 163.878C1642.44 163.763 1642.25 163.649 1642.05 163.534C1641.89 163.077 1641.98 162.688 1642.39 162.391H1642.41Z" fill="#F3EABD"/>
<path d="M1791.27 177.007C1790.97 178.334 1791.04 180.187 1788.96 180.095C1787.43 180.026 1786.9 178.654 1786.85 177.259C1786.81 175.68 1787.68 174.834 1789.26 174.857C1790.6 174.857 1791.31 175.543 1791.27 177.007Z" fill="#FFE391"/>
<path d="M1698.33 376.768C1696.66 376.562 1696.2 375.647 1696.15 374.481C1696.08 372.811 1696.91 371.69 1698.55 371.393C1699.61 371.21 1700.43 371.873 1700.34 372.857C1700.2 374.458 1699.7 375.99 1698.33 376.745V376.768Z" fill="#FFE189"/>
<path d="M1555.12 316.883C1553.84 316.975 1552.99 316.426 1553.08 315.374C1553.24 313.612 1554.68 312.995 1556.19 312.697C1557.2 312.492 1558.21 312.88 1558.27 313.978C1558.41 316.266 1556.35 316.266 1555.12 316.883Z" fill="#FFE28E"/>
<path d="M1794.63 138.075C1794.7 139.448 1794.08 140.546 1792.71 140.843C1791.48 141.118 1790.56 140.34 1790.61 139.082C1790.65 137.732 1791.48 136.68 1792.85 136.429C1793.9 136.246 1794.4 137.046 1794.63 138.075Z" fill="#FEDF81"/>
<path d="M1808.13 179.546C1809.62 179.592 1810.33 180.141 1810.39 181.193C1810.46 182.497 1809.62 183.298 1808.4 183.412C1807.15 183.549 1806.21 182.863 1806.23 181.536C1806.25 180.187 1807.51 179.935 1808.11 179.546H1808.13Z" fill="#FEDD78"/>
<path d="M1554.55 263.221C1554.59 261.917 1555.42 261.253 1556.61 261.048C1557.77 260.842 1559.03 260.979 1559.03 262.466C1559.03 263.724 1557.91 264.341 1556.72 264.456C1555.78 264.547 1554.84 264.456 1554.55 263.221Z" fill="#FEE085"/>
<path d="M1766.75 156.672C1765.24 156.672 1764.53 156.123 1764.48 155.071C1764.44 153.79 1765.26 152.99 1766.47 152.852C1767.73 152.715 1768.65 153.424 1768.62 154.751C1768.62 156.146 1767.32 156.283 1766.75 156.672Z" fill="#FEDE7E"/>
<path d="M1782.14 151.205C1780.68 151.159 1779.6 150.542 1779.51 149.009C1779.44 147.98 1780.15 147.248 1781.16 147.202C1782.39 147.156 1783.2 147.98 1783.45 149.146C1783.68 150.199 1783.17 150.885 1782.14 151.182V151.205Z" fill="#FFDF81"/>
<path d="M1802.32 232.043C1802.04 233.369 1800.95 233.987 1799.6 234.056C1798.57 234.101 1797.9 233.415 1798.04 232.294C1798.2 230.785 1799.23 230.007 1800.63 230.053C1801.54 230.098 1802.3 230.739 1802.3 232.02L1802.32 232.043Z" fill="#FEE188"/>
<path d="M1574.95 135.696C1574.63 137.023 1573.78 137.687 1572.59 137.435C1571.72 137.275 1570.9 136.611 1571.08 135.513C1571.29 134.278 1572.21 133.615 1573.39 133.821C1574.29 133.981 1574.95 134.69 1574.97 135.674L1574.95 135.696Z" fill="#FEDC75"/>
<path d="M1769.72 165.41C1769.81 166.737 1768.99 167.08 1768.05 167.103C1766.88 167.149 1765.9 166.691 1765.74 165.364C1765.62 164.335 1766.11 163.466 1767.07 163.329C1768.55 163.146 1769.26 164.244 1769.7 165.41H1769.72Z" fill="#FFE28E"/>
<path d="M1820.32 149.878C1819.2 149.673 1818.33 149.101 1818.45 147.797C1818.54 146.836 1819.27 146.173 1820.25 146.173C1821.49 146.173 1822.29 146.973 1822.2 148.232C1822.11 149.169 1821.42 149.787 1820.32 149.878Z" fill="#FEDB73"/>
<path d="M1765.4 260.292C1766.59 260.384 1767.43 261.002 1767.41 262.305C1767.41 263.312 1766.68 263.998 1765.7 264.044C1764.46 264.112 1763.61 263.381 1763.61 262.1C1763.61 261.07 1764.39 260.567 1765.37 260.292H1765.4Z" fill="#FEDD77"/>
<path d="M1640.01 260.43C1639.44 261.619 1638.5 262.443 1637.02 262.122C1635.87 261.871 1635.6 260.887 1636.01 259.995C1636.58 258.714 1637.7 258.028 1639.14 258.577C1639.85 258.851 1640.24 259.515 1639.99 260.453L1640.01 260.43Z" fill="#FFE493"/>
<path d="M1706.6 413.207C1707.4 413.367 1708.14 413.733 1708.11 414.557C1708.09 416.066 1707.11 416.913 1705.69 417.027C1704.98 417.073 1704.27 416.409 1704.25 415.609C1704.2 414.053 1705.16 413.344 1706.58 413.207H1706.6Z" fill="#FEE187"/>
<path d="M1797.03 162.848C1796.81 163.535 1796.6 164.335 1795.69 164.289C1794.43 164.221 1793.72 163.443 1793.65 162.208C1793.58 161.11 1794.27 160.401 1795.27 160.492C1796.55 160.607 1797.03 161.613 1797.03 162.848Z" fill="#FFE28B"/>
<path d="M1530.46 361.534C1530.21 362.884 1529.15 363.089 1528.03 363.021C1527.07 362.952 1526.18 362.472 1526.36 361.374C1526.59 360.162 1527.62 359.635 1528.81 359.727C1529.8 359.818 1530.41 360.436 1530.46 361.534Z" fill="#FEDF82"/>
<path d="M1804.72 138.007C1805.66 138.121 1806.62 138.67 1806.57 139.997C1806.53 141.186 1805.5 141.324 1804.54 141.278C1803.49 141.232 1802.73 140.637 1802.71 139.631C1802.68 138.602 1803.35 137.961 1804.74 138.03L1804.72 138.007Z" fill="#FFE28C"/>
<path d="M1776.88 189.588C1777.89 189.588 1778.73 189.886 1778.89 190.961C1779.1 192.425 1778.05 192.814 1776.88 192.837C1775.99 192.837 1774.91 192.814 1774.82 191.624C1774.71 190.252 1775.74 189.817 1776.88 189.588Z" fill="#FFE391"/>
<path d="M1573.46 287.97C1574.77 287.902 1575.66 288.542 1575.89 289.777C1576.03 290.532 1575.48 291.173 1574.63 291.287C1573.46 291.447 1572.34 291.333 1572.05 289.938C1571.82 288.84 1572.48 288.245 1573.49 287.97H1573.46Z" fill="#FFE28C"/>
<path d="M1628.34 137.137C1628.3 138.212 1627.75 138.853 1626.7 138.944C1625.64 139.036 1624.89 138.533 1624.77 137.48C1624.66 136.428 1625.3 135.788 1626.35 135.696C1627.41 135.605 1628.05 136.199 1628.34 137.137Z" fill="#FFE28C"/>
<path d="M1682.52 288.794C1681.49 288.565 1680.8 287.993 1680.94 286.941C1681.08 285.82 1682.01 285.523 1682.95 285.591C1683.94 285.66 1684.76 286.117 1684.49 287.307C1684.26 288.29 1683.48 288.771 1682.49 288.817L1682.52 288.794Z" fill="#FEE084"/>
<path d="M1639.85 121.171C1639.71 122.246 1639.1 122.91 1638.14 122.887C1637.06 122.887 1636.7 121.995 1636.7 121.034C1636.7 120.051 1637.18 119.204 1638.25 119.364C1639.17 119.479 1639.78 120.188 1639.83 121.171H1639.85Z" fill="#FEDC74"/>
<path d="M1814.47 158.685C1814.4 159.44 1814.12 160.103 1813.28 160.218C1811.77 160.401 1810.87 159.669 1810.71 158.182C1810.62 157.267 1811.42 156.924 1812.11 156.878C1813.34 156.809 1814.1 157.541 1814.47 158.685Z" fill="#FEE083"/>
<path d="M1838.51 162.505C1839.4 162.505 1840.11 162.779 1840.22 163.603C1840.39 164.861 1839.68 165.662 1838.51 165.913C1837.5 166.119 1836.66 165.707 1836.66 164.586C1836.66 163.374 1837.43 162.665 1838.53 162.505H1838.51Z" fill="#FEDF82"/>
<path d="M1752.58 293.437C1752.17 294.512 1751.53 295.382 1750.18 295.016C1749.43 294.81 1748.9 294.146 1749.11 293.323C1749.4 292.134 1750.21 291.379 1751.51 291.722C1752.26 291.905 1752.74 292.477 1752.58 293.437Z" fill="#FEDC74"/>
<path d="M1824.49 232.775C1823.44 232.363 1822.61 231.723 1822.91 230.419C1823.09 229.595 1823.82 229.184 1824.49 229.298C1825.68 229.527 1826.27 230.396 1826.04 231.654C1825.91 232.5 1825.29 232.775 1824.46 232.775H1824.49Z" fill="#FFE596"/>
<path d="M1786.81 214.91C1786.69 215.962 1786.03 216.671 1785.05 216.648C1783.97 216.626 1783.38 215.779 1783.67 214.727C1783.93 213.812 1784.63 213.126 1785.73 213.286C1786.6 213.423 1786.9 214.064 1786.81 214.91Z" fill="#FFE28E"/>
<path d="M1669.11 150.633C1669.09 150.885 1668.42 151.297 1667.69 151.274C1666.69 151.228 1666.05 150.61 1666.18 149.467C1666.3 148.598 1666.96 148.14 1667.67 148.163C1668.68 148.209 1669.29 148.872 1669.09 150.633H1669.11Z" fill="#FEDE7E"/>
<path d="M1547.55 116.916C1548.87 116.779 1549.47 117.465 1549.56 118.472C1549.61 119.227 1549.19 119.89 1548.26 119.959C1547.13 120.05 1546.43 119.455 1546.38 118.403C1546.36 117.671 1546.81 117.008 1547.55 116.894V116.916Z" fill="#FEE085"/>
<path d="M1840.55 211.731C1840.59 212.966 1840.07 213.652 1839.08 213.789C1838.03 213.927 1837.37 213.24 1837.37 212.257C1837.37 211.25 1838.1 210.655 1839.11 210.678C1839.86 210.678 1840.43 211.09 1840.55 211.731Z" fill="#FEE18A"/>
<path d="M1675.61 259.927C1676.64 260.133 1677.25 260.75 1677.21 261.802C1677.16 262.626 1676.7 263.221 1675.86 263.221C1674.53 263.198 1673.82 262.443 1674.01 261.093C1674.12 260.224 1674.85 259.995 1675.61 259.927Z" fill="#FFE495"/>
<path d="M1827.12 156.764C1827.03 157.427 1826.55 157.93 1825.75 157.976C1824.67 158.022 1824.01 157.359 1823.94 156.352C1823.87 155.3 1824.58 154.659 1825.61 154.751C1826.61 154.842 1827.19 155.529 1827.12 156.764Z" fill="#FFE493"/>
<path d="M1583.83 130.87C1582.96 130.596 1582.18 130.115 1582.23 129.017C1582.27 127.965 1582.94 127.302 1583.99 127.462C1585.07 127.622 1585.45 128.537 1585.36 129.52C1585.29 130.298 1584.77 130.824 1583.85 130.87H1583.83Z" fill="#FEDE7D"/>
<path d="M1531.51 162.002C1531.35 162.756 1531.05 163.42 1530.18 163.511C1529.04 163.649 1528.4 163.031 1528.35 161.979C1528.33 161.247 1528.74 160.561 1529.63 160.446C1530.78 160.309 1531.28 160.972 1531.51 161.979V162.002Z" fill="#FEE188"/>
<path d="M1707.25 354.489C1707.04 355.495 1706.49 356.136 1705.37 356.022C1704.46 355.93 1704.07 355.244 1704.11 354.512C1704.18 353.505 1704.78 352.819 1705.92 352.956C1706.81 353.071 1707.06 353.757 1707.22 354.489H1707.25Z" fill="#FFE085"/>
<path d="M1660.19 113.646C1660.35 114.881 1659.73 115.453 1658.75 115.567C1658.01 115.659 1657.33 115.338 1657.12 114.538C1656.85 113.531 1657.26 112.754 1658.27 112.502C1659.3 112.228 1659.94 112.799 1660.19 113.646Z" fill="#FEE18A"/>
<path d="M1614.18 169.047C1613.98 170.054 1613.27 170.465 1612.29 170.351C1611.28 170.237 1610.57 169.642 1610.68 168.635C1610.78 167.675 1611.53 167.057 1612.56 167.217C1613.54 167.354 1614.07 168.018 1614.18 169.047Z" fill="#FEDD78"/>
<path d="M1599.48 132.357C1600.23 132.517 1600.89 132.791 1600.99 133.684C1601.1 134.804 1600.48 135.514 1599.45 135.491C1598.45 135.491 1597.78 134.782 1597.92 133.638C1598.03 132.746 1598.72 132.517 1599.48 132.334V132.357Z" fill="#FEE085"/>
<path d="M1671.33 104.496C1672.22 104.633 1672.75 105.25 1672.68 106.28C1672.63 107.058 1672.18 107.584 1671.35 107.652C1670.3 107.721 1669.61 107.149 1669.57 106.165C1669.52 105.182 1670.14 104.541 1671.33 104.496Z" fill="#FEE188"/>
<path d="M1549.49 140.706C1549.49 139.722 1549.81 138.853 1550.86 138.624C1551.94 138.418 1552.58 139.082 1552.65 140.111C1552.72 141.186 1551.92 141.804 1551 141.964C1550.2 142.101 1549.72 141.461 1549.49 140.683V140.706Z" fill="#FFE086"/>
<path d="M1792.05 150.038C1790.97 149.993 1790.31 149.421 1790.35 148.391C1790.4 147.362 1791.13 146.836 1792.16 146.882C1792.96 146.927 1793.51 147.362 1793.56 148.185C1793.63 149.238 1793.01 149.787 1792.05 150.015V150.038Z" fill="#FEE28B"/>
<path d="M1656.48 255.169C1656.23 254.894 1655.57 254.505 1655.59 254.162C1655.7 252.515 1657.08 252.424 1658.29 252.332C1658.82 252.287 1659.25 252.813 1659.02 253.43C1658.63 254.505 1657.92 255.26 1656.46 255.169H1656.48Z" fill="#FEE28B"/>
<path d="M1607.62 151.365C1608.49 151.457 1608.92 152.051 1608.9 152.829C1608.9 153.584 1608.44 154.316 1607.57 154.225C1606.61 154.133 1605.88 153.538 1606.02 152.44C1606.13 151.548 1606.86 151.388 1607.62 151.365Z" fill="#FEDD78"/>
<path d="M1584.97 117.671C1584.76 118.563 1584.1 118.815 1583.32 118.769C1582.41 118.724 1581.97 118.037 1582.04 117.26C1582.11 116.207 1582.75 115.521 1583.92 115.956C1584.67 116.23 1585.08 116.825 1584.99 117.671H1584.97Z" fill="#FFE187"/>
<path d="M1822.52 194.071C1822.45 194.849 1821.67 195.078 1820.96 195.078C1819.96 195.055 1819.25 194.506 1819.36 193.339C1819.46 192.47 1820.12 191.99 1820.87 192.081C1821.81 192.196 1822.57 192.768 1822.52 194.071Z" fill="#FEE084"/>
<path d="M1642.48 131.739C1642.35 132.585 1641.82 133.18 1641.04 133.02C1640.1 132.837 1639.37 132.174 1639.62 131.053C1639.83 130.206 1640.54 130 1641.34 130.138C1642.21 130.298 1642.46 130.938 1642.48 131.716V131.739Z" fill="#FEDE7E"/>
<path d="M1690.11 174.217C1689.9 174.949 1689.58 175.589 1688.76 175.703C1687.94 175.818 1687.39 175.429 1687.25 174.583C1687.09 173.508 1687.55 172.798 1688.67 172.821C1689.47 172.821 1689.88 173.462 1690.11 174.217Z" fill="#FEE38F"/>
<path d="M1537.09 146.745C1537.09 147.66 1536.75 148.254 1535.97 148.437C1534.85 148.689 1534.28 147.98 1534.19 147.019C1534.12 146.196 1534.81 145.738 1535.58 145.715C1536.29 145.715 1537.02 145.898 1537.12 146.722L1537.09 146.745Z" fill="#FEDF7F"/>
<path d="M1612.01 128.605C1611.21 128.445 1610.62 127.919 1610.62 127.164C1610.62 126.409 1611.23 125.815 1612.04 125.792C1612.9 125.746 1613.36 126.387 1613.34 127.164C1613.34 127.942 1612.86 128.514 1612.01 128.605Z" fill="#FFE79E"/>
<path d="M1675.52 117.168C1674.76 116.985 1674.14 116.482 1674.14 115.75C1674.14 114.652 1674.95 114.24 1675.97 114.423C1676.8 114.56 1677.16 115.109 1677.05 115.933C1676.91 116.779 1676.27 117.031 1675.54 117.168H1675.52Z" fill="#FEDE7D"/>
<path d="M1844.71 188.353C1844.66 189.268 1844.14 189.885 1843.38 189.885C1842.65 189.885 1842.1 189.268 1842.1 188.422C1842.1 187.781 1842.58 187.438 1843.15 187.369C1843.95 187.255 1844.57 187.552 1844.73 188.353H1844.71Z" fill="#FFE8A1"/>
<path d="M1557.34 101.614C1557.2 102.437 1556.7 102.872 1555.9 102.78C1555.07 102.689 1554.68 102.048 1554.77 101.294C1554.87 100.493 1555.46 100.081 1556.26 100.127C1557.2 100.173 1557.29 100.905 1557.36 101.637L1557.34 101.614Z" fill="#FFE494"/>
<path d="M1654.72 465.864C1654.22 464.788 1653.51 463.782 1653.6 462.501C1654.31 462.112 1655.02 461.723 1655.73 461.312C1655.73 462.775 1655.73 464.262 1655.73 465.726C1655.45 466.321 1655.11 466.367 1654.7 465.864H1654.72Z" fill="#C28B00"/>
<path d="M1720.97 317.981C1720.31 318.096 1720.01 317.684 1719.9 317.158C1719.74 316.494 1720.19 316.22 1720.72 316.083C1721.38 315.923 1721.66 316.38 1721.79 316.906C1721.98 317.57 1721.5 317.798 1720.97 317.981Z" fill="#FFE8A1"/>
<path d="M1682.52 156.1C1683.18 155.986 1683.57 156.329 1683.64 156.923C1683.66 157.198 1683.46 157.678 1683.2 157.793C1682.68 158.067 1682.08 157.907 1681.85 157.358C1681.65 156.832 1681.95 156.329 1682.52 156.077V156.1Z" fill="#FFE69A"/>
<path d="M1637.06 164.884C1636.08 164.792 1635.14 164.609 1634.54 163.694C1636.08 163.694 1637.63 163.694 1639.16 163.717C1639.48 163.946 1639.58 164.175 1639.46 164.381C1639.35 164.564 1639.21 164.655 1639.1 164.655C1638.41 164.724 1637.75 164.792 1637.06 164.884Z" fill="#C7E5B9"/>
<path d="M1639.1 164.678C1639.1 164.358 1639.14 164.06 1639.19 163.74C1639.44 163.488 1639.72 163.443 1640.01 163.603C1640.81 163.1 1641.61 163.031 1642.41 163.603L1642.67 163.9C1641.61 164.792 1640.38 164.838 1639.1 164.701V164.678Z" fill="#F3EABD"/>
<path d="M1603.71 210.861C1598.7 216.374 1595.17 217.358 1590.32 214.841C1586.85 213.057 1584.47 208.94 1585.09 205.715C1585.27 204.754 1585.7 203.907 1586.87 203.999C1587.65 204.068 1588.27 204.479 1588.45 205.303C1588.7 206.378 1588.75 207.544 1589.2 208.528C1590.46 211.181 1592.73 212.257 1595.61 212.074C1598.31 211.913 1599.43 210.106 1599.98 207.727C1600.39 205.92 1600.76 204.09 1601.26 202.306C1601.47 201.574 1602.13 201.094 1602.91 201.025C1603.73 200.98 1604.35 201.529 1604.65 202.215C1605.01 203.061 1605.31 203.953 1605.42 204.868C1605.9 208.162 1608.08 209.718 1611.12 210.083C1614 210.427 1616.24 208.963 1617.52 206.492C1618.9 203.862 1619.97 201.071 1621 198.28C1621.48 196.977 1621.87 195.604 1623.54 196.016C1625.19 196.405 1625.14 197.914 1624.8 199.195C1623.72 203.153 1622.47 207.087 1619.81 210.312C1615.76 215.184 1610.23 215.367 1603.73 210.838L1603.71 210.861Z" fill="#070604"/>
<path d="M1654.72 465.864C1655.07 465.818 1655.41 465.772 1655.75 465.727C1655.75 466.321 1656.19 467.099 1655.16 467.213C1655.07 467.213 1654.88 466.321 1654.72 465.864Z" fill="#714C00"/>
<path d="M1592.36 150.038C1591.86 150.473 1591.33 150.885 1590.83 151.319C1590.32 150.816 1589.77 150.084 1590.28 149.535C1591.01 148.757 1591.83 149.123 1592.38 150.038H1592.36Z" fill="#81A387"/>
<path d="M1642.39 163.603C1641.59 163.603 1640.79 163.603 1640.01 163.603C1640.63 162.802 1641.48 162.528 1642.44 162.414C1642.44 162.802 1642.44 163.214 1642.41 163.603H1642.39Z" fill="#C7E5B9"/>
</g>
<g clip-path="url(#clip4_412_6490)">
<path d="M279.733 74.2602C273.995 73.1912 268.257 72.1221 262.544 71.0282C259.551 70.4564 256.534 70.3073 253.517 70.357C251.835 70.357 250.104 70.6305 250.005 72.7685C249.881 74.9066 251.612 75.3293 253.245 75.6276C255.223 75.9756 257.227 76.274 259.205 76.5475C267.144 77.6911 275.034 79.0585 283.69 81.5197C279.065 85.5721 275.034 89.0776 271.052 92.6328C269.098 94.373 267.07 96.0885 265.908 98.5249C265.463 99.4696 265.364 100.514 266.106 101.384C267.021 102.453 268.282 102.602 269.395 101.956C270.582 101.26 271.596 100.215 272.635 99.2707C276.37 95.9145 280.08 92.5333 284.977 88.108C284.16 92.5084 283.69 95.5167 283.023 98.4752C282.454 101.061 282.132 103.671 282.454 106.306C282.652 107.922 283.616 108.992 285.224 108.917C286.535 108.867 287.301 107.798 287.524 106.481C288.241 102.503 288.909 98.5 289.676 94.5471C290.121 92.2598 290.764 89.9975 291.555 86.7158C295.166 91.4643 297.788 95.6161 299.717 100.215C300.36 101.732 301.498 102.528 303.056 101.956C304.862 101.285 305.307 99.7431 304.639 97.9779C304.144 96.6603 303.551 95.3675 302.858 94.1244C301.3 91.3151 299.668 88.5555 298.06 85.7462C300.434 84.2296 302.166 85.7462 304.021 86.1688C305.455 86.5169 306.964 86.6909 307.607 85.0003C308.324 83.1357 307.31 81.7683 305.653 81.1468C303.031 80.1524 300.311 79.4314 297.343 78.5115C297.788 76.1497 299.94 75.2298 301.473 73.8873C303.749 71.8984 306.222 70.1332 308.646 68.3184C309.907 67.3736 310.773 66.3046 309.932 64.7632C308.942 62.9732 307.36 62.998 305.801 63.9428C304.243 64.8875 302.759 65.9317 301.3 66.9758C299.692 68.1443 298.134 69.3625 296.428 70.6553C295.117 68.5918 296.131 66.951 296.453 65.2853C296.749 63.6941 296.279 62.4262 294.647 61.9787C292.965 61.5312 292.001 62.5505 291.407 63.9925C290.566 65.9814 290.616 68.3184 288.785 70.5807C285.892 66.2797 283.097 62.1279 280.277 58.0009C279.263 56.5092 278.175 55.0424 277.037 53.6004C275.924 52.1833 274.465 51.4375 272.833 52.5065C271.077 53.675 271.571 55.3407 272.511 56.7827C275.281 61.0091 278.101 65.1858 280.896 69.4123C281.563 70.4067 282.108 71.5006 282.701 72.5448C282.948 75.2547 281.415 74.832 279.758 74.2602H279.733Z" fill="#F9C801"/>
<path d="M229.147 153.688C232.659 156.547 234.736 159.357 236.344 162.589C237.036 163.981 238.001 164.975 239.658 164.404C241.364 163.832 241.29 162.265 241.191 160.848C240.919 157.393 237.778 155.503 236.368 152.246C238.322 150.705 240.573 151.675 242.576 151.451C244.085 151.277 245.445 150.804 245.445 149.014C245.445 147.274 244.159 146.528 242.651 146.454C240.078 146.329 237.481 146.429 234.39 146.429C235.231 143.296 237.481 142.128 238.99 140.387C239.905 139.318 241.043 138.423 241.859 137.28C242.601 136.236 242.651 134.943 241.735 133.923C240.746 132.83 239.509 133.028 238.471 133.824C235.948 135.738 233.524 137.777 230.408 140.263C230.284 137.678 230.235 135.788 230.111 133.874C229.987 132.084 229.245 130.642 227.242 130.667C225.387 130.692 225.189 132.208 225.041 133.7C224.917 135.042 225.486 136.584 223.705 137.727C221.084 136.36 219.526 133.675 217.349 131.686C216.31 130.741 215.395 129.622 214.257 128.802C213.021 127.882 211.636 127.783 210.473 129.051C209.459 130.145 209.756 131.363 210.523 132.357C212.007 134.272 213.565 136.111 215.173 137.901C217.275 140.238 219.476 142.476 221.009 145.782C216.31 145.459 211.586 145.136 206.887 144.763C205.898 144.688 204.933 144.316 203.919 144.241C202.584 144.142 201.52 144.788 201.124 146.081C200.63 147.672 201.397 149.039 202.905 149.437C206.195 150.332 209.509 151.128 212.947 151.202C214.876 151.252 216.854 151.003 219.056 151.849C218.165 154.782 215.667 156.174 214.455 158.412C213.664 159.879 212.749 161.37 214.455 162.738C216.063 164.031 217.497 163.185 218.685 161.942C219.773 160.799 220.787 159.58 222.172 158.014C223.235 159.754 222.79 161.346 222.815 162.812C222.84 164.826 222.617 166.865 222.741 168.879C222.864 171.017 222.543 174.025 225.56 174.025C228.949 174.025 227.761 170.843 227.935 168.854C228.38 164.105 228.701 159.357 229.122 153.688H229.147Z" fill="#74CCB5"/>
<path d="M248.089 66.2511C248.782 66.5991 249.449 67.0964 250.191 67.2207C250.909 67.345 252.219 67.2207 252.318 66.8975C252.689 65.8533 251.873 65.0826 251.007 64.5356C250.414 65.7787 249.227 65.9776 248.064 66.2511H248.089Z" fill="#FDF3C8"/>
</g>
<path d="M492.819 200.322C492.667 202.741 492.493 205.16 492.384 207.601C492.297 209.432 493.08 210.936 494.996 210.892C496.606 210.87 497.412 209.41 497.477 207.885C497.651 203.984 497.869 200.104 499.044 196.291C500.829 196.247 501.242 197.816 502.026 198.906C506.14 204.681 510.232 210.478 514.345 216.275C514.846 216.994 515.303 217.8 515.978 218.345C517.284 219.391 518.829 218.65 519.069 216.972C519.352 215.011 518.242 213.616 517.219 212.134C513.214 206.315 509.231 200.475 505.008 194.286C507.511 193.915 509.187 194.896 510.863 195.637C512.365 196.312 514.041 197.206 515.042 195.288C516.239 193.065 514.258 192.106 512.713 191.3C511.146 190.494 509.426 189.992 507.794 189.338C507.01 189.033 505.987 189.099 505.378 187.486C509.274 183.541 513.692 179.88 518.677 176.895C519.743 176.263 520.897 175.761 521.898 175.042C522.812 174.388 523.378 173.451 522.704 172.296C522.094 171.25 521.049 170.858 519.961 171.228C516.914 172.253 514.084 173.713 511.581 175.74C508.338 178.376 505.095 181.013 501.351 184.065C500.546 180.97 500.872 178.573 501.46 176.241C501.982 174.127 502.113 172.013 501.743 169.899C501.547 168.787 500.785 167.981 499.545 167.959C498.195 167.959 497.782 168.918 497.608 170.03C497.15 173.19 496.693 176.328 496.193 179.706C494.082 179.575 493.45 177.723 492.493 176.393C488.096 170.378 483.765 164.32 479.39 158.305C478.867 157.586 478.388 156.823 477.801 156.169C476.908 155.167 475.776 154.578 474.514 155.363C472.99 156.3 472.947 157.738 473.861 159.046C476.56 162.99 479.368 166.87 482.154 170.771C485.027 174.802 487.878 178.834 491.404 183.781C486.398 182.692 482.393 181.885 478.41 180.97C475.602 180.316 472.773 180.425 469.943 180.534C468.485 180.578 467.614 181.471 467.527 182.866C467.462 184.152 468.485 184.566 469.573 184.893C471.467 185.438 473.382 185.655 475.319 185.83C481.675 186.462 487.748 188.292 493.994 190.167C492.993 192.804 490.773 193.763 489.141 195.288C482.415 201.586 475.689 207.928 469.029 214.292C468.028 215.251 467.223 216.449 466.395 217.604C465.851 218.389 465.851 219.304 466.504 220.067C467.288 221.004 468.354 221.287 469.356 220.677C470.553 219.936 471.619 218.977 472.642 218.018C478.345 212.679 484.004 207.318 489.707 202C490.555 201.216 491.208 199.93 492.863 200.257L492.819 200.322Z" fill="#FF8BB0"/>
<path d="M0 584C0 542.579 33.5786 509 75 509H1845C1886.42 509 1920 542.579 1920 584V678H0V584Z" fill="white"/>
<g clip-path="url(#clip5_412_6490)">
<path d="M1212.02 57.5694C1220.13 57.5694 1225.73 57.4883 1231.36 57.5694C1236.67 57.6504 1240.89 59.9209 1243.97 64.2185C1250.91 73.9896 1247.09 83.5579 1235.26 85.1391C1228.08 86.1122 1220.78 85.8689 1213.65 87.2879C1211.42 87.7339 1209.1 88.1799 1207 88.9908C1204.16 90.0854 1201.16 91.8288 1201.89 95.3156C1202.62 98.8834 1206.15 97.6266 1208.54 97.6266C1213.81 97.6266 1219.08 96.9779 1224.35 97.1806C1230.39 97.4644 1232.58 100.505 1231.28 106.384C1229.54 114.25 1223.5 117.412 1216.44 119.074C1213.24 119.845 1209.92 120.007 1206.71 120.737C1205.54 120.98 1204.24 121.791 1204.56 123.534C1204.89 125.156 1206.35 125.399 1207.56 125.521C1210.24 125.804 1212.79 125.115 1215.23 124.021C1220.66 121.669 1226.09 119.277 1231.16 116.115C1233.67 114.533 1236.27 112.952 1239.03 111.979C1246.73 109.222 1250.82 111.655 1252.73 119.682C1256.01 133.508 1249.08 145.955 1235.13 149.279C1219.32 153.009 1203.19 154.023 1187.09 150.617C1178.45 148.793 1172.86 142.792 1172.33 134.319C1171.4 119.52 1170.83 104.681 1170.34 89.8827C1170.22 85.95 1170.99 82.0172 1171.4 78.0845C1172.53 67.3809 1179.1 61.9481 1188.99 59.3533C1197.47 57.1234 1206.02 57.8126 1212.06 57.5288L1212.02 57.5694Z" fill="#D7E01E"/>
<path d="M826.818 105.085C826.818 114.005 826.94 122.924 826.818 131.844C826.535 147.372 816.885 155.481 801.519 153.292C794.951 152.359 791.545 148.832 791.059 142.223C790.816 138.615 790.978 134.925 792.072 131.438C793.086 128.073 793.086 125.722 788.586 125.276C782.707 124.708 779.95 125.965 779.666 130.263C779.544 132.168 780.234 134.155 780.477 136.101C781.45 143.439 779.544 147.21 773.666 149.764C766.651 152.805 759.759 151.548 755.664 146.399C751.61 141.25 750.556 134.966 749.664 128.803C747.393 113.721 747.393 98.5169 747.636 83.3535C747.677 80.3938 747.961 77.4747 749.015 74.5961C750.92 69.447 754.529 66.3657 759.921 65.7575C763.854 65.3521 767.868 65.3116 771.801 65.4737C782.626 65.9197 785.666 69.2038 785.707 80.1911C785.707 81.8534 785.626 83.4752 785.504 85.1375C785.342 88.0971 786.112 90.5703 789.518 90.773C792.964 90.9758 796.451 90.4081 797.1 86.2321C797.586 82.9886 797.262 79.6235 797.465 76.3395C797.911 69.7714 801.114 65.1899 807.398 62.8789C817.534 59.1894 826.413 64.5818 826.94 75.407C827.427 85.2996 827.021 95.2329 827.021 105.126C826.981 105.126 826.899 105.126 826.859 105.126L826.818 105.085Z" fill="#EDD356"/>
<path d="M877.496 124.101C875.874 128.439 875.225 132.615 874.779 136.872C873.725 146.805 870.928 149.238 860.711 149.319C856.737 149.319 852.764 149.319 848.831 148.792C841.25 147.738 838.574 144.089 839.425 136.507C840.479 127.344 841.655 118.181 842.75 109.018C844.047 97.9093 845.182 86.7598 846.601 75.6508C847.939 65.1905 853.778 62.4335 862.13 68.7178C868.414 73.4209 874.82 78.1645 879.482 84.8542C881.672 88.0166 883.942 91.4629 888.402 93.0035C891.483 88.9086 889.821 84.1244 890.024 79.7863C890.794 64.1364 897.119 58.2575 912.485 59.5144C919.783 60.1225 923.513 64.0553 924.121 71.5964C924.973 81.8945 922.702 91.9899 921.567 102.126C920.31 113.559 918.161 124.952 916.053 136.264C915.039 141.656 914.634 148.224 908.35 150.211C901.741 152.319 898.295 146.359 894.605 142.426C890.551 138.129 887.145 133.182 883.456 128.56C882.077 126.817 881.266 124.384 877.496 124.019V124.101Z" fill="#F89394"/>
<path d="M1108.27 96.0019C1102.64 95.7586 1097.49 95.637 1092.34 95.3532C1078.03 94.5017 1070.24 80.1898 1077.17 67.459C1079.32 63.5263 1083.01 62.1073 1087.11 61.9045C1103.65 61.0126 1120.15 61.5397 1136.49 64.3777C1146.02 66.04 1148.61 71.4729 1144.03 80.1898C1138.48 90.6906 1132.15 100.786 1126.35 111.165C1124.85 113.882 1121.12 117.004 1123.8 119.923C1127 123.409 1131.18 120.815 1134.71 118.95C1139.37 116.517 1143.91 113.76 1149.18 112.625C1155.83 111.165 1159.15 113.192 1160.53 119.882C1162.23 128.153 1160.86 136.383 1159.4 144.452C1158.3 150.574 1153.19 152.114 1147.56 153.087C1131.99 155.763 1116.62 153.25 1101.22 151.871C1096.96 151.506 1092.66 150.979 1088.53 149.885C1077.98 147.046 1075.39 140.073 1082 131.397C1088.61 122.72 1095.91 114.611 1102.88 106.219C1105.11 103.502 1107.78 100.948 1108.35 96.0019H1108.27Z" fill="#EF6E78"/>
<path d="M613.883 85.9876C614.774 89.8798 618.505 90.6096 620.897 92.6773C624.383 95.7181 628.073 98.4751 631.722 101.313C650.412 116.071 638.898 140.56 623.167 146.033C607.314 151.506 591.867 148.384 577.15 141.614C571.879 139.222 568.352 134.397 569.163 127.991C570.055 120.896 572.609 114.611 579.258 110.8C583.231 108.57 586.961 110.233 590.651 111.611C594.016 112.868 597.138 114.936 600.909 115.017C603.706 115.057 606.382 114.247 606.909 111.084C607.436 107.881 605.166 106.259 602.449 105.53C599.611 104.759 596.57 104.638 593.732 103.786C578.407 99.286 571.271 87.5283 574.596 70.9053C576.744 60.1207 585.137 54.9716 594.746 52.7417C607.842 49.7009 620.978 50.3091 633.181 56.9988C633.749 57.3232 634.357 57.5664 634.925 57.8908C648.466 65.9995 648.588 78.487 635.33 87.4472C631.925 89.7582 628.722 89.6365 625.073 88.0553C622.397 86.8796 619.802 85.1362 616.68 85.2984C615.748 85.3389 614.856 85.7443 613.842 85.9876H613.883Z" fill="#F16C4B"/>
<path d="M695.904 101.638C691.89 105.125 691.282 108.693 693.147 112.747C695.661 118.18 699.472 119.64 705.188 117.329C710.054 115.342 714.554 112.504 719.662 110.963C725.703 109.139 731.663 108.409 736.204 113.517C741.151 119.072 740.543 125.762 737.786 132.168C733.001 143.195 723.676 148.669 712.405 150.534C699.837 152.642 687.39 151.223 675.429 146.358C651.995 136.79 642.589 99.7731 664.158 81.9338C679.524 69.2031 696.309 64.1757 715.73 69.8923C721.163 71.4735 726.109 74.19 730.042 78.4471C736.326 85.299 735.434 92.7185 727.447 97.381C721.771 100.706 715.77 103.584 709.527 105.733C701.985 108.328 702.026 108.409 695.904 101.638Z" fill="#4FCAD2"/>
<path d="M1308.8 150.699C1299.6 150.82 1290.35 150.902 1281.19 149.523C1274.38 148.509 1270.61 144.901 1269.11 138.414C1266.11 125.683 1267.57 112.831 1267.77 100.019C1267.89 92.8023 1268.74 85.5855 1269.27 78.3687C1270.16 66.3678 1276 60.5295 1288 59.7997C1290.31 59.6781 1292.62 59.6781 1294.94 59.7591C1308.6 60.124 1313.71 66.2462 1311.88 80.1527C1311.19 85.3828 1310.34 90.5724 1309.73 95.8026C1309.41 98.7217 1309.13 101.762 1309.41 104.682C1310.02 111.128 1312.41 113.317 1318.9 113.52C1323.84 113.682 1328.71 112.912 1333.65 112.182C1343.83 110.642 1350.03 115.831 1350.97 126.129C1352.26 140.441 1345.82 149.037 1331.51 150.618C1324.01 151.429 1316.38 150.78 1308.8 150.78V150.699Z" fill="#4FA3A5"/>
<path d="M1011.78 98.719C1006.71 98.3946 1003.31 100.706 999.535 101.273C992.359 102.368 988.831 100.381 986.804 93.5699C984.98 87.4478 985.101 81.123 986.52 75.0009C987.899 68.9599 991.264 65.9596 997.792 65.838C1016.93 65.4326 1036.06 65.3515 1055.2 65.4326C1061.28 65.4326 1064.49 68.5139 1066.11 74.9603C1067.81 81.7311 1067.69 88.7452 1066.92 95.6377C1066.31 101.071 1062.82 103.503 1057.31 103.422C1056.34 103.422 1055.32 103.3 1054.35 103.138C1038.66 100.665 1038.62 100.665 1039.15 116.031C1039.39 123.289 1039.96 130.505 1040.32 137.763C1040.77 145.952 1038.34 149.318 1030.59 151.264C1024.43 152.845 1018.23 153.048 1011.98 151.548C1003.14 149.399 1000.63 146.034 1001.04 136.871C1001.24 132.492 1002.7 128.478 1003.91 124.383C1006.43 115.991 1009.06 107.639 1011.82 98.8001L1011.78 98.719Z" fill="#4CBD92"/>
<path d="M936.042 109.708C936.042 101.437 935.718 93.1657 936.123 84.9353C936.691 73.1777 943.137 65.2716 953.841 60.8524C963.369 56.9196 972.532 61.1362 972.978 71.1505C973.869 91.9089 978.248 112.465 976.221 133.385C975.045 145.67 969.491 150.941 957.084 151.508C955.098 151.589 953.111 151.549 951.165 151.346C940.786 150.373 936.894 146.927 936.204 136.507C935.596 127.628 936.083 118.668 936.083 109.748L936.042 109.708Z" fill="#FEAF36"/>
<path d="M987.129 189.296C987.129 185.323 987.251 181.39 988.305 177.498C991.345 166.227 994.67 164.321 1005.86 167.443C1011.13 168.903 1012.39 170.605 1011.09 176.038C1010 180.539 1008.74 184.958 1009.1 189.661C1009.39 193.148 1010.08 196.675 1014.58 196.27C1018.79 195.905 1019.32 192.377 1019.4 188.891C1019.48 185.769 1018.06 183.093 1016.89 180.417C1014.98 175.998 1016.6 173.403 1020.62 171.862C1031.08 167.889 1034.73 168.457 1037.61 178.998C1039.59 186.296 1041.74 193.472 1039.59 201.297C1037.69 208.149 1033.84 213.176 1027.51 216.055C1019.04 219.907 1010.24 220.109 1001.48 217.109C995.521 215.041 991.629 210.744 989.44 204.824C987.575 199.797 987.129 194.567 987.169 189.256L987.129 189.296Z" fill="#F16C4C"/>
<path d="M952.098 218.164C951.328 218.164 951.003 218.164 950.679 218.164C938.516 217.866 932.245 211.636 931.867 199.473C931.664 192.905 931.34 186.296 931.583 179.728C931.907 171.417 935.516 167.646 943.787 167.403C950.355 167.241 956.963 167.97 963.166 170.444C974.965 175.187 982.709 192.297 978.654 204.338C976.586 210.42 972.127 214.109 966.248 216.177C961.545 217.799 956.639 218.488 952.098 218.164Z" fill="#D7E01F"/>
<path d="M846.522 198.824C842.265 201.459 838.94 201.135 835.494 199.189C835.332 204.054 838.413 206.77 838.859 210.338C839.508 215.528 837.886 217.677 832.656 218.123C822.804 218.974 818.628 216.339 817.736 206.851C816.722 196.067 816.114 185.12 818.547 174.416C820.047 167.767 823.412 166.591 829.169 170.484C830.791 171.578 832.21 172.997 833.71 174.295C838.521 178.403 843.494 178.444 848.63 174.416C860.753 164.889 860.874 164.889 863.388 180.133C864.523 186.944 865.334 193.837 865.577 200.729C865.74 205.27 865.01 209.973 861.118 213.338C857.874 216.176 854.185 217.352 850.171 215.812C846.197 214.271 845.427 210.581 845.468 206.811C845.468 204.865 845.995 202.919 846.562 198.864L846.522 198.824Z" fill="#50A3A5"/>
<path d="M878.35 194.645C878.35 189.456 877.944 186.415 878.431 183.577C879.647 176.157 882.445 169.63 890.351 166.954C898.662 164.116 906.325 166.021 912.042 172.184C921.529 182.523 922.137 195.253 919.34 208.227C918.488 212.201 915.326 214.958 911.474 216.579C903.852 219.823 896.108 219.62 888.364 217.188C884.31 215.931 882.039 212.809 880.539 208.917C878.471 203.565 878.39 198.01 878.309 194.645H878.35Z" fill="#EF6E78"/>
<path d="M1070.57 220.96C1066.51 220.757 1060.84 221.041 1055.81 217.919C1052.85 216.095 1050.5 213.621 1051.59 209.81C1052.57 206.405 1055.12 204.134 1058.85 204.094C1062.46 204.094 1066.07 204.621 1069.68 204.702C1071.54 204.742 1073.93 205.148 1074.7 202.715C1075.64 199.796 1073.33 198.62 1071.3 197.566C1069.55 196.674 1067.65 196.066 1065.87 195.255C1058.16 191.89 1056.18 189.295 1056.5 183.133C1056.86 176.889 1061.28 170.807 1067.49 169.348C1075.92 167.361 1083.91 168.983 1090.76 174.497C1093.96 177.092 1096.15 180.457 1093.52 184.835C1091.08 188.809 1087.84 189.376 1082.61 186.457C1080.3 185.16 1077.62 182.727 1075.76 185.525C1074.1 188.038 1077.14 190.228 1079.04 191.931C1080.74 193.471 1082.69 194.728 1084.52 196.147C1090.88 201.175 1093.03 206.932 1090.76 213.297C1088.45 219.784 1082.89 220.595 1077.1 220.838C1075.43 220.919 1073.81 220.838 1070.61 220.838L1070.57 220.96Z" fill="#F29729"/>
<path d="M947.435 193.594C947.922 191.161 946.949 187.512 951.165 187.066C954.611 186.661 958.017 190.958 957.895 195.094C957.774 199.108 955.422 200.851 951.652 200.973C948.368 201.054 947.313 199.229 947.435 193.634V193.594Z" fill="#E4F0F9"/>
<path d="M892.459 191.483C892.337 188.604 892.702 184.915 897.202 183.942C900.081 183.334 903.527 188.361 903.486 192.578C903.486 196.551 900.486 200.768 897.648 200.403C892.945 199.794 892.499 196.146 892.418 191.483H892.459Z" fill="#E4F0F9"/>
</g>
<g clip-path="url(#clip6_412_6490)">
<path d="M1442.84 435.186C1454.48 422.393 1466.34 409.768 1478.51 397.452C1479.87 396.068 1481.25 394.612 1482.85 393.61C1485.16 392.154 1487.12 393.467 1486.98 396.187C1486.93 396.951 1486.71 397.715 1486.45 398.431C1480.63 414.326 1476.84 430.842 1471.3 446.809C1469.63 451.654 1467.65 456.284 1463.38 459.434C1458.28 463.181 1452.45 465.759 1446.25 466.355C1431.67 467.716 1417.14 467.095 1402.83 463.372C1394.1 461.105 1387.56 456.666 1383.17 448.384C1375.25 433.443 1367.88 418.216 1360.43 403.061C1360 402.202 1359.76 401.247 1359.38 400.34C1358.81 398.98 1358.76 397.667 1359.96 396.617C1361.2 395.495 1362.58 395.877 1363.73 396.617C1365.37 397.643 1366.9 398.861 1368.43 400.054C1376.06 406.116 1382.69 413.181 1389.44 420.913C1390.69 418.67 1390.16 416.761 1389.97 414.971C1388.28 398.789 1389.75 382.703 1391.66 366.688C1395.22 337.141 1400.51 307.905 1407.67 279.002C1408.41 275.995 1409.27 272.988 1410.25 270.052C1410.7 268.716 1411.73 267.737 1413.37 268.048C1414.73 268.31 1415.26 269.408 1415.47 270.554C1415.71 271.89 1415.78 273.25 1415.78 274.611C1415.74 286.282 1415.66 297.952 1415.59 309.623C1415.4 338.024 1415.45 366.426 1416.31 394.827C1416.45 399.672 1416.86 404.517 1417.14 409.386C1419.17 409.768 1419.27 407.954 1419.86 406.951C1429.91 390.245 1441.55 374.684 1453.77 359.528C1455.1 357.882 1456.34 354.66 1459.09 356.259C1461.66 357.762 1459.83 360.483 1459.13 362.583C1451.48 385.877 1446.16 409.744 1441.41 433.777C1440.88 435.257 1441.5 435.567 1442.82 435.162L1442.84 435.186Z" fill="#087474"/>
</g>
<g clip-path="url(#clip7_412_6490)">
<path d="M531.16 463.71C529.43 454.41 528.92 444.96 527.83 435.59C527.67 434.22 527.72 432.83 527.7 431.44C527.7 430.83 527.94 430.29 528.53 430.08C529.29 429.81 529.81 430.28 530.12 430.88C530.68 431.96 531.21 433.07 531.63 434.21C534.84 442.93 538.78 451.33 542.88 459.65C543.2 460.3 543.55 460.94 543.9 461.61C544.75 461.55 544.91 460.84 545.22 460.34C546.57 458.21 547.87 456.05 549.22 453.91C549.61 453.29 550.06 452.7 550.53 452.14C551.05 451.51 551.62 450.82 552.56 451.08C553.68 451.39 553.63 452.4 553.64 453.29C553.66 456.13 553.64 458.97 553.64 461.97C554.59 461.81 554.98 461.03 555.5 460.49C561 454.7 566.61 449.01 572.94 444.09C574.42 442.94 575.89 441.77 577.67 441.1C580.1 440.18 581.34 441.13 580.96 443.69C580.83 444.57 580.59 445.45 580.26 446.28C576.85 454.91 573.72 463.64 570.29 472.26C567.73 478.7 562.91 481.58 556.48 482.8C548.23 484.38 540.85 482.01 533.74 478.22C531.76 477.17 530.43 475.35 529.05 473.63C526.79 470.82 525.1 467.66 523.65 464.37C523.62 464.3 523.57 464.23 523.55 464.15C523.16 462.91 522.48 461.43 523.59 460.48C524.71 459.52 525.86 460.72 526.86 461.34C528.1 462.12 529.29 462.97 530.51 463.79C530.73 463.84 530.98 464.06 531.15 463.7L531.16 463.71Z" fill="#087474"/>
</g>
<g clip-path="url(#clip8_412_6490)">
<path d="M1311.84 248.384C1312.04 251.568 1312.27 254.753 1312.41 257.965C1312.53 260.375 1311.49 262.354 1308.96 262.297C1306.84 262.268 1305.77 260.346 1305.69 258.338C1305.46 253.203 1305.17 248.097 1303.62 243.077C1301.26 243.02 1300.71 245.085 1299.68 246.52C1294.25 254.121 1288.84 261.752 1283.41 269.382C1282.75 270.329 1282.14 271.391 1281.25 272.108C1279.53 273.485 1277.49 272.509 1277.17 270.3C1276.8 267.719 1278.26 265.883 1279.62 263.932C1284.9 256.273 1290.16 248.585 1295.74 240.438C1292.43 239.95 1290.22 241.241 1288.01 242.217C1286.03 243.106 1283.81 244.282 1282.49 241.758C1280.91 238.832 1283.52 237.57 1285.57 236.508C1287.63 235.447 1289.91 234.787 1292.06 233.926C1293.1 233.525 1294.45 233.611 1295.25 231.488C1290.11 226.296 1284.27 221.477 1277.69 217.547C1276.28 216.715 1274.76 216.055 1273.44 215.108C1272.23 214.248 1271.48 213.014 1272.37 211.494C1273.18 210.117 1274.56 209.601 1275.99 210.088C1280.02 211.436 1283.75 213.358 1287.06 216.026C1291.34 219.497 1295.63 222.968 1300.57 226.984C1301.63 222.911 1301.2 219.755 1300.43 216.686C1299.74 213.903 1299.56 211.121 1300.05 208.338C1300.31 206.875 1301.32 205.814 1302.95 205.785C1304.74 205.785 1305.28 207.047 1305.51 208.51C1306.12 212.67 1306.72 216.801 1307.38 221.247C1310.17 221.075 1311 218.637 1312.27 216.887C1318.07 208.969 1323.79 200.995 1329.57 193.077C1330.26 192.131 1330.89 191.127 1331.67 190.266C1332.85 188.946 1334.34 188.172 1336.01 189.205C1338.02 190.438 1338.08 192.331 1336.87 194.053C1333.31 199.245 1329.6 204.351 1325.92 209.486C1322.13 214.793 1318.36 220.1 1313.7 226.611C1320.32 225.177 1325.6 224.116 1330.86 222.911C1334.57 222.05 1338.31 222.194 1342.05 222.337C1343.97 222.395 1345.12 223.571 1345.24 225.407C1345.32 227.099 1343.97 227.644 1342.53 228.074C1340.03 228.792 1337.5 229.078 1334.95 229.308C1326.55 230.14 1318.53 232.549 1310.28 235.016C1311.61 238.487 1314.54 239.75 1316.69 241.758C1325.58 250.048 1334.46 258.396 1343.25 266.772C1344.58 268.034 1345.64 269.612 1346.73 271.132C1347.45 272.165 1347.45 273.37 1346.59 274.374C1345.55 275.607 1344.14 275.98 1342.82 275.177C1341.24 274.202 1339.83 272.94 1338.48 271.677C1330.95 264.649 1323.48 257.592 1315.95 250.593C1314.83 249.56 1313.96 247.868 1311.78 248.298L1311.84 248.384Z" fill="#FF8BB0"/>
<path d="M1432.27 163.674C1438.94 162.441 1445.61 161.207 1452.25 159.945C1455.73 159.285 1459.23 159.113 1462.74 159.17C1464.7 159.17 1466.71 159.486 1466.82 161.953C1466.97 164.42 1464.95 164.908 1463.06 165.252C1460.76 165.653 1458.43 165.998 1456.13 166.313C1446.9 167.633 1437.73 169.211 1427.67 172.05C1433.05 176.726 1437.73 180.771 1442.36 184.873C1444.63 186.881 1446.99 188.861 1448.34 191.672C1448.86 192.762 1448.97 193.967 1448.11 194.971C1447.05 196.204 1445.58 196.376 1444.29 195.631C1442.91 194.827 1441.73 193.622 1440.52 192.532C1436.18 188.66 1431.87 184.758 1426.18 179.652C1427.13 184.73 1427.67 188.201 1428.45 191.614C1429.11 194.598 1429.48 197.61 1429.11 200.651C1428.88 202.515 1427.76 203.749 1425.89 203.663C1424.37 203.605 1423.48 202.372 1423.22 200.851C1422.38 196.262 1421.61 191.643 1420.72 187.082C1420.2 184.443 1419.45 181.832 1418.53 178.046C1414.34 183.525 1411.29 188.316 1409.05 193.622C1408.3 195.372 1406.98 196.29 1405.17 195.631C1403.07 194.856 1402.55 193.077 1403.33 191.041C1403.9 189.52 1404.59 188.029 1405.4 186.594C1407.21 183.353 1409.11 180.169 1410.97 176.927C1408.21 175.177 1406.2 176.927 1404.05 177.415C1402.38 177.816 1400.63 178.017 1399.88 176.067C1399.05 173.915 1400.22 172.337 1402.15 171.62C1405.2 170.473 1408.36 169.641 1411.81 168.579C1411.29 165.854 1408.79 164.793 1407.01 163.244C1404.36 160.949 1401.49 158.912 1398.67 156.818C1397.21 155.728 1396.2 154.495 1397.18 152.716C1398.33 150.651 1400.17 150.679 1401.98 151.769C1403.79 152.859 1405.51 154.064 1407.21 155.269C1409.08 156.617 1410.89 158.023 1412.87 159.515C1414.39 157.134 1413.22 155.24 1412.84 153.318C1412.5 151.482 1413.04 150.02 1414.94 149.503C1416.89 148.987 1418.02 150.163 1418.71 151.827C1419.68 154.122 1419.63 156.818 1421.75 159.429C1425.12 154.466 1428.36 149.675 1431.64 144.913C1432.82 143.192 1434.08 141.5 1435.41 139.836C1436.7 138.201 1438.39 137.34 1440.29 138.574C1442.33 139.922 1441.76 141.844 1440.67 143.508C1437.45 148.384 1434.17 153.204 1430.92 158.08C1430.15 159.228 1429.51 160.49 1428.82 161.695C1428.54 164.822 1430.32 164.334 1432.24 163.674H1432.27Z" fill="#F9C801"/>
<path d="M1454.29 264.564C1450.21 267.863 1447.79 271.104 1445.93 274.833C1445.12 276.44 1444 277.587 1442.07 276.927C1440.09 276.268 1440.18 274.46 1440.29 272.825C1440.61 268.838 1444.26 266.658 1445.9 262.9C1443.63 261.121 1441.01 262.24 1438.68 261.982C1436.93 261.781 1435.35 261.236 1435.35 259.171C1435.35 257.163 1436.84 256.302 1438.6 256.216C1441.58 256.072 1444.6 256.187 1448.2 256.187C1447.22 252.573 1444.6 251.225 1442.85 249.217C1441.79 247.983 1440.46 246.95 1439.52 245.631C1438.65 244.426 1438.6 242.934 1439.66 241.758C1440.81 240.496 1442.25 240.725 1443.45 241.643C1446.39 243.852 1449.2 246.204 1452.82 249.073C1452.97 246.09 1453.02 243.91 1453.17 241.701C1453.31 239.635 1454.17 237.972 1456.5 238C1458.66 238.029 1458.89 239.779 1459.06 241.5C1459.2 243.049 1458.54 244.828 1460.61 246.147C1463.66 244.569 1465.47 241.471 1468 239.176C1469.21 238.086 1470.27 236.795 1471.59 235.849C1473.03 234.787 1474.64 234.673 1475.99 236.136C1477.17 237.398 1476.82 238.803 1475.93 239.951C1474.21 242.16 1472.4 244.282 1470.53 246.348C1468.09 249.044 1465.53 251.626 1463.75 255.441C1469.21 255.068 1474.7 254.696 1480.16 254.265C1481.31 254.179 1482.43 253.749 1483.61 253.663C1485.16 253.548 1486.4 254.294 1486.86 255.786C1487.43 257.622 1486.54 259.199 1484.79 259.658C1480.96 260.691 1477.11 261.609 1473.12 261.695C1470.87 261.752 1468.57 261.466 1466.02 262.441C1467.05 265.826 1469.95 267.432 1471.36 270.014C1472.28 271.706 1473.35 273.428 1471.36 275.005C1469.49 276.497 1467.83 275.522 1466.45 274.087C1465.18 272.768 1464 271.362 1462.4 269.555C1461.16 271.563 1461.68 273.399 1461.65 275.091C1461.62 277.415 1461.88 279.767 1461.73 282.091C1461.59 284.558 1461.96 288.029 1458.46 288.029C1454.52 288.029 1455.9 284.357 1455.7 282.062C1455.18 276.583 1454.81 271.104 1454.32 264.564H1454.29Z" fill="#74CCB5"/>
<path d="M1432.27 163.674C1431.47 164.076 1430.69 164.649 1429.83 164.793C1429 164.936 1427.47 164.793 1427.36 164.42C1426.93 163.215 1427.87 162.326 1428.88 161.695C1429.57 163.129 1430.95 163.359 1432.3 163.674H1432.27Z" fill="#FDF3C8"/>
</g>
<g clip-path="url(#clip9_412_6490)">
<path d="M108.506 107.493C110.371 105.574 111.621 104.2 113.001 102.918C114.855 101.198 117.126 100.409 119.446 101.482C121.919 102.6 122.358 105.031 122.097 107.471C121.79 110.005 121.238 112.506 120.767 115.077C122.832 116.317 124.866 115.122 126.861 114.84C132.343 114.071 137.812 113.268 143.364 113.962C144.837 114.156 146.333 114.302 147.714 114.8C149.658 115.515 151.94 116.132 152.217 118.717C152.481 121.15 150.964 122.715 149.141 123.955C144.716 126.96 139.829 129.127 135.06 131.468C134.106 131.936 133.14 132.369 132.175 132.861C126.212 135.807 123.625 140.496 124.415 146.928C125.079 152.648 125.626 158.369 124.761 164.131C124.406 166.525 123.876 168.862 121.302 169.795C118.299 170.897 116.426 168.904 114.788 166.968C111.158 162.689 109.051 157.549 107.549 152.179C106.385 148.082 105.383 143.947 104.09 139.875C102.784 135.709 102.55 135.595 98.1314 136.444C91.6608 137.693 85.227 139.164 78.7445 140.378C75.002 141.091 71.1873 141.535 67.3441 141.323C65.0311 141.187 63.1806 140.46 62.3334 138.151C61.4384 135.702 62.7567 134.069 64.5324 132.689C69.2323 129.002 74.1212 125.581 79.3176 122.661C84.828 119.573 84.8399 119.608 83.5974 113.052C82.3554 106.554 81.3234 100.042 81.7615 93.372C81.9421 91.0975 82.017 88.7423 83.0742 86.5743C84.8898 82.8512 87.4018 81.5677 91.4165 82.7963C96.5545 84.3393 100.352 87.6788 102.516 92.5841C104.572 97.233 106.326 102.026 108.53 107.505L108.506 107.493Z" fill="#704D85"/>
</g>
</g>
<defs>
<clipPath id="clip0_412_6490">
<rect width="1920" height="626" fill="white"/>
</clipPath>
<clipPath id="clip1_412_6490">
<rect width="99" height="154" fill="white" transform="matrix(-1 0 0 1 155 317)"/>
</clipPath>
<clipPath id="clip2_412_6490">
<rect width="291" height="337" fill="white" transform="matrix(-1 0 0 1 446 147)"/>
</clipPath>
<clipPath id="clip3_412_6490">
<rect width="335" height="389" fill="white" transform="translate(1516 91)"/>
</clipPath>
<clipPath id="clip4_412_6490">
<rect width="185" height="130" fill="white" transform="matrix(-1 0 0 1 386 44)"/>
</clipPath>
<clipPath id="clip5_412_6490">
<rect width="782.13" height="170" fill="white" transform="translate(569 51)"/>
</clipPath>
<clipPath id="clip6_412_6490">
<rect width="128" height="199" fill="white" transform="translate(1359 268)"/>
</clipPath>
<clipPath id="clip7_412_6490">
<rect width="58.05" height="53.3" fill="white" transform="translate(523 430)"/>
</clipPath>
<clipPath id="clip8_412_6490">
<rect width="215" height="150" fill="white" transform="translate(1272 138)"/>
</clipPath>
<clipPath id="clip9_412_6490">
<rect width="76.9661" height="66.8008" fill="white" transform="translate(86.2812 80) rotate(25.9964)"/>
</clipPath>
</defs>
</svg>
