<svg width="291" height="291" viewBox="0 0 291 291" fill="none" xmlns="http://www.w3.org/2000/svg">
<g clip-path="url(#clip0_1_9064)">
<path d="M0.00170898 36.3125C0.00170898 16.2577 16.2594 0 36.3142 0H254.189C274.244 0 290.502 16.2577 290.502 36.3125V254.188C290.502 274.242 274.244 290.5 254.189 290.5H36.3142C16.2594 290.5 0.00170898 274.242 0.00170898 254.188V36.3125Z" fill="#1246FF"/>
<path d="M113.073 211.362L72.6228 72.625H102.113C106.154 72.625 109.701 75.3005 110.833 79.1896L141.894 186.547C142.088 187.198 142.684 187.634 143.362 187.634H147.136C147.811 187.634 148.408 187.198 148.601 186.547L179.663 79.1896C180.792 75.3005 184.342 72.625 188.382 72.625H217.873L177.417 211.362C176.288 215.233 172.732 217.899 168.701 217.899H121.795C117.758 217.899 114.205 215.233 113.073 211.362Z" fill="#FFFFFD"/>
</g>
<defs>
<clipPath id="clip0_1_9064">
<rect width="290.5" height="290.5" fill="white"/>
</clipPath>
</defs>
</svg>
