<svg width="732" height="709" viewBox="0 0 732 709" fill="none" xmlns="http://www.w3.org/2000/svg">
<path fill-rule="evenodd" clip-rule="evenodd" d="M66.2078 27.2287C80.682 27.2287 92.4157 15.2723 92.4157 0.523386C92.4157 0.348526 92.414 0.174059 92.4108 0H125.66C125.657 0.174059 125.655 0.348526 125.655 0.523386C125.655 15.2723 137.389 27.2287 151.863 27.2287C166.337 27.2287 178.071 15.2723 178.071 0.523386C178.071 0.348526 178.069 0.174059 178.066 0H211.315C211.311 0.174059 211.31 0.348526 211.31 0.523386C211.31 15.2723 223.043 27.2287 237.518 27.2287C251.992 27.2287 263.725 15.2723 263.725 0.523386C263.725 0.348526 263.724 0.174059 263.721 0H296.97C296.966 0.174059 296.965 0.348526 296.965 0.523386C296.965 15.2723 308.698 27.2287 323.173 27.2287C337.647 27.2287 349.38 15.2723 349.38 0.523386C349.38 0.348526 349.379 0.174059 349.375 0H382.625C382.621 0.174059 382.62 0.348526 382.62 0.523386C382.62 15.2723 394.353 27.2287 408.827 27.2287C423.302 27.2287 435.035 15.2723 435.035 0.523386C435.035 0.348526 435.034 0.174059 435.03 0H468.279C468.276 0.174059 468.275 0.348526 468.275 0.523386C468.275 15.2723 480.008 27.2287 494.482 27.2287C508.957 27.2287 520.69 15.2723 520.69 0.523386C520.69 0.348526 520.689 0.174059 520.685 0H553.934C553.931 0.174059 553.929 0.348526 553.929 0.523386C553.929 15.2723 565.663 27.2287 580.137 27.2287C594.611 27.2287 606.345 15.2723 606.345 0.523386C606.345 0.348526 606.343 0.174059 606.34 0H639.589C639.586 0.174059 639.584 0.348526 639.584 0.523386C639.584 15.2723 651.318 27.2287 665.792 27.2287C680.266 27.2287 692 15.2723 692 0.523386C692 0.348526 691.998 0.174059 691.995 0H732V709H0V0H40.0049C40.0016 0.174059 40 0.348526 40 0.523386C40 15.2723 51.7337 27.2287 66.2078 27.2287Z" fill="white"/>
</svg>
