<svg width="44" height="44" viewBox="0 0 44 44" fill="none" xmlns="http://www.w3.org/2000/svg">
<mask id="mask0_446_4825" style="mask-type:alpha" maskUnits="userSpaceOnUse" x="0" y="0" width="44" height="44">
<rect width="44" height="44" fill="#D9D9D9"/>
</mask>
<g mask="url(#mask0_446_4825)">
<path d="M22.0001 1.83325L38.5918 11.7333C39.1418 12.0694 39.5695 12.5277 39.8751 13.1083C40.1806 13.6888 40.3334 14.2999 40.3334 14.9416V34.8333C40.3334 35.8416 39.9744 36.7048 39.2563 37.4228C38.5383 38.1409 37.6751 38.4999 36.6667 38.4999H7.33341C6.32508 38.4999 5.46189 38.1409 4.74383 37.4228C4.02578 36.7048 3.66675 35.8416 3.66675 34.8333V14.9416C3.66675 14.2999 3.81953 13.6888 4.12508 13.1083C4.43064 12.5277 4.85841 12.0694 5.40841 11.7333L22.0001 1.83325ZM22.0001 23.1916L36.3001 14.6666L22.0001 6.14159L7.70008 14.6666L22.0001 23.1916ZM22.0001 27.4999L7.33341 18.6999V34.8333H36.6667V18.6999L22.0001 27.4999Z" fill="#333333"/>
</g>
</svg>
