<svg width="44" height="44" viewBox="0 0 44 44" fill="none" xmlns="http://www.w3.org/2000/svg">
<g clip-path="url(#clip0_452_4963)">
<path fill-rule="evenodd" clip-rule="evenodd" d="M6.59976 -0.000976562H37.3998C41.0448 -0.000976562 43.9998 2.95394 43.9998 6.59902V37.399C43.9998 41.0441 41.0448 43.999 37.3998 43.999H6.59976C2.95468 43.999 -0.000244141 41.0441 -0.000244141 37.399V6.59902C-0.000244141 2.95394 2.95468 -0.000976562 6.59976 -0.000976562ZM9.5654 9.78121C8.96994 10.3341 8.6722 11.0359 8.6722 11.8866C8.6722 12.7373 8.96143 13.4433 9.53988 14.0048C10.1183 14.5662 10.8754 14.8469 11.8112 14.8469H11.8367C12.8064 14.8469 13.5891 14.5662 14.1845 14.0048C14.763 13.4603 15.0522 12.7798 15.0522 11.9632C15.0522 11.0615 14.7545 10.3299 14.159 9.76845C13.5806 9.22402 12.8235 8.95181 11.8877 8.95181C10.935 8.95181 10.1609 9.22827 9.5654 9.78121ZM9.00396 17.1692V34.2166H14.6694V17.1692H9.00396ZM23.4738 34.2166H17.8084C17.8424 29.0786 17.8594 25.089 17.8594 22.2477C17.8594 19.4065 17.8424 17.7137 17.8084 17.1692H23.4738V19.5936L23.4483 19.6447H23.4738V19.5936C24.6988 17.7052 26.4086 16.7609 28.6033 16.7609C30.5599 16.7609 32.1336 17.4117 33.3245 18.7132C34.5155 20.0147 35.1109 21.9245 35.1109 24.4424V34.2166H29.4455V25.106C29.4455 22.537 28.4927 21.2524 26.5872 21.2524C25.8557 21.2524 25.2474 21.4524 24.7626 21.8522C24.2777 22.252 23.9161 22.7411 23.678 23.3196C23.5419 23.6428 23.4738 24.1022 23.4738 24.6976V34.2166Z" fill="#333333"/>
</g>
<defs>
<clipPath id="clip0_452_4963">
<rect width="44" height="44" fill="white"/>
</clipPath>
</defs>
</svg>
