<svg width="44" height="44" viewBox="0 0 44 44" fill="none" xmlns="http://www.w3.org/2000/svg">
<mask id="mask0_446_4833" style="mask-type:alpha" maskUnits="userSpaceOnUse" x="0" y="0" width="44" height="44">
<rect width="44" height="44" fill="#D9D9D9"/>
</mask>
<g mask="url(#mask0_446_4833)">
<path d="M36.575 38.5C32.7556 38.5 28.9819 37.6674 25.2542 36.0021C21.5264 34.3368 18.1347 31.9764 15.0792 28.9208C12.0236 25.8653 9.66319 22.4736 7.99792 18.7458C6.33264 15.0181 5.5 11.2444 5.5 7.425C5.5 6.875 5.68333 6.41667 6.05 6.05C6.41667 5.68333 6.875 5.5 7.425 5.5H14.85C15.2778 5.5 15.6597 5.64514 15.9958 5.93542C16.3319 6.22569 16.5306 6.56944 16.5917 6.96667L17.7833 13.3833C17.8444 13.8722 17.8292 14.2847 17.7375 14.6208C17.6458 14.9569 17.4778 15.2472 17.2333 15.4917L12.7875 19.9833C13.3986 21.1139 14.1243 22.2063 14.9646 23.2604C15.8049 24.3146 16.7292 25.3306 17.7375 26.3083C18.6847 27.2556 19.6778 28.134 20.7167 28.9438C21.7556 29.7535 22.8556 30.4944 24.0167 31.1667L28.325 26.8583C28.6 26.5833 28.959 26.3771 29.4021 26.2396C29.8451 26.1021 30.2806 26.0639 30.7083 26.125L37.0333 27.4083C37.4611 27.5306 37.8125 27.7521 38.0875 28.0729C38.3625 28.3938 38.5 28.7528 38.5 29.15V36.575C38.5 37.125 38.3167 37.5833 37.95 37.95C37.5833 38.3167 37.125 38.5 36.575 38.5ZM11.0458 16.5L14.0708 13.475L13.2917 9.16667H9.2125C9.36528 10.4194 9.57917 11.6569 9.85417 12.8792C10.1292 14.1014 10.5264 15.3083 11.0458 16.5ZM27.4542 32.9083C28.6458 33.4278 29.8604 33.8403 31.0979 34.1458C32.3354 34.4514 33.5806 34.65 34.8333 34.7417V30.7083L30.525 29.8375L27.4542 32.9083Z" fill="#333333"/>
</g>
</svg>
