<svg width="156" height="82" viewBox="0 0 156 82" fill="none" xmlns="http://www.w3.org/2000/svg">
<g clip-path="url(#clip0_256_4778)">
<path fill-rule="evenodd" clip-rule="evenodd" d="M151.091 50.3991C151.005 50.4021 150.959 50.3577 150.993 50.2811C151.047 50.1578 151.144 50.1963 151.223 50.2523C151.286 50.2967 151.411 50.3274 151.352 50.4275C151.333 50.4588 151.181 50.411 151.091 50.3991ZM117.006 73.3168C116.922 73.4167 116.818 73.4797 116.691 73.418C116.593 73.3697 116.603 73.2635 116.652 73.1887C116.721 73.085 116.82 73.0042 116.952 73.0858C117.036 73.1368 117.066 73.222 117.006 73.3177M22.1712 40.6555C22.1058 40.5513 22.0248 40.425 22.1097 40.3227C22.2014 40.2093 22.364 40.1163 22.4992 40.2364C22.5894 40.3164 22.5683 40.4778 22.4956 40.5787C22.4217 40.6815 22.2987 40.7115 22.1712 40.6555ZM18.6512 35.7255C18.9222 35.7905 19.1491 35.8035 19.1342 36.1C18.9061 36.143 18.7611 36.0473 18.6512 35.7255ZM120.993 17.1503C120.957 17.1478 120.915 17.1559 120.905 17.1425C120.82 17.014 120.745 16.8786 120.658 16.7523C120.608 16.6819 120.622 16.6714 120.723 16.7001C120.882 16.7462 121.016 16.8202 121.034 17.0051C121.039 17.0525 121.007 17.1036 120.992 17.1512M44.3591 44.1583C43.9416 44.22 43.6898 44.1982 43.4652 43.9241C43.8027 43.7177 44.0249 43.863 44.3591 44.1583ZM19.3396 35.0875C19.5532 35.2489 19.7659 35.4098 19.9796 35.5713C19.7179 35.4576 19.4038 35.4345 19.3396 35.0875ZM150.072 53.2256C149.945 53.3501 149.81 53.3279 149.695 53.2782C149.581 53.23 149.594 53.1154 149.669 53.0412C149.756 52.9565 149.87 52.8391 149.994 52.9762C150.049 53.0374 150.05 53.1478 150.072 53.2242M130.477 26.0665C130.423 26.1675 130.337 26.202 130.248 26.1366C130.123 26.0454 129.979 25.9406 130.058 25.7564C130.099 25.6586 130.213 25.6458 130.307 25.6841C130.478 25.7554 130.531 25.89 130.478 26.0671M143.295 57.02C143.302 56.9925 143.299 56.9546 143.316 56.9371C143.43 56.8222 143.561 56.7284 143.728 56.7292C143.776 56.7293 143.861 56.791 143.863 56.8275C143.875 57.0569 143.682 57.0395 143.537 57.0662C143.457 57.0809 143.359 57.1231 143.295 57.02ZM131.699 53.8727C131.552 53.9792 131.399 54.1412 131.195 53.9917C131.119 53.9356 131.146 53.8081 131.219 53.741C131.341 53.6272 131.485 53.5496 131.654 53.6444C131.743 53.6939 131.796 53.7675 131.698 53.8737M46.3087 44.7782C46.1069 44.971 45.9423 44.8722 45.7857 44.7644C45.7188 44.7187 45.7189 44.6417 45.779 44.6176C45.9412 44.5522 46.1074 44.4096 46.284 44.551C46.3298 44.5878 46.303 44.7128 46.3087 44.7782ZM138.05 33.6187C137.933 33.773 137.821 33.7115 137.719 33.6164C137.625 33.5308 137.471 33.4333 137.544 33.3048C137.646 33.1254 137.822 33.1908 137.961 33.2904C138.078 33.3741 138.108 33.4923 138.05 33.6187ZM147.017 43.0143C147.19 42.9832 147.237 43.124 147.304 43.2215C147.379 43.3313 147.655 43.3967 147.472 43.5723C147.309 43.7282 147.104 43.6251 146.998 43.4415C146.921 43.3088 146.909 43.1491 147.018 43.0149M140.407 35.6576C140.434 35.7523 140.699 35.7984 140.536 35.9935C140.41 36.1452 140.25 36.0531 140.122 35.9611C140.002 35.8757 139.818 35.7932 139.967 35.6056C140.097 35.4402 140.242 35.5408 140.407 35.6576ZM149.087 52.1242C149.01 52.2088 148.859 52.3541 148.662 52.2952C148.539 52.2584 148.541 52.0664 148.6 51.958C148.699 51.7736 148.869 51.6913 149.072 51.8045C149.16 51.8544 149.176 51.954 149.088 52.1248M150.269 51.2754C150.081 51.1518 150.04 50.9577 150.096 50.7688C150.142 50.6163 150.303 50.632 150.419 50.7012C150.597 50.8069 150.715 50.9634 150.605 51.1778C150.538 51.3073 150.404 51.3195 150.269 51.2754ZM14.8653 35.9458C15.2215 35.8998 15.5534 35.9249 15.8741 36.2777C15.3624 36.4778 15.1173 36.2 14.8653 35.9458ZM151.768 50.2364C152.032 50.0206 152.307 49.8116 152.818 49.9585C152.43 50.2409 152.152 50.3941 151.768 50.2364ZM48.8687 45.4737C48.3708 45.4727 47.8615 45.5026 47.5265 45.0363C47.9377 45.3192 48.5158 45.0244 48.8687 45.4737ZM17.6346 37.5513C18.2758 37.4059 18.3521 37.9573 18.7444 38.2942C18.09 38.3053 17.8029 38.0323 17.6346 37.5513ZM16.4269 33.6662C17.4714 33.9932 17.4778 33.9972 17.7189 34.4997C17.2195 34.2642 16.6946 34.2493 16.4269 33.6662ZM12.3079 33.9629C12.5174 33.7949 12.735 33.931 12.9347 33.9577C13.1467 33.9869 13.4101 34.108 13.3016 34.3778C13.2145 34.5937 12.9424 34.653 12.7381 34.5073C12.553 34.3758 12.2534 34.2997 12.3064 33.9633M14.5445 35.4313C14.4412 35.6261 14.3049 35.6593 14.1319 35.5908C13.7879 35.4548 13.4517 34.9904 13.5766 34.8037C13.6783 34.651 13.9207 34.6052 13.993 34.7085C14.1702 34.9589 14.6586 34.9945 14.5445 35.4313ZM30.7278 43.279C30.4803 43.3456 30.362 43.2371 30.2377 43.1363C30.0015 42.9434 29.8846 43.3142 29.7827 43.2762C29.4533 43.1516 28.9257 43.2096 28.9797 42.61C30.1654 42.3437 30.4196 42.4364 30.7278 43.279ZM11.3449 32.9495C11.2894 32.9826 11.2435 33.0229 11.1916 33.0418C10.8822 33.1541 10.2541 32.877 10.2259 32.5228C10.2018 32.2178 10.0318 32.1486 9.85747 32.0325C9.69735 31.9263 9.50551 31.8639 9.35339 31.7487C9.19077 31.6259 9.08059 31.4251 9.2512 31.2587C9.40823 31.1042 9.55349 31.2847 9.64196 31.4028C9.89655 31.7419 10.142 31.9341 10.6051 31.6956C11.0011 31.4907 11.0037 31.9846 11.2 32.1456C11.4859 32.3813 11.3336 32.6775 11.3449 32.9495ZM42.5772 43.5886C42.0518 43.6037 41.6398 43.511 41.2468 43.3705C39.6343 42.7941 38.0295 42.2008 36.4218 41.6083C36.271 41.5533 36.1278 41.4712 35.9921 41.3849C35.8509 41.2953 35.7436 41.1708 35.8359 40.9858C35.9158 40.8273 36.0132 40.7502 36.2139 40.8457C36.4128 40.9401 36.6435 40.9655 36.8528 41.0448C38.0854 41.5152 39.2696 42.1129 40.5371 42.4947C41.0023 42.6349 41.4558 42.7339 41.7731 43.1755C41.9041 43.3586 42.2157 43.413 42.5766 43.5896M127.905 57.0357C127.105 58.0919 126.066 58.9018 125.108 59.7987C123.67 61.1438 122.184 62.4388 120.88 63.916C121.091 63.8004 121.297 63.6882 121.575 63.537C121.412 63.901 121.365 64.312 120.896 63.898C120.565 64.1891 120.667 64.6902 120.275 64.9995C119.86 65.3267 119.505 65.7154 118.93 65.8029C119.063 66.0012 119.195 65.8781 119.299 65.9187C119.436 65.9716 119.496 66.085 119.491 66.2182C119.486 66.3189 119.414 66.3977 119.3 66.395C118.787 66.385 118.634 66.7992 118.366 67.1226C117.606 68.0436 116.799 68.9279 116.003 69.8199C115.834 70.0087 115.594 70.1393 115.536 70.4283C115.689 70.4444 115.836 70.4589 116.058 70.4808C115.782 70.8746 115.497 71.1569 115.083 71.2799C114.679 71.4004 114.431 71.6868 114.238 72.0338C113.92 72.6052 113.479 73.0987 113.12 73.6401C112.542 74.508 112.349 75.4663 112.013 76.3954C111.941 76.5942 111.962 76.7799 112.011 76.9674C112.081 77.2375 112.298 77.2656 112.434 77.0817C113.118 76.151 114.239 75.6447 114.816 74.6131C114.858 74.5367 114.961 74.4372 115.03 74.4415C115.403 74.4637 115.535 74.3097 115.523 73.9359C115.517 73.7505 115.629 73.5551 115.878 73.5549C116.05 73.5546 116.591 74.0461 116.537 74.1714C116.439 74.398 116.26 74.7603 116.049 74.6775C115.42 74.4336 115.211 74.9696 115.009 75.2607C114.795 75.5697 114.54 75.8312 114.252 75.9618C113.501 76.3027 113.313 77.0549 112.818 77.5516C113.005 77.7621 113.15 77.7142 113.217 77.6137C113.679 76.9187 114.444 76.6742 115.141 76.3699C115.816 76.0759 116.355 75.6989 116.647 75.016C116.696 74.9019 116.753 74.7014 116.876 74.7837C117.439 75.1605 117.646 74.588 118.016 74.4169C118.542 74.1734 118.955 73.7666 119.526 73.5661C120.454 73.2403 121.045 72.3802 121.852 71.8357C122.481 71.4116 122.619 71.1699 122.993 70.3901C123.109 70.15 123.308 70.1539 123.474 70.276C123.785 70.5056 123.994 70.3699 124.236 70.1634C124.827 69.6573 125.488 69.2488 126.129 68.8092C126.595 68.49 126.968 68.034 127.386 67.6441C127.563 67.4792 127.669 67.2948 128.005 67.541C128.243 67.7146 128.522 67.3703 128.681 66.7819C128.705 66.6953 128.762 66.5989 128.832 66.5466C130.063 65.6113 131.163 64.5165 132.533 63.7462C133.68 63.1006 134.728 62.2847 135.605 61.2717C136.414 60.3382 137.4 59.6087 138.422 58.9247C138.583 58.818 138.761 58.7234 138.805 58.5048C138.674 58.3411 138.525 58.6859 138.399 58.493C139.03 57.2786 140.335 56.8813 141.318 56.0929C141.556 55.9021 141.735 56.0704 141.887 56.2548C141.914 55.7944 142.159 55.4671 142.538 55.2396C143.67 54.5642 144.783 53.8524 145.988 53.3114C146.24 53.1982 146.513 52.9682 146.816 53.0867C146.852 53.2702 146.792 53.3712 146.707 53.3951C145.885 53.63 145.305 54.2402 144.626 54.7009C143.759 55.2898 142.949 56.0006 141.877 56.225C141.77 56.4019 141.664 56.5785 141.556 56.757L141.554 56.7214C141.678 57.0932 141.405 57.2193 141.164 57.3866C139.948 58.2268 138.791 59.1363 137.663 60.098C136.624 60.9834 135.847 62.1084 134.786 62.9629C133.196 64.244 131.635 65.561 129.951 66.7211C128.613 67.6432 127.395 68.7165 126.139 69.7402C125.309 70.4159 124.465 71.0745 123.617 71.7264C123.126 72.1044 122.645 72.4832 122.332 73.0696C122.707 73.169 123.097 72.5464 123.441 73.1126C123.524 73.2492 123.656 73.1692 123.738 73.0394C124.257 72.2165 125.1 71.7756 125.856 71.2284C126.353 70.8703 126.794 70.4378 127.275 70.056C127.742 69.6847 128.133 69.1726 128.802 69.1279C128.911 69.4853 128.397 69.466 128.467 69.7811C128.529 69.7761 128.598 69.7924 128.632 69.7652C129.969 68.6959 131.311 67.6372 132.789 66.765C133.094 66.5854 133.359 66.3426 133.64 66.1297C133.45 66.1697 133.263 66.2113 133.076 66.249C132.843 66.2965 132.822 66.1171 132.788 65.9629C132.753 65.805 132.85 65.6911 132.986 65.7073C133.568 65.7728 133.833 65.3006 134.196 65.0074C134.516 64.7488 134.76 64.3832 135.28 64.3058C135.122 64.7031 134.783 64.8556 134.544 65.1006C134.221 65.433 133.708 65.5996 133.616 66.1379C134.073 65.9439 134.485 65.6741 134.859 65.3537C136.238 64.1775 137.612 62.9946 138.984 61.8086C139.194 61.6261 139.447 61.4476 139.3 60.9621C138.003 61.9133 137.031 63.174 135.63 63.8972C136.444 63.0784 137.281 62.2808 138.065 61.4343C138.65 60.8018 139.375 60.3144 139.881 59.5974C140.054 59.3527 140.384 59.2189 140.641 59.0354C140.501 58.7628 140.635 58.6052 141.044 58.5625C141.023 58.841 140.695 58.8346 140.605 59.0417C140.7 59.1269 141.003 59.1385 140.766 59.3526C140.455 59.6342 140.118 59.8842 140.085 60.3727C140.805 59.6468 141.672 59.1334 142.49 58.5477C144.181 57.3379 146.079 56.4733 147.779 55.299C148.707 54.6566 149.656 54.0421 150.567 53.3712C151.068 53.0017 151.611 52.7326 152.229 52.6057C152.479 52.5542 152.763 52.4897 152.946 52.332C153.314 52.0145 153.729 51.9008 154.188 51.8478C154.412 51.8214 154.645 51.7733 154.81 51.6021C154.861 51.5478 154.869 51.4289 154.86 51.3434C154.855 51.3014 154.77 51.245 154.715 51.2356C154.399 51.1833 154.083 51.3671 153.761 51.2437C153.837 50.9732 154.093 51.0466 154.268 50.9938C154.528 50.9147 154.68 50.7622 154.634 50.5097C154.569 50.1456 154.595 49.8544 154.992 49.6758C154.737 49.658 154.48 49.646 154.225 49.6219C153.492 49.554 153.34 49.2214 153.801 48.5815C153.937 48.3929 153.76 48.2906 153.812 48.1526L153.821 48.1872C153.698 48.0822 153.578 47.9749 153.452 47.8735C153.355 47.7943 153.252 47.7238 153.183 47.6716C153.158 47.4523 153.323 47.4349 153.395 47.3427C153.658 47.0101 153.609 46.7113 153.187 46.6091C152.774 46.5081 152.458 46.2287 152.048 46.1072C151.61 45.977 151.162 45.7061 151.103 45.1349C151.33 44.8701 151.659 45.1713 151.947 44.9464C151.616 44.735 151.292 44.5605 150.916 44.5313C149.766 44.4428 148.819 43.9922 148.107 43.0605C148.002 42.9235 147.773 42.878 147.594 42.807C147.441 42.7469 147.23 42.7081 147.2 42.5522C147.045 41.7281 146.291 41.415 145.803 40.8823C144.749 39.7364 143.67 38.6146 142.592 37.4919C141.139 35.9791 139.578 34.5754 138.175 33.0138C137.973 32.7905 137.762 32.5145 137.363 32.7728C137.273 32.8317 137.006 32.6595 136.846 32.5567C136.613 32.4062 136.741 32.2392 136.856 32.0721C136.932 31.9632 136.961 31.8228 136.856 31.7158C136.351 31.2006 135.968 30.5411 135.232 30.2575C135.127 30.6418 135.662 30.6973 135.512 31.1006C134.965 31.0204 134.833 30.481 134.43 30.2361C135.056 29.8708 135.065 29.8623 134.653 29.454C133.25 28.0667 131.826 26.701 130.441 25.2958C129.762 24.6065 129.151 23.8478 128.51 23.1209C128.305 22.889 128.149 22.5847 127.746 22.5935C127.631 23.1367 128.298 23.3265 128.261 23.8143C128.009 23.9119 127.956 23.6839 127.846 23.5528C127.682 23.3558 127.559 23.1423 127.227 23.3544C127.032 23.4781 126.83 23.3341 126.914 23.0782C127.037 22.7022 126.748 22.5417 126.565 22.3413C126.258 22.0026 125.991 21.7017 126.02 21.1679C126.048 20.6586 125.596 20.4047 125.166 20.2166C124.96 20.127 124.709 20.1028 124.546 19.9683C124.395 19.8425 124.2 19.5626 124.501 19.4147C125.081 19.1273 124.683 18.9715 124.428 18.8956C124.121 18.8039 123.811 18.7124 123.502 18.6354C122.516 18.3907 121.813 17.8562 121.469 16.8756C121.334 16.4908 120.906 16.3493 120.681 16.0252C120.562 15.8562 120.496 16.1033 120.404 16.1194C120.126 16.169 119.852 16.0718 119.558 16.1152C119.148 16.1766 119.225 15.5659 118.898 15.5068C118.621 15.4573 118.369 15.9678 118.04 15.5621C117.746 15.1989 117.652 15.71 117.44 15.7137C117.767 15.7181 118.093 15.7266 118.163 16.1507C118.166 16.1727 118.139 16.2184 118.119 16.2225C117.725 16.3061 117.793 15.8233 117.531 15.7402C117.501 15.7304 117.471 15.7197 117.441 15.7089C117.437 15.2914 117.074 15.3359 116.793 15.2458C117.113 16.4247 117.906 17.2755 118.796 18.2525C118.747 17.6206 118.339 17.323 118.202 16.7928C118.884 17.0095 119.254 17.4327 119.508 17.9847C119.618 18.2247 119.621 18.2351 119.224 18.5454C119.134 18.6159 119.086 18.6889 119.139 18.7562C119.478 19.1923 118.957 19.6734 119.336 20.1234C118.59 20.1303 118.297 19.4662 117.727 19.4364C117.721 19.3091 117.695 19.2353 117.719 19.184C117.822 18.9593 118.19 18.7245 118.026 18.5415C117.78 18.2656 117.712 17.7968 117.256 17.7164C116.733 17.6242 116.539 17.1667 116.149 16.8096C116.561 16.6394 116.74 16.9873 117.049 17.0095C116.763 16.2705 115.761 16.5863 115.576 15.8008C115.259 16.1749 115.761 16.3021 115.66 16.5363C115.641 16.6431 115.587 16.6875 115.516 16.6492C115.115 16.4306 114.55 16.4976 114.332 15.9471C114.286 15.8334 114.108 15.8477 113.987 15.9315C113.884 16.0029 113.926 16.0979 113.943 16.1893C113.995 16.4569 114.188 16.637 114.329 16.852C114.479 17.0778 114.816 17.2123 114.725 17.6355C114.244 17.5739 113.924 17.3441 113.74 16.8952C113.686 16.7609 113.536 16.7315 113.406 16.7741C113.232 16.8322 113.299 16.9816 113.322 17.1001C113.369 17.3562 113.437 17.6072 113.602 17.8174C113.702 17.9447 113.854 18.0561 113.897 18.1986C113.987 18.5017 114.388 18.8781 113.945 19.1202C113.493 19.367 113.337 18.8681 113.188 18.5794C112.963 18.142 112.717 17.7325 112.374 17.3082C112.17 17.7206 112.411 17.9414 112.528 18.1878C112.707 18.5695 112.885 18.9531 113.095 19.318C113.309 19.6914 113.494 19.973 112.87 20.1744C112.432 20.3173 112.384 20.5529 112.316 21.2602C111.971 21.2931 112.116 20.8032 111.817 20.7876C111.78 20.8382 111.702 20.9136 111.713 20.9315C112.39 21.9793 112.104 23.1652 112.171 24.2936C112.188 24.5995 112.226 24.8689 112.37 25.118C113.687 27.4081 115.381 29.3877 117.275 31.2198C118.228 32.1409 119.118 33.1265 120.105 34.018C121.47 35.2521 122.772 36.5526 124.239 37.6795C125.262 38.4641 126.201 39.3593 127.17 40.2136C127.607 40.5983 128.057 40.9598 128.536 41.2943C128.802 41.4799 128.629 41.6021 128.359 41.5361C128.353 41.601 128.335 41.6668 128.346 41.7277C128.424 42.1388 128.131 42.1615 127.873 42.1367C127.634 42.1131 127.396 41.9225 127.469 41.688C127.546 41.4383 127.797 41.3072 128.091 41.4994C128.168 41.5498 128.276 41.5492 128.371 41.5715C128.25 41.0877 127.798 41.1736 127.478 41.0067C127.013 40.7644 126.862 40.948 126.657 41.3056C126.49 41.6001 126.257 41.2754 126.057 41.299C125.81 41.3284 125.303 41.1427 125.601 41.7477C125.623 41.794 125.618 41.9068 125.598 41.9149C124.771 42.2128 124.21 43.1315 123.103 42.822C122.504 42.6533 121.994 42.4306 121.543 42.0311L121.59 42.0258C120.703 42.8051 120.094 42.8985 119.109 42.3653C118.846 42.223 118.589 42.0643 118.3 42.1802C117.354 42.5607 116.305 42.5881 115.39 43.0616L115.38 43.0255C115.983 43.3629 116.505 42.9255 117.06 42.8398C117.568 42.7614 118.061 42.5849 118.565 42.4722C118.711 42.4388 118.92 42.4208 118.957 42.6364C119.003 42.8977 118.787 42.8459 118.636 42.8441C118.242 42.8414 117.865 42.9206 117.504 43.077C116.761 43.3978 115.949 43.4545 115.178 43.6714C114.912 43.7466 114.603 43.8289 114.356 43.5728L114.396 43.563C114.039 44.1007 113.509 43.9324 113.011 43.9028L113.054 43.9011C112.918 44.2059 112.581 44.2142 112.346 44.3729C112.158 44.4996 111.74 44.3203 111.899 44.8673C111.965 45.0969 111.245 45.2599 111.066 44.9532C110.872 44.6206 110.679 44.6826 110.434 44.747C109.864 44.9001 109.258 44.985 108.855 45.4932C108.598 45.1805 108.007 45.1229 108.187 44.4854C108.234 44.3193 107.924 44.2622 107.715 44.3131C107.479 44.3715 107.255 44.474 107.252 44.737C107.249 44.9284 107.439 44.8498 107.544 44.8125C107.658 44.7721 107.583 44.442 107.831 44.5996C107.96 44.6814 107.885 44.8369 107.87 44.9624C107.862 45.0262 107.867 45.1326 107.836 45.1465C107.293 45.3769 107.031 46.0028 106.454 46.1545C106.176 46.2287 105.781 46.3374 105.761 45.7921C105.752 45.5775 105.554 45.5809 105.389 45.5938C105.195 45.6088 104.964 45.5756 104.831 45.7258C104.316 46.3099 103.655 46.1922 102.983 46.2353C102.48 46.2677 101.806 45.8116 101.447 46.5689C101.072 46.4468 100.692 46.4507 100.327 46.586C100.157 46.6493 100.07 47.0042 99.8879 46.9034C99.334 46.5957 98.8868 47.1733 98.3214 47.005C97.773 46.842 97.1655 46.994 96.608 47.1739C96.1152 47.3325 95.6153 47.3428 95.0734 47.3996C95.1318 46.9214 95.5665 47.0493 95.7194 46.8229L95.725 46.849C95.0707 46.5901 94.5917 47.1308 94.0147 47.2306C93.8733 47.2557 93.7724 47.4569 93.5768 47.3405C93.4029 47.1552 93.7989 47.0602 93.6615 46.8378C93.5562 46.6665 93.4373 46.5651 93.3054 46.6907C92.8316 47.1399 92.2073 47.197 91.725 46.977C91.0514 46.671 90.301 46.8131 89.6538 46.4347C89.2198 46.181 88.7092 46.3565 88.2392 46.4734C88.6521 46.5604 89.0645 46.6483 89.5731 46.7543C89.0479 47.0472 88.6066 47.0692 88.1583 46.9594C87.8978 46.8958 87.9031 46.7147 88.0107 46.515C86.3404 46.5548 84.6819 47.0069 82.9969 46.6578C82.7795 46.6127 82.4694 46.5226 82.334 46.8657C82.4704 47.0483 82.8051 46.8176 82.8938 47.1555C82.4955 47.2769 82.1233 47.2185 81.6947 47.1157C81.9245 46.854 82.1731 46.9332 82.376 46.8609C82.1754 46.7528 81.9543 46.6121 81.7364 46.6942C81.0458 46.956 80.3474 46.9378 79.6385 46.8249C79.4025 46.7874 79.4883 46.9722 79.424 47.0656C79.1747 47.4278 78.7343 47.357 78.37 47.3084C77.0635 47.1339 75.7517 47.1821 74.4418 47.1544C73.903 47.1436 73.3537 47.3121 72.8541 46.9691C72.806 46.9361 72.714 46.9193 72.6665 46.9434C71.771 47.4051 70.8409 47.058 69.9276 47.0694C70.1671 47.1696 70.4576 47.2919 70.3167 47.5963C70.2208 47.8019 69.9722 47.9449 69.7185 48.0216C69.4116 48.1153 69.135 48.4457 68.671 48.0399C69.1639 47.7816 69.2704 47.1559 69.8901 47.0668C69.4084 47.0037 68.8517 46.5137 68.5198 47.3066C67.8953 47.0797 67.6523 47.6995 67.2282 47.963C67.0634 47.58 67.4647 47.4163 67.4394 47.0903C66.5852 46.8676 65.7064 46.8534 64.8474 46.8045C61.9305 46.6379 59.0556 46.1965 56.1968 45.6209C55.7873 45.5386 55.3578 45.4188 55.0603 45.8665C54.9248 46.0707 54.698 46.1197 54.5873 45.9489C54.4557 45.7439 54.8167 45.692 54.8745 45.4267C54.381 45.3021 53.9117 44.9195 53.4112 45.4686C53.3463 45.5402 53.2399 45.5386 53.1668 45.445C52.4168 44.484 51.2704 44.9016 50.3225 44.6295C50.2761 44.6165 50.2065 44.6625 50.1545 44.694C49.5384 45.0616 49.489 45.091 49.1686 44.5528C48.9056 44.1114 48.4705 44.1397 48.1017 43.9823C47.9745 43.9278 47.8428 43.9991 47.8416 44.1651C47.8401 44.481 47.6647 44.3605 47.5374 44.2793C47.4141 44.2018 47.3798 43.9903 47.1617 44.0584C46.7097 44.1976 46.3981 44.1723 46.2843 43.5767C46.2382 43.3391 45.8066 43.1853 45.5232 43.2756C45.1802 43.3851 44.9612 43.1951 44.7082 43.0817C43.7136 42.6373 42.726 42.1896 41.5863 42.4446C41.4724 42.47 41.2837 42.4399 41.2166 42.3612C40.3502 41.351 39.0057 41.4197 37.9171 40.9118C36.9729 40.4715 35.8837 40.3736 34.9737 39.8127C34.8962 39.9776 34.8444 40.0358 34.8515 40.0843C34.8968 40.3794 35.4711 40.5456 35.1443 40.8859C34.95 41.0871 34.603 40.8294 34.3394 40.7335C33.4559 40.4135 32.5582 40.1315 31.7185 39.698C31.4312 39.5498 31.1341 39.4259 30.7996 39.3968C30.3999 39.3608 30.1227 39.1897 30.1943 38.7106C30.2393 38.4123 30.077 38.2808 29.8111 38.1305C28.9642 37.6547 28.077 37.316 27.1633 36.9877C26.3769 36.7052 25.6154 36.2573 24.8522 35.8703C23.7675 35.3206 22.7728 34.5732 21.6369 34.1742C20.9544 33.9347 20.3508 33.4907 19.5987 33.3326C19.6215 33.7352 19.9467 33.7714 20.139 33.8744C21.7614 34.7397 23.3408 35.6861 25.0053 36.4759C25.5921 36.7544 26.2298 36.8973 26.8026 37.1698C27.4676 37.4858 28.2312 37.6231 28.782 38.1726C28.8969 38.2866 29.0636 38.3842 28.9697 38.5593C28.8799 38.7257 28.6821 38.7001 28.5329 38.6485C27.6762 38.351 26.768 38.1422 25.9818 37.7122C24.5046 36.9049 22.9482 36.2654 21.4717 35.4446C19.6981 34.4584 17.9684 33.3626 16.0819 32.5829C15.737 32.4401 15.5569 32.1135 15.2366 31.9427C13.2026 30.8575 11.4421 29.3743 9.60101 28.0113C8.88048 27.4773 8.02162 27.1583 7.35797 26.5162C7.76864 27.3024 8.55042 27.6755 9.16711 28.2183C9.84473 28.8146 10.6618 29.2584 11.3158 29.8769C11.9536 30.4806 12.8592 30.7371 13.3574 31.4894C13.8525 32.2385 14.9207 32.2215 15.4238 33.0778C14.5452 32.8743 14.0138 32.2015 13.2993 31.8819C13.0821 32.0605 13.271 32.1879 13.3015 32.3226C13.3253 32.4267 13.3066 32.5176 13.2131 32.5655C13.1181 32.6138 12.9685 32.5796 12.9602 32.5039C12.8883 31.8353 11.9815 31.8381 11.9073 31.1732C11.892 31.0364 11.7474 30.9359 11.619 30.9664C10.6695 31.1932 10.5114 30.3964 10.187 29.8483C10.0613 29.6355 10.0447 29.3578 9.86104 29.1553C9.67345 29.3164 9.50487 29.4525 9.3451 29.599C9.2378 29.6966 9.20586 29.8425 9.30462 29.9417C9.46313 30.1025 9.70178 30.2248 9.52077 30.4935C9.31866 30.7947 9.13668 30.4089 8.92648 30.4515C8.49012 30.5422 8.20544 31.0457 7.68668 30.8982C7.74426 30.4485 7.73743 30.414 7.47226 29.893C7.68855 29.7594 7.79969 30.0189 7.97739 30.0297C8.08095 30.0359 8.22134 30.0064 8.19486 29.9171C7.94106 29.0659 8.86201 29.3015 9.13624 28.8774C8.39176 28.2644 7.5019 27.8698 6.78394 27.1821C6.31082 26.7291 5.71345 26.2333 5.0155 25.9819C4.78052 25.8971 4.58591 25.8974 4.36556 25.9339L4.39765 25.9206C4.13634 26.3171 4.12098 26.6019 4.52597 27.0009C5.12611 27.5917 5.7519 28.13 6.4602 28.572C6.80265 28.7853 7.09603 29.0066 7.13495 29.5301C6.71964 29.5011 6.44679 29.3124 6.15795 29.0421C5.3871 28.321 4.66481 27.5511 3.7706 26.9519C3.38495 26.6934 2.84432 26.7106 2.57042 26.1956C2.4138 25.901 2.05315 26.299 1.73783 26.2549C1.82924 26.9745 2.07405 27.5601 2.71194 27.929C2.82145 27.9918 2.94796 28.089 2.98579 28.1991C3.31041 29.1185 4.14025 29.6533 4.65407 30.4214C5.0641 31.0343 5.62748 31.3327 6.31432 31.4902C6.69673 31.5776 7.16257 31.5692 6.9234 32.2594C6.7802 32.6735 7.34964 32.8519 7.56592 33.1626C7.89556 33.6357 8.61007 33.7747 8.72851 34.4603C8.73872 34.5182 8.88036 34.5904 8.9632 34.5954C9.6467 34.6297 9.86517 35.1652 10.0892 35.6625C10.3149 36.1633 10.5709 36.579 11.1926 36.6111C11.439 36.6233 11.6277 36.8112 11.7315 36.9955C12.1588 37.7502 12.9394 38.1251 13.5263 38.7066C15.1597 40.322 17.3104 41.1967 19.1493 42.5155C20.6633 43.6027 22.2987 44.4279 23.9761 45.1965C25.1205 45.7206 26.2442 46.3243 27.4382 46.6943C28.7959 47.1146 29.8581 48.1745 31.2995 48.3617C32.0634 49.0508 33.081 49.2415 33.9487 49.7161C35.38 50.4992 36.9266 50.9763 38.4255 51.5796C39.2012 51.8922 39.8952 52.395 40.7288 52.5749C40.8899 53.0616 41.3088 52.848 41.6322 52.9285C42.2568 53.0848 42.8779 53.2819 43.3774 53.7207C43.4721 53.8036 43.5488 53.9764 43.6791 53.9117C44.2813 53.6126 44.7266 54.0677 45.2282 54.2186C47.6101 54.9372 49.9738 55.7167 52.3848 56.3356C53.0715 56.512 53.825 56.5018 54.464 56.7755C55.9374 57.4062 57.521 57.5069 59.0521 57.8268C60.5984 58.1509 62.1739 58.3957 63.7629 58.4895C65.3795 58.5837 67.0088 58.6175 68.6049 58.8596C71.2335 59.2598 73.8985 59.2303 76.5258 59.6386C77.5351 59.7953 78.568 59.8717 79.61 59.7731C80.4433 59.694 81.2657 60.0085 82.1151 60.0275C82.532 60.0374 82.9142 60.0564 83.3124 59.9186C83.8764 59.7238 84.4832 59.7784 85.0494 59.8272C85.8836 59.9002 86.7274 59.8452 87.5584 60.0336C88.2373 60.1876 88.9108 59.9975 89.5543 59.7613C89.9586 59.6133 90.3606 59.4941 90.7867 59.6383C91.1129 59.7496 91.4323 59.6976 91.7419 59.6056C93.0678 59.2126 94.4943 59.2228 95.7616 58.5959C95.9045 58.525 96.0679 58.4804 96.2262 58.4568C98.31 58.1458 100.37 57.6577 102.485 57.5826C103.05 57.5626 103.563 57.3505 104.091 57.2186C104.997 56.9915 105.9 57.1859 106.802 57.115C108.109 57.0117 109.34 56.6127 110.61 56.3776C112.902 55.9538 115.174 55.4173 117.455 54.9335C117.677 54.8865 117.929 54.8086 118.128 54.8691C119.146 55.1737 120.115 54.8808 121.095 54.6851L121.052 54.6971C121.135 54.6526 121.235 54.5529 121.298 54.5712C122.246 54.8583 123.221 54.5485 124.173 54.7087C124.33 54.7357 124.515 54.7612 124.653 54.7034C125.679 54.2758 126.811 54.3624 127.86 54.0165C128.525 53.7971 129.276 53.9436 129.898 53.5512C130.055 53.874 129.883 53.9503 129.744 53.9828C129.451 54.0495 129.206 54.0966 129.126 54.4747C129.056 54.8154 128.662 54.8768 128.413 55.0662C128.257 55.1844 127.901 55.29 128.09 55.5549C128.268 55.8049 128.406 55.2902 128.643 55.4129L128.605 55.4277C128.933 54.9418 129.087 55.3684 129.285 55.5586C129.311 55.2901 129.478 55.0886 129.61 54.8725C129.66 54.7914 129.716 54.707 129.789 54.6501C130.078 54.421 130.177 54.7312 130.448 54.9187C131.253 55.4771 130.397 55.3999 130.251 55.5045C129.952 55.7212 129.603 55.7567 129.276 55.5138C129.044 56.2462 128.492 56.6831 127.861 57.0466L127.905 57.0279L127.905 57.0357Z" fill="#333333"/>
</g>
<defs>
<clipPath id="clip0_256_4778">
<rect width="155.57" height="81.5482" fill="white" transform="matrix(1 0 0 -1 0 81.7744)"/>
</clipPath>
</defs>
</svg>
