<svg width="174" height="92" viewBox="0 0 174 92" fill="none" xmlns="http://www.w3.org/2000/svg">
<g clip-path="url(#clip0_357_1157)">
<path fill-rule="evenodd" clip-rule="evenodd" d="M169.149 74.6773C169.062 74.62 168.986 74.6369 168.973 74.7372C168.952 74.8986 169.076 74.9194 169.193 74.9116C169.286 74.9051 169.434 74.952 169.435 74.8114C169.435 74.7671 169.249 74.7216 169.149 74.6773ZM148.369 29.6737C148.344 29.5175 148.277 29.3873 148.108 29.3717C147.976 29.36 147.92 29.4758 147.924 29.5839C147.929 29.7336 147.981 29.8794 148.169 29.8781C148.287 29.8781 148.372 29.8091 148.369 29.6724M30.0961 3.89413C29.9633 3.96051 29.8006 4.03992 29.8241 4.19873C29.8475 4.37316 29.9568 4.57103 30.1716 4.53198C30.3148 4.50594 30.3942 4.3263 30.3825 4.1766C30.3708 4.0243 30.2627 3.91625 30.0961 3.89413ZM23.3753 6.77096C23.6955 6.8738 23.9376 7.00267 24.1081 6.68765C23.8999 6.5002 23.6903 6.50801 23.3753 6.77096ZM117.264 90.0925C117.227 90.0729 117.187 90.0378 117.169 90.0456C117.001 90.125 116.839 90.2174 116.669 90.2929C116.574 90.3346 116.582 90.3541 116.705 90.3879C116.897 90.44 117.082 90.4478 117.216 90.2682C117.251 90.2226 117.25 90.1497 117.264 90.0912M55.1728 14.1935C54.7809 13.868 54.5076 13.7326 54.104 13.8745C54.3227 14.2989 54.643 14.2885 55.1728 14.1935ZM23.6851 7.86051C24.0066 7.82797 24.3268 7.79543 24.6484 7.76288C24.3073 7.71602 23.9689 7.54289 23.6851 7.86051ZM169.87 71.1236C169.817 70.9153 169.664 70.8541 169.515 70.8333C169.366 70.8112 169.308 70.9374 169.339 71.0611C169.375 71.203 169.42 71.3956 169.633 71.3318C169.728 71.3032 169.798 71.19 169.869 71.1249M132.635 86.8446C132.643 86.7066 132.575 86.6168 132.442 86.6285C132.256 86.6442 132.043 86.6624 132.009 86.9019C131.989 87.0282 132.099 87.1128 132.22 87.1323C132.441 87.1662 132.58 87.0607 132.636 86.8446M165.261 62.9617C165.25 62.9942 165.224 63.032 165.231 63.0606C165.276 63.2507 165.352 63.429 165.525 63.5331C165.574 63.5631 165.701 63.5527 165.725 63.5162C165.881 63.2871 165.672 63.1843 165.539 63.0658C165.466 63.0007 165.391 62.8953 165.261 62.9617ZM151.329 58.9367C151.245 58.7349 151.189 58.472 150.884 58.498C150.771 58.5084 150.719 58.6568 150.751 58.7714C150.806 58.9654 150.906 59.1359 151.139 59.1437C151.263 59.1489 151.363 59.1059 151.329 58.9354M57.5719 14.7766C57.4846 14.4512 57.2529 14.4499 57.0238 14.4629C56.9262 14.4681 56.878 14.5475 56.9249 14.61C57.0512 14.7792 57.1332 15.0305 57.4039 14.9953C57.4742 14.9862 57.525 14.8404 57.5719 14.7766ZM145.18 83.8051C145.155 83.5721 145.002 83.5656 144.836 83.5994C144.687 83.6293 144.467 83.6332 144.461 83.8116C144.454 84.0602 144.676 84.1032 144.882 84.0876C145.055 84.0745 145.16 83.9717 145.18 83.8051ZM160.318 79.7384C160.477 79.879 160.613 79.7632 160.744 79.7046C160.889 79.6382 161.215 79.7437 161.137 79.4482C161.066 79.1852 160.79 79.1631 160.565 79.2854C160.402 79.374 160.291 79.5315 160.319 79.7384M148.889 83.1802C148.976 83.0995 149.278 83.218 149.232 82.9147C149.197 82.6791 148.975 82.6739 148.784 82.6882C148.607 82.7012 148.367 82.6713 148.402 82.9576C148.433 83.2102 148.645 83.1972 148.889 83.1802ZM168.163 71.6417C168.137 71.5063 168.072 71.2616 167.833 71.1991C167.683 71.16 167.565 71.3592 167.557 71.5076C167.544 71.7601 167.667 71.9515 167.947 71.9619C168.07 71.9658 168.149 71.8734 168.165 71.6417M168.851 73.2584C168.579 73.2675 168.415 73.442 168.355 73.6724C168.307 73.8585 168.482 73.9431 168.645 73.9444C168.895 73.947 169.115 73.8598 169.136 73.5695C169.148 73.3938 169.017 73.2975 168.851 73.2584ZM19.6093 4.17009C19.9478 4.44085 20.3058 4.6231 20.8577 4.46038C20.4555 3.93318 20.0285 4.06595 19.6093 4.17009ZM169.745 75.2696C169.882 75.6575 170.034 76.0454 170.654 76.2147C170.43 75.6796 170.24 75.3477 169.745 75.2696ZM60.6479 15.6644C60.1337 15.3533 59.6273 15.0031 58.9895 15.2739C59.5909 15.2401 60.0022 15.9065 60.6479 15.6644ZM23.4716 4.2508C24.0418 4.80274 24.4661 4.28204 25.0818 4.18051C24.414 3.75874 23.9467 3.86028 23.4716 4.2508ZM19.7903 7.49993C21.0725 7.81756 21.0816 7.81756 21.6453 7.45047C20.9827 7.38017 20.432 7.06646 19.7903 7.49993ZM15.7289 4.61138C15.8395 4.91599 16.1493 4.91208 16.3719 5.00971C16.6088 5.11255 16.9564 5.1529 17.0137 4.80664C17.0592 4.52937 16.8158 4.29766 16.5138 4.31979C16.2405 4.33932 15.8838 4.22997 15.7276 4.61008M18.9559 4.49943C18.9715 4.23388 18.8517 4.11412 18.6304 4.07637C18.1905 4.00087 17.5526 4.26903 17.5643 4.53979C17.5734 4.76108 17.7947 4.96025 17.934 4.89907C18.2738 4.75197 18.7997 5.02143 18.9559 4.49943ZM40.5647 6.55357C40.3512 6.32967 40.1611 6.36742 39.9698 6.39346C39.6053 6.44423 39.7173 5.98862 39.5884 5.96389C39.1705 5.88578 38.6628 5.49526 38.3426 6.14743C39.3983 7.16539 39.7186 7.22917 40.5647 6.55357ZM14.1004 5.05267C14.064 4.98368 14.0418 4.91338 14.0002 4.86131C13.7515 4.5515 12.9301 4.44346 12.6789 4.79102C12.4628 5.09042 12.2441 5.05527 11.9916 5.06569C11.7599 5.0748 11.523 5.01882 11.2939 5.04226C11.0491 5.06699 10.8096 5.20497 10.8812 5.48354C10.9463 5.74129 11.2092 5.64626 11.3746 5.57987C11.8497 5.38982 12.2233 5.34556 12.5513 5.88188C12.8312 6.34139 13.1436 5.83371 13.4469 5.79075C13.8895 5.72697 13.9182 5.32603 14.1004 5.05267ZM52.978 13.6637C52.4456 13.3187 51.9627 13.156 51.4693 13.0544C49.4451 12.6379 47.4183 12.2435 45.3889 11.8464C45.1989 11.8087 44.9997 11.8035 44.8057 11.8074C44.604 11.8113 44.4152 11.8725 44.3944 12.1211C44.3775 12.3346 44.4295 12.4752 44.6964 12.5025C44.9606 12.5298 45.2145 12.6483 45.48 12.6978C47.046 12.9854 48.642 13.1117 50.1884 13.5126C50.756 13.6597 51.2858 13.842 51.8898 13.5855C52.1397 13.4788 52.4951 13.6181 52.978 13.6623M149.4 53.2963C149.237 51.7056 148.674 50.219 148.248 48.6934C147.609 46.4049 146.888 44.1373 146.47 41.7968C146.614 42.048 146.756 42.2927 146.949 42.6234C147.009 42.1456 147.218 41.6926 146.475 41.8254C146.316 41.3177 146.736 40.8647 146.525 40.2998C146.302 39.7023 146.18 39.0787 145.642 38.6283C145.904 38.5073 145.962 38.7169 146.095 38.7403C146.27 38.7715 146.402 38.6921 146.48 38.5515C146.539 38.4448 146.514 38.3185 146.394 38.2495C145.859 37.9384 145.961 37.4151 145.888 36.914C145.681 35.4873 145.404 34.0697 145.142 32.6508C145.086 32.3501 144.921 32.065 145.042 31.7304C145.21 31.8098 145.37 31.8866 145.613 32.0038C145.576 31.4245 145.459 30.9546 145.108 30.568C144.767 30.1905 144.692 29.7401 144.71 29.261C144.74 28.4722 144.596 27.6872 144.564 26.9036C144.512 25.6461 144.914 24.537 145.15 23.3681C145.201 23.1182 145.339 22.9398 145.507 22.7771C145.749 22.5428 145.99 22.6495 146.014 22.9242C146.137 24.3132 146.975 25.5381 146.923 26.9635C146.919 27.0689 146.962 27.2355 147.036 27.2746C147.435 27.4855 147.475 27.7276 147.228 28.1051C147.105 28.2926 147.099 28.5646 147.355 28.7208C147.532 28.8289 148.398 28.6609 148.421 28.4982C148.462 28.2027 148.505 27.7172 148.235 27.6703C147.433 27.5271 147.554 26.8437 147.528 26.4168C147.501 25.9638 147.402 25.5342 147.187 25.2192C146.626 24.3965 146.905 23.5035 146.706 22.6808C147.03 22.5805 147.149 22.7211 147.156 22.8669C147.196 23.8732 147.832 24.6047 148.36 25.3558C148.872 26.0822 149.191 26.8086 149.064 27.6964C149.044 27.8448 148.976 28.0869 149.154 28.0791C149.972 28.0439 149.826 28.7638 150.101 29.1725C150.49 29.7531 150.66 30.4313 151.124 30.9963C151.876 31.914 151.946 33.1715 152.437 34.2389C152.82 35.0707 152.811 35.4065 152.708 36.4453C152.677 36.7656 152.885 36.8866 153.132 36.8645C153.597 36.8228 153.727 37.0936 153.847 37.4581C154.14 38.3511 154.565 39.1868 154.951 40.042C155.231 40.663 155.33 41.3672 155.516 42.0311C155.595 42.3123 155.589 42.5687 156.09 42.5257C156.444 42.4958 156.515 43.0256 156.311 43.7324C156.281 43.8366 156.28 43.972 156.319 44.0696C157.002 45.8061 157.45 47.6246 158.38 49.2778C159.158 50.6629 159.727 52.1612 159.996 53.7558C160.245 55.2255 160.805 56.5962 161.43 57.9422C161.528 58.1531 161.653 58.3627 161.561 58.6152C161.324 58.7024 161.387 58.2533 161.135 58.3731C161.025 60.0211 162.121 61.2486 162.64 62.6779C162.766 63.0242 163.057 62.963 163.329 62.868C163.068 63.36 163.115 63.8508 163.364 64.3233C164.107 65.7292 164.809 67.1611 165.712 68.4745C165.901 68.7492 166.039 69.1579 166.426 69.2256C166.578 69.059 166.579 68.9171 166.506 68.839C165.806 68.0814 165.59 67.0882 165.179 66.1874C164.654 65.0367 164.265 63.7961 163.3 62.8927C163.3 62.6428 163.301 62.3941 163.303 62.1429L163.278 62.178C163.639 61.8721 163.437 61.5714 163.292 61.2473C162.566 59.6188 161.942 57.9552 161.383 56.2564C160.866 54.6918 160.771 53.0451 160.212 51.4986C159.375 49.1802 158.592 46.8436 157.583 44.5916C156.781 42.8017 156.198 40.9311 155.544 39.0878C155.112 37.8707 154.655 36.6627 154.189 35.4586C153.92 34.7609 153.661 34.0684 153.706 33.2678C154.155 33.4006 154.167 34.287 154.877 33.9187C155.048 33.8301 155.134 33.9955 155.137 34.1803C155.156 35.3545 155.749 36.3373 156.186 37.3761C156.474 38.0569 156.657 38.7793 156.914 39.4745C157.162 40.1501 157.244 40.9233 157.907 41.3893C158.243 41.0886 157.701 40.7866 157.971 40.5054C158.032 40.5497 158.113 40.5757 158.131 40.6252C158.839 42.5661 159.559 44.4992 160.537 46.3255C160.738 46.7017 160.859 47.1183 161.016 47.514C160.845 47.3539 160.678 47.1938 160.509 47.0375C160.298 46.8423 160.164 47.0141 160.033 47.1521C159.897 47.2927 159.926 47.471 160.077 47.54C160.717 47.8368 160.695 48.4903 160.885 49.0201C161.053 49.4874 161.075 50.0172 161.564 50.4234C161.65 49.9144 161.396 49.5447 161.303 49.1425C161.178 48.597 160.754 48.1037 160.996 47.4906C161.346 47.9774 161.601 48.5137 161.786 49.0787C162.471 51.1562 163.147 53.2377 163.817 55.3205C163.92 55.6407 164.068 55.9831 163.613 56.3918C162.872 54.598 162.66 52.6884 161.668 51.0638C161.994 52.4189 162.358 53.7662 162.635 55.1304C162.842 56.1497 163.283 57.1065 163.356 58.1635C163.381 58.5241 163.637 58.869 163.787 59.2192C163.472 59.4127 163.512 59.6596 163.907 59.9599C164.059 59.6592 163.717 59.46 163.754 59.1906C163.905 59.1619 164.226 59.3403 164.115 58.9706C163.971 58.485 163.78 58.0164 164.053 57.4918C164.34 58.692 164.912 59.7646 165.388 60.8815C166.374 63.1895 167.789 65.271 168.805 67.5477C169.36 68.7922 169.953 70.021 170.471 71.2837C170.756 71.9788 171.148 72.5971 171.705 73.1152C171.931 73.3248 172.183 73.5695 172.273 73.8468C172.454 74.4052 172.811 74.7827 173.251 75.1251C173.465 75.293 173.675 75.4883 173.737 75.7682C173.757 75.8567 173.691 75.9842 173.627 76.0663C173.596 76.1066 173.473 76.1118 173.411 76.0871C173.051 75.9426 172.841 75.5547 172.432 75.4805C172.341 75.8072 172.65 75.8918 172.798 76.0558C173.016 76.3006 173.077 76.5531 172.872 76.7848C172.576 77.1194 172.42 77.4357 172.718 77.8692C172.444 77.7273 172.171 77.5789 171.893 77.4435C171.095 77.0543 170.729 77.3016 170.803 78.2506C170.825 78.5304 170.579 78.5252 170.546 78.6997L170.577 78.6697C170.384 78.701 170.193 78.7361 170 78.7621C169.85 78.783 169.699 78.7908 169.595 78.8012C169.433 79.0121 169.591 79.1331 169.608 79.2737C169.671 79.7814 169.433 80.0587 168.934 79.8999C168.445 79.745 167.943 79.8348 167.445 79.7033C166.911 79.5627 166.28 79.5614 165.861 80.1134C165.928 80.5286 166.457 80.4245 166.613 80.8371C166.139 80.8475 165.695 80.8241 165.289 80.6184C164.047 79.9884 162.789 79.8595 161.47 80.3737C161.276 80.4492 161.012 80.3529 160.783 80.3138C160.587 80.28 160.345 80.1876 160.216 80.3294C159.539 81.0818 158.566 80.9321 157.729 81.1756C155.923 81.6963 154.107 82.1766 152.291 82.6582C149.845 83.3078 147.355 83.7764 144.929 84.5067C144.581 84.6108 144.191 84.7631 143.941 84.2464C143.885 84.1292 143.502 84.1396 143.272 84.1448C142.937 84.1539 142.964 84.4065 142.979 84.6512C142.989 84.8113 142.931 84.974 142.755 85.0183C141.911 85.2331 141.103 85.6731 140.166 85.5038C140.298 85.0417 140.886 85.3203 140.983 84.81C140.369 84.5497 139.895 85.0235 139.326 85.0235C139.743 85.7928 139.747 85.8071 139.066 85.9699C136.749 86.5205 134.424 87.036 132.114 87.6166C130.982 87.9016 129.877 88.3013 128.76 88.6488C128.403 88.7595 128.052 88.9756 127.642 88.7139C127.863 88.0813 128.67 88.3039 128.938 87.778C128.739 87.5189 128.541 87.7207 128.346 87.7871C128.053 87.8873 127.793 88.0305 127.583 87.6035C127.459 87.3536 127.161 87.3757 127.087 87.6921C126.978 88.1568 126.579 88.1412 126.266 88.2336C125.736 88.3898 125.273 88.533 124.968 89.1018C124.678 89.6447 124.052 89.6225 123.49 89.547C123.222 89.5106 122.948 89.3778 122.695 89.4143C122.461 89.4494 122.085 89.616 122.302 89.9571C122.72 90.6171 122.212 90.5285 121.901 90.4465C121.527 90.3489 121.15 90.2487 120.783 90.1341C119.613 89.7683 118.553 89.879 117.583 90.6743C117.203 90.9867 116.673 90.8644 116.237 91.057C116.009 91.1573 116.095 90.8605 116.011 90.7863C115.756 90.5611 115.412 90.4895 115.136 90.2604C114.752 89.9402 114.449 90.6184 114.074 90.4739C113.757 90.3515 113.817 89.6668 113.224 89.879C112.693 90.069 112.916 89.4832 112.7 89.3466C113.04 89.547 113.381 89.7423 113.72 89.3492C113.737 89.3283 113.738 89.2645 113.72 89.2476C113.366 88.9144 113.133 89.4546 112.811 89.3765C112.773 89.3674 112.736 89.3596 112.698 89.3518C112.432 89.78 112.086 89.5067 111.74 89.4234C112.808 88.408 114.16 88.0279 115.69 87.5788C115.244 88.1997 114.636 88.2505 114.162 88.7113C115.002 88.9157 115.649 88.7113 116.257 88.3013C116.521 88.1229 116.53 88.1138 116.315 87.545C116.267 87.4161 116.263 87.3106 116.36 87.2742C116.983 87.0373 116.747 86.2146 117.42 85.9881C116.655 85.513 115.936 86.0141 115.33 85.6874C115.244 85.815 115.171 85.8748 115.163 85.9425C115.129 86.2393 115.361 86.7119 115.077 86.7978C114.65 86.9279 114.287 87.3692 113.766 87.1662C113.169 86.9331 112.682 87.2833 112.056 87.407C112.374 87.8405 112.777 87.5944 113.109 87.765C112.352 88.3481 111.516 87.394 110.832 88.0878C110.74 87.5033 111.337 87.6869 111.38 87.3822C111.427 87.2599 111.4 87.1805 111.302 87.1753C110.752 87.1492 110.211 86.7262 109.641 87.157C109.523 87.2456 109.348 87.1193 109.276 86.9566C109.214 86.8186 109.317 86.747 109.393 86.6637C109.614 86.4203 109.925 86.3552 110.206 86.2224C110.502 86.0831 110.934 86.156 111.106 85.6626C110.571 85.4244 110.097 85.4609 109.626 85.8084C109.485 85.9126 109.312 85.8488 109.205 85.7238C109.062 85.5546 109.225 85.4427 109.322 85.3346C109.532 85.1003 109.76 84.8842 110.062 84.771C110.244 84.702 110.47 84.6824 110.605 84.5627C110.887 84.3062 111.537 84.1696 111.232 83.6424C110.921 83.1047 110.447 83.5213 110.113 83.7257C109.606 84.0355 109.096 84.3036 108.476 84.5262C108.524 83.973 108.911 83.8962 109.186 83.7153C109.61 83.4341 110.034 83.1503 110.48 82.9056C110.934 82.6543 111.301 82.4799 110.784 81.8811C110.422 81.4593 110.52 81.186 110.894 80.4141C110.559 80.1641 110.402 80.7603 110.083 80.5885C110.076 80.513 110.044 80.3867 110.066 80.375C111.421 79.7189 111.87 78.317 112.646 77.1949C112.855 76.8903 113.064 76.6364 113.368 76.4698C116.162 74.9337 119.15 73.9548 122.253 73.2532C123.812 72.9004 125.348 72.4422 126.924 72.1415C129.106 71.725 131.264 71.2004 133.484 70.9582C135.03 70.7903 136.56 70.4558 138.095 70.1824C138.787 70.06 139.477 69.9689 140.181 69.9247C140.572 69.8999 140.47 69.6656 140.15 69.5641C140.185 69.4938 140.207 69.4144 140.257 69.3584C140.595 68.9835 140.308 68.7765 140.025 68.6399C139.765 68.5149 139.399 68.5618 139.327 68.8494C139.251 69.1553 139.428 69.4482 139.851 69.4339C139.961 69.43 140.073 69.499 140.185 69.5354C139.757 69.9585 139.344 69.5862 138.91 69.5576C138.278 69.5159 138.238 69.2321 138.251 68.7349C138.263 68.3261 137.819 68.5149 137.627 68.3652C137.392 68.1803 136.753 68.0541 137.439 67.6167C137.491 67.5828 137.556 67.4631 137.54 67.4423C136.875 66.617 136.872 65.3178 135.537 64.9429C134.813 64.7412 134.148 64.6513 133.432 64.7802L133.477 64.8154C133.05 63.455 132.482 62.9773 131.132 62.9096C130.771 62.8914 130.407 62.894 130.181 62.5933C129.445 61.6079 128.38 60.9219 127.733 59.8596L127.7 59.8909C128.533 59.9208 128.798 60.6993 129.316 61.1353C129.791 61.535 130.188 62.0257 130.637 62.4579C130.767 62.5842 130.972 62.7339 131.145 62.5347C131.356 62.2939 131.1 62.2119 130.944 62.1195C130.535 61.8747 130.197 61.5571 129.922 61.1692C129.357 60.3725 128.556 59.805 127.897 59.0981C127.669 58.8534 127.402 58.5748 126.987 58.6842L127.022 58.7193C126.991 57.9409 126.339 57.7821 125.808 57.5009L125.85 57.5295C125.901 57.1299 125.559 56.9099 125.416 56.5988C125.301 56.3502 124.758 56.2734 125.265 55.8086C125.477 55.6134 124.836 54.9938 124.46 55.1981C124.052 55.4194 123.891 55.2346 123.679 55.0146C123.187 54.4991 122.616 54.0318 122.518 53.2546C122.057 53.4161 121.412 53.1049 121.198 53.8756C121.142 54.076 120.787 53.9407 120.603 53.7571C120.396 53.5488 120.23 53.3028 120.391 53.0294C120.508 52.8303 120.655 53.0307 120.74 53.1349C120.832 53.2481 120.547 53.541 120.903 53.5345C121.086 53.5306 121.107 53.3236 121.169 53.1843C121.202 53.1141 121.274 53.0073 121.25 52.9735C120.835 52.3955 120.957 51.5858 120.457 51.0677C120.217 50.8165 119.878 50.4572 119.515 51.0065C119.372 51.2226 119.17 51.0951 119.007 50.9779C118.817 50.8412 118.558 50.7306 118.515 50.4924C118.35 49.5668 117.595 49.2739 116.928 48.8079C116.43 48.459 115.45 48.5072 115.554 47.501C115.09 47.3916 114.701 47.1495 114.41 46.7811C114.274 46.6093 114.407 46.1888 114.156 46.1784C113.392 46.1485 113.293 45.2724 112.604 45.0915C111.936 44.9157 111.405 44.3781 110.943 43.8431C110.534 43.3706 110.025 43.0464 109.502 42.6481C109.262 43.1779 109.791 43.3185 109.807 43.6478L109.829 43.6244C108.992 43.4812 108.837 42.6234 108.304 42.1586C108.174 42.0441 108.196 41.7733 107.922 41.7707C107.626 41.8527 107.975 42.199 107.694 42.3422C107.478 42.4528 107.292 42.4828 107.234 42.2706C107.027 41.5104 106.419 41.06 105.784 40.9845C104.898 40.8777 104.213 40.2607 103.308 40.2451C102.702 40.2347 102.285 39.7335 101.874 39.3183C102.354 39.4875 102.835 39.6554 103.426 39.865C103.068 39.2336 102.626 38.9342 102.095 38.7663C101.787 38.6687 101.679 38.8587 101.664 39.1321C99.9668 38.0439 98.5401 36.5377 96.5836 35.8413C96.331 35.7515 95.9548 35.65 96.0303 35.2113C96.2855 35.1084 96.4859 35.5562 96.7893 35.2634C96.4547 34.8885 96.0342 34.7153 95.5279 34.5526C95.6008 34.9666 95.9067 35.0408 96.0707 35.2425C95.796 35.2282 95.4797 35.2347 95.3066 35.0134C94.7586 34.3105 94.027 33.8913 93.2251 33.5633C92.9582 33.4539 93.1626 33.3173 93.1548 33.1806C93.1249 32.6508 92.6263 32.4477 92.2202 32.2694C90.7635 31.6302 89.441 30.758 88.0728 29.9653C87.5105 29.6386 87.0497 29.1205 86.3194 29.1608C86.2491 29.1647 86.1437 29.1244 86.1098 29.0697C85.4759 28.0322 84.2991 27.807 83.3645 27.2225C83.6743 27.2694 84.0505 27.3254 84.096 26.9231C84.126 26.6511 83.9594 26.3478 83.7459 26.1095C83.4881 25.8206 83.41 25.3064 82.6771 25.4339C83.0234 26.0093 82.7409 26.7214 83.3241 27.2017C82.7878 26.9648 81.9065 27.121 82.0614 26.0952C81.2752 25.9377 81.4132 25.1463 81.1411 24.6086C80.731 24.9002 81.0422 25.3207 80.8117 25.6409C79.7912 25.335 78.8761 24.7987 77.9597 24.3105C74.8472 22.6534 71.6059 21.3061 68.2969 20.1072C67.823 19.9354 67.3049 19.7896 67.2789 19.1414C67.2672 18.8459 67.0641 18.6532 66.8428 18.7599C66.5786 18.8888 66.9183 19.1687 66.8116 19.4785C66.2245 19.2976 65.5007 19.3978 65.3289 18.5178C65.3068 18.4033 65.1961 18.3382 65.062 18.389C63.6861 18.9096 62.7658 17.7602 61.6177 17.4465C61.5617 17.4309 61.5187 17.3398 61.4849 17.2747C61.08 16.5092 61.0475 16.4481 60.3797 16.8021C59.8317 17.0924 59.4008 16.7904 58.9218 16.7214C58.7564 16.698 58.6653 16.5418 58.7682 16.37C58.9647 16.0432 58.7083 16.0575 58.526 16.0614C58.3503 16.0641 58.1824 16.2606 58.0001 16.0536C57.6213 15.6267 57.2842 15.4574 56.7934 16.0003C56.5969 16.2164 56.0553 16.1044 55.8197 15.8336C55.5346 15.5056 55.1897 15.5642 54.8577 15.5225C53.5534 15.3572 52.2543 15.1997 51.2389 14.2221C51.1374 14.1245 50.9239 14.0372 50.8054 14.0763C49.2785 14.5749 47.9351 13.661 46.4941 13.5022C45.2444 13.3643 44.0598 12.7824 42.7698 12.7902C42.7933 12.5715 42.7763 12.4791 42.8141 12.4335C43.0458 12.1575 43.7422 12.3463 43.6186 11.7905C43.5444 11.4611 43.025 11.5093 42.693 11.4429C41.5813 11.219 40.4788 10.9469 39.3411 10.8675C38.9518 10.8402 38.5678 10.7816 38.2046 10.602C37.7699 10.3885 37.3767 10.3911 37.1502 10.93C37.0096 11.2659 36.7597 11.2997 36.3913 11.288C35.2198 11.2476 34.0925 11.0407 32.9443 10.8063C31.9563 10.6046 30.8902 10.589 29.8605 10.5095C28.3974 10.3963 26.903 10.5434 25.4815 10.2427C24.6275 10.0617 23.7267 10.1412 22.852 9.83264C23.1279 9.43171 23.4859 9.59833 23.7489 9.61265C25.9644 9.73762 28.1865 9.75193 30.3981 9.98104C31.1779 10.0617 31.9251 10.3143 32.6866 10.3924C33.5705 10.4835 34.4439 10.8207 35.3564 10.5994C35.5465 10.5538 35.7795 10.5577 35.7925 10.3182C35.8042 10.0904 35.5842 9.99276 35.3981 9.9524C34.3281 9.72199 33.2606 9.36792 32.1802 9.31846C30.1508 9.22473 28.1448 8.90841 26.1076 8.829C23.6603 8.73398 21.1897 8.77954 18.7554 8.40073C18.3102 8.33174 17.9197 8.55564 17.4823 8.53091C14.7044 8.3747 11.959 8.80037 9.20587 9.0516C8.12804 9.15053 7.04239 8.94095 5.95544 9.18698C6.87186 8.63374 7.91195 8.73919 8.88825 8.56605C9.96088 8.376 11.0817 8.43067 12.1439 8.20287C13.1801 7.98027 14.2748 8.28358 15.2602 7.82016C16.2405 7.35804 17.3313 8.04536 18.387 7.4778C17.3534 7.13675 16.3836 7.49733 15.4464 7.37887C15.3344 7.05864 15.6091 7.04563 15.725 6.92587C15.8148 6.83344 15.8525 6.728 15.7861 6.61996C15.7185 6.51061 15.5427 6.45204 15.4867 6.52493C14.9934 7.16929 14.06 6.59783 13.5667 7.23698C13.4652 7.36846 13.253 7.38148 13.1397 7.26953C12.3027 6.44032 11.6401 7.16278 10.9619 7.52467C10.699 7.66525 10.5076 7.94122 10.1913 8.03495C10.0989 7.75117 10.0103 7.50514 9.93745 7.25391C9.88798 7.08598 9.94656 6.91545 10.1106 6.8751C10.3748 6.80871 10.6977 6.83214 10.6794 6.44162C10.6599 6.00424 10.2303 6.28802 10.0403 6.11228C9.64716 5.74519 9.66929 5.04746 9.04185 4.87433C8.81926 5.3742 8.79062 5.40544 8.19052 5.77643C8.3298 6.0498 8.60708 5.85194 8.79713 5.95217C8.90778 6.01075 9.03404 6.12921 8.95073 6.20471C8.15537 6.92326 9.25274 7.25781 9.26966 7.86702C8.11762 8.03234 6.95257 7.88134 5.78101 8.14039C5.00908 8.31091 4.08224 8.4476 3.20487 8.26926C2.90938 8.20938 2.70891 8.08702 2.50454 7.91128L2.52927 7.94513C2.50844 7.37236 2.67116 7.06906 3.33895 6.91155C4.32827 6.67854 5.31108 6.51582 6.31862 6.50411C6.80547 6.4989 7.24676 6.45464 7.61515 5.93915C7.16866 5.70874 6.76902 5.73218 6.3017 5.82981C5.05464 6.09015 3.8271 6.43121 2.52927 6.48848C1.96953 6.51322 1.4228 6.15654 0.817489 6.51582C0.471227 6.7215 0.348864 6.08495 -0.00390625 5.93264C0.541521 5.24793 1.16115 4.79753 2.05023 4.81706C2.20254 4.82096 2.39389 4.80013 2.50193 4.71031C3.41315 3.96572 4.60424 3.93448 5.61569 3.46455C6.42276 3.08965 7.19079 3.13521 7.99786 3.40337C8.44696 3.55307 8.9221 3.85377 9.10824 2.99202C9.22019 2.47523 9.91922 2.64836 10.3371 2.46352C10.9736 2.18234 11.7976 2.48695 12.3496 1.85431C12.3964 1.80093 12.5878 1.81525 12.6763 1.86212C13.4027 2.25524 13.9637 1.83999 14.5065 1.46769C15.0533 1.09279 15.5779 0.824632 16.2392 1.18131C16.5008 1.3232 16.8132 1.2477 17.0358 1.12273C17.9496 0.61245 18.9897 0.715287 19.9595 0.483578C22.6567 -0.158178 25.4229 0.288317 28.1461 0.0813414C30.389 -0.0904877 32.5929 0.0839449 34.8045 0.34299C36.3132 0.520026 37.8506 0.602036 39.3137 0.969125C40.9773 1.38698 42.7373 0.960013 44.341 1.67076C45.5607 1.43905 46.7297 1.88034 47.9221 1.93501C49.889 2.02483 51.783 2.50257 53.707 2.82019C54.7028 2.98421 55.7338 2.9009 56.7062 3.23805C57.1774 2.83712 57.4755 3.32006 57.8595 3.43982C58.6015 3.67023 59.3657 3.85637 60.1558 3.71709C60.3055 3.69105 60.493 3.56088 60.5867 3.70928C61.0202 4.39529 61.7648 4.20524 62.3766 4.36405C65.2833 5.11646 68.2096 5.79466 71.0839 6.66812C71.9027 6.91676 72.6733 7.3997 73.5038 7.51816C75.4187 7.79152 77.1148 8.68061 78.8943 9.31065C80.692 9.94589 82.4702 10.6814 84.1676 11.5809C85.8937 12.4973 87.5951 13.484 89.3928 14.2351C92.3542 15.4705 95.084 17.1718 98.0493 18.3981C99.1883 18.8693 100.301 19.4382 101.314 20.1932C102.124 20.7972 103.169 20.9885 104.057 21.5014C104.493 21.7526 104.899 21.9726 105.223 22.3645C105.683 22.919 106.343 23.2431 106.957 23.5477C107.863 23.9955 108.699 24.5813 109.674 24.908C110.47 25.1749 111.046 25.7932 111.561 26.4402C111.885 26.8463 112.225 27.2212 112.755 27.3397C113.161 27.4295 113.458 27.6833 113.72 27.9723C114.84 29.209 116.318 30.0929 117.232 31.5339C117.335 31.6966 117.475 31.845 117.624 31.9687C119.577 33.5958 121.396 35.3909 123.53 36.7942C124.1 37.1691 124.495 37.7093 124.958 38.1766C125.749 38.9785 126.802 39.3443 127.689 39.9834C128.971 40.909 129.99 42.0923 131.152 43.131C133.251 45.0055 135.257 46.9829 137.306 48.912C137.505 49.0995 137.716 49.3377 137.959 49.4002C139.2 49.7243 140.016 50.6342 140.904 51.4504L140.867 51.4114C140.925 51.509 140.965 51.6743 141.042 51.6952C142.199 51.9933 143.01 52.924 144.093 53.3562C144.271 53.4265 144.478 53.5163 144.584 53.6621C145.374 54.7464 146.596 55.3674 147.461 56.3814C148.009 57.0245 148.876 57.3447 149.27 58.1388C149.635 57.9044 149.506 57.7183 149.382 57.5972C149.122 57.3447 148.899 57.1429 149.054 56.7029C149.195 56.3072 148.827 55.9974 148.689 55.6459C148.602 55.4259 148.302 55.094 148.662 54.9391C149.003 54.7933 148.822 55.4103 149.144 55.4324L149.114 55.3934C149.148 56.1002 149.573 55.7566 149.897 55.685C149.756 55.9779 149.801 56.2903 149.802 56.5962C149.802 56.7107 149.808 56.8331 149.847 56.9373C150.002 57.3551 150.298 57.0974 150.695 57.0739C151.875 57.0023 150.944 56.5454 150.859 56.3463C150.686 55.9349 150.349 55.6798 149.86 55.7253C150.08 54.8245 149.784 54.0279 149.361 53.2572L149.395 53.3041L149.4 53.2963Z" fill="white"/>
</g>
<defs>
<clipPath id="clip0_357_1157">
<rect width="173.741" height="91.0733" fill="white"/>
</clipPath>
</defs>
</svg>
