<svg width="156" height="82" viewBox="0 0 156 82" fill="none" xmlns="http://www.w3.org/2000/svg">
<g clip-path="url(#clip0_121_1105)">
<path fill-rule="evenodd" clip-rule="evenodd" d="M151.091 50.1726C151.005 50.1756 150.959 50.1311 150.993 50.0545C151.047 49.9313 151.144 49.9698 151.223 50.0257C151.286 50.0701 151.411 50.1008 151.352 50.2009C151.333 50.2323 151.181 50.1844 151.091 50.1726ZM117.006 73.0902C116.922 73.1902 116.818 73.2532 116.691 73.1914C116.593 73.1431 116.603 73.037 116.652 72.9622C116.721 72.8584 116.82 72.7776 116.952 72.8592C117.036 72.9102 117.066 72.9955 117.006 73.0911M22.1712 40.4289C22.1058 40.3247 22.0248 40.1985 22.1097 40.0961C22.2014 39.9827 22.364 39.8897 22.4992 40.0098C22.5894 40.0899 22.5683 40.2512 22.4956 40.3522C22.4217 40.455 22.2987 40.485 22.1712 40.4289ZM18.6512 35.4989C18.9222 35.564 19.1491 35.577 19.1342 35.8734C18.9061 35.9165 18.7611 35.8207 18.6512 35.4989ZM120.993 16.9237C120.957 16.9213 120.915 16.9294 120.905 16.916C120.82 16.7875 120.745 16.652 120.658 16.5257C120.608 16.4553 120.622 16.4448 120.723 16.4735C120.882 16.5196 121.016 16.5937 121.034 16.7786C121.039 16.8259 121.007 16.877 120.992 16.9246M44.3591 43.9317C43.9416 43.9935 43.6898 43.9717 43.4652 43.6975C43.8027 43.4912 44.0249 43.6364 44.3591 43.9317ZM19.3396 34.8609C19.5532 35.0224 19.7659 35.1832 19.9796 35.3447C19.7179 35.2311 19.4038 35.2079 19.3396 34.8609ZM150.072 52.9991C149.945 53.1236 149.81 53.1013 149.695 53.0516C149.581 53.0034 149.594 52.8888 149.669 52.8147C149.756 52.7299 149.87 52.6126 149.994 52.7496C150.049 52.8108 150.05 52.9212 150.072 52.9976M130.477 25.8399C130.423 25.941 130.337 25.9754 130.248 25.91C130.123 25.8188 129.979 25.714 130.058 25.5298C130.099 25.432 130.213 25.4192 130.307 25.4575C130.478 25.5288 130.531 25.6634 130.478 25.8405M143.295 56.7935C143.302 56.766 143.299 56.728 143.316 56.7105C143.43 56.5956 143.561 56.5018 143.728 56.5026C143.776 56.5027 143.861 56.5644 143.863 56.6009C143.875 56.8304 143.682 56.8129 143.537 56.8397C143.457 56.8544 143.359 56.8965 143.295 56.7935ZM131.699 53.6462C131.552 53.7526 131.399 53.9147 131.195 53.7651C131.119 53.709 131.146 53.5815 131.219 53.5144C131.341 53.4006 131.485 53.323 131.654 53.4178C131.743 53.4674 131.796 53.5409 131.698 53.6471M46.3087 44.5516C46.1069 44.7445 45.9423 44.6456 45.7857 44.5378C45.7188 44.4921 45.7189 44.4151 45.779 44.3911C45.9412 44.3256 46.1074 44.183 46.284 44.3245C46.3298 44.3612 46.303 44.4863 46.3087 44.5516ZM138.05 33.3922C137.933 33.5465 137.821 33.485 137.719 33.3898C137.625 33.3042 137.471 33.2067 137.544 33.0782C137.646 32.8988 137.822 32.9642 137.961 33.0638C138.078 33.1476 138.108 33.2658 138.05 33.3922ZM147.017 42.7878C147.19 42.7566 147.237 42.8975 147.304 42.995C147.379 43.1047 147.655 43.1702 147.472 43.3458C147.309 43.5017 147.104 43.3985 146.998 43.215C146.921 43.0822 146.909 42.9225 147.018 42.7883M140.407 35.431C140.434 35.5257 140.699 35.5718 140.536 35.767C140.41 35.9186 140.25 35.8265 140.122 35.7345C140.002 35.6491 139.818 35.5667 139.967 35.379C140.097 35.2137 140.242 35.3142 140.407 35.431ZM149.087 51.8976C149.01 51.9823 148.859 52.1275 148.662 52.0687C148.539 52.0319 148.541 51.8399 148.6 51.7314C148.699 51.547 148.869 51.4648 149.072 51.5779C149.16 51.6278 149.176 51.7274 149.088 51.8982M150.269 51.0488C150.081 50.9253 150.04 50.7312 150.096 50.5423C150.142 50.3897 150.303 50.4055 150.419 50.4746C150.597 50.5803 150.715 50.7368 150.605 50.9513C150.538 51.0808 150.404 51.0929 150.269 51.0488ZM14.8653 35.7192C15.2215 35.6732 15.5534 35.6983 15.8741 36.0511C15.3624 36.2512 15.1173 35.9734 14.8653 35.7192ZM151.768 50.0099C152.032 49.7941 152.307 49.585 152.818 49.7319C152.43 50.0143 152.152 50.1675 151.768 50.0099ZM48.8687 45.2472C48.3708 45.2461 47.8615 45.2761 47.5265 44.8098C47.9377 45.0926 48.5158 44.7978 48.8687 45.2472ZM17.6346 37.3247C18.2758 37.1794 18.3521 37.7307 18.7444 38.0676C18.09 38.0788 17.8029 37.8057 17.6346 37.3247ZM16.4269 33.4396C17.4714 33.7667 17.4778 33.7706 17.7189 34.2731C17.2195 34.0377 16.6946 34.0228 16.4269 33.4396ZM12.3079 33.7364C12.5174 33.5683 12.735 33.7045 12.9347 33.7312C13.1467 33.7603 13.4101 33.8814 13.3016 34.1512C13.2145 34.3671 12.9424 34.4264 12.7381 34.2807C12.553 34.1492 12.2534 34.0731 12.3064 33.7367M14.5445 35.2048C14.4412 35.3995 14.3049 35.4327 14.1319 35.3642C13.7879 35.2283 13.4517 34.7638 13.5766 34.5772C13.6783 34.4244 13.9207 34.3787 13.993 34.4819C14.1702 34.7323 14.6586 34.768 14.5445 35.2048ZM30.7278 43.0524C30.4803 43.1191 30.362 43.0105 30.2377 42.9097C30.0015 42.7169 29.8846 43.0876 29.7827 43.0497C29.4533 42.9251 28.9257 42.983 28.9797 42.3834C30.1654 42.1172 30.4196 42.2099 30.7278 43.0524ZM11.3449 32.7229C11.2894 32.7561 11.2435 32.7963 11.1916 32.8153C10.8822 32.9276 10.2541 32.6505 10.2259 32.2963C10.2018 31.9913 10.0318 31.922 9.85747 31.8059C9.69735 31.6997 9.50551 31.6374 9.35339 31.5222C9.19077 31.3993 9.08059 31.1985 9.2512 31.0321C9.40823 30.8776 9.55349 31.0581 9.64196 31.1763C9.89655 31.5154 10.142 31.7075 10.6051 31.469C11.0011 31.2642 11.0037 31.7581 11.2 31.9191C11.4859 32.1547 11.3336 32.4509 11.3449 32.7229ZM42.5772 43.3621C42.0518 43.3771 41.6398 43.2844 41.2468 43.1439C39.6343 42.5675 38.0295 41.9743 36.4218 41.3818C36.271 41.3267 36.1278 41.2446 35.9921 41.1584C35.8509 41.0688 35.7436 40.9442 35.8359 40.7592C35.9158 40.6008 36.0132 40.5236 36.2139 40.6192C36.4128 40.7136 36.6435 40.739 36.8528 40.8183C38.0854 41.2887 39.2696 41.8863 40.5371 42.2681C41.0023 42.4083 41.4558 42.5073 41.7731 42.9489C41.9041 43.1321 42.2157 43.1864 42.5766 43.363M127.905 56.8091C127.105 57.8653 126.066 58.6752 125.108 59.5721C123.67 60.9172 122.184 62.2123 120.88 63.6895C121.091 63.5738 121.297 63.4616 121.575 63.3105C121.412 63.6745 121.365 64.0854 120.896 63.6714C120.565 63.9625 120.667 64.4637 120.275 64.7729C119.86 65.1001 119.505 65.4889 118.93 65.5763C119.063 65.7747 119.195 65.6515 119.299 65.6921C119.436 65.7451 119.496 65.8584 119.491 65.9916C119.486 66.0924 119.414 66.1711 119.3 66.1684C118.787 66.1584 118.634 66.5726 118.366 66.896C117.606 67.8171 116.799 68.7014 116.003 69.5933C115.834 69.7821 115.594 69.9128 115.536 70.2018C115.689 70.2178 115.836 70.2324 116.058 70.2542C115.782 70.6481 115.497 70.9304 115.083 71.0533C114.679 71.1738 114.431 71.4602 114.238 71.8072C113.92 72.3786 113.479 72.8721 113.12 73.4135C112.542 74.2814 112.349 75.2398 112.013 76.1688C111.941 76.3676 111.962 76.5533 112.011 76.7408C112.081 77.0109 112.298 77.039 112.434 76.8552C113.118 75.9245 114.239 75.4181 114.816 74.3865C114.858 74.3102 114.961 74.2107 115.03 74.215C115.403 74.2371 115.535 74.0831 115.523 73.7094C115.517 73.524 115.629 73.3285 115.878 73.3283C116.05 73.328 116.591 73.8196 116.537 73.9449C116.439 74.1715 116.26 74.5337 116.049 74.4509C115.42 74.2071 115.211 74.7431 115.009 75.0341C114.795 75.3431 114.54 75.6047 114.252 75.7352C113.501 76.0762 113.313 76.8283 112.818 77.3251C113.005 77.5356 113.15 77.4876 113.217 77.3872C113.679 76.6921 114.444 76.4476 115.141 76.1433C115.816 75.8493 116.355 75.4723 116.647 74.7894C116.696 74.6754 116.753 74.4748 116.876 74.5571C117.439 74.9339 117.646 74.3615 118.016 74.1903C118.542 73.9468 118.955 73.5401 119.526 73.3396C120.454 73.0137 121.045 72.1537 121.852 71.6092C122.481 71.185 122.619 70.9433 122.993 70.1636C123.109 69.9234 123.308 69.9273 123.474 70.0495C123.785 70.279 123.994 70.1434 124.236 69.9369C124.827 69.4307 125.488 69.0222 126.129 68.5826C126.595 68.2634 126.968 67.8074 127.386 67.4175C127.563 67.2527 127.669 67.0683 128.005 67.3144C128.243 67.4881 128.522 67.1438 128.681 66.5553C128.705 66.4687 128.762 66.3723 128.832 66.32C130.063 65.3847 131.163 64.29 132.533 63.5196C133.68 62.8741 134.728 62.0582 135.605 61.0452C136.414 60.1117 137.4 59.3821 138.422 58.6981C138.583 58.5914 138.761 58.4968 138.805 58.2783C138.674 58.1145 138.525 58.4594 138.399 58.2664C139.03 57.052 140.335 56.6548 141.318 55.8664C141.556 55.6756 141.735 55.8438 141.887 56.0282C141.914 55.5678 142.159 55.2405 142.538 55.013C143.67 54.3376 144.783 53.6258 145.988 53.0848C146.24 52.9716 146.513 52.7416 146.816 52.8601C146.852 53.0436 146.792 53.1446 146.707 53.1686C145.885 53.4035 145.305 54.0137 144.626 54.4744C143.759 55.0633 142.949 55.774 141.877 55.9984C141.77 56.1754 141.664 56.352 141.556 56.5304L141.554 56.4949C141.678 56.8667 141.405 56.9927 141.164 57.16C139.948 58.0003 138.791 58.9097 137.663 59.8715C136.624 60.7568 135.847 61.8818 134.786 62.7363C133.196 64.0174 131.635 65.3344 129.951 66.4945C128.613 67.4166 127.395 68.49 126.139 69.5137C125.309 70.1894 124.465 70.8479 123.617 71.4999C123.126 71.8779 122.645 72.2567 122.332 72.8431C122.707 72.9424 123.097 72.3198 123.441 72.886C123.524 73.0227 123.656 72.9426 123.738 72.8128C124.257 71.9899 125.1 71.5491 125.856 71.0019C126.353 70.6437 126.794 70.2112 127.275 69.8295C127.742 69.4582 128.133 68.946 128.802 68.9013C128.911 69.2588 128.397 69.2395 128.467 69.5545C128.529 69.5495 128.598 69.5659 128.632 69.5387C129.969 68.4694 131.311 67.4106 132.789 66.5384C133.094 66.3589 133.359 66.1161 133.64 65.9031C133.45 65.9431 133.263 65.9847 133.076 66.0225C132.843 66.07 132.822 65.8906 132.788 65.7363C132.753 65.5785 132.85 65.4645 132.986 65.4807C133.568 65.5463 133.833 65.0741 134.196 64.7808C134.516 64.5222 134.76 64.1566 135.28 64.0792C135.122 64.4765 134.783 64.629 134.544 64.874C134.221 65.2064 133.708 65.373 133.616 65.9113C134.073 65.7174 134.485 65.4475 134.859 65.1271C136.238 63.9509 137.612 62.768 138.984 61.582C139.194 61.3996 139.447 61.221 139.3 60.7355C138.003 61.6867 137.031 62.9474 135.63 63.6706C136.444 62.8518 137.281 62.0543 138.065 61.2078C138.65 60.5752 139.375 60.0878 139.881 59.3708C140.054 59.1262 140.384 58.9923 140.641 58.8088C140.501 58.5362 140.635 58.3786 141.044 58.336C141.023 58.6144 140.695 58.6081 140.605 58.8151C140.7 58.9004 141.003 58.912 140.766 59.1261C140.455 59.4076 140.118 59.6576 140.085 60.1462C140.805 59.4203 141.672 58.9068 142.49 58.3212C144.181 57.1113 146.079 56.2467 147.779 55.0724C148.707 54.4301 149.656 53.8156 150.567 53.1446C151.068 52.7752 151.611 52.5061 152.229 52.3791C152.479 52.3277 152.763 52.2631 152.946 52.1055C153.314 51.788 153.729 51.6742 154.188 51.6212C154.412 51.5948 154.645 51.5468 154.81 51.3755C154.861 51.3213 154.869 51.2024 154.86 51.1168C154.855 51.0748 154.77 51.0185 154.715 51.0091C154.399 50.9567 154.083 51.1406 153.761 51.0172C153.837 50.7466 154.093 50.8201 154.268 50.7673C154.528 50.6881 154.68 50.5357 154.634 50.2831C154.569 49.919 154.595 49.6278 154.992 49.4492C154.737 49.4315 154.48 49.4194 154.225 49.3953C153.492 49.3274 153.34 48.9948 153.801 48.3549C153.937 48.1663 153.76 48.0641 153.812 47.926L153.821 47.9606C153.698 47.8556 153.578 47.7483 153.452 47.647C153.355 47.5678 153.252 47.4972 153.183 47.445C153.158 47.2257 153.323 47.2084 153.395 47.1161C153.658 46.7836 153.609 46.4847 153.187 46.3825C152.774 46.2815 152.458 46.0022 152.048 45.8806C151.61 45.7504 151.162 45.4796 151.103 44.9084C151.33 44.6435 151.659 44.9447 151.947 44.7198C151.616 44.5085 151.292 44.334 150.916 44.3048C149.766 44.2163 148.819 43.7656 148.107 42.8339C148.002 42.697 147.773 42.6514 147.594 42.5805C147.441 42.5204 147.23 42.4816 147.2 42.3256C147.045 41.5016 146.291 41.1884 145.803 40.6557C144.749 39.5099 143.67 38.3881 142.592 37.2654C141.139 35.7526 139.578 34.3488 138.175 32.7872C137.973 32.5639 137.762 32.288 137.363 32.5463C137.273 32.6051 137.006 32.433 136.846 32.3301C136.613 32.1796 136.741 32.0126 136.856 31.8455C136.932 31.7366 136.961 31.5962 136.856 31.4892C136.351 30.9741 135.968 30.3146 135.232 30.0309C135.127 30.4152 135.662 30.4707 135.512 30.874C134.965 30.7939 134.833 30.2544 134.43 30.0096C135.056 29.6442 135.065 29.6357 134.653 29.2275C133.25 27.8402 131.826 26.4744 130.441 25.0693C129.762 24.3799 129.151 23.6212 128.51 22.8944C128.305 22.6625 128.149 22.3582 127.746 22.3669C127.631 22.9101 128.298 23.0999 128.261 23.5877C128.009 23.6854 127.956 23.4573 127.846 23.3263C127.682 23.1292 127.559 22.9158 127.227 23.1279C127.032 23.2516 126.83 23.1076 126.914 22.8517C127.037 22.4756 126.748 22.3152 126.565 22.1147C126.258 21.776 125.991 21.4752 126.02 20.9413C126.048 20.432 125.596 20.1781 125.166 19.9901C124.96 19.9005 124.709 19.8762 124.546 19.7417C124.395 19.616 124.2 19.3361 124.501 19.1882C125.081 18.9008 124.683 18.7449 124.428 18.669C124.121 18.5773 123.811 18.4858 123.502 18.4089C122.516 18.1641 121.813 17.6296 121.469 16.649C121.334 16.2642 120.906 16.1228 120.681 15.7987C120.562 15.6296 120.496 15.8767 120.404 15.8929C120.126 15.9425 119.852 15.8452 119.558 15.8886C119.148 15.95 119.225 15.3393 118.898 15.2802C118.621 15.2307 118.369 15.7412 118.04 15.3355C117.746 14.9723 117.652 15.4834 117.44 15.4872C117.767 15.4915 118.093 15.5001 118.163 15.9241C118.166 15.9461 118.139 15.9918 118.119 15.996C117.725 16.0795 117.793 15.5967 117.531 15.5136C117.501 15.5038 117.471 15.4931 117.441 15.4824C117.437 15.0648 117.074 15.1093 116.793 15.0193C117.113 16.1982 117.906 17.0489 118.796 18.0259C118.747 17.3941 118.339 17.0965 118.202 16.5662C118.884 16.783 119.254 17.2062 119.508 17.7582C119.618 17.9982 119.621 18.0085 119.224 18.3188C119.134 18.3893 119.086 18.4623 119.139 18.5296C119.478 18.9657 118.957 19.4468 119.336 19.8969C118.59 19.9038 118.297 19.2396 117.727 19.2098C117.721 19.0825 117.695 19.0087 117.719 18.9574C117.822 18.7328 118.19 18.4979 118.026 18.315C117.78 18.039 117.712 17.5702 117.256 17.4898C116.733 17.3976 116.539 16.9401 116.149 16.583C116.561 16.4129 116.74 16.7608 117.049 16.7829C116.763 16.0439 115.761 16.3597 115.576 15.5743C115.259 15.9483 115.761 16.0756 115.66 16.3097C115.641 16.4165 115.587 16.461 115.516 16.4226C115.115 16.204 114.55 16.271 114.332 15.7205C114.286 15.6069 114.108 15.6212 113.987 15.705C113.884 15.7763 113.926 15.8713 113.943 15.9628C113.995 16.2304 114.188 16.4104 114.329 16.6254C114.479 16.8513 114.816 16.9857 114.725 17.409C114.244 17.3473 113.924 17.1175 113.74 16.6686C113.686 16.5344 113.536 16.505 113.406 16.5475C113.232 16.6057 113.299 16.755 113.322 16.8735C113.369 17.1296 113.437 17.3807 113.602 17.5909C113.702 17.7182 113.854 17.8295 113.897 17.972C113.987 18.2752 114.388 18.6515 113.945 18.8937C113.493 19.1404 113.337 18.6415 113.188 18.3528C112.963 17.9155 112.717 17.5059 112.374 17.0816C112.17 17.494 112.411 17.7148 112.528 17.9612C112.707 18.3429 112.885 18.7265 113.095 19.0914C113.309 19.4649 113.494 19.7464 112.87 19.9479C112.432 20.0907 112.384 20.3263 112.316 21.0336C111.971 21.0666 112.116 20.5767 111.817 20.561C111.78 20.6117 111.702 20.6871 111.713 20.7049C112.39 21.7527 112.104 22.9387 112.171 24.0671C112.188 24.373 112.226 24.6423 112.37 24.8914C113.687 27.1815 115.381 29.1612 117.275 30.9933C118.228 31.9143 119.118 32.9 120.105 33.7915C121.47 35.0256 122.772 36.3261 124.239 37.4529C125.262 38.2375 126.201 39.1328 127.17 39.987C127.607 40.3717 128.057 40.7332 128.536 41.0677C128.802 41.2534 128.629 41.3755 128.359 41.3096C128.353 41.3745 128.335 41.4402 128.346 41.5011C128.424 41.9123 128.131 41.935 127.873 41.9102C127.634 41.8866 127.396 41.6959 127.469 41.4614C127.546 41.2118 127.797 41.0806 128.091 41.2728C128.168 41.3232 128.276 41.3226 128.371 41.345C128.25 40.8611 127.798 40.947 127.478 40.7802C127.013 40.5379 126.862 40.7214 126.657 41.0791C126.49 41.3735 126.257 41.0488 126.057 41.0724C125.81 41.1019 125.303 40.9161 125.601 41.5211C125.623 41.5675 125.618 41.6803 125.598 41.6883C124.771 41.9863 124.21 42.9049 123.103 42.5954C122.504 42.4267 121.994 42.204 121.543 41.8046L121.59 41.7993C120.703 42.5786 120.094 42.6719 119.109 42.1388C118.846 41.9965 118.589 41.8377 118.3 41.9537C117.354 42.3342 116.305 42.3615 115.39 42.8351L115.38 42.7989C115.983 43.1364 116.505 42.699 117.06 42.6133C117.568 42.5349 118.061 42.3583 118.565 42.2456C118.711 42.2123 118.92 42.1943 118.957 42.4098C119.003 42.6711 118.787 42.6193 118.636 42.6175C118.242 42.6148 117.865 42.694 117.504 42.8504C116.761 43.1713 115.949 43.2279 115.178 43.4448C114.912 43.52 114.603 43.6024 114.356 43.3462L114.396 43.3365C114.039 43.8741 113.509 43.7058 113.011 43.6763L113.054 43.6745C112.918 43.9793 112.581 43.9877 112.346 44.1463C112.158 44.273 111.74 44.0937 111.899 44.6407C111.965 44.8703 111.245 45.0333 111.066 44.7267C110.872 44.394 110.679 44.456 110.434 44.5204C109.864 44.6736 109.258 44.7584 108.855 45.2666C108.598 44.954 108.007 44.8963 108.187 44.2588C108.234 44.0928 107.924 44.0356 107.715 44.0866C107.479 44.1449 107.255 44.2474 107.252 44.5104C107.249 44.7019 107.439 44.6233 107.544 44.586C107.658 44.5456 107.583 44.2155 107.831 44.3731C107.96 44.4548 107.885 44.6103 107.87 44.7359C107.862 44.7996 107.867 44.906 107.836 44.9199C107.293 45.1503 107.031 45.7763 106.454 45.9279C106.176 46.0021 105.781 46.1108 105.761 45.5655C105.752 45.3509 105.554 45.3544 105.389 45.3673C105.195 45.3822 104.964 45.349 104.831 45.4992C104.316 46.0833 103.655 45.9657 102.983 46.0087C102.48 46.0411 101.806 45.585 101.447 46.3423C101.072 46.2202 100.692 46.2241 100.327 46.3594C100.157 46.4228 100.07 46.7776 99.8879 46.6769C99.334 46.3691 98.8868 46.9468 98.3214 46.7785C97.773 46.6154 97.1655 46.7674 96.608 46.9473C96.1152 47.1059 95.6153 47.1163 95.0734 47.173C95.1318 46.6948 95.5665 46.8228 95.7194 46.5963L95.725 46.6225C95.0707 46.3635 94.5917 46.9042 94.0147 47.004C93.8733 47.0291 93.7724 47.2303 93.5768 47.1139C93.4029 46.9287 93.7989 46.8337 93.6615 46.6113C93.5562 46.4399 93.4373 46.3386 93.3054 46.4642C92.8316 46.9133 92.2073 46.9705 91.725 46.7505C91.0514 46.4445 90.301 46.5866 89.6538 46.2082C89.2198 45.9544 88.7092 46.1299 88.2392 46.2468C88.6521 46.3338 89.0645 46.4217 89.5731 46.5277C89.0479 46.8206 88.6066 46.8426 88.1583 46.7329C87.8978 46.6692 87.9031 46.4881 88.0107 46.2884C86.3404 46.3282 84.6819 46.7804 82.9969 46.4312C82.7795 46.3861 82.4694 46.296 82.334 46.6391C82.4704 46.8218 82.8051 46.591 82.8938 46.929C82.4955 47.0504 82.1233 46.992 81.6947 46.8892C81.9245 46.6275 82.1731 46.7066 82.376 46.6344C82.1754 46.5263 81.9543 46.3855 81.7364 46.4677C81.0458 46.7294 80.3474 46.7113 79.6385 46.5983C79.4025 46.5609 79.4883 46.7456 79.424 46.839C79.1747 47.2013 78.7343 47.1304 78.37 47.0818C77.0635 46.9073 75.7517 46.9555 74.4418 46.9278C73.903 46.9171 73.3537 47.0855 72.8541 46.7426C72.806 46.7096 72.714 46.6927 72.6665 46.7169C71.771 47.1785 70.8409 46.8314 69.9276 46.8429C70.1671 46.9431 70.4576 47.0654 70.3167 47.3698C70.2208 47.5753 69.9722 47.7183 69.7185 47.7951C69.4116 47.8887 69.135 48.2191 68.671 47.8133C69.1639 47.555 69.2704 46.9293 69.8901 46.8402C69.4084 46.7771 68.8517 46.2872 68.5198 47.0801C67.8953 46.8531 67.6523 47.4729 67.2282 47.7364C67.0634 47.3535 67.4647 47.1897 67.4394 46.8638C66.5852 46.641 65.7064 46.6268 64.8474 46.5779C61.9305 46.4114 59.0556 45.9699 56.1968 45.3943C55.7873 45.312 55.3578 45.1922 55.0603 45.64C54.9248 45.8442 54.698 45.8931 54.5873 45.7223C54.4557 45.5173 54.8167 45.4654 54.8745 45.2001C54.381 45.0755 53.9117 44.693 53.4112 45.242C53.3463 45.3136 53.2399 45.3121 53.1668 45.2184C52.4168 44.2574 51.2704 44.6751 50.3225 44.4029C50.2761 44.3899 50.2065 44.4359 50.1545 44.4674C49.5384 44.8351 49.489 44.8644 49.1686 44.3262C48.9056 43.8848 48.4705 43.9131 48.1017 43.7558C47.9745 43.7012 47.8428 43.7726 47.8416 43.9385C47.8401 44.2544 47.6647 44.1339 47.5374 44.0527C47.4141 43.9752 47.3798 43.7638 47.1617 43.8318C46.7097 43.9711 46.3981 43.9457 46.2843 43.3502C46.2382 43.1126 45.8066 42.9587 45.5232 43.049C45.1802 43.1585 44.9612 42.9686 44.7082 42.8552C43.7136 42.4107 42.726 41.963 41.5863 42.2181C41.4724 42.2435 41.2837 42.2133 41.2166 42.1347C40.3502 41.1244 39.0057 41.1931 37.9171 40.6852C36.9729 40.245 35.8837 40.147 34.9737 39.5861C34.8962 39.7511 34.8444 39.8092 34.8515 39.8577C34.8968 40.1529 35.4711 40.319 35.1443 40.6593C34.95 40.8605 34.603 40.6029 34.3394 40.507C33.4559 40.1869 32.5582 39.9049 31.7185 39.4714C31.4312 39.3232 31.1341 39.1994 30.7996 39.1702C30.3999 39.1342 30.1227 38.9631 30.1943 38.4841C30.2393 38.1858 30.077 38.0542 29.8111 37.9039C28.9642 37.4282 28.077 37.0894 27.1633 36.7611C26.3769 36.4786 25.6154 36.0308 24.8522 35.6437C23.7675 35.0941 22.7728 34.3466 21.6369 33.9476C20.9544 33.7081 20.3508 33.2641 19.5987 33.106C19.6215 33.5087 19.9467 33.5448 20.139 33.6478C21.7614 34.5131 23.3408 35.4595 25.0053 36.2494C25.5921 36.5279 26.2298 36.6707 26.8026 36.9432C27.4676 37.2592 28.2312 37.3965 28.782 37.946C28.8969 38.0601 29.0636 38.1576 28.9697 38.3328C28.8799 38.4991 28.6821 38.4735 28.5329 38.422C27.6762 38.1245 26.768 37.9157 25.9818 37.4856C24.5046 36.6784 22.9482 36.0388 21.4717 35.218C19.6981 34.2318 17.9684 33.136 16.0819 32.3563C15.737 32.2135 15.5569 31.8869 15.2366 31.7161C13.2026 30.6309 11.4421 29.1478 9.60101 27.7847C8.88048 27.2507 8.02162 26.9317 7.35797 26.2896C7.76864 27.0758 8.55042 27.4489 9.16711 27.9918C9.84473 28.588 10.6618 29.0318 11.3158 29.6504C11.9536 30.254 12.8592 30.5105 13.3574 31.2628C13.8525 32.0119 14.9207 31.9949 15.4238 32.8512C14.5452 32.6477 14.0138 31.975 13.2993 31.6554C13.0821 31.8339 13.271 31.9614 13.3015 32.096C13.3253 32.2001 13.3066 32.291 13.2131 32.3389C13.1181 32.3872 12.9685 32.3531 12.9602 32.2773C12.8883 31.6088 11.9815 31.6116 11.9073 30.9467C11.892 30.8099 11.7474 30.7093 11.619 30.7398C10.6695 30.9666 10.5114 30.1699 10.187 29.6217C10.0613 29.409 10.0447 29.1312 9.86104 28.9287C9.67345 29.0898 9.50487 29.2259 9.3451 29.3724C9.2378 29.47 9.20586 29.616 9.30462 29.7151C9.46313 29.8759 9.70178 29.9983 9.52077 30.2669C9.31866 30.5682 9.13668 30.1823 8.92648 30.2249C8.49012 30.3156 8.20544 30.8191 7.68668 30.6716C7.74426 30.2219 7.73743 30.1874 7.47226 29.6665C7.68855 29.5329 7.79969 29.7923 7.97739 29.8032C8.08095 29.8093 8.22134 29.7798 8.19486 29.6905C7.94106 28.8394 8.86201 29.0749 9.13624 28.6509C8.39176 28.0379 7.5019 27.6433 6.78394 26.9555C6.31082 26.5025 5.71345 26.0068 5.0155 25.7553C4.78052 25.6705 4.58591 25.6709 4.36556 25.7073L4.39765 25.694C4.13634 26.0906 4.12098 26.3753 4.52597 26.7743C5.12611 27.3652 5.7519 27.9034 6.4602 28.3455C6.80265 28.5587 7.09603 28.78 7.13495 29.3036C6.71964 29.2745 6.44679 29.0859 6.15795 28.8156C5.3871 28.0944 4.66481 27.3245 3.7706 26.7253C3.38495 26.4668 2.84432 26.484 2.57042 25.9691C2.4138 25.6744 2.05315 26.0724 1.73783 26.0284C1.82924 26.748 2.07405 27.3336 2.71194 27.7025C2.82145 27.7653 2.94796 27.8624 2.98579 27.9725C3.31041 28.8919 4.14025 29.4268 4.65407 30.1949C5.0641 30.8077 5.62748 31.1061 6.31432 31.2637C6.69673 31.351 7.16257 31.3426 6.9234 32.0329C6.7802 32.447 7.34964 32.6253 7.56592 32.936C7.89556 33.4091 8.61007 33.5482 8.72851 34.2337C8.73872 34.2917 8.88036 34.3639 8.9632 34.3688C9.6467 34.4032 9.86517 34.9387 10.0892 35.4359C10.3149 35.9367 10.5709 36.3524 11.1926 36.3845C11.439 36.3967 11.6277 36.5847 11.7315 36.769C12.1588 37.5236 12.9394 37.8985 13.5263 38.48C15.1597 40.0955 17.3104 40.9701 19.1493 42.2889C20.6633 43.3761 22.2987 44.2013 23.9761 44.9699C25.1205 45.4941 26.2442 46.0978 27.4382 46.4677C28.7959 46.888 29.8581 47.9479 31.2995 48.1351C32.0634 48.8242 33.081 49.015 33.9487 49.4896C35.38 50.2727 36.9266 50.7498 38.4255 51.3531C39.2012 51.6656 39.8952 52.1684 40.7288 52.3483C40.8899 52.835 41.3088 52.6214 41.6322 52.7019C42.2568 52.8582 42.8779 53.0554 43.3774 53.4941C43.4721 53.577 43.5488 53.7498 43.6791 53.6851C44.2813 53.386 44.7266 53.8411 45.2282 53.992C47.6101 54.7106 49.9738 55.4901 52.3848 56.109C53.0715 56.2854 53.825 56.2753 54.464 56.5489C55.9374 57.1796 57.521 57.2803 59.0521 57.6003C60.5984 57.9244 62.1739 58.1691 63.7629 58.263C65.3795 58.3572 67.0088 58.391 68.6049 58.633C71.2335 59.0332 73.8985 59.0037 76.5258 59.4121C77.5351 59.5687 78.568 59.6451 79.61 59.5465C80.4433 59.4674 81.2657 59.7819 82.1151 59.801C82.532 59.8108 82.9142 59.8299 83.3124 59.692C83.8764 59.4972 84.4832 59.5518 85.0494 59.6006C85.8836 59.6736 86.7274 59.6186 87.5584 59.807C88.2373 59.961 88.9108 59.7709 89.5543 59.5348C89.9586 59.3867 90.3606 59.2676 90.7867 59.4118C91.1129 59.523 91.4323 59.4711 91.7419 59.3791C93.0678 58.986 94.4943 58.9962 95.7616 58.3694C95.9045 58.2984 96.0679 58.2539 96.2262 58.2302C98.31 57.9193 100.37 57.4312 102.485 57.3561C103.05 57.3361 103.563 57.1239 104.091 56.992C104.997 56.765 105.9 56.9593 106.802 56.8884C108.109 56.7851 109.34 56.3861 110.61 56.151C112.902 55.7272 115.174 55.1907 117.455 54.7069C117.677 54.6599 117.929 54.582 118.128 54.6426C119.146 54.9471 120.115 54.6542 121.095 54.4586L121.052 54.4705C121.135 54.426 121.235 54.3264 121.298 54.3447C122.246 54.6318 123.221 54.3219 124.173 54.4822C124.33 54.5092 124.515 54.5347 124.653 54.4768C125.679 54.0492 126.811 54.1358 127.86 53.7899C128.525 53.5706 129.276 53.717 129.898 53.3246C130.055 53.6474 129.883 53.7238 129.744 53.7562C129.451 53.823 129.206 53.87 129.126 54.2482C129.056 54.5889 128.662 54.6502 128.413 54.8396C128.257 54.9579 127.901 55.0634 128.09 55.3283C128.268 55.5784 128.406 55.0636 128.643 55.1864L128.605 55.2011C128.933 54.7152 129.087 55.1418 129.285 55.332C129.311 55.0636 129.478 54.862 129.61 54.646C129.66 54.5649 129.716 54.4805 129.789 54.4235C130.078 54.1944 130.177 54.5046 130.448 54.6921C131.253 55.2505 130.397 55.1733 130.251 55.2779C129.952 55.4946 129.603 55.5301 129.276 55.2872C129.044 56.0197 128.492 56.4565 127.861 56.82L127.905 56.8014L127.905 56.8091Z" fill="white"/>
</g>
<defs>
<clipPath id="clip0_121_1105">
<rect width="155.57" height="81.5482" fill="white" transform="matrix(1 0 0 -1 0 81.5479)"/>
</clipPath>
</defs>
</svg>
