<svg width="264" height="264" viewBox="0 0 264 264" fill="none" xmlns="http://www.w3.org/2000/svg">
<path d="M26.2967 1.72473H237.703C251.274 1.72473 262.275 12.726 262.275 26.2968V237.703C262.275 251.274 251.274 262.275 237.703 262.275H26.2967C12.726 262.275 1.72473 251.274 1.72473 237.703V26.2968C1.72473 12.726 12.726 1.72473 26.2967 1.72473Z" fill="url(#paint0_linear_121_1111)"/>
<path d="M26.2967 1.72473H237.703C251.274 1.72473 262.275 12.726 262.275 26.2968V237.703C262.275 251.274 251.274 262.275 237.703 262.275H26.2967C12.726 262.275 1.72473 251.274 1.72473 237.703V26.2968C1.72473 12.726 12.726 1.72473 26.2967 1.72473Z" fill="url(#paint1_linear_121_1111)"/>
<path d="M26.2967 1.72473H237.703C251.274 1.72473 262.275 12.726 262.275 26.2968V237.703C262.275 251.274 251.274 262.275 237.703 262.275H26.2967C12.726 262.275 1.72473 251.274 1.72473 237.703V26.2968C1.72473 12.726 12.726 1.72473 26.2967 1.72473Z" stroke="url(#paint2_linear_121_1111)" stroke-width="3.44946"/>
<path fill-rule="evenodd" clip-rule="evenodd" d="M213.726 173.81C213.726 181.299 207.655 187.369 200.166 187.369L103.258 187.369C95.761 187.369 89.6869 181.286 89.6983 173.789L89.8247 90.6326C89.836 83.152 95.9035 77.0938 103.384 77.0938L200.166 77.0938C207.655 77.0938 213.726 83.1646 213.726 90.6533L213.726 173.81ZM144.656 97.5356C144.656 93.8333 147.657 90.8319 151.36 90.8319H158.739C162.441 90.8319 165.442 93.8333 165.442 97.5356C165.442 101.238 162.441 104.239 158.739 104.239H151.36C147.657 104.239 144.656 101.238 144.656 97.5356ZM117.844 90.8318C114.142 90.8318 111.14 93.8331 111.14 97.5355C111.14 101.238 114.142 104.239 117.844 104.239H125.223C128.925 104.239 131.927 101.238 131.927 97.5355C131.927 93.8331 128.925 90.8318 125.223 90.8318H117.844ZM178.198 97.5355C178.198 93.8331 181.199 90.8318 184.901 90.8318H192.28C195.983 90.8318 198.984 93.8331 198.984 97.5355C198.984 101.238 195.983 104.239 192.28 104.239H184.901C181.199 104.239 178.198 101.238 178.198 97.5355ZM151.36 162.894C147.657 162.894 144.656 165.895 144.656 169.597C144.656 173.3 147.657 176.301 151.36 176.301H158.739C162.441 176.301 165.442 173.3 165.442 169.597C165.442 165.895 162.441 162.894 158.739 162.894H151.36ZM178.198 169.597C178.198 165.895 181.199 162.894 184.901 162.894H192.281C195.983 162.894 198.984 165.895 198.984 169.597C198.984 173.3 195.983 176.301 192.281 176.301H184.901C181.199 176.301 178.198 173.3 178.198 169.597ZM117.844 162.894C114.142 162.894 111.14 165.895 111.14 169.597C111.14 173.3 114.142 176.301 117.844 176.301H125.223C128.925 176.301 131.927 173.3 131.927 169.597C131.927 165.895 128.925 162.894 125.223 162.894H117.844Z" fill="white"/>
<path d="M119.136 141.786L64.7122 183.346C53.778 192.06 42.0752 185.658 42.0752 173.337V91.0035C42.0752 78.6827 53.778 72.4423 64.7122 81.1558L119.136 122.232C125.908 127.628 125.908 136.39 119.136 141.786Z" fill="url(#paint3_linear_121_1111)"/>
<defs>
<linearGradient id="paint0_linear_121_1111" x1="7.69509" y1="256.294" x2="256.294" y2="7.70552" gradientUnits="userSpaceOnUse">
<stop stop-color="#000428"/>
<stop offset="1" stop-color="#169AFF"/>
</linearGradient>
<linearGradient id="paint1_linear_121_1111" x1="7.70552" y1="256.294" x2="256.294" y2="7.70552" gradientUnits="userSpaceOnUse">
<stop/>
<stop offset="1" stop-color="#2D2D2D"/>
</linearGradient>
<linearGradient id="paint2_linear_121_1111" x1="254.732" y1="5.11614" x2="0.0628245" y2="263.827" gradientUnits="userSpaceOnUse">
<stop stop-color="#0CCDFF"/>
<stop offset="0.375" stop-color="#06AAFF"/>
<stop offset="0.809096" stop-color="#01295D"/>
</linearGradient>
<linearGradient id="paint3_linear_121_1111" x1="123.903" y1="92.6603" x2="48.3019" y2="187.611" gradientUnits="userSpaceOnUse">
<stop stop-color="#0CCDFF"/>
<stop offset="0.807292" stop-color="#0071D2"/>
</linearGradient>
</defs>
</svg>
