<svg width="36" height="36" viewBox="0 0 36 36" fill="none" xmlns="http://www.w3.org/2000/svg">
<g clip-path="url(#clip0_434_2800)">
<path fill-rule="evenodd" clip-rule="evenodd" d="M5.40098 0.000488281H30.601C33.5833 0.000488281 36.001 2.41815 36.001 5.40049V30.6005C36.001 33.5828 33.5833 36.0005 30.601 36.0005H5.40098C2.41864 36.0005 0.000976562 33.5828 0.000976562 30.6005V5.40049C0.000976562 2.41815 2.41864 0.000488281 5.40098 0.000488281ZM6.54123 11.6355V24.3598C6.54123 24.4482 6.57068 24.5955 6.62959 24.8017L14.0963 17.6221L6.6075 11.2157C6.56332 11.4808 6.54123 11.6207 6.54123 11.6355ZM7.91087 10.2658C7.76359 10.2658 7.63841 10.2879 7.53532 10.3321L15.0462 16.7606L16.0403 17.5558L18.0064 19.1685L19.9725 17.5558L20.9666 16.7606L28.4775 10.3321C28.345 10.2879 28.2124 10.2658 28.0799 10.2658H7.91087ZM15.0904 18.4395L7.55741 25.6632C7.67523 25.7074 7.79305 25.7295 7.91087 25.7295H28.0799C28.2124 25.7295 28.3376 25.7074 28.4554 25.6632L20.9224 18.4395L18.0064 20.8032L15.0904 18.4395ZM29.3832 11.2157L21.9165 17.6221L29.3832 24.8017C29.4274 24.6397 29.4495 24.4924 29.4495 24.3598V11.6355C29.4495 11.4882 29.4274 11.3483 29.3832 11.2157Z" fill="#333333"/>
</g>
<defs>
<clipPath id="clip0_434_2800">
<rect width="36" height="36" fill="white"/>
</clipPath>
</defs>
</svg>
