<svg width="193" height="193" viewBox="0 0 193 193" fill="none" xmlns="http://www.w3.org/2000/svg">
<path d="M19.1441 1.25495H173.048C182.928 1.25495 190.938 9.2642 190.938 19.1441V173.048C190.938 182.928 182.928 190.938 173.048 190.938H19.1441C9.26418 190.938 1.25495 182.928 1.25495 173.048V19.1441C1.25495 9.2642 9.26418 1.25495 19.1441 1.25495Z" fill="url(#paint0_linear_1_14022)"/>
<path d="M19.1441 1.25495H173.048C182.928 1.25495 190.938 9.2642 190.938 19.1441V173.048C190.938 182.928 182.928 190.938 173.048 190.938H19.1441C9.26418 190.938 1.25495 182.928 1.25495 173.048V19.1441C1.25495 9.2642 9.26418 1.25495 19.1441 1.25495Z" fill="url(#paint1_linear_1_14022)"/>
<path d="M19.1441 1.25495H173.048C182.928 1.25495 190.938 9.2642 190.938 19.1441V173.048C190.938 182.928 182.928 190.938 173.048 190.938H19.1441C9.26418 190.938 1.25495 182.928 1.25495 173.048V19.1441C1.25495 9.2642 9.26418 1.25495 19.1441 1.25495Z" stroke="url(#paint2_linear_1_14022)" stroke-width="2.50991"/>
<path fill-rule="evenodd" clip-rule="evenodd" d="M155.597 126.54C155.597 131.989 151.18 136.406 145.731 136.406L75.1709 136.406C69.7161 136.406 65.2964 131.979 65.3047 126.525L65.3967 65.9762C65.405 60.5331 69.8198 56.125 75.2629 56.125L145.731 56.125C151.18 56.125 155.597 60.5423 155.597 65.9912L155.597 126.54ZM105.316 71.0072C105.316 68.3119 107.501 66.1269 110.196 66.1269H115.568C118.263 66.1269 120.448 68.3119 120.448 71.0072C120.448 73.7025 118.263 75.8875 115.568 75.8875H110.196C107.501 75.8875 105.316 73.7025 105.316 71.0072ZM85.7912 66.1269C83.0959 66.1269 80.9109 68.3119 80.9109 71.0072C80.9109 73.7025 83.0959 75.8875 85.7912 75.8875H91.1632C93.8585 75.8875 96.0435 73.7025 96.0435 71.0072C96.0435 68.3119 93.8585 66.1269 91.1632 66.1269H85.7912ZM129.728 71.0072C129.728 68.3119 131.913 66.1269 134.608 66.1269H139.98C142.676 66.1269 144.861 68.3119 144.861 71.0072C144.861 73.7025 142.676 75.8875 139.98 75.8875H134.608C131.913 75.8875 129.728 73.7025 129.728 71.0072ZM110.196 118.589C107.501 118.589 105.316 120.774 105.316 123.47C105.316 126.165 107.501 128.35 110.196 128.35H115.568C118.263 128.35 120.448 126.165 120.448 123.47C120.448 120.774 118.263 118.589 115.568 118.589H110.196ZM129.728 123.47C129.728 120.774 131.913 118.589 134.608 118.589H139.98C142.676 118.589 144.861 120.774 144.861 123.47C144.861 126.165 142.676 128.35 139.98 128.35H134.608C131.913 128.35 129.728 126.165 129.728 123.47ZM85.7912 118.589C83.0959 118.589 80.9109 120.774 80.9109 123.47C80.9109 126.165 83.0959 128.35 85.7912 128.35H91.1632C93.8585 128.35 96.0435 126.165 96.0435 123.47C96.0435 120.774 93.8585 118.589 91.1632 118.589H85.7912Z" fill="white"/>
<path d="M86.7336 103.219L47.1126 133.475C39.1525 139.819 30.6328 135.158 30.6328 126.188V66.2494C30.6328 57.2798 39.1525 52.7368 47.1126 59.0802L86.7336 88.9835C91.6634 92.9121 91.6634 99.2907 86.7336 103.219Z" fill="url(#paint3_linear_1_14022)"/>
<defs>
<linearGradient id="paint0_linear_1_14022" x1="5.60204" y1="186.583" x2="186.583" y2="5.60963" gradientUnits="userSpaceOnUse">
<stop stop-color="#000428"/>
<stop offset="1" stop-color="#169AFF"/>
</linearGradient>
<linearGradient id="paint1_linear_1_14022" x1="5.60963" y1="186.583" x2="186.583" y2="5.60963" gradientUnits="userSpaceOnUse">
<stop/>
<stop offset="1" stop-color="#2D2D2D"/>
</linearGradient>
<linearGradient id="paint2_linear_1_14022" x1="185.445" y1="3.72456" x2="0.0457364" y2="192.067" gradientUnits="userSpaceOnUse">
<stop stop-color="#0CCDFF"/>
<stop offset="0.375" stop-color="#06AAFF"/>
<stop offset="0.809096" stop-color="#01295D"/>
</linearGradient>
<linearGradient id="paint3_linear_1_14022" x1="90.2034" y1="67.4555" x2="35.1658" y2="136.58" gradientUnits="userSpaceOnUse">
<stop stop-color="#0CCDFF"/>
<stop offset="0.807292" stop-color="#0071D2"/>
</linearGradient>
</defs>
</svg>
