<svg width="193" height="193" viewBox="0 0 193 193" fill="none" xmlns="http://www.w3.org/2000/svg">
<g clip-path="url(#clip0_1_3606)">
<path d="M0.00195312 24.0242C0.00195312 10.756 10.758 0 24.0262 0H168.172C181.44 0 192.196 10.756 192.196 24.0242V168.17C192.196 181.438 181.44 192.194 168.172 192.194H24.0262C10.758 192.194 0.00195312 181.438 0.00195312 168.17V24.0242Z" fill="#1246FF"/>
<path d="M74.8064 139.835L48.0449 48.0469H67.5559C70.229 48.0469 72.5758 49.817 73.3246 52.39L93.8748 123.417C94.003 123.848 94.3974 124.136 94.8459 124.136H97.3429C97.7894 124.136 98.1839 123.848 98.312 123.417L118.862 52.39C119.609 49.817 121.958 48.0469 124.631 48.0469H144.142L117.376 139.835C116.63 142.396 114.277 144.16 111.61 144.16H80.5772C77.906 144.16 75.5553 142.396 74.8064 139.835Z" fill="#FFFFFD"/>
</g>
<defs>
<clipPath id="clip0_1_3606">
<rect width="192.194" height="192.194" fill="white"/>
</clipPath>
</defs>
</svg>
