<svg width="193" height="193" viewBox="0 0 193 193" fill="none" xmlns="http://www.w3.org/2000/svg">
<g clip-path="url(#clip0_1_13971)">
<rect width="192.193" height="192.193" rx="17.0138" fill="#333333"/>
<rect y="0.000976562" width="192.193" height="192.193" fill="#333333"/>
<circle cx="223.069" cy="-69.9483" r="223.069" fill="url(#paint0_radial_1_13971)" fill-opacity="0.5"/>
<circle cx="-50.7306" cy="390.37" r="334.289" fill="url(#paint1_radial_1_13971)" fill-opacity="0.5"/>
<g clip-path="url(#clip1_1_13971)">
<path d="M169.047 109.024H163.104L158.395 101.83L153.686 109.024H147.743L155.109 98.0944L148.06 87.5921H154.004L158.395 94.4786L162.787 87.5921H168.73L161.682 98.0944L169.047 109.024ZM137.345 109.024H142.405V87.5921H137.345V109.024ZM123.07 96.8955V101.073H126.424V103.729C125.919 104.19 124.132 104.799 122.806 104.799C118.856 104.799 116.132 102.257 116.132 98.3102C116.132 93.812 119.313 91.8218 122.95 91.8218C124.132 91.8218 125.943 92.3349 127.467 93.4283L130.023 89.635C127.611 87.9086 125.227 87.2324 122.292 87.2324C115.334 87.2324 110.89 91.7115 110.89 98.315C110.89 104.919 115.157 109.398 122.743 109.398C125.492 109.398 129.067 108.266 131.027 106.367V96.9003H123.075L123.07 96.8955ZM99.2575 87.5969L108.454 109.028H103.207L101.372 104.53H92.6172L90.7818 109.028H85.5349L94.7313 87.5969H99.2527H99.2575ZM99.4785 99.9312L96.9992 93.8695L94.5199 99.9312H99.4833H99.4785ZM69.4148 96.7277L62.5775 87.5969H57.8496V109.028H62.8754V95.1643L69.3523 103.974H69.4869L75.9638 95.1643V109.028H80.9896V87.5969H76.2616L69.4244 96.7277H69.4148Z" fill="white"/>
<path d="M20.3231 105.755C20.006 105.755 19.6841 105.693 19.3717 105.559C18.1465 105.036 17.5795 103.616 18.1033 102.394L22.4084 92.3611C22.9321 91.1382 24.3543 90.5724 25.5796 91.0951C26.8048 91.6178 27.3718 93.0373 26.848 94.2602L22.5429 104.293C22.1489 105.209 21.26 105.755 20.3231 105.755Z" fill="white"/>
<path d="M27.1961 111.161C26.879 111.161 26.5571 111.099 26.2448 110.964C25.0196 110.442 24.4526 109.022 24.9763 107.799L33.9709 86.8377C34.4947 85.6148 35.9169 85.0489 37.1421 85.5716C38.3673 86.0944 38.9343 87.5139 38.4106 88.7367L29.416 109.698C29.022 110.614 28.1331 111.161 27.1961 111.161Z" fill="white"/>
<path d="M37.5301 108.574C37.213 108.574 36.8911 108.512 36.5788 108.377C35.3535 107.855 34.7866 106.435 35.3103 105.212L42.0947 89.406C42.6184 88.1832 44.0406 87.6173 45.2659 88.14C46.4911 88.6627 47.0581 90.0822 46.5343 91.3051L39.7499 107.111C39.356 108.027 38.4671 108.574 37.5301 108.574Z" fill="white"/>
</g>
</g>
<defs>
<radialGradient id="paint0_radial_1_13971" cx="0" cy="0" r="1" gradientUnits="userSpaceOnUse" gradientTransform="translate(223.069 -69.9483) rotate(90) scale(223.069)">
<stop stop-color="#09D8B5"/>
<stop offset="1" stop-color="#09D8B5" stop-opacity="0"/>
</radialGradient>
<radialGradient id="paint1_radial_1_13971" cx="0" cy="0" r="1" gradientUnits="userSpaceOnUse" gradientTransform="translate(-50.7306 390.37) rotate(90) scale(334.289)">
<stop stop-color="#1DAFEB"/>
<stop offset="1" stop-color="#1DAFEB" stop-opacity="0"/>
</radialGradient>
<clipPath id="clip0_1_13971">
<rect width="192.193" height="192.193" rx="17.0138" fill="white"/>
</clipPath>
<clipPath id="clip1_1_13971">
<rect width="192.193" height="64.2897" fill="white" transform="translate(0 66.165)"/>
</clipPath>
</defs>
</svg>
