<svg width="193" height="193" viewBox="0 0 193 193" fill="none" xmlns="http://www.w3.org/2000/svg">
<rect width="192.193" height="192.193" rx="17.0138" fill="url(#paint0_linear_1_13983)"/>
<path d="M153.839 84.3379L154.72 89.6888C155.508 94.4747 159.26 98.2257 164.045 99.0141L169.396 99.8954L164.045 100.777C159.26 101.565 155.508 105.316 154.72 110.102L153.839 115.453L152.957 110.102C152.169 105.316 148.418 101.565 143.632 100.777L138.281 99.8954L143.632 99.0141C148.418 98.2257 152.169 94.4747 152.957 89.6888L153.839 84.3379Z" fill="#5C4B8D"/>
<path d="M33.1099 54.6426L33.6649 57.972C34.1612 60.9499 36.523 63.2839 39.5363 63.7744L42.9054 64.3228L39.5363 64.8712C36.523 65.3617 34.1612 67.6957 33.6649 70.6736L33.1099 74.0031L32.555 70.6736C32.0587 67.6957 29.6969 65.3617 26.6836 64.8712L23.3145 64.3228L26.6836 63.7744C29.6969 63.2839 32.0587 60.9499 32.555 57.972L33.1099 54.6426Z" fill="#5C4B8D"/>
<path d="M56.7894 130.321L57.2189 132.978C57.603 135.354 59.4307 137.216 61.7626 137.607L64.3699 138.045L61.7626 138.482C59.4307 138.874 57.603 140.736 57.2189 143.112L56.7894 145.768L56.36 143.112C55.9759 140.736 54.1482 138.874 51.8162 138.482L49.209 138.045L51.8162 137.607C54.1482 137.216 55.9759 135.354 56.36 132.978L56.7894 130.321Z" fill="#5C4B8D"/>
<path d="M93.7133 77.5769C93.7133 87.132 90.4274 94.7503 83.8556 100.432C77.2838 106.199 69.1122 109.083 59.341 109.083C54.931 109.083 50.6074 108.394 46.3703 107.017C42.2197 105.726 38.5447 103.445 35.3452 100.174C32.2323 96.9024 30.6758 92.9856 30.6758 88.4233C30.6758 82.8279 32.7511 78.3947 36.9017 75.1235C41.0523 71.8524 46.0244 70.2168 51.818 70.2168C56.401 70.2168 60.3787 71.422 63.751 73.8323C67.1234 76.2426 68.8096 79.6429 68.8096 84.0331C68.8096 86.9599 67.9016 89.4132 66.0857 91.3931C64.2699 93.373 61.9351 94.363 59.0816 94.363C56.4874 94.363 54.2824 93.5882 52.4665 92.0387C50.6506 90.4032 49.7427 88.3372 49.7427 85.8408C49.7427 83.6027 50.5642 81.7088 52.2071 80.1594C53.8501 78.6099 55.7957 77.8351 58.0439 77.8351C59.4275 77.8351 60.1192 77.4047 60.1192 76.5439C60.1192 75.1666 59.2113 74.1336 57.3954 73.4449C55.666 72.7563 53.9365 72.4119 52.2071 72.4119C48.2294 72.4119 44.9003 73.8753 42.2197 76.8021C39.5391 79.6429 38.1988 83.0431 38.1988 87.0029C38.1988 92.6843 40.1011 97.3758 43.9059 101.077C47.7106 104.865 52.5098 106.759 58.3033 106.759C64.0104 106.759 68.6799 104.908 72.3117 101.207C76.0299 97.5911 77.8891 92.9426 77.8891 87.2612C77.8891 83.3874 76.8947 80.0302 74.9058 77.1895C73.0035 74.2627 70.5823 72.0246 67.6422 70.4751C64.7887 68.9256 61.6325 67.29 58.1736 65.5684C54.8013 63.7606 51.6451 62.082 48.705 60.5326C45.8515 58.897 43.4303 56.6158 41.4415 53.689C39.5391 50.6761 38.5879 47.1467 38.5879 43.1009C38.5879 36.7308 40.9226 31.6519 45.5921 27.8643C50.2615 23.9906 55.8821 22.0537 62.454 22.0537C64.8752 22.0537 68.5069 22.4841 73.3493 23.3449C74.7329 23.6893 76.2029 23.8614 77.7594 23.8614C79.4888 23.8614 81.91 23.431 85.023 22.5702V46.1998H83.5962C81.3479 39.8297 78.3214 34.6217 74.5167 30.5759C70.1067 26.0135 66.2587 23.7323 62.9728 23.7323C60.6381 23.7323 58.606 24.5931 56.8766 26.3148C55.2336 27.9504 54.4121 29.9303 54.4121 32.2545C54.4121 34.7509 55.1904 37.0321 56.7469 39.098C58.3033 41.164 60.2922 42.7996 62.7134 44.0047L75.9435 50.4609C81.4776 53.1295 85.8012 56.831 88.9142 61.5655C92.1136 66.3001 93.7133 71.6372 93.7133 77.5769Z" fill="#5C4B8D"/>
<path d="M131.199 169.384H88.0062V167.834C90.4274 167.06 92.4595 165.553 94.1025 163.315C95.8319 160.991 96.6966 158.537 96.6966 155.955V114.377C96.6966 110.762 95.5292 107.921 93.1945 105.855C90.9462 103.789 88.0062 102.756 84.3744 102.756C79.0996 102.756 74.9058 104.736 71.7929 108.696C68.7664 112.655 67.2531 117.347 67.2531 122.77C67.2531 126.213 67.9449 129.398 69.3284 132.325C70.7985 135.252 73.0467 136.715 76.0732 136.715C78.6673 136.715 79.9644 135.941 79.9644 134.391C79.9644 133.961 79.1861 132.971 77.6297 131.421C76.1597 129.872 75.4246 128.107 75.4246 126.127C75.4246 123.803 76.2461 121.866 77.8891 120.317C79.532 118.767 81.5641 117.993 83.9853 117.993C86.4065 117.993 88.3521 118.853 89.8221 120.575C91.2921 122.211 92.0271 124.277 92.0271 126.773C92.0271 130.302 90.6436 133.143 87.8765 135.295C85.1095 137.447 81.8668 138.523 78.1485 138.523C73.0467 138.523 68.7664 137.103 65.3075 134.262C61.8487 131.335 60.1192 127.376 60.1192 122.383C60.1192 115.927 62.5404 110.805 67.3828 107.017C72.3117 103.143 78.1053 101.207 84.7636 101.207H127.437C133.317 101.207 138.549 102.627 143.132 105.468C147.715 108.222 150.006 112.311 150.006 117.734C150.006 121.35 148.709 124.535 146.115 127.289C143.521 129.958 140.365 131.895 136.646 133.1C141.316 134.133 145.337 136.242 148.709 139.427C152.168 142.612 153.897 146.443 153.897 150.919C153.897 156.773 151.649 161.335 147.153 164.606C142.656 167.791 137.338 169.384 131.199 169.384ZM128.864 116.443C128.864 113.344 128.302 110.417 127.178 107.663C126.054 104.908 124.151 103.531 121.471 103.531C119.828 103.531 118.531 104.133 117.579 105.338C116.628 106.544 116.153 107.964 116.153 109.6V128.581C116.153 131.852 117.45 133.487 120.044 133.487C122.897 133.487 125.059 132.411 126.529 130.259C128.086 128.107 128.864 125.525 128.864 122.512V116.443ZM132.496 150.919C132.496 146.787 131.544 143.172 129.642 140.073C127.826 136.974 124.973 135.424 121.081 135.424C117.795 135.424 116.153 137.275 116.153 140.977V160.474C116.153 165.123 118.314 167.447 122.638 167.447C125.059 167.447 127.048 166.457 128.604 164.477C130.247 162.411 131.285 160.259 131.717 158.021C132.236 155.697 132.496 153.329 132.496 150.919Z" fill="#5C4B8D"/>
<g filter="url(#filter0_f_1_13983)">
<path d="M152.544 51.247C144.491 38.0755 129.864 46.0405 127.219 49.382C124.573 46.0405 109.962 38.1096 101.91 51.2811C93.857 64.4526 124.091 85.1782 127.219 85.2248C129.318 85.1935 143.635 75.8317 150.389 65.696C153.698 60.73 155.192 55.5782 152.544 51.247Z" fill="#5C4B8D"/>
<path d="M152.544 51.247C144.491 38.0755 129.864 46.0405 127.219 49.382C124.573 46.0405 109.962 38.1096 101.91 51.2811C93.857 64.4526 124.091 85.1782 127.219 85.2248C129.318 85.1935 143.635 75.8317 150.389 65.696C153.698 60.73 155.192 55.5782 152.544 51.247Z" stroke="#5C4B8D" stroke-width="1.78582"/>
</g>
<defs>
<filter id="filter0_f_1_13983" x="95.1937" y="38.5706" width="64.0678" height="52.0121" filterUnits="userSpaceOnUse" color-interpolation-filters="sRGB">
<feFlood flood-opacity="0" result="BackgroundImageFix"/>
<feBlend mode="normal" in="SourceGraphic" in2="BackgroundImageFix" result="shape"/>
<feGaussianBlur stdDeviation="2.23227" result="effect1_foregroundBlur_1_13983"/>
</filter>
<linearGradient id="paint0_linear_1_13983" x1="192.193" y1="-1.46631e-05" x2="-16.7759" y2="20.4071" gradientUnits="userSpaceOnUse">
<stop stop-color="#A6D4FF"/>
<stop offset="1" stop-color="#FFB3CE"/>
</linearGradient>
</defs>
</svg>
