<svg width="736" height="235" viewBox="0 0 736 235" fill="none" xmlns="http://www.w3.org/2000/svg">
<path d="M64.8009 45.7986C66.7181 45.7986 68.1788 46.1181 69.183 46.7572C70.2785 47.3049 70.8263 48.1265 70.8263 49.2221C70.8263 49.6785 70.6893 50.2719 70.4154 51.0023C70.1416 51.6413 69.7307 52.2347 69.183 52.7825C68.7265 53.2389 68.2701 53.6041 67.8136 53.878C67.4484 54.0606 67.1746 54.2432 66.992 54.4257C65.5313 55.2474 64.3445 56.1603 63.4316 57.1645C62.5186 58.1687 61.7426 59.7207 61.1036 61.8205L44.534 120.841C44.1688 122.028 43.9862 123.169 43.9862 124.265C43.9862 125.36 44.1231 126.273 44.397 127.003C44.7622 127.734 45.2643 128.51 45.9034 129.331C46.725 130.518 47.1358 131.477 47.1358 132.207C47.1358 132.39 47.0445 132.846 46.8619 133.577C46.4968 134.855 45.6751 135.768 44.397 136.315C43.1189 136.772 41.2018 137 38.6456 137H6.4649C4.54776 137 3.08707 136.68 2.08285 136.041C0.987341 135.402 0.439584 134.535 0.439584 133.44C0.439584 132.892 0.576523 132.298 0.850401 131.659C1.21557 130.655 1.80897 129.879 2.63061 129.331C3.45224 128.784 3.95435 128.464 4.13694 128.373C5.59762 127.46 6.78443 126.547 7.69735 125.634C8.61028 124.63 9.38627 123.032 10.0253 120.841L26.7319 61.8205C27.0971 60.6336 27.2796 59.4925 27.2796 58.397C27.2796 57.3928 27.0971 56.5711 26.7319 55.9321C26.458 55.2017 26.0472 54.3801 25.4994 53.4672C24.6778 52.2804 24.267 51.3218 24.267 50.5914C24.267 50.3176 24.3583 49.8155 24.5409 49.0851C24.906 47.8983 25.682 47.0767 26.8688 46.6202C28.1469 46.0725 30.0641 45.7986 32.6203 45.7986H64.8009ZM104.417 63.3268C111.994 63.3268 118.522 64.0115 123.999 65.3809C129.568 66.7503 133.813 68.6674 136.735 71.1323C139.747 73.5972 141.254 76.3816 141.254 79.4856C141.254 82.6808 139.975 85.2827 137.419 87.2911C134.954 89.2996 131.485 90.3038 127.012 90.3038C122.447 90.3038 118.567 89.1626 115.372 86.8803C112.268 84.598 110.716 81.7223 110.716 78.2531C110.716 77.0663 110.899 75.9252 111.264 74.8297C109.621 74.3732 108.16 74.145 106.882 74.145C104.6 74.145 102.682 74.6927 101.13 75.7882C99.6698 76.8838 98.9851 78.4357 99.0764 80.4442C99.0764 82.8178 100.263 84.8262 102.637 86.4695C105.01 88.1128 108.845 90.1668 114.14 92.6317C118.704 94.6402 122.447 96.5117 125.369 98.2462C128.381 99.8895 130.892 101.989 132.9 104.545C135 107.102 136.05 110.114 136.05 113.583C136.05 114.314 135.867 115.683 135.502 117.692C134.041 123.808 129.979 128.647 123.315 132.207C116.65 135.768 107.886 137.548 97.0223 137.548C84.7891 137.548 75.0664 135.904 67.8543 132.618C60.7334 129.331 57.173 124.812 57.173 119.061C57.173 115.135 58.3598 112.168 60.7334 110.16C63.107 108.152 66.2566 107.147 70.1822 107.147C74.7469 107.147 78.6268 108.562 81.822 111.392C85.1086 114.222 86.7518 117.829 86.7518 122.211C86.7518 123.397 86.6149 124.63 86.341 125.908C88.5321 126.456 90.6318 126.73 92.6402 126.73C95.0138 126.73 96.9766 126.091 98.5286 124.812C100.081 123.534 100.857 121.754 100.857 119.472C100.765 117.372 99.7154 115.592 97.707 114.131C95.6985 112.579 92.5033 110.753 88.1212 108.654C84.0131 106.736 80.6352 104.956 77.9877 103.313C75.3403 101.578 73.0579 99.4331 71.1408 96.8769C69.3149 94.3207 68.402 91.308 68.402 87.8389C68.402 80.3529 71.506 74.4188 77.7139 70.0368C84.0131 65.5635 92.9141 63.3268 104.417 63.3268ZM189.425 64.5592C199.924 64.5592 208.323 66.522 214.622 70.4476C220.921 74.2819 224.071 80.1703 224.071 88.1128C224.071 91.1254 223.523 94.5489 222.427 98.3832L216.813 117.281C216.722 117.646 216.676 118.102 216.676 118.65C216.676 120.111 217.269 120.841 218.456 120.841C219.552 120.841 220.465 120.385 221.195 119.472C222.017 118.468 222.564 117.965 222.838 117.965C223.295 117.965 223.66 118.285 223.934 118.924C224.299 119.563 224.482 120.293 224.482 121.115C224.573 123.58 223.614 126.091 221.606 128.647C219.689 131.203 217.087 133.303 213.8 134.946C210.514 136.589 206.908 137.411 202.982 137.411C198.235 137.411 194.172 136.544 190.795 134.809C187.417 133.074 185.089 130.518 183.811 127.14C181.072 130.427 177.831 132.983 174.088 134.809C170.345 136.544 166.328 137.411 162.037 137.411C157.199 137.411 153.136 136.498 149.85 134.672C146.563 132.755 144.098 130.336 142.455 127.414C140.903 124.402 140.127 121.252 140.127 117.965C140.127 116.505 140.264 115.09 140.538 113.72C141.999 107.421 145.148 102.674 149.987 99.4787C154.916 96.2835 160.759 94.6858 167.515 94.6858C175.092 94.6858 182.533 95.8726 189.836 98.2462L193.259 89.2083C194.446 85.374 195.04 82.407 195.04 80.3072C194.948 78.1162 194.218 76.4729 192.849 75.3774C191.479 74.2819 189.379 73.7342 186.549 73.7342C187.097 75.1948 187.371 76.7012 187.371 78.2531C187.371 81.631 186.093 84.5523 183.537 87.0172C180.981 89.4821 177.329 90.7146 172.582 90.7146C168.108 90.7146 164.594 89.756 162.037 87.8389C159.572 85.8304 158.34 83.3655 158.34 80.4442C158.34 75.8795 160.896 72.0909 166.009 69.0782C171.121 66.0656 178.926 64.5592 189.425 64.5592ZM181.757 106.052C179.2 106.052 177.101 107.056 175.457 109.064C173.905 110.982 173.129 113.081 173.129 115.364C173.129 116.824 173.449 118.011 174.088 118.924C174.818 119.837 175.823 120.293 177.101 120.293C178.287 120.293 179.566 119.837 180.935 118.924C182.396 117.92 183.445 116.459 184.084 114.542L186.96 106.463C185.408 106.189 183.674 106.052 181.757 106.052ZM299.976 64.0115C306.731 64.0115 312.118 66.4307 316.134 71.2693C320.243 76.1078 322.297 82.4983 322.297 90.4407C322.297 94.5489 321.795 98.5658 320.79 102.491C317.869 114.268 312.848 123.169 305.727 129.194C298.697 135.22 290.572 138.232 281.352 138.232C276.148 138.232 271.629 137.365 267.795 135.631C264.052 133.805 261.039 131.249 258.757 127.962L253.827 132.207C251.91 133.85 250.038 135.083 248.213 135.904C246.387 136.635 244.287 137 241.913 137H235.888C233.606 137 231.826 136.544 230.547 135.631C229.361 134.626 228.767 133.211 228.767 131.385C228.767 130.564 228.904 129.605 229.178 128.51L252.047 54.1519C252.321 53.3302 252.458 52.6455 252.458 52.0978C252.458 50.5458 251.499 49.0851 249.582 47.7157C248.669 46.8941 248.03 46.2551 247.665 45.7986C247.3 45.2508 247.254 44.5661 247.528 43.7445C248.167 41.6448 251.043 39.8189 256.155 38.2669C261.359 36.6237 266.791 35.802 272.451 35.802C277.746 35.802 281.626 36.8519 284.091 38.9516C286.647 40.9601 287.925 43.6989 287.925 47.168C287.925 49.0851 287.605 51.0023 286.966 52.9194L281.215 71.5431C286.51 66.522 292.763 64.0115 299.976 64.0115ZM284.501 101.67C286.327 95.4618 287.24 90.4407 287.24 86.6064C287.24 82.407 286.008 80.3072 283.543 80.3072C281.352 80.3072 279.298 81.4484 277.381 83.7307L268.48 112.762L267.658 115.364C267.201 116.733 266.973 118.148 266.973 119.609C266.973 122.804 268.48 124.402 271.492 124.402C273.683 124.402 275.783 122.804 277.791 119.609C279.8 116.413 282.037 110.434 284.501 101.67ZM369.234 63.8745C380.828 63.8745 389.227 65.746 394.43 69.489C399.634 73.1408 402.236 77.8423 402.236 83.5938C402.236 85.3283 402.053 86.9259 401.688 88.3866C400.319 94.412 396.484 98.7484 390.185 101.396C383.977 103.952 376.628 105.23 368.138 105.23C363.847 105.23 359.83 104.956 356.087 104.409C355.996 109.156 357.274 112.488 359.922 114.405C362.569 116.322 366.267 117.281 371.014 117.281C373.205 117.281 375.305 117.053 377.313 116.596C379.321 116.048 381.878 115.272 384.982 114.268C387.538 113.355 389.272 112.899 390.185 112.899C391.189 112.899 391.692 113.492 391.692 114.679C391.783 117.874 390.596 121.252 388.131 124.812C385.666 128.282 382.015 131.249 377.176 133.713C372.338 136.178 366.495 137.411 359.648 137.411C349.514 137.411 341.207 134.855 334.725 129.742C328.243 124.63 325.002 117.189 325.002 107.421C325.002 104.682 325.367 101.487 326.098 97.8354C328.38 86.6064 333.356 78.1619 341.024 72.5017C348.784 66.7503 358.187 63.8745 369.234 63.8745ZM357.046 96.1922C357.411 96.2835 357.913 96.3291 358.552 96.3291C362.387 96.3291 365.308 94.5489 367.316 90.9885C369.325 87.4281 370.283 83.4568 370.192 79.0748C370.101 76.5186 369.371 75.2405 368.001 75.2405C366.997 75.2405 365.81 76.0621 364.441 77.7054C363.071 79.2574 361.702 81.631 360.333 84.8262C359.054 88.0215 357.959 91.8101 357.046 96.1922ZM443.122 35.802C448.417 35.802 452.297 36.8063 454.762 38.8147C457.318 40.8231 458.596 43.5619 458.596 47.031C458.596 49.0395 458.276 51.0023 457.637 52.9194L436.138 122.758C435.864 123.854 435.727 124.812 435.727 125.634C435.727 126.821 435.955 127.779 436.412 128.51C436.868 129.149 437.507 129.788 438.329 130.427C438.968 131.066 439.424 131.614 439.698 132.07C439.972 132.435 440.018 132.937 439.835 133.577C439.379 134.763 438.466 135.631 437.097 136.178C435.727 136.726 433.627 137 430.797 137H399.575C397.202 137 395.467 136.635 394.372 135.904C393.276 135.083 392.911 134.033 393.276 132.755C393.641 131.659 394.6 130.701 396.152 129.879C397.521 129.149 398.662 128.282 399.575 127.277C400.488 126.273 401.264 124.675 401.903 122.484L422.718 54.1519C422.992 53.3302 423.129 52.6455 423.129 52.0978C423.129 51.0936 422.855 50.2719 422.307 49.6329C421.851 48.9938 421.212 48.3548 420.39 47.7157C419.477 46.9854 418.792 46.3463 418.336 45.7986C417.971 45.2508 417.925 44.5205 418.199 43.6076C418.747 41.5078 421.622 39.682 426.826 38.13C432.03 36.578 437.462 35.802 443.122 35.802ZM493.27 35.802C498.565 35.802 502.445 36.8063 504.91 38.8147C507.466 40.8231 508.745 43.5619 508.745 47.031C508.745 49.0395 508.425 51.0023 507.786 52.9194L486.287 122.758C486.013 123.854 485.876 124.812 485.876 125.634C485.876 126.821 486.104 127.779 486.56 128.51C487.017 129.149 487.656 129.788 488.478 130.427C489.117 131.066 489.573 131.614 489.847 132.07C490.121 132.435 490.166 132.937 489.984 133.577C489.527 134.763 488.614 135.631 487.245 136.178C485.876 136.726 483.776 137 480.946 137H449.724C447.35 137 445.616 136.635 444.52 135.904C443.425 135.083 443.059 134.033 443.425 132.755C443.79 131.659 444.748 130.701 446.3 129.879C447.67 129.149 448.811 128.282 449.724 127.277C450.637 126.273 451.413 124.675 452.052 122.484L472.866 54.1519C473.14 53.3302 473.277 52.6455 473.277 52.0978C473.277 51.0936 473.003 50.2719 472.456 49.6329C471.999 48.9938 471.36 48.3548 470.539 47.7157C469.626 46.9854 468.941 46.3463 468.484 45.7986C468.119 45.2508 468.074 44.5205 468.348 43.6076C468.895 41.5078 471.771 39.682 476.975 38.13C482.178 36.578 487.61 35.802 493.27 35.802ZM546.158 63.8745C557.752 63.8745 566.151 65.746 571.355 69.489C576.558 73.1408 579.16 77.8423 579.16 83.5938C579.16 85.3283 578.977 86.9259 578.612 88.3866C577.243 94.412 573.409 98.7484 567.109 101.396C560.902 103.952 553.552 105.23 545.062 105.23C540.771 105.23 536.755 104.956 533.012 104.409C532.92 109.156 534.198 112.488 536.846 114.405C539.493 116.322 543.191 117.281 547.938 117.281C550.129 117.281 552.229 117.053 554.237 116.596C556.246 116.048 558.802 115.272 561.906 114.268C564.462 113.355 566.197 112.899 567.109 112.899C568.114 112.899 568.616 113.492 568.616 114.679C568.707 117.874 567.52 121.252 565.055 124.812C562.59 128.282 558.939 131.249 554.1 133.713C549.262 136.178 543.419 137.411 536.572 137.411C526.439 137.411 518.131 134.855 511.649 129.742C505.167 124.63 501.926 117.189 501.926 107.421C501.926 104.682 502.292 101.487 503.022 97.8354C505.304 86.6064 510.28 78.1619 517.948 72.5017C525.708 66.7503 535.111 63.8745 546.158 63.8745ZM533.97 96.1922C534.335 96.2835 534.837 96.3291 535.477 96.3291C539.311 96.3291 542.232 94.5489 544.241 90.9885C546.249 87.4281 547.208 83.4568 547.116 79.0748C547.025 76.5186 546.295 75.2405 544.925 75.2405C543.921 75.2405 542.734 76.0621 541.365 77.7054C539.995 79.2574 538.626 81.631 537.257 84.8262C535.979 88.0215 534.883 91.8101 533.97 96.1922Z" fill="#333333"/>
<path d="M359.646 159.383C362.821 159.383 365.576 159.874 367.911 160.854C370.293 161.788 372.091 163.096 373.305 164.777C374.566 166.412 375.197 168.303 375.197 170.451C375.197 171.665 375.033 172.786 374.706 173.814C373.352 178.53 369.453 181.519 363.008 182.78C365.25 183.434 367.024 184.531 368.332 186.072C369.639 187.566 370.293 189.434 370.293 191.676C370.293 192.703 370.106 193.918 369.733 195.319C368.705 198.961 366.627 201.67 363.498 203.444C360.416 205.172 356.026 206.036 350.329 206.036H321.189C320.208 206.036 319.461 205.873 318.947 205.546C318.387 205.219 318.106 204.775 318.106 204.215C318.106 203.935 318.177 203.631 318.317 203.304C318.503 202.791 318.807 202.394 319.227 202.113C319.648 201.833 319.904 201.67 319.998 201.623C320.745 201.156 321.352 200.689 321.819 200.222C322.286 199.708 322.683 198.891 323.01 197.77L331.556 167.579C331.743 166.972 331.836 166.388 331.836 165.828C331.836 165.314 331.743 164.894 331.556 164.567C331.416 164.193 331.206 163.773 330.925 163.306C330.505 162.699 330.295 162.209 330.295 161.835C330.295 161.695 330.342 161.438 330.435 161.065C330.622 160.457 331.019 160.037 331.626 159.804C332.28 159.523 333.26 159.383 334.568 159.383H359.646ZM356.493 172.202C356.82 171.175 356.984 170.218 356.984 169.33C356.984 166.902 355.606 165.688 352.851 165.688H349.699L345.986 178.787H349.068C351.03 178.787 352.571 178.32 353.691 177.386C354.859 176.405 355.793 174.677 356.493 172.202ZM351.38 192.797C351.707 191.676 351.87 190.649 351.87 189.715C351.87 187.193 350.422 185.932 347.527 185.932H344.025L340.032 199.732H343.604C345.612 199.732 347.224 199.241 348.438 198.261C349.652 197.233 350.633 195.412 351.38 192.797ZM400.326 168.98C406.677 168.98 411.347 170.264 414.336 172.833C417.371 175.401 418.889 178.764 418.889 182.92C418.889 184.321 418.702 185.885 418.329 187.613C417.442 191.443 415.784 194.805 413.355 197.7C410.927 200.549 407.938 202.767 404.389 204.355C400.887 205.896 397.081 206.667 392.971 206.667C386.48 206.667 381.67 205.382 378.541 202.814C375.459 200.199 373.918 196.743 373.918 192.447C373.918 190.999 374.104 189.388 374.478 187.613C375.365 183.971 377.046 180.748 379.522 177.946C382.043 175.098 385.102 172.903 388.698 171.362C392.341 169.774 396.217 168.98 400.326 168.98ZM400.116 175.214C399.135 175.214 398.085 176.102 396.964 177.876C395.89 179.604 394.605 182.897 393.111 187.753C391.617 192.61 390.87 196.019 390.87 197.98C390.87 199.008 391.033 199.708 391.36 200.082C391.687 200.409 392.13 200.572 392.691 200.572C393.671 200.666 394.676 199.825 395.703 198.051C396.777 196.276 398.108 192.82 399.696 187.683C401.143 183.153 401.867 179.861 401.867 177.806C401.867 176.826 401.704 176.148 401.377 175.775C401.097 175.401 400.676 175.214 400.116 175.214ZM453.581 168.98C456.196 168.98 458.274 169.774 459.815 171.362C461.403 172.95 462.197 174.911 462.197 177.246C462.197 178.133 462.104 178.95 461.917 179.698C461.45 181.612 460.563 183.083 459.255 184.111C457.947 185.138 456.383 185.652 454.562 185.652C452.787 185.652 451.433 185.232 450.499 184.391C449.612 183.55 448.818 182.43 448.117 181.029C447.744 180.235 447.393 179.651 447.066 179.277C446.74 178.904 446.366 178.717 445.946 178.717C445.479 178.717 445.058 178.904 444.685 179.277C444.358 179.651 444.054 180.305 443.774 181.239L438.38 198.751C438.287 198.985 438.24 199.335 438.24 199.802C438.24 200.409 438.404 200.923 438.731 201.343C439.104 201.716 439.595 202.09 440.202 202.464C440.762 202.837 441.136 203.141 441.322 203.374C441.509 203.608 441.579 203.911 441.533 204.285C441.439 204.892 441.089 205.336 440.482 205.616C439.921 205.896 438.941 206.036 437.54 206.036H419.607C418.393 206.036 417.529 205.849 417.015 205.476C416.455 205.055 416.245 204.518 416.385 203.865C416.572 203.304 417.062 202.814 417.856 202.394C418.556 202.02 419.14 201.576 419.607 201.063C420.074 200.549 420.471 199.732 420.798 198.611L427.032 178.367C427.126 178.133 427.173 177.806 427.173 177.386C427.173 176.872 427.056 176.475 426.822 176.195C426.635 175.915 426.309 175.565 425.842 175.144C425.375 174.771 425.048 174.444 424.861 174.164C424.674 173.884 424.651 173.51 424.791 173.043C425.071 171.969 426.542 171.035 429.204 170.241C431.866 169.4 434.644 168.98 437.54 168.98C439.454 168.98 441.042 169.424 442.303 170.311C443.564 171.152 444.381 172.366 444.755 173.954C446.996 170.638 449.938 168.98 453.581 168.98ZM502.202 157.562C503.697 157.562 505.144 157.889 506.545 158.543C507.993 159.15 509.161 160.014 510.048 161.135C510.982 162.209 511.449 163.376 511.449 164.637C511.449 167.392 509.581 168.77 505.845 168.77C504.771 168.77 503.93 168.7 503.323 168.56C502.763 168.373 502.086 168.093 501.292 167.719C501.152 168.046 501.082 168.513 501.082 169.12C501.082 169.867 501.198 170.755 501.432 171.782C501.712 172.809 502.039 173.767 502.412 174.654C503.393 176.102 503.883 177.83 503.883 179.838C503.883 180.725 503.767 181.799 503.533 183.06C502.973 185.488 501.735 187.707 499.821 189.715C497.953 191.723 495.524 193.311 492.536 194.478C489.593 195.599 486.348 196.159 482.799 196.159C480.09 196.159 477.545 195.972 475.163 195.599C474.463 196.206 474.113 196.953 474.113 197.84C474.113 198.447 474.393 198.961 474.953 199.381C475.514 199.755 476.448 199.942 477.755 199.942H488.263C491.858 199.942 494.66 200.572 496.668 201.833C498.677 203.047 499.681 204.799 499.681 207.087C499.681 207.927 499.54 208.791 499.26 209.679C498.7 211.5 497.416 213.181 495.408 214.722C493.446 216.31 490.668 217.594 487.072 218.575C483.476 219.556 479.109 220.046 473.972 220.046C469.396 220.046 465.52 219.649 462.344 218.855C459.169 218.061 456.81 216.964 455.269 215.563C453.682 214.209 452.888 212.691 452.888 211.01C452.888 210.636 452.981 210.076 453.168 209.328C453.588 207.974 454.546 206.877 456.04 206.036C457.488 205.149 459.893 204.565 463.255 204.285C462.134 203.211 461.574 201.927 461.574 200.432C461.574 199.919 461.644 199.381 461.784 198.821C462.531 196.393 464.726 194.595 468.369 193.427C464.866 191.513 463.115 188.711 463.115 185.021C463.115 183.994 463.255 182.92 463.535 181.799C464.096 179.371 465.333 177.176 467.248 175.214C469.162 173.206 471.614 171.619 474.603 170.451C477.592 169.284 480.861 168.7 484.41 168.7C489.967 168.7 494.333 169.424 497.509 170.871C496.809 169.797 496.248 168.653 495.828 167.439C495.454 166.178 495.267 165.034 495.267 164.007C495.267 162.232 495.828 160.714 496.949 159.453C498.116 158.193 499.867 157.562 502.202 157.562ZM487.002 182.43C487.749 180.048 488.122 178.227 488.122 176.966C488.122 175.378 487.445 174.584 486.091 174.584C484.924 174.584 483.896 175.168 483.009 176.335C482.168 177.456 481.304 179.487 480.417 182.43C479.67 184.858 479.296 186.703 479.296 187.963C479.296 189.505 479.95 190.275 481.258 190.275C482.425 190.275 483.452 189.691 484.34 188.524C485.227 187.356 486.114 185.325 487.002 182.43ZM473.062 207.017C471.754 207.017 470.563 206.947 469.489 206.807C468.929 207.507 468.649 208.441 468.649 209.609C468.695 210.776 469.162 211.617 470.05 212.13C470.984 212.644 472.408 212.901 474.323 212.901C476.658 212.901 478.549 212.551 479.997 211.85C481.491 211.15 482.238 210.146 482.238 208.838C482.238 208.278 482.028 207.834 481.608 207.507C481.188 207.18 480.58 207.017 479.787 207.017H473.062ZM569.994 178.927C569.994 183.083 568.546 187.333 565.65 191.676C562.755 196.019 559.089 199.615 554.653 202.464C550.263 205.266 545.943 206.667 541.694 206.667C538.331 206.667 535.483 206.083 533.148 204.915C530.813 203.748 529.295 202.067 528.594 199.872C526.867 201.973 524.952 203.561 522.85 204.635C520.749 205.709 518.554 206.246 516.266 206.246C513.09 206.246 510.498 205.476 508.49 203.935C506.529 202.347 505.548 200.035 505.548 197C505.548 195.412 505.805 193.778 506.319 192.096L510.242 178.367C510.335 177.993 510.382 177.713 510.382 177.526C510.382 177.059 510.265 176.662 510.031 176.335C509.798 176.008 509.471 175.658 509.051 175.285C508.35 174.677 508 174.14 508 173.673C507.953 173.02 508.35 172.319 509.191 171.572C510.031 170.825 511.199 170.218 512.693 169.751C514.234 169.237 515.962 168.98 517.877 168.98C521.006 168.98 523.434 169.751 525.162 171.292C526.937 172.786 527.824 174.747 527.824 177.176C527.824 178.25 527.637 179.417 527.264 180.678L523.691 192.587C523.504 193.24 523.411 193.684 523.411 193.918C523.411 194.525 523.574 194.992 523.901 195.319C524.275 195.646 524.765 195.809 525.372 195.809C526.213 195.809 526.913 195.529 527.474 194.968C528.081 194.361 528.664 193.404 529.225 192.096L533.218 178.367C533.311 177.993 533.358 177.713 533.358 177.526C533.358 177.059 533.241 176.662 533.008 176.335C532.774 176.008 532.447 175.658 532.027 175.285C531.326 174.677 530.976 174.14 530.976 173.673C530.929 173.02 531.326 172.319 532.167 171.572C533.008 170.825 534.175 170.218 535.669 169.751C537.21 169.237 538.938 168.98 540.853 168.98C544.029 168.98 546.48 169.727 548.208 171.222C549.936 172.716 550.8 174.701 550.8 177.176C550.8 178.157 550.613 179.324 550.24 180.678L545.686 195.669C545.593 195.902 545.546 196.253 545.546 196.72C545.546 197.327 545.756 197.794 546.177 198.121C546.597 198.447 547.181 198.611 547.928 198.611C548.955 198.611 550.146 198.167 551.501 197.28C552.902 196.346 554.256 195.038 555.563 193.357C556.918 191.629 558.015 189.598 558.856 187.263C556.988 185.628 555.657 184.017 554.863 182.43C554.116 180.842 553.742 179.207 553.742 177.526C553.742 175.144 554.396 173.136 555.703 171.502C557.011 169.821 558.902 168.98 561.377 168.98C563.853 168.98 565.907 169.867 567.542 171.642C569.176 173.417 569.994 175.845 569.994 178.927ZM594.144 168.98C599.514 168.98 603.81 169.984 607.033 171.992C610.255 173.954 611.866 176.966 611.866 181.029C611.866 182.57 611.586 184.321 611.025 186.282L608.153 195.949C608.107 196.136 608.083 196.369 608.083 196.65C608.083 197.397 608.387 197.77 608.994 197.77C609.554 197.77 610.021 197.537 610.395 197.07C610.815 196.556 611.095 196.299 611.236 196.299C611.469 196.299 611.656 196.463 611.796 196.79C611.983 197.117 612.076 197.49 612.076 197.91C612.123 199.171 611.632 200.456 610.605 201.763C609.624 203.071 608.293 204.145 606.612 204.985C604.931 205.826 603.086 206.246 601.078 206.246C598.65 206.246 596.572 205.803 594.844 204.915C593.116 204.028 591.925 202.72 591.272 200.993C589.871 202.674 588.213 203.981 586.298 204.915C584.383 205.803 582.329 206.246 580.134 206.246C577.659 206.246 575.58 205.779 573.899 204.845C572.218 203.865 570.957 202.627 570.117 201.133C569.323 199.592 568.926 197.98 568.926 196.299C568.926 195.552 568.996 194.828 569.136 194.128C569.883 190.906 571.494 188.477 573.969 186.843C576.491 185.208 579.48 184.391 582.936 184.391C586.812 184.391 590.618 184.998 594.354 186.212L596.105 181.589C596.712 179.628 597.016 178.11 597.016 177.036C596.969 175.915 596.595 175.074 595.895 174.514C595.194 173.954 594.12 173.673 592.672 173.673C592.953 174.421 593.093 175.191 593.093 175.985C593.093 177.713 592.439 179.207 591.131 180.468C589.824 181.729 587.956 182.36 585.527 182.36C583.239 182.36 581.441 181.869 580.134 180.888C578.873 179.861 578.242 178.6 578.242 177.106C578.242 174.771 579.55 172.833 582.165 171.292C584.78 169.751 588.773 168.98 594.144 168.98ZM590.221 190.205C588.913 190.205 587.839 190.719 586.999 191.746C586.205 192.727 585.808 193.801 585.808 194.968C585.808 195.716 585.971 196.323 586.298 196.79C586.672 197.257 587.185 197.49 587.839 197.49C588.446 197.49 589.1 197.257 589.8 196.79C590.548 196.276 591.085 195.529 591.412 194.548L592.883 190.415C592.089 190.275 591.201 190.205 590.221 190.205ZM649.363 168.98C651.978 168.98 654.056 169.774 655.597 171.362C657.185 172.95 657.979 174.911 657.979 177.246C657.979 178.133 657.886 178.95 657.699 179.698C657.232 181.612 656.345 183.083 655.037 184.111C653.729 185.138 652.165 185.652 650.344 185.652C648.569 185.652 647.215 185.232 646.281 184.391C645.394 183.55 644.6 182.43 643.899 181.029C643.526 180.235 643.175 179.651 642.849 179.277C642.522 178.904 642.148 178.717 641.728 178.717C641.261 178.717 640.84 178.904 640.467 179.277C640.14 179.651 639.836 180.305 639.556 181.239L634.162 198.751C634.069 198.985 634.022 199.335 634.022 199.802C634.022 200.409 634.186 200.923 634.513 201.343C634.886 201.716 635.377 202.09 635.984 202.464C636.544 202.837 636.918 203.141 637.104 203.374C637.291 203.608 637.361 203.911 637.315 204.285C637.221 204.892 636.871 205.336 636.264 205.616C635.703 205.896 634.723 206.036 633.322 206.036H615.389C614.175 206.036 613.311 205.849 612.797 205.476C612.237 205.055 612.027 204.518 612.167 203.865C612.354 203.304 612.844 202.814 613.638 202.394C614.338 202.02 614.922 201.576 615.389 201.063C615.856 200.549 616.253 199.732 616.58 198.611L622.814 178.367C622.908 178.133 622.955 177.806 622.955 177.386C622.955 176.872 622.838 176.475 622.604 176.195C622.417 175.915 622.091 175.565 621.624 175.144C621.157 174.771 620.83 174.444 620.643 174.164C620.456 173.884 620.433 173.51 620.573 173.043C620.853 171.969 622.324 171.035 624.986 170.241C627.648 169.4 630.426 168.98 633.322 168.98C635.237 168.98 636.824 169.424 638.085 170.311C639.346 171.152 640.163 172.366 640.537 173.954C642.778 170.638 645.721 168.98 649.363 168.98ZM686.847 169.891C687.734 169.891 688.411 170.078 688.878 170.451C689.392 170.825 689.648 171.338 689.648 171.992C689.648 172.179 689.602 172.506 689.508 172.973C688.901 175.028 687.5 176.055 685.305 176.055H681.243L675.989 193.357C675.755 194.058 675.639 194.782 675.639 195.529C675.639 196.369 675.872 196.953 676.339 197.28C676.806 197.607 677.46 197.77 678.301 197.77C679.048 197.77 679.982 197.677 681.102 197.49C681.663 197.35 682.153 197.28 682.574 197.28C682.9 197.28 683.134 197.397 683.274 197.63C683.461 197.817 683.554 198.074 683.554 198.401C683.601 199.335 682.9 200.479 681.453 201.833C680.052 203.141 678.137 204.285 675.709 205.266C673.28 206.2 670.595 206.667 667.653 206.667C664.477 206.667 661.932 205.943 660.018 204.495C658.103 203.047 657.146 201.063 657.146 198.541C657.146 197.373 657.332 196.253 657.706 195.179L662.189 181.309C662.423 180.515 662.539 179.884 662.539 179.417C662.539 178.483 662.306 177.69 661.839 177.036C661.419 176.382 660.812 175.705 660.018 175.004C659.317 174.351 658.827 173.814 658.547 173.393C658.266 172.926 658.196 172.389 658.336 171.782C658.523 171.175 658.92 170.708 659.527 170.381C660.134 170.054 661.092 169.891 662.399 169.891H666.322L670.735 165.478C672.276 163.937 673.677 162.862 674.938 162.255C676.246 161.648 677.927 161.345 679.982 161.345C682.924 161.345 684.395 162.466 684.395 164.707C684.395 165.408 684.301 166.061 684.115 166.668L683.134 169.891H686.847ZM728.574 196.369C728.481 196.556 728.434 196.836 728.434 197.21C728.434 197.537 728.504 197.794 728.644 197.98C728.831 198.167 729.064 198.261 729.344 198.261C729.905 198.261 730.372 198.027 730.745 197.56C731.166 197.046 731.446 196.79 731.586 196.79C731.82 196.79 732.006 196.953 732.146 197.28C732.287 197.56 732.357 197.91 732.357 198.331C732.403 199.685 731.96 201.016 731.026 202.324C730.092 203.584 728.714 204.635 726.893 205.476C725.118 206.27 722.97 206.667 720.448 206.667C717.366 206.667 714.914 205.966 713.093 204.565C711.272 203.117 710.338 201.203 710.291 198.821C710.291 197.093 710.711 195.155 711.552 193.007L715.405 182.92C715.638 182.313 715.755 181.822 715.755 181.449C715.755 180.842 715.545 180.375 715.125 180.048C714.751 179.674 714.284 179.487 713.724 179.487C712.836 179.487 711.926 179.908 710.992 180.748C710.104 181.542 709.38 182.85 708.82 184.671V184.531L704.407 198.751C704.267 199.311 704.197 199.802 704.197 200.222C704.197 200.829 704.314 201.319 704.547 201.693C704.781 202.02 705.107 202.347 705.528 202.674C705.855 203.001 706.088 203.281 706.228 203.514C706.368 203.701 706.392 203.958 706.298 204.285C706.065 204.892 705.598 205.336 704.897 205.616C704.197 205.896 703.123 206.036 701.675 206.036H685.704C684.49 206.036 683.602 205.849 683.042 205.476C682.482 205.055 682.295 204.518 682.482 203.865C682.668 203.304 683.159 202.814 683.953 202.394C684.653 202.02 685.237 201.576 685.704 201.063C686.171 200.549 686.568 199.732 686.895 198.611L697.542 163.656C697.682 163.236 697.752 162.886 697.752 162.606C697.752 162.092 697.612 161.672 697.332 161.345C697.099 161.018 696.772 160.691 696.351 160.364C695.884 159.99 695.534 159.664 695.301 159.383C695.114 159.103 695.09 158.73 695.231 158.263C695.511 157.188 696.982 156.255 699.644 155.461C702.305 154.667 705.084 154.27 707.979 154.27C710.688 154.27 712.673 154.783 713.934 155.811C715.241 156.838 715.895 158.239 715.895 160.014C715.895 161.041 715.732 162.045 715.405 163.026L711.622 175.355C713.443 172.973 715.358 171.315 717.366 170.381C719.421 169.447 721.639 168.98 724.021 168.98C726.869 168.98 729.158 169.844 730.886 171.572C732.66 173.3 733.547 175.541 733.547 178.297C733.547 179.744 733.314 181.169 732.847 182.57L728.574 196.369Z" fill="#333333"/>
</svg>
