<svg width="580" height="282" viewBox="0 0 580 282" fill="none" xmlns="http://www.w3.org/2000/svg">
<path d="M64.8009 45.7986C66.7181 45.7986 68.1788 46.1181 69.183 46.7572C70.2785 47.3049 70.8263 48.1265 70.8263 49.2221C70.8263 49.6785 70.6893 50.2719 70.4154 51.0023C70.1416 51.6413 69.7307 52.2347 69.183 52.7825C68.7265 53.2389 68.2701 53.6041 67.8136 53.878C67.4484 54.0606 67.1746 54.2432 66.992 54.4257C65.5313 55.2474 64.3445 56.1603 63.4316 57.1645C62.5186 58.1687 61.7426 59.7207 61.1036 61.8205L44.534 120.841C44.1688 122.028 43.9862 123.169 43.9862 124.265C43.9862 125.36 44.1231 126.273 44.397 127.003C44.7622 127.734 45.2643 128.51 45.9034 129.331C46.725 130.518 47.1358 131.477 47.1358 132.207C47.1358 132.39 47.0445 132.846 46.8619 133.577C46.4968 134.855 45.6751 135.768 44.397 136.315C43.1189 136.772 41.2018 137 38.6456 137H6.4649C4.54776 137 3.08707 136.68 2.08285 136.041C0.987341 135.402 0.439584 134.535 0.439584 133.44C0.439584 132.892 0.576523 132.298 0.850401 131.659C1.21557 130.655 1.80897 129.879 2.63061 129.331C3.45224 128.784 3.95435 128.464 4.13694 128.373C5.59762 127.46 6.78443 126.547 7.69735 125.634C8.61028 124.63 9.38627 123.032 10.0253 120.841L26.7319 61.8205C27.0971 60.6336 27.2796 59.4925 27.2796 58.397C27.2796 57.3928 27.0971 56.5711 26.7319 55.9321C26.458 55.2017 26.0472 54.3801 25.4994 53.4672C24.6778 52.2804 24.267 51.3218 24.267 50.5914C24.267 50.3176 24.3583 49.8155 24.5409 49.0851C24.906 47.8983 25.682 47.0767 26.8688 46.6202C28.1469 46.0725 30.0641 45.7986 32.6203 45.7986H64.8009ZM104.417 63.3268C111.994 63.3268 118.522 64.0115 123.999 65.3809C129.568 66.7503 133.813 68.6674 136.735 71.1323C139.747 73.5972 141.254 76.3816 141.254 79.4856C141.254 82.6808 139.975 85.2827 137.419 87.2911C134.954 89.2996 131.485 90.3038 127.012 90.3038C122.447 90.3038 118.567 89.1626 115.372 86.8803C112.268 84.598 110.716 81.7223 110.716 78.2531C110.716 77.0663 110.899 75.9252 111.264 74.8297C109.621 74.3732 108.16 74.145 106.882 74.145C104.6 74.145 102.682 74.6927 101.13 75.7882C99.6698 76.8838 98.9851 78.4357 99.0764 80.4442C99.0764 82.8178 100.263 84.8262 102.637 86.4695C105.01 88.1128 108.845 90.1668 114.14 92.6317C118.704 94.6402 122.447 96.5117 125.369 98.2462C128.381 99.8895 130.892 101.989 132.9 104.545C135 107.102 136.05 110.114 136.05 113.583C136.05 114.314 135.867 115.683 135.502 117.692C134.041 123.808 129.979 128.647 123.315 132.207C116.65 135.768 107.886 137.548 97.0223 137.548C84.7891 137.548 75.0664 135.904 67.8543 132.618C60.7334 129.331 57.173 124.812 57.173 119.061C57.173 115.135 58.3598 112.168 60.7334 110.16C63.107 108.152 66.2566 107.147 70.1822 107.147C74.7469 107.147 78.6268 108.562 81.822 111.392C85.1086 114.222 86.7518 117.829 86.7518 122.211C86.7518 123.397 86.6149 124.63 86.341 125.908C88.5321 126.456 90.6318 126.73 92.6402 126.73C95.0138 126.73 96.9766 126.091 98.5286 124.812C100.081 123.534 100.857 121.754 100.857 119.472C100.765 117.372 99.7154 115.592 97.707 114.131C95.6985 112.579 92.5033 110.753 88.1212 108.654C84.0131 106.736 80.6352 104.956 77.9877 103.313C75.3403 101.578 73.0579 99.4331 71.1408 96.8769C69.3149 94.3207 68.402 91.308 68.402 87.8389C68.402 80.3529 71.506 74.4188 77.7139 70.0368C84.0131 65.5635 92.9141 63.3268 104.417 63.3268ZM189.425 64.5592C199.924 64.5592 208.323 66.522 214.622 70.4476C220.921 74.2819 224.071 80.1703 224.071 88.1128C224.071 91.1254 223.523 94.5489 222.427 98.3832L216.813 117.281C216.722 117.646 216.676 118.102 216.676 118.65C216.676 120.111 217.269 120.841 218.456 120.841C219.552 120.841 220.465 120.385 221.195 119.472C222.017 118.468 222.564 117.965 222.838 117.965C223.295 117.965 223.66 118.285 223.934 118.924C224.299 119.563 224.482 120.293 224.482 121.115C224.573 123.58 223.614 126.091 221.606 128.647C219.689 131.203 217.087 133.303 213.8 134.946C210.514 136.589 206.908 137.411 202.982 137.411C198.235 137.411 194.172 136.544 190.795 134.809C187.417 133.074 185.089 130.518 183.811 127.14C181.072 130.427 177.831 132.983 174.088 134.809C170.345 136.544 166.328 137.411 162.037 137.411C157.199 137.411 153.136 136.498 149.85 134.672C146.563 132.755 144.098 130.336 142.455 127.414C140.903 124.402 140.127 121.252 140.127 117.965C140.127 116.505 140.264 115.09 140.538 113.72C141.999 107.421 145.148 102.674 149.987 99.4787C154.916 96.2835 160.759 94.6858 167.515 94.6858C175.092 94.6858 182.533 95.8726 189.836 98.2462L193.259 89.2083C194.446 85.374 195.04 82.407 195.04 80.3072C194.948 78.1162 194.218 76.4729 192.849 75.3774C191.479 74.2819 189.379 73.7342 186.549 73.7342C187.097 75.1948 187.371 76.7012 187.371 78.2531C187.371 81.631 186.093 84.5523 183.537 87.0172C180.981 89.4821 177.329 90.7146 172.582 90.7146C168.108 90.7146 164.594 89.756 162.037 87.8389C159.572 85.8304 158.34 83.3655 158.34 80.4442C158.34 75.8795 160.896 72.0909 166.009 69.0782C171.121 66.0656 178.926 64.5592 189.425 64.5592ZM181.757 106.052C179.2 106.052 177.101 107.056 175.457 109.064C173.905 110.982 173.129 113.081 173.129 115.364C173.129 116.824 173.449 118.011 174.088 118.924C174.818 119.837 175.823 120.293 177.101 120.293C178.287 120.293 179.566 119.837 180.935 118.924C182.396 117.92 183.445 116.459 184.084 114.542L186.96 106.463C185.408 106.189 183.674 106.052 181.757 106.052ZM299.976 64.0115C306.731 64.0115 312.118 66.4307 316.134 71.2693C320.243 76.1078 322.297 82.4983 322.297 90.4407C322.297 94.5489 321.795 98.5658 320.79 102.491C317.869 114.268 312.848 123.169 305.727 129.194C298.697 135.22 290.572 138.232 281.352 138.232C276.148 138.232 271.629 137.365 267.795 135.631C264.052 133.805 261.039 131.249 258.757 127.962L253.827 132.207C251.91 133.85 250.038 135.083 248.213 135.904C246.387 136.635 244.287 137 241.913 137H235.888C233.606 137 231.826 136.544 230.547 135.631C229.361 134.626 228.767 133.211 228.767 131.385C228.767 130.564 228.904 129.605 229.178 128.51L252.047 54.1519C252.321 53.3302 252.458 52.6455 252.458 52.0978C252.458 50.5458 251.499 49.0851 249.582 47.7157C248.669 46.8941 248.03 46.2551 247.665 45.7986C247.3 45.2508 247.254 44.5661 247.528 43.7445C248.167 41.6448 251.043 39.8189 256.155 38.2669C261.359 36.6237 266.791 35.802 272.451 35.802C277.746 35.802 281.626 36.8519 284.091 38.9516C286.647 40.9601 287.925 43.6989 287.925 47.168C287.925 49.0851 287.605 51.0023 286.966 52.9194L281.215 71.5431C286.51 66.522 292.763 64.0115 299.976 64.0115ZM284.501 101.67C286.327 95.4618 287.24 90.4407 287.24 86.6064C287.24 82.407 286.008 80.3072 283.543 80.3072C281.352 80.3072 279.298 81.4484 277.381 83.7307L268.48 112.762L267.658 115.364C267.201 116.733 266.973 118.148 266.973 119.609C266.973 122.804 268.48 124.402 271.492 124.402C273.683 124.402 275.783 122.804 277.791 119.609C279.8 116.413 282.037 110.434 284.501 101.67ZM369.234 63.8745C380.828 63.8745 389.227 65.746 394.43 69.489C399.634 73.1408 402.236 77.8423 402.236 83.5938C402.236 85.3283 402.053 86.9259 401.688 88.3866C400.319 94.412 396.484 98.7484 390.185 101.396C383.977 103.952 376.628 105.23 368.138 105.23C363.847 105.23 359.83 104.956 356.087 104.409C355.996 109.156 357.274 112.488 359.922 114.405C362.569 116.322 366.267 117.281 371.014 117.281C373.205 117.281 375.305 117.053 377.313 116.596C379.321 116.048 381.878 115.272 384.982 114.268C387.538 113.355 389.272 112.899 390.185 112.899C391.189 112.899 391.692 113.492 391.692 114.679C391.783 117.874 390.596 121.252 388.131 124.812C385.666 128.282 382.015 131.249 377.176 133.713C372.338 136.178 366.495 137.411 359.648 137.411C349.514 137.411 341.207 134.855 334.725 129.742C328.243 124.63 325.002 117.189 325.002 107.421C325.002 104.682 325.367 101.487 326.098 97.8354C328.38 86.6064 333.356 78.1619 341.024 72.5017C348.784 66.7503 358.187 63.8745 369.234 63.8745ZM357.046 96.1922C357.411 96.2835 357.913 96.3291 358.552 96.3291C362.387 96.3291 365.308 94.5489 367.316 90.9885C369.325 87.4281 370.283 83.4568 370.192 79.0748C370.101 76.5186 369.371 75.2405 368.001 75.2405C366.997 75.2405 365.81 76.0621 364.441 77.7054C363.071 79.2574 361.702 81.631 360.333 84.8262C359.054 88.0215 357.959 91.8101 357.046 96.1922ZM443.122 35.802C448.417 35.802 452.297 36.8063 454.762 38.8147C457.318 40.8231 458.596 43.5619 458.596 47.031C458.596 49.0395 458.276 51.0023 457.637 52.9194L436.138 122.758C435.864 123.854 435.727 124.812 435.727 125.634C435.727 126.821 435.955 127.779 436.412 128.51C436.868 129.149 437.507 129.788 438.329 130.427C438.968 131.066 439.424 131.614 439.698 132.07C439.972 132.435 440.018 132.937 439.835 133.577C439.379 134.763 438.466 135.631 437.097 136.178C435.727 136.726 433.627 137 430.797 137H399.575C397.202 137 395.467 136.635 394.372 135.904C393.276 135.083 392.911 134.033 393.276 132.755C393.641 131.659 394.6 130.701 396.152 129.879C397.521 129.149 398.662 128.282 399.575 127.277C400.488 126.273 401.264 124.675 401.903 122.484L422.718 54.1519C422.992 53.3302 423.129 52.6455 423.129 52.0978C423.129 51.0936 422.855 50.2719 422.307 49.6329C421.851 48.9938 421.212 48.3548 420.39 47.7157C419.477 46.9854 418.792 46.3463 418.336 45.7986C417.971 45.2508 417.925 44.5205 418.199 43.6076C418.747 41.5078 421.622 39.682 426.826 38.13C432.03 36.578 437.462 35.802 443.122 35.802ZM493.27 35.802C498.565 35.802 502.445 36.8063 504.91 38.8147C507.466 40.8231 508.745 43.5619 508.745 47.031C508.745 49.0395 508.425 51.0023 507.786 52.9194L486.287 122.758C486.013 123.854 485.876 124.812 485.876 125.634C485.876 126.821 486.104 127.779 486.56 128.51C487.017 129.149 487.656 129.788 488.478 130.427C489.117 131.066 489.573 131.614 489.847 132.07C490.121 132.435 490.166 132.937 489.984 133.577C489.527 134.763 488.614 135.631 487.245 136.178C485.876 136.726 483.776 137 480.946 137H449.724C447.35 137 445.616 136.635 444.52 135.904C443.425 135.083 443.059 134.033 443.425 132.755C443.79 131.659 444.748 130.701 446.3 129.879C447.67 129.149 448.811 128.282 449.724 127.277C450.637 126.273 451.413 124.675 452.052 122.484L472.866 54.1519C473.14 53.3302 473.277 52.6455 473.277 52.0978C473.277 51.0936 473.003 50.2719 472.456 49.6329C471.999 48.9938 471.36 48.3548 470.539 47.7157C469.626 46.9854 468.941 46.3463 468.484 45.7986C468.119 45.2508 468.074 44.5205 468.348 43.6076C468.895 41.5078 471.771 39.682 476.975 38.13C482.178 36.578 487.61 35.802 493.27 35.802ZM546.158 63.8745C557.752 63.8745 566.151 65.746 571.355 69.489C576.558 73.1408 579.16 77.8423 579.16 83.5938C579.16 85.3283 578.977 86.9259 578.612 88.3866C577.243 94.412 573.409 98.7484 567.109 101.396C560.902 103.952 553.552 105.23 545.062 105.23C540.771 105.23 536.755 104.956 533.012 104.409C532.92 109.156 534.198 112.488 536.846 114.405C539.493 116.322 543.191 117.281 547.938 117.281C550.129 117.281 552.229 117.053 554.237 116.596C556.246 116.048 558.802 115.272 561.906 114.268C564.462 113.355 566.197 112.899 567.109 112.899C568.114 112.899 568.616 113.492 568.616 114.679C568.707 117.874 567.52 121.252 565.055 124.812C562.59 128.282 558.939 131.249 554.1 133.713C549.262 136.178 543.419 137.411 536.572 137.411C526.439 137.411 518.131 134.855 511.649 129.742C505.167 124.63 501.926 117.189 501.926 107.421C501.926 104.682 502.292 101.487 503.022 97.8354C505.304 86.6064 510.28 78.1619 517.948 72.5017C525.708 66.7503 535.111 63.8745 546.158 63.8745ZM533.97 96.1922C534.335 96.2835 534.837 96.3291 535.477 96.3291C539.311 96.3291 542.232 94.5489 544.241 90.9885C546.249 87.4281 547.208 83.4568 547.116 79.0748C547.025 76.5186 546.295 75.2405 544.925 75.2405C543.921 75.2405 542.734 76.0621 541.365 77.7054C539.995 79.2574 538.626 81.631 537.257 84.8262C535.979 88.0215 534.883 91.8101 533.97 96.1922Z" fill="#333333"/>
<path d="M58.994 178.404C63.3909 178.404 67.2059 179.083 70.439 180.441C73.7367 181.734 76.2261 183.544 77.9073 185.872C79.6531 188.135 80.5261 190.754 80.5261 193.728C80.5261 195.41 80.2997 196.962 79.8471 198.384C77.972 204.915 72.5728 209.053 63.6496 210.799C66.7533 211.704 69.2104 213.224 71.0209 215.358C72.8314 217.427 73.7367 220.013 73.7367 223.117C73.7367 224.539 73.478 226.221 72.9607 228.16C71.5382 233.204 68.6608 236.954 64.3285 239.411C60.0609 241.804 53.9828 243 46.0942 243H5.74584C4.38796 243 3.35339 242.774 2.64212 242.321C1.86619 241.868 1.47823 241.254 1.47823 240.478C1.47823 240.09 1.57522 239.67 1.7692 239.217C2.02785 238.506 2.44814 237.956 3.03009 237.568C3.61204 237.181 3.96767 236.954 4.09699 236.89C5.13156 236.243 5.97215 235.596 6.61876 234.95C7.26537 234.238 7.81499 233.107 8.26761 231.555L20.1005 189.752C20.3592 188.911 20.4885 188.103 20.4885 187.327C20.4885 186.616 20.3592 186.034 20.1005 185.581C19.9066 185.064 19.6156 184.482 19.2276 183.835C18.6457 182.995 18.3547 182.316 18.3547 181.799C18.3547 181.605 18.4194 181.249 18.5487 180.732C18.8073 179.891 19.3569 179.309 20.1975 178.986C21.1028 178.598 22.4607 178.404 24.2712 178.404H58.994ZM54.6294 196.153C55.082 194.731 55.3083 193.405 55.3083 192.177C55.3083 188.814 53.4009 187.133 49.5859 187.133H45.2213L40.0807 205.27H44.3483C47.0641 205.27 49.1979 204.624 50.7498 203.331C52.3663 201.973 53.6595 199.58 54.6294 196.153ZM47.549 224.669C48.0017 223.117 48.228 221.694 48.228 220.401C48.228 216.909 46.2235 215.164 42.2145 215.164H37.365L31.8365 234.271H36.783C39.5634 234.271 41.7942 233.592 43.4754 232.234C45.1566 230.811 46.5145 228.29 47.549 224.669ZM115.321 191.692C124.115 191.692 130.581 193.47 134.719 197.026C138.922 200.583 141.024 205.238 141.024 210.993C141.024 212.933 140.765 215.099 140.248 217.491C139.019 222.793 136.724 227.449 133.361 231.458C129.999 235.402 125.861 238.474 120.946 240.672C116.097 242.806 110.827 243.873 105.137 243.873C96.149 243.873 89.4889 242.095 85.1566 238.538C80.889 234.917 78.7552 230.133 78.7552 224.184C78.7552 222.179 79.0138 219.948 79.5311 217.491C80.7597 212.448 83.0875 207.986 86.5145 204.107C90.0062 200.162 94.2415 197.123 99.2203 194.989C104.264 192.791 109.631 191.692 115.321 191.692ZM115.03 200.324C113.672 200.324 112.217 201.552 110.665 204.01C109.178 206.402 107.4 210.961 105.331 217.685C103.262 224.41 102.227 229.13 102.227 231.846C102.227 233.269 102.453 234.238 102.906 234.756C103.359 235.208 103.973 235.435 104.749 235.435C106.107 235.564 107.497 234.4 108.919 231.943C110.407 229.486 112.249 224.701 114.448 217.588C116.452 211.316 117.455 206.758 117.455 203.913C117.455 202.555 117.228 201.617 116.776 201.1C116.388 200.583 115.806 200.324 115.03 200.324ZM189.058 191.692C192.679 191.692 195.557 192.791 197.691 194.989C199.889 197.188 200.988 199.904 200.988 203.137C200.988 204.365 200.859 205.497 200.6 206.531C199.954 209.182 198.725 211.219 196.915 212.642C195.104 214.064 192.938 214.776 190.416 214.776C187.959 214.776 186.084 214.194 184.791 213.03C183.562 211.866 182.463 210.314 181.493 208.374C180.976 207.275 180.491 206.467 180.038 205.949C179.586 205.432 179.068 205.173 178.486 205.173C177.84 205.173 177.258 205.432 176.741 205.949C176.288 206.467 175.868 207.372 175.48 208.665L168.011 232.913C167.882 233.236 167.817 233.721 167.817 234.368C167.817 235.208 168.044 235.92 168.496 236.502C169.014 237.019 169.693 237.536 170.533 238.053C171.309 238.571 171.826 238.991 172.085 239.314C172.344 239.638 172.441 240.058 172.376 240.575C172.247 241.416 171.762 242.03 170.921 242.418C170.145 242.806 168.787 243 166.847 243H142.018C140.337 243 139.14 242.741 138.429 242.224C137.653 241.642 137.362 240.899 137.556 239.993C137.815 239.217 138.494 238.538 139.593 237.956C140.563 237.439 141.371 236.825 142.018 236.114C142.664 235.402 143.214 234.271 143.667 232.719L152.299 204.688C152.428 204.365 152.493 203.913 152.493 203.331C152.493 202.619 152.331 202.07 152.008 201.682C151.749 201.294 151.297 200.809 150.65 200.227C150.003 199.71 149.551 199.257 149.292 198.869C149.033 198.481 149.001 197.964 149.195 197.317C149.583 195.83 151.62 194.537 155.306 193.437C158.991 192.274 162.838 191.692 166.847 191.692C169.499 191.692 171.697 192.306 173.443 193.534C175.189 194.698 176.32 196.38 176.838 198.578C179.941 193.987 184.015 191.692 189.058 191.692ZM256.38 175.882C258.449 175.882 260.454 176.335 262.394 177.24C264.398 178.081 266.015 179.277 267.243 180.829C268.536 182.316 269.183 183.932 269.183 185.678C269.183 189.493 266.597 191.401 261.424 191.401C259.937 191.401 258.773 191.304 257.932 191.11C257.156 190.851 256.219 190.463 255.119 189.946C254.925 190.398 254.828 191.045 254.828 191.886C254.828 192.92 254.99 194.149 255.313 195.571C255.701 196.994 256.154 198.319 256.671 199.548C258.029 201.552 258.708 203.945 258.708 206.725C258.708 207.954 258.546 209.441 258.223 211.187C257.447 214.549 255.734 217.621 253.082 220.401C250.496 223.181 247.134 225.38 242.995 226.996C238.922 228.548 234.428 229.324 229.514 229.324C225.763 229.324 222.239 229.066 218.942 228.548C217.972 229.389 217.487 230.423 217.487 231.652C217.487 232.493 217.875 233.204 218.651 233.786C219.427 234.303 220.72 234.562 222.53 234.562H237.079C242.058 234.562 245.937 235.435 248.718 237.181C251.498 238.862 252.889 241.286 252.889 244.455C252.889 245.619 252.695 246.815 252.307 248.044C251.531 250.565 249.752 252.893 246.972 255.027C244.256 257.225 240.409 259.004 235.43 260.361C230.451 261.719 224.405 262.398 217.293 262.398C210.956 262.398 205.589 261.849 201.192 260.749C196.795 259.65 193.53 258.131 191.396 256.191C189.198 254.316 188.098 252.214 188.098 249.886C188.098 249.369 188.228 248.593 188.486 247.559C189.068 245.683 190.394 244.164 192.463 243C194.467 241.771 197.797 240.963 202.453 240.575C200.901 239.088 200.125 237.31 200.125 235.241C200.125 234.529 200.222 233.786 200.416 233.01C201.451 229.648 204.49 227.158 209.533 225.542C204.684 222.89 202.259 219.011 202.259 213.903C202.259 212.48 202.453 210.993 202.841 209.441C203.617 206.079 205.33 203.04 207.982 200.324C210.633 197.543 214.027 195.345 218.166 193.728C222.304 192.112 226.83 191.304 231.744 191.304C239.439 191.304 245.485 192.306 249.882 194.31C248.912 192.823 248.136 191.239 247.554 189.558C247.037 187.812 246.778 186.228 246.778 184.805C246.778 182.348 247.554 180.247 249.106 178.501C250.722 176.755 253.147 175.882 256.38 175.882ZM235.333 210.314C236.368 207.016 236.885 204.494 236.885 202.749C236.885 200.55 235.947 199.451 234.072 199.451C232.456 199.451 231.033 200.259 229.805 201.876C228.641 203.428 227.444 206.24 226.216 210.314C225.181 213.676 224.664 216.23 224.664 217.976C224.664 220.11 225.569 221.177 227.38 221.177C228.996 221.177 230.419 220.369 231.647 218.752C232.876 217.136 234.105 214.323 235.333 210.314ZM216.032 244.358C214.221 244.358 212.572 244.261 211.085 244.067C210.309 245.037 209.921 246.33 209.921 247.947C209.986 249.563 210.633 250.727 211.861 251.438C213.154 252.15 215.127 252.505 217.778 252.505C221.011 252.505 223.629 252.02 225.634 251.05C227.703 250.08 228.738 248.69 228.738 246.88C228.738 246.104 228.447 245.489 227.865 245.037C227.283 244.584 226.442 244.358 225.343 244.358H216.032ZM350.245 205.464C350.245 211.219 348.24 217.103 344.231 223.117C340.223 229.13 335.147 234.109 329.004 238.053C322.926 241.933 316.945 243.873 311.06 243.873C306.405 243.873 302.461 243.065 299.228 241.448C295.995 239.832 293.893 237.504 292.923 234.465C290.531 237.375 287.88 239.573 284.97 241.06C282.06 242.547 279.021 243.291 275.853 243.291C271.456 243.291 267.867 242.224 265.087 240.09C262.371 237.892 261.013 234.691 261.013 230.488C261.013 228.29 261.369 226.027 262.08 223.699L267.511 204.688C267.641 204.171 267.705 203.783 267.705 203.525C267.705 202.878 267.544 202.328 267.22 201.876C266.897 201.423 266.445 200.938 265.863 200.421C264.893 199.58 264.408 198.837 264.408 198.19C264.343 197.285 264.893 196.315 266.057 195.28C267.22 194.246 268.837 193.405 270.906 192.759C273.04 192.047 275.432 191.692 278.083 191.692C282.416 191.692 285.778 192.759 288.171 194.892C290.628 196.962 291.856 199.677 291.856 203.04C291.856 204.527 291.598 206.143 291.08 207.889L286.134 224.378C285.875 225.283 285.746 225.897 285.746 226.221C285.746 227.061 285.972 227.708 286.425 228.16C286.942 228.613 287.621 228.839 288.462 228.839C289.625 228.839 290.595 228.451 291.371 227.675C292.212 226.835 293.02 225.509 293.796 223.699L299.325 204.688C299.454 204.171 299.519 203.783 299.519 203.525C299.519 202.878 299.357 202.328 299.034 201.876C298.71 201.423 298.258 200.938 297.676 200.421C296.706 199.58 296.221 198.837 296.221 198.19C296.156 197.285 296.706 196.315 297.87 195.28C299.034 194.246 300.65 193.405 302.719 192.759C304.853 192.047 307.246 191.692 309.897 191.692C314.294 191.692 317.688 192.726 320.081 194.795C322.473 196.865 323.669 199.613 323.669 203.04C323.669 204.398 323.411 206.014 322.893 207.889L316.589 228.645C316.46 228.969 316.395 229.454 316.395 230.1C316.395 230.941 316.686 231.587 317.268 232.04C317.85 232.493 318.658 232.719 319.693 232.719C321.115 232.719 322.764 232.105 324.639 230.876C326.579 229.583 328.454 227.772 330.265 225.445C332.14 223.052 333.659 220.239 334.823 217.006C332.237 214.743 330.394 212.512 329.295 210.314C328.26 208.115 327.743 205.852 327.743 203.525C327.743 200.227 328.648 197.446 330.459 195.183C332.269 192.856 334.888 191.692 338.315 191.692C341.742 191.692 344.587 192.92 346.85 195.377C349.113 197.834 350.245 201.197 350.245 205.464ZM383.683 191.692C391.119 191.692 397.068 193.082 401.53 195.862C405.991 198.578 408.222 202.749 408.222 208.374C408.222 210.508 407.834 212.933 407.058 215.648L403.082 229.033C403.017 229.292 402.985 229.615 402.985 230.003C402.985 231.038 403.405 231.555 404.246 231.555C405.021 231.555 405.668 231.232 406.185 230.585C406.767 229.874 407.155 229.518 407.349 229.518C407.673 229.518 407.931 229.745 408.125 230.197C408.384 230.65 408.513 231.167 408.513 231.749C408.578 233.495 407.899 235.273 406.476 237.084C405.118 238.894 403.276 240.381 400.948 241.545C398.62 242.709 396.066 243.291 393.286 243.291C389.923 243.291 387.046 242.677 384.653 241.448C382.261 240.22 380.612 238.409 379.707 236.017C377.767 238.344 375.471 240.155 372.82 241.448C370.169 242.677 367.324 243.291 364.285 243.291C360.858 243.291 357.981 242.644 355.653 241.351C353.325 239.993 351.579 238.28 350.415 236.211C349.316 234.077 348.767 231.846 348.767 229.518C348.767 228.484 348.864 227.481 349.058 226.511C350.092 222.05 352.323 218.688 355.75 216.424C359.242 214.161 363.38 213.03 368.165 213.03C373.532 213.03 378.802 213.87 383.974 215.551L386.399 209.15C387.24 206.434 387.66 204.333 387.66 202.846C387.595 201.294 387.078 200.13 386.108 199.354C385.138 198.578 383.651 198.19 381.647 198.19C382.035 199.225 382.229 200.292 382.229 201.391C382.229 203.783 381.323 205.852 379.513 207.598C377.702 209.344 375.116 210.217 371.753 210.217C368.585 210.217 366.096 209.538 364.285 208.18C362.539 206.758 361.666 205.012 361.666 202.943C361.666 199.71 363.477 197.026 367.098 194.892C370.719 192.759 376.247 191.692 383.683 191.692ZM378.252 221.08C376.441 221.08 374.954 221.791 373.79 223.214C372.691 224.572 372.141 226.059 372.141 227.675C372.141 228.71 372.368 229.551 372.82 230.197C373.338 230.844 374.049 231.167 374.954 231.167C375.795 231.167 376.7 230.844 377.67 230.197C378.705 229.486 379.448 228.451 379.901 227.093L381.938 221.371C380.838 221.177 379.61 221.08 378.252 221.08ZM460.141 191.692C463.762 191.692 466.64 192.791 468.773 194.989C470.972 197.188 472.071 199.904 472.071 203.137C472.071 204.365 471.942 205.497 471.683 206.531C471.037 209.182 469.808 211.219 467.998 212.642C466.187 214.064 464.021 214.776 461.499 214.776C459.042 214.776 457.167 214.194 455.874 213.03C454.645 211.866 453.546 210.314 452.576 208.374C452.059 207.275 451.574 206.467 451.121 205.949C450.668 205.432 450.151 205.173 449.569 205.173C448.923 205.173 448.341 205.432 447.823 205.949C447.371 206.467 446.95 207.372 446.562 208.665L439.094 232.913C438.965 233.236 438.9 233.721 438.9 234.368C438.9 235.208 439.127 235.92 439.579 236.502C440.096 237.019 440.775 237.536 441.616 238.053C442.392 238.571 442.909 238.991 443.168 239.314C443.426 239.638 443.523 240.058 443.459 240.575C443.329 241.416 442.844 242.03 442.004 242.418C441.228 242.806 439.87 243 437.93 243H413.101C411.419 243 410.223 242.741 409.512 242.224C408.736 241.642 408.445 240.899 408.639 239.993C408.898 239.217 409.577 238.538 410.676 237.956C411.646 237.439 412.454 236.825 413.101 236.114C413.747 235.402 414.297 234.271 414.749 232.719L423.382 204.688C423.511 204.365 423.576 203.913 423.576 203.331C423.576 202.619 423.414 202.07 423.091 201.682C422.832 201.294 422.379 200.809 421.733 200.227C421.086 199.71 420.634 199.257 420.375 198.869C420.116 198.481 420.084 197.964 420.278 197.317C420.666 195.83 422.703 194.537 426.388 193.437C430.074 192.274 433.921 191.692 437.93 191.692C440.581 191.692 442.78 192.306 444.526 193.534C446.272 194.698 447.403 196.38 447.92 198.578C451.024 193.987 455.098 191.692 460.141 191.692ZM512.041 192.953C513.27 192.953 514.208 193.211 514.854 193.728C515.565 194.246 515.921 194.957 515.921 195.862C515.921 196.121 515.856 196.574 515.727 197.22C514.886 200.065 512.947 201.488 509.908 201.488H504.282L497.008 225.445C496.684 226.415 496.523 227.417 496.523 228.451C496.523 229.615 496.846 230.423 497.493 230.876C498.139 231.329 499.045 231.555 500.208 231.555C501.243 231.555 502.536 231.426 504.088 231.167C504.864 230.973 505.543 230.876 506.125 230.876C506.578 230.876 506.901 231.038 507.095 231.361C507.353 231.62 507.483 231.975 507.483 232.428C507.547 233.721 506.578 235.305 504.573 237.181C502.633 238.991 499.982 240.575 496.62 241.933C493.257 243.226 489.539 243.873 485.466 243.873C481.069 243.873 477.545 242.871 474.894 240.866C472.243 238.862 470.917 236.114 470.917 232.622C470.917 231.005 471.176 229.454 471.693 227.966L477.901 208.762C478.224 207.663 478.385 206.79 478.385 206.143C478.385 204.85 478.062 203.751 477.416 202.846C476.834 201.94 475.993 201.003 474.894 200.033C473.924 199.128 473.245 198.384 472.857 197.802C472.469 197.155 472.372 196.412 472.566 195.571C472.825 194.731 473.374 194.084 474.215 193.631C475.055 193.179 476.381 192.953 478.191 192.953H483.623L489.733 186.842C491.867 184.708 493.807 183.221 495.553 182.381C497.363 181.54 499.691 181.12 502.536 181.12C506.61 181.12 508.647 182.671 508.647 185.775C508.647 186.745 508.517 187.65 508.259 188.491L506.901 192.953H512.041ZM569.818 229.615C569.689 229.874 569.624 230.262 569.624 230.779C569.624 231.232 569.721 231.587 569.915 231.846C570.173 232.105 570.497 232.234 570.885 232.234C571.661 232.234 572.307 231.911 572.825 231.264C573.407 230.553 573.794 230.197 573.988 230.197C574.312 230.197 574.57 230.423 574.764 230.876C574.958 231.264 575.055 231.749 575.055 232.331C575.12 234.206 574.506 236.049 573.213 237.859C571.919 239.605 570.012 241.06 567.49 242.224C565.033 243.323 562.059 243.873 558.567 243.873C554.299 243.873 550.905 242.903 548.383 240.963C545.861 238.959 544.568 236.308 544.503 233.01C544.503 230.617 545.085 227.934 546.249 224.96L551.584 210.993C551.907 210.152 552.068 209.473 552.068 208.956C552.068 208.115 551.777 207.469 551.196 207.016C550.678 206.499 550.032 206.24 549.256 206.24C548.027 206.24 546.766 206.822 545.473 207.986C544.245 209.085 543.242 210.896 542.466 213.418V213.224L536.356 232.913C536.162 233.689 536.065 234.368 536.065 234.95C536.065 235.79 536.227 236.469 536.55 236.987C536.873 237.439 537.326 237.892 537.908 238.344C538.36 238.797 538.684 239.185 538.878 239.508C539.072 239.767 539.104 240.123 538.975 240.575C538.651 241.416 538.005 242.03 537.035 242.418C536.065 242.806 534.578 243 532.573 243H510.459C508.778 243 507.549 242.741 506.774 242.224C505.998 241.642 505.739 240.899 505.998 239.993C506.256 239.217 506.935 238.538 508.034 237.956C509.004 237.439 509.813 236.825 510.459 236.114C511.106 235.402 511.655 234.271 512.108 232.719L526.851 184.32C527.045 183.738 527.142 183.253 527.142 182.865C527.142 182.154 526.948 181.572 526.56 181.12C526.236 180.667 525.784 180.214 525.202 179.762C524.555 179.244 524.07 178.792 523.747 178.404C523.488 178.016 523.456 177.499 523.65 176.852C524.038 175.365 526.075 174.072 529.76 172.972C533.446 171.873 537.293 171.324 541.302 171.324C545.053 171.324 547.801 172.035 549.547 173.457C551.357 174.88 552.262 176.82 552.262 179.277C552.262 180.699 552.036 182.09 551.584 183.447L546.346 200.518C548.868 197.22 551.519 194.925 554.299 193.631C557.144 192.338 560.216 191.692 563.513 191.692C567.458 191.692 570.626 192.888 573.019 195.28C575.476 197.673 576.704 200.776 576.704 204.591C576.704 206.596 576.381 208.568 575.734 210.508L569.818 229.615Z" fill="#333333"/>
</svg>
