<svg width="36" height="36" viewBox="0 0 36 36" fill="none" xmlns="http://www.w3.org/2000/svg">
<g clip-path="url(#clip0_434_2805)">
<path fill-rule="evenodd" clip-rule="evenodd" d="M5.4 -0.000976562H30.6C33.5823 -0.000976562 36 2.41669 36 5.39902V30.599C36 33.5814 33.5823 35.999 30.6 35.999H5.4C2.41766 35.999 0 33.5814 0 30.599V5.39902C0 2.41669 2.41766 -0.000976562 5.4 -0.000976562ZM7.8265 8.00282C7.3393 8.45522 7.0957 9.02942 7.0957 9.72542C7.0957 10.4214 7.33234 10.9991 7.80562 11.4585C8.2789 11.9178 8.89834 12.1475 9.66394 12.1475H9.68482C10.4783 12.1475 11.1186 11.9178 11.6058 11.4585C12.0791 11.013 12.3157 10.4562 12.3157 9.78806C12.3157 9.0503 12.0721 8.45174 11.5849 7.99238C11.1116 7.54694 10.4922 7.32422 9.72658 7.32422C8.94706 7.32422 8.3137 7.55042 7.8265 8.00282ZM7.36714 14.0476V27.9954H12.0025V14.0476H7.36714ZM19.2061 27.9954H14.5707C14.5986 23.7916 14.6125 20.5273 14.6125 18.2027C14.6125 15.8781 14.5986 14.493 14.5707 14.0476H19.2061V16.0312L19.1852 16.0729H19.2061V16.0312C20.2083 14.4861 21.6073 13.7135 23.403 13.7135C25.0038 13.7135 26.2914 14.2459 27.2658 15.3108C28.2402 16.3757 28.7274 17.9382 28.7274 19.9984V27.9954H24.092V20.5413C24.092 18.4393 23.3125 17.3884 21.7535 17.3884C21.1549 17.3884 20.6573 17.5519 20.2605 17.8791C19.8638 18.2062 19.568 18.6064 19.3731 19.0797C19.2618 19.3441 19.2061 19.72 19.2061 20.2072V27.9954Z" fill="#333333"/>
</g>
<defs>
<clipPath id="clip0_434_2805">
<rect width="36" height="36" fill="white"/>
</clipPath>
</defs>
</svg>
