<svg width="732" height="305" viewBox="0 0 732 305" fill="none" xmlns="http://www.w3.org/2000/svg">
<path d="M569.917 93.8184L572.859 111.676C575.49 127.649 588.008 140.167 603.98 142.798L621.838 145.74L603.98 148.681C588.008 151.312 575.49 163.831 572.859 179.803L569.917 197.661L566.976 179.803C564.345 163.831 551.826 151.312 535.854 148.681L517.996 145.74L535.854 142.798C551.826 140.167 564.345 127.649 566.976 111.676L569.917 93.8184Z" fill="#333333"/>
<path d="M82.695 0L84.5471 11.1117C86.2036 21.0499 94.0856 28.8393 104.142 30.4763L115.386 32.3065L104.142 34.1368C94.0856 35.7738 86.2036 43.5631 84.5471 53.5014L82.695 64.613L80.843 53.5014C79.1865 43.5631 71.3044 35.7738 61.2478 34.1368L50.0039 32.3065L61.2478 30.4763C71.3044 28.8393 79.1865 21.0499 80.843 11.1116L82.695 0Z" fill="#333333"/>
<path d="M292.529 253.152L293.962 262.018C295.244 269.947 301.344 276.162 309.127 277.468L317.828 278.928L309.127 280.389C301.344 281.695 295.244 287.91 293.962 295.839L292.529 304.704L291.096 295.839C289.814 287.91 283.714 281.695 275.932 280.389L267.23 278.928L275.932 277.468C283.714 276.162 289.814 269.947 291.096 262.018L292.529 253.152Z" fill="#333333"/>
<path d="M97.7299 103.837C97.7299 118.662 92.6356 130.482 82.447 139.297C72.2584 148.245 59.5897 152.719 44.4409 152.719C37.6039 152.719 30.9009 151.651 24.3319 149.514C17.897 147.51 12.1995 143.971 7.23925 138.896C2.41308 133.821 0 127.744 0 120.665C0 111.984 3.21744 105.106 9.65233 100.031C16.0872 94.9556 23.7957 92.418 32.7777 92.418C39.8829 92.418 46.0497 94.2878 51.278 98.0274C56.5064 101.767 59.1205 107.043 59.1205 113.854C59.1205 118.395 57.7129 122.201 54.8976 125.273C52.0824 128.345 48.4627 129.881 44.0388 129.881C40.017 129.881 36.5984 128.679 33.7832 126.275C30.9679 123.737 29.5603 120.532 29.5603 116.659C29.5603 113.186 30.8338 110.248 33.381 107.844C35.9281 105.44 38.9445 104.238 42.43 104.238C44.575 104.238 45.6475 103.57 45.6475 102.234C45.6475 100.098 44.2399 98.4949 41.4246 97.4264C38.7434 96.358 36.0622 95.8237 33.381 95.8237C27.2142 95.8237 22.0529 98.0942 17.897 102.635C13.7412 107.043 11.6632 112.318 11.6632 118.462C11.6632 127.276 14.6126 134.555 20.5112 140.298C26.4099 146.175 33.8502 149.113 42.8322 149.113C51.6802 149.113 58.9194 146.242 64.55 140.499C70.3146 134.889 73.1969 127.677 73.1969 118.862C73.1969 112.852 71.6552 107.644 68.5718 103.236C65.6225 98.6952 61.8688 95.2227 57.3107 92.8187C52.8867 90.4147 47.9935 87.8771 42.6311 85.2059C37.4028 82.4012 32.5096 79.7969 27.9515 77.3929C23.5276 74.8553 19.7739 71.316 16.6905 66.7751C13.7412 62.1006 12.2665 56.6247 12.2665 50.3476C12.2665 40.4643 15.8861 32.5845 23.1254 26.708C30.3646 20.6979 39.0785 17.6929 49.2671 17.6929C53.0208 17.6929 58.6513 18.3607 66.1587 19.6962C68.3037 20.2305 70.5827 20.4976 72.9958 20.4976C75.677 20.4976 79.4307 19.8298 84.2568 18.4942V55.1556H82.0448C78.5593 45.2724 73.8672 37.1922 67.9685 30.915C61.1314 23.8365 55.1658 20.2972 50.0715 20.2972C46.4519 20.2972 43.3014 21.6328 40.6202 24.3039C38.0731 26.8415 36.7995 29.9133 36.7995 33.5194C36.7995 37.3925 38.0061 40.9318 40.4191 44.1372C42.8322 47.3425 45.9156 49.8801 49.6693 51.7499L70.1805 61.7667C78.7604 65.907 85.4634 71.6499 90.2895 78.9955C95.2498 86.3412 97.7299 94.6217 97.7299 103.837Z" fill="#333333"/>
<path d="M138.265 73.9872C144.164 64.2375 152.14 59.3627 162.195 59.3627C167.96 59.3627 172.853 61.1657 176.875 64.7717C181.03 68.2442 183.108 72.7851 183.108 78.3945V112.452C183.108 118.328 185.387 122.468 189.945 124.872V127.076H151.135V124.872C153.548 123.403 155.09 121.801 155.76 120.064C156.564 118.195 156.967 115.657 156.967 112.452V79.3962C156.967 76.9922 156.095 74.9221 154.352 73.1858C152.744 71.4496 150.733 70.5815 148.32 70.5815C145.236 70.5815 142.756 71.9838 140.879 74.7885C139.137 77.5932 138.265 80.665 138.265 84.0039V112.452C138.265 117.66 140.276 121.801 144.298 124.872V127.076H104.884V124.872C109.71 121.934 112.124 117.794 112.124 112.452V83.0023C112.124 76.8586 109.442 72.9855 104.08 71.3828V69.1791L138.265 59.3627V73.9872Z" fill="#333333"/>
<path d="M239 102.234V73.5865C239 67.9771 236.788 64.1039 232.364 61.967V59.7633H265.142V112.452C265.142 118.061 267.354 122.201 271.778 124.872V127.076H239V112.452C232.968 122.201 224.924 127.076 214.87 127.076C209.105 127.076 204.212 125.34 200.19 121.867C196.168 118.261 194.157 113.654 194.157 108.044V72.7851C194.157 67.3093 192.213 63.5697 188.326 61.5664V59.7633H220.098V107.043C220.098 109.447 220.902 111.517 222.511 113.253C224.254 114.989 226.332 115.857 228.745 115.857C231.962 115.857 234.442 114.455 236.185 111.65C238.062 108.712 239 105.573 239 102.234Z" fill="#333333"/>
<path d="M301.593 106.642C301.593 108.912 303.001 110.048 305.816 110.048H327.735C334.572 110.048 340.671 111.984 346.034 115.857C351.396 119.73 354.078 125.006 354.078 131.684C354.078 138.896 351.597 144.839 346.637 149.514C341.677 154.188 336.046 157.327 329.746 158.929C323.579 160.666 316.943 161.534 309.838 161.534C306.888 161.534 303.872 161.333 300.789 160.933C297.705 160.532 294.287 159.798 290.533 158.729C286.913 157.794 283.964 156.258 281.685 154.121C279.406 151.984 278.266 149.38 278.266 146.308C278.266 141.367 282.02 137.427 289.528 134.488C283.629 130.215 280.68 125.674 280.68 120.866C280.68 115.79 282.825 111.583 287.114 108.245C291.538 104.906 296.499 102.568 301.995 101.233C296.096 99.8972 291.002 97.56 286.712 94.221C282.556 90.7486 280.478 86.2744 280.478 80.7986C280.478 73.3194 284.098 67.8435 291.337 64.371C298.577 60.8986 306.419 59.1623 314.865 59.1623C319.959 59.1623 324.584 59.6966 328.74 60.765V55.957C328.74 52.0838 330.148 48.8117 332.963 46.1405C335.778 43.4694 339.13 42.1338 343.018 42.1338C345.967 42.1338 348.514 43.1355 350.659 45.1388C352.804 47.1422 353.876 49.5462 353.876 52.3509C353.876 55.0221 352.938 57.2925 351.061 59.1623C349.184 61.0321 346.905 61.967 344.224 61.967C342.213 61.967 340.336 61.366 338.594 60.164C336.851 58.962 335.711 58.361 335.175 58.361C333.834 58.361 333.164 59.0288 333.164 60.3643C333.164 61.2992 333.633 61.967 334.572 62.3677C335.108 62.7684 335.912 63.2358 336.985 63.77C338.191 64.1707 339.063 64.5714 339.599 64.9721C346.168 68.9788 349.452 74.2543 349.452 80.7986C349.452 84.8053 348.313 88.3445 346.034 91.4163C343.755 94.3546 340.739 96.6251 336.985 98.2278C333.365 99.6969 329.679 100.765 325.925 101.433C322.305 102.101 318.619 102.435 314.865 102.435C306.017 102.435 301.593 103.837 301.593 106.642ZM323.713 80.7986C323.713 76.6583 323.043 72.518 321.702 68.3778C320.361 64.1039 318.082 61.967 314.865 61.967C311.647 61.967 309.368 64.1039 308.028 68.3778C306.821 72.518 306.218 76.6583 306.218 80.7986C306.218 84.8053 306.888 88.8788 308.229 93.019C309.57 97.1593 311.782 99.2294 314.865 99.2294C318.082 99.2294 320.361 97.1593 321.702 93.019C323.043 88.8788 323.713 84.8053 323.713 80.7986ZM310.441 158.929C312.72 158.929 315.267 158.662 318.082 158.128C321.032 157.727 324.048 157.06 327.131 156.125C330.349 155.19 333.03 153.787 335.175 151.918C337.32 150.048 338.392 147.844 338.392 145.307C338.392 141.834 336.315 139.163 332.159 137.293C328.137 135.557 324.115 134.689 320.093 134.689H306.62C302.867 134.689 299.314 135.624 295.962 137.494C292.611 139.497 290.935 142.168 290.935 145.507C290.935 149.781 293.013 153.053 297.169 155.323C301.325 157.727 305.749 158.929 310.441 158.929Z" fill="#333333"/>
<path d="M383.875 106.642C383.875 108.912 385.283 110.048 388.098 110.048H410.017C416.854 110.048 422.954 111.984 428.316 115.857C433.678 119.73 436.36 125.006 436.36 131.684C436.36 138.896 433.879 144.839 428.919 149.514C423.959 154.188 418.328 157.327 412.028 158.929C405.861 160.666 399.225 161.534 392.12 161.534C389.17 161.534 386.154 161.333 383.071 160.933C379.987 160.532 376.569 159.798 372.815 158.729C369.195 157.794 366.246 156.258 363.967 154.121C361.688 151.984 360.549 149.38 360.549 146.308C360.549 141.367 364.302 137.427 371.81 134.488C365.911 130.215 362.962 125.674 362.962 120.866C362.962 115.79 365.107 111.583 369.397 108.245C373.82 104.906 378.781 102.568 384.277 101.233C378.379 99.8972 373.284 97.56 368.994 94.221C364.838 90.7486 362.761 86.2744 362.761 80.7986C362.761 73.3194 366.38 67.8435 373.619 64.371C380.859 60.8986 388.701 59.1623 397.147 59.1623C402.241 59.1623 406.866 59.6966 411.022 60.765V55.957C411.022 52.0838 412.43 48.8117 415.245 46.1405C418.06 43.4694 421.412 42.1338 425.3 42.1338C428.249 42.1338 430.796 43.1355 432.941 45.1388C435.086 47.1422 436.158 49.5462 436.158 52.3509C436.158 55.0221 435.22 57.2925 433.343 59.1623C431.466 61.0321 429.187 61.967 426.506 61.967C424.495 61.967 422.618 61.366 420.876 60.164C419.133 58.962 417.993 58.361 417.457 58.361C416.116 58.361 415.446 59.0288 415.446 60.3643C415.446 61.2992 415.915 61.967 416.854 62.3677C417.39 62.7684 418.194 63.2358 419.267 63.77C420.473 64.1707 421.345 64.5714 421.881 64.9721C428.45 68.9788 431.734 74.2543 431.734 80.7986C431.734 84.8053 430.595 88.3445 428.316 91.4163C426.037 94.3546 423.021 96.6251 419.267 98.2278C415.647 99.6969 411.961 100.765 408.207 101.433C404.587 102.101 400.901 102.435 397.147 102.435C388.299 102.435 383.875 103.837 383.875 106.642ZM405.995 80.7986C405.995 76.6583 405.325 72.518 403.984 68.3778C402.643 64.1039 400.364 61.967 397.147 61.967C393.93 61.967 391.651 64.1039 390.31 68.3778C389.103 72.518 388.5 76.6583 388.5 80.7986C388.5 84.8053 389.17 88.8788 390.511 93.019C391.852 97.1593 394.064 99.2294 397.147 99.2294C400.364 99.2294 402.643 97.1593 403.984 93.019C405.325 88.8788 405.995 84.8053 405.995 80.7986ZM392.723 158.929C395.002 158.929 397.549 158.662 400.364 158.128C403.314 157.727 406.33 157.06 409.413 156.125C412.631 155.19 415.312 153.787 417.457 151.918C419.602 150.048 420.675 147.844 420.675 145.307C420.675 141.834 418.597 139.163 414.441 137.293C410.419 135.557 406.397 134.689 402.375 134.689H388.902C385.149 134.689 381.596 135.624 378.244 137.494C374.893 139.497 373.217 142.168 373.217 145.507C373.217 149.781 375.295 153.053 379.451 155.323C383.607 157.727 388.031 158.929 392.723 158.929Z" fill="#333333"/>
<path d="M482.244 124.872V127.076H444.037V124.872C448.595 121.934 450.874 117.794 450.874 112.452V42.3341C450.874 36.1905 448.193 32.3174 442.831 30.7147V28.511L477.016 18.6945V112.452C477.016 118.061 478.759 122.201 482.244 124.872Z" fill="#333333"/>
<path d="M555.147 101.433L557.359 102.435C554.008 110.315 549.316 116.859 543.283 122.068C537.384 127.276 530.48 129.881 522.571 129.881C512.784 129.881 504.674 126.742 498.239 120.465C491.804 114.188 488.586 106.174 488.586 96.4247C488.586 85.4731 492.34 76.5247 499.847 69.5798C507.489 62.6348 516.806 59.1623 527.799 59.1623C535.038 59.1623 541.607 61.6999 547.506 66.7751C553.405 71.8502 556.354 77.9271 556.354 85.0056C556.354 87.2761 555.281 88.4113 553.136 88.4113H514.326C514.728 95.4898 516.538 101.5 519.755 106.442C522.973 111.383 527.933 113.854 534.636 113.854C543.216 113.854 550.053 109.714 555.147 101.433ZM523.375 61.967C517.611 61.967 514.527 69.4462 514.125 84.4046C514.125 85.0724 514.125 85.5398 514.125 85.807H524.582C529.14 85.807 531.419 83.67 531.419 79.3962C531.419 67.7768 528.737 61.967 523.375 61.967Z" fill="#333333"/>
<path d="M254.495 269.915H187.532V267.511C191.286 266.309 194.437 263.972 196.984 260.5C199.665 256.894 201.005 253.087 201.005 249.08V184.572C201.005 178.963 199.196 174.556 195.576 171.35C192.09 168.145 187.532 166.542 181.902 166.542C173.724 166.542 167.222 169.614 162.396 175.758C157.704 181.901 155.358 189.18 155.358 197.594C155.358 202.936 156.43 207.878 158.575 212.419C160.854 216.96 164.34 219.23 169.032 219.23C173.054 219.23 175.065 218.028 175.065 215.624C175.065 214.957 173.858 213.421 171.445 211.017C169.166 208.613 168.027 205.875 168.027 202.803C168.027 199.197 169.3 196.192 171.847 193.788C174.394 191.384 177.545 190.182 181.299 190.182C185.052 190.182 188.069 191.517 190.348 194.188C192.627 196.726 193.766 199.931 193.766 203.805C193.766 209.28 191.621 213.688 187.331 217.027C183.041 220.366 178.014 222.035 172.25 222.035C164.34 222.035 157.704 219.831 152.342 215.424C146.979 210.883 144.298 204.74 144.298 196.993C144.298 186.976 148.052 179.03 155.559 173.153C163.2 167.143 172.182 164.138 182.505 164.138H248.664C257.78 164.138 265.891 166.342 272.996 170.749C280.101 175.023 283.654 181.367 283.654 189.781C283.654 195.391 281.643 200.332 277.621 204.606C273.599 208.746 268.706 211.751 262.941 213.621C270.181 215.224 276.414 218.496 281.643 223.437C287.005 228.379 289.686 234.322 289.686 241.267C289.686 250.349 286.201 257.428 279.23 262.503C272.258 267.445 264.014 269.915 254.495 269.915ZM250.876 187.778C250.876 182.97 250.004 178.429 248.262 174.155C246.519 169.881 243.57 167.744 239.414 167.744C236.866 167.744 234.856 168.679 233.381 170.549C231.906 172.419 231.169 174.622 231.169 177.16V206.609C231.169 211.684 233.18 214.222 237.202 214.222C241.626 214.222 244.977 212.553 247.256 209.214C249.669 205.875 250.876 201.868 250.876 197.194V187.778ZM256.506 241.267C256.506 234.857 255.032 229.247 252.082 224.439C249.267 219.631 244.843 217.227 238.81 217.227C233.716 217.227 231.169 220.099 231.169 225.842V256.092C231.169 263.304 234.52 266.91 241.223 266.91C244.977 266.91 248.06 265.374 250.474 262.303C253.021 259.097 254.629 255.758 255.3 252.286C256.104 248.68 256.506 245.007 256.506 241.267Z" fill="#333333"/>
<path d="M342.845 245.074V216.426C342.845 210.816 340.633 206.943 336.209 204.806V202.603H368.986V255.291C368.986 260.9 371.198 265.041 375.622 267.712V269.915H342.845V255.291C336.812 265.041 328.768 269.915 318.714 269.915C312.949 269.915 308.056 268.179 304.034 264.707C300.013 261.101 298.002 256.493 298.002 250.883V215.624C298.002 210.149 296.058 206.409 292.17 204.406V202.603H323.942V249.882C323.942 252.286 324.747 254.356 326.355 256.092C328.098 257.828 330.176 258.697 332.589 258.697C335.807 258.697 338.287 257.294 340.03 254.489C341.906 251.551 342.845 248.413 342.845 245.074Z" fill="#333333"/>
<path d="M427.651 262.102C421.485 269.849 414.379 273.722 406.336 273.722C398.56 273.722 392.192 270.45 387.232 263.905C382.272 257.361 379.792 250.015 379.792 241.868C379.792 231.985 382.808 222.97 388.841 214.823C395.008 206.676 402.917 202.603 412.57 202.603C418.871 202.603 423.898 204.205 427.651 207.411V185.173C427.651 179.03 424.97 175.157 419.608 173.554V171.35L453.391 161.534V255.291C453.391 260.9 455.469 265.041 459.625 267.712V269.915H427.651V262.102ZM407.341 233.655C407.341 236.192 407.475 238.797 407.743 241.468C408.012 244.139 408.481 247.211 409.151 250.683C409.955 254.156 411.162 257.027 412.771 259.298C414.514 261.434 416.658 262.503 419.206 262.503C421.485 262.503 423.429 261.368 425.037 259.097C426.78 256.693 427.651 254.289 427.651 251.885V211.618C424.434 208.145 421.418 206.409 418.602 206.409C416.189 206.409 414.178 207.477 412.57 209.614C410.961 211.751 409.821 214.489 409.151 217.828C408.481 221.033 408.012 223.905 407.743 226.443C407.475 228.98 407.341 231.384 407.341 233.655Z" fill="#333333"/>
<path d="M515.432 262.102C509.265 269.849 502.16 273.722 494.116 273.722C486.341 273.722 479.973 270.45 475.013 263.905C470.053 257.361 467.573 250.015 467.573 241.868C467.573 231.985 470.589 222.97 476.622 214.823C482.788 206.676 490.698 202.603 500.35 202.603C506.651 202.603 511.678 204.205 515.432 207.411V185.173C515.432 179.03 512.751 175.157 507.388 173.554V171.35L541.172 161.534V255.291C541.172 260.9 543.25 265.041 547.405 267.712V269.915H515.432V262.102ZM495.122 233.655C495.122 236.192 495.256 238.797 495.524 241.468C495.792 244.139 496.261 247.211 496.932 250.683C497.736 254.156 498.943 257.027 500.551 259.298C502.294 261.434 504.439 262.503 506.986 262.503C509.265 262.503 511.209 261.368 512.818 259.097C514.561 256.693 515.432 254.289 515.432 251.885V211.618C512.215 208.145 509.198 206.409 506.383 206.409C503.97 206.409 501.959 207.477 500.35 209.614C498.742 211.751 497.602 214.489 496.932 217.828C496.261 221.033 495.792 223.905 495.524 226.443C495.256 228.98 495.122 231.384 495.122 233.655Z" fill="#333333"/>
<path d="M667.043 244.272L669.255 245.274C665.904 253.154 661.212 259.698 655.179 264.907C649.28 270.116 642.376 272.72 634.466 272.72C624.68 272.72 616.569 269.581 610.135 263.304C603.7 257.027 600.482 249.014 600.482 239.264C600.482 228.312 604.236 219.364 611.743 212.419C619.385 205.474 628.702 202.002 639.695 202.002C646.934 202.002 653.503 204.539 659.402 209.614C665.3 214.689 668.25 220.766 668.25 227.845C668.25 230.115 667.177 231.251 665.032 231.251H626.222C626.624 238.329 628.434 244.339 631.651 249.281C634.869 254.222 639.829 256.693 646.532 256.693C655.112 256.693 661.949 252.553 667.043 244.272ZM635.271 204.806C629.506 204.806 626.423 212.285 626.021 227.244C626.021 227.912 626.021 228.379 626.021 228.646H636.477C641.035 228.646 643.314 226.509 643.314 222.235C643.314 210.616 640.633 204.806 635.271 204.806Z" fill="#333333"/>
<path d="M732 248.68C732 255.892 729.051 261.702 723.152 266.109C717.387 270.516 710.751 272.72 703.244 272.72C701.367 272.72 698.418 272.386 694.396 271.718C690.508 271.051 687.559 270.717 685.548 270.717C682.867 270.717 679.582 271.318 675.695 272.52V244.473H677.907C683.805 261.702 692.251 270.316 703.244 270.316C705.925 270.316 708.271 269.515 710.282 267.912C712.293 266.309 713.299 264.239 713.299 261.702C713.299 258.63 711.355 256.025 707.467 253.888C703.579 251.752 699.289 250.015 694.597 248.68C689.905 247.211 685.615 244.606 681.727 240.867C677.84 236.994 675.896 232.119 675.896 226.242C675.896 219.164 678.845 213.421 684.744 209.013C690.642 204.606 697.211 202.402 704.451 202.402C707.534 202.402 712.293 202.936 718.728 204.005C719.13 204.138 720.136 204.205 721.744 204.205C722.951 204.205 725.163 203.537 728.38 202.202V222.836H725.967C725.297 218.83 723.018 214.89 719.13 211.017C715.242 207.01 711.288 205.007 707.266 205.007C704.585 205.007 702.038 205.808 699.624 207.411C697.345 208.88 696.206 210.883 696.206 213.421C696.206 216.092 697.412 218.362 699.825 220.232C702.373 222.102 705.389 223.705 708.875 225.04C712.36 226.376 715.846 227.912 719.331 229.648C722.817 231.384 725.766 233.855 728.179 237.06C730.726 240.266 732 244.139 732 248.68Z" fill="#333333"/>
<path fill-rule="evenodd" clip-rule="evenodd" d="M593.963 269.915V267.712C589.673 265.041 587.528 260.9 587.528 255.291V202.202L553.744 212.018V214.222C559.107 215.825 561.788 219.698 561.788 225.842V255.291C561.788 260.633 559.509 264.773 554.951 267.712V269.915H593.963Z" fill="#333333"/>
</svg>
