<svg width="264" height="264" viewBox="0 0 264 264" fill="none" xmlns="http://www.w3.org/2000/svg">
<g clip-path="url(#clip0_1_13384)">
<path d="M0 33C0 14.7746 14.7746 0 33 0H231C249.225 0 264 14.7746 264 33V231C264 249.225 249.225 264 231 264H33C14.7746 264 0 249.225 0 231V33Z" fill="#1246FF"/>
<path d="M102.756 192.081L65.9961 66H92.7966C96.4684 66 99.692 68.4314 100.721 71.9657L128.949 169.53C129.125 170.121 129.666 170.517 130.283 170.517H133.712C134.326 170.517 134.868 170.121 135.044 169.53L163.272 71.9657C164.297 68.4314 167.524 66 171.196 66H197.996L161.231 192.081C160.205 195.599 156.973 198.022 153.309 198.022H110.683C107.014 198.022 103.785 195.599 102.756 192.081Z" fill="#FFFFFD"/>
</g>
<defs>
<clipPath id="clip0_1_13384">
<rect width="264" height="264" fill="white"/>
</clipPath>
</defs>
</svg>
