<svg width="264" height="265" viewBox="0 0 264 265" fill="none" xmlns="http://www.w3.org/2000/svg">
<path d="M26.2967 1.72473H237.703C251.273 1.72473 262.275 12.7313 262.275 26.3105V237.827C262.275 251.406 251.273 262.413 237.703 262.413H26.2967C12.7268 262.413 1.72473 251.406 1.72473 237.827V26.3105C1.72473 12.7313 12.7268 1.72473 26.2967 1.72473Z" fill="url(#paint0_linear_1_13411)"/>
<path d="M26.2967 1.72473H237.703C251.273 1.72473 262.275 12.7313 262.275 26.3105V237.827C262.275 251.406 251.273 262.413 237.703 262.413H26.2967C12.7268 262.413 1.72473 251.406 1.72473 237.827V26.3105C1.72473 12.7313 12.7268 1.72473 26.2967 1.72473Z" fill="url(#paint1_linear_1_13411)"/>
<path d="M26.2967 1.72473H237.703C251.273 1.72473 262.275 12.7313 262.275 26.3105V237.827C262.275 251.406 251.273 262.413 237.703 262.413H26.2967C12.7268 262.413 1.72473 251.406 1.72473 237.827V26.3105C1.72473 12.7313 12.7268 1.72473 26.2967 1.72473Z" stroke="url(#paint2_linear_1_13411)" stroke-width="3.44946"/>
<path fill-rule="evenodd" clip-rule="evenodd" d="M213.727 173.909C213.727 181.397 207.656 187.468 200.167 187.468L103.259 187.468C95.762 187.468 89.6878 181.385 89.6992 173.888L89.8257 90.6741C89.837 83.1935 95.9045 77.1353 103.385 77.1353L200.167 77.1353C207.656 77.1353 213.727 83.2061 213.727 90.6948L213.727 173.909ZM144.655 97.5865C144.655 93.8823 147.658 90.8794 151.363 90.8794H158.735C162.439 90.8794 165.442 93.8823 165.442 97.5865C165.442 101.291 162.439 104.294 158.735 104.294H151.363C147.658 104.294 144.655 101.291 144.655 97.5865ZM117.848 90.8794C114.144 90.8794 111.141 93.8823 111.141 97.5865C111.141 101.291 114.144 104.294 117.848 104.294H125.22C128.925 104.294 131.928 101.291 131.928 97.5865C131.928 93.8823 128.925 90.8794 125.22 90.8794H117.848ZM178.198 97.5865C178.198 93.8823 181.201 90.8794 184.906 90.8794H192.278C195.982 90.8794 198.985 93.8823 198.985 97.5865C198.985 101.291 195.982 104.294 192.278 104.294H184.906C181.201 104.294 178.198 101.291 178.198 97.5865ZM151.363 162.98C147.658 162.98 144.655 165.983 144.655 169.687C144.655 173.392 147.658 176.395 151.363 176.395H158.735C162.439 176.395 165.442 173.392 165.442 169.687C165.442 165.983 162.439 162.98 158.735 162.98H151.363ZM178.198 169.687C178.198 165.983 181.201 162.98 184.906 162.98H192.278C195.982 162.98 198.985 165.983 198.985 169.687C198.985 173.392 195.982 176.395 192.278 176.395H184.906C181.201 176.395 178.198 173.392 178.198 169.687ZM117.848 162.98C114.144 162.98 111.141 165.983 111.141 169.687C111.141 173.392 114.144 176.395 117.848 176.395H125.22C128.925 176.395 131.928 173.392 131.928 169.687C131.928 165.983 128.925 162.98 125.22 162.98H117.848Z" fill="white"/>
<path d="M119.136 141.858L64.7112 183.44C53.777 192.158 42.0742 185.753 42.0742 173.425V91.0488C42.0742 78.7216 53.777 72.478 64.7112 81.196L119.136 122.293C125.907 127.692 125.907 136.459 119.136 141.858Z" fill="url(#paint3_linear_1_13411)"/>
<defs>
<linearGradient id="paint0_linear_1_13411" x1="7.69509" y1="256.428" x2="256.424" y2="7.83903" gradientUnits="userSpaceOnUse">
<stop stop-color="#000428"/>
<stop offset="1" stop-color="#169AFF"/>
</linearGradient>
<linearGradient id="paint1_linear_1_13411" x1="7.70552" y1="256.428" x2="256.424" y2="7.83902" gradientUnits="userSpaceOnUse">
<stop/>
<stop offset="1" stop-color="#2D2D2D"/>
</linearGradient>
<linearGradient id="paint2_linear_1_13411" x1="254.732" y1="5.1188" x2="-0.0718521" y2="263.832" gradientUnits="userSpaceOnUse">
<stop stop-color="#0CCDFF"/>
<stop offset="0.375" stop-color="#06AAFF"/>
<stop offset="0.809096" stop-color="#01295D"/>
</linearGradient>
<linearGradient id="paint3_linear_1_13411" x1="123.902" y1="92.7065" x2="48.2527" y2="187.668" gradientUnits="userSpaceOnUse">
<stop stop-color="#0CCDFF"/>
<stop offset="0.807292" stop-color="#0071D2"/>
</linearGradient>
</defs>
</svg>
