<svg width="291" height="291" viewBox="0 0 291 291" fill="none" xmlns="http://www.w3.org/2000/svg">
<path d="M28.9213 1.89687H261.427C276.352 1.89687 288.452 14.002 288.452 28.9364V261.564C288.452 276.498 276.352 288.603 261.427 288.603H28.9213C13.997 288.603 1.89687 276.498 1.89687 261.564V28.9364C1.89687 14.0019 13.997 1.89687 28.9213 1.89687Z" fill="url(#paint0_linear_121_1089)"/>
<path d="M28.9213 1.89687H261.427C276.352 1.89687 288.452 14.002 288.452 28.9364V261.564C288.452 276.498 276.352 288.603 261.427 288.603H28.9213C13.997 288.603 1.89687 276.498 1.89687 261.564V28.9364C1.89687 14.0019 13.997 1.89687 28.9213 1.89687Z" fill="url(#paint1_linear_121_1089)"/>
<path d="M28.9213 1.89687H261.427C276.352 1.89687 288.452 14.002 288.452 28.9364V261.564C288.452 276.498 276.352 288.603 261.427 288.603H28.9213C13.997 288.603 1.89687 276.498 1.89687 261.564V28.9364C1.89687 14.0019 13.997 1.89687 28.9213 1.89687Z" stroke="url(#paint2_linear_121_1089)" stroke-width="3.79374"/>
<path fill-rule="evenodd" clip-rule="evenodd" d="M235.057 191.265C235.057 199.501 228.381 206.178 220.144 206.178L113.564 206.178C105.319 206.178 98.6384 199.487 98.6509 191.242L98.79 99.7232C98.8025 91.4959 105.475 84.833 113.703 84.833L220.144 84.833C228.381 84.833 235.057 91.5097 235.057 99.7458L235.057 191.265ZM159.094 107.326C159.094 103.252 162.397 99.9498 166.471 99.9498H174.579C178.653 99.9498 181.956 103.252 181.956 107.326C181.956 111.4 178.653 114.703 174.579 114.703H166.471C162.397 114.703 159.094 111.4 159.094 107.326ZM129.61 99.9498C125.536 99.9498 122.234 103.252 122.234 107.326C122.234 111.4 125.536 114.703 129.61 114.703H137.718C141.792 114.703 145.095 111.4 145.095 107.326C145.095 103.252 141.792 99.9498 137.718 99.9498H129.61ZM195.983 107.326C195.983 103.252 199.286 99.9498 203.36 99.9498H211.468C215.542 99.9498 218.844 103.252 218.844 107.326C218.844 111.4 215.542 114.703 211.468 114.703H203.36C199.286 114.703 195.983 111.4 195.983 107.326ZM166.471 179.246C162.397 179.246 159.094 182.549 159.094 186.623C159.094 190.697 162.397 193.999 166.471 193.999H174.579C178.653 193.999 181.956 190.697 181.956 186.623C181.956 182.549 178.653 179.246 174.579 179.246H166.471ZM195.983 186.623C195.983 182.549 199.286 179.246 203.36 179.246H211.468C215.542 179.246 218.845 182.549 218.845 186.623C218.845 190.697 215.542 193.999 211.468 193.999H203.36C199.286 193.999 195.983 190.697 195.983 186.623ZM129.61 179.246C125.536 179.246 122.234 182.549 122.234 186.623C122.234 190.697 125.536 193.999 129.61 193.999H137.718C141.792 193.999 145.095 190.697 145.095 186.623C145.095 182.549 141.792 179.246 137.718 179.246H129.61Z" fill="white"/>
<path d="M131.027 156.016L71.1708 201.748C59.1452 211.336 46.2744 204.292 46.2744 190.734V100.136C46.2744 86.5786 59.1452 79.7117 71.1708 89.2999L131.027 134.499C138.474 140.437 138.474 150.078 131.027 156.016Z" fill="url(#paint3_linear_121_1089)"/>
<defs>
<linearGradient id="paint0_linear_121_1089" x1="8.4631" y1="282.021" x2="282.017" y2="8.62142" gradientUnits="userSpaceOnUse">
<stop stop-color="#000428"/>
<stop offset="1" stop-color="#169AFF"/>
</linearGradient>
<linearGradient id="paint1_linear_121_1089" x1="8.47457" y1="282.021" x2="282.017" y2="8.62141" gradientUnits="userSpaceOnUse">
<stop/>
<stop offset="1" stop-color="#2D2D2D"/>
</linearGradient>
<linearGradient id="paint2_linear_121_1089" x1="280.155" y1="5.62969" x2="-0.0790346" y2="290.164" gradientUnits="userSpaceOnUse">
<stop stop-color="#0CCDFF"/>
<stop offset="0.375" stop-color="#06AAFF"/>
<stop offset="0.809096" stop-color="#01295D"/>
</linearGradient>
<linearGradient id="paint3_linear_121_1089" x1="136.269" y1="101.959" x2="53.0695" y2="206.399" gradientUnits="userSpaceOnUse">
<stop stop-color="#0CCDFF"/>
<stop offset="0.807292" stop-color="#0071D2"/>
</linearGradient>
</defs>
</svg>
