<svg width="731" height="420" viewBox="0 0 731 420" fill="none" xmlns="http://www.w3.org/2000/svg">
<path fill-rule="evenodd" clip-rule="evenodd" d="M69.7993 24.5406C84.076 24.5406 95.6495 13.7493 95.6495 0.437402C95.6495 0.291294 95.6481 0.14549 95.6453 0H128.439C128.436 0.14549 128.435 0.291294 128.435 0.437402C128.435 13.7493 140.008 24.5406 154.285 24.5406C168.562 24.5406 180.135 13.7493 180.135 0.437402C180.135 0.291294 180.134 0.14549 180.131 0H212.925C212.922 0.14549 212.921 0.291294 212.921 0.437402C212.921 13.7493 224.494 24.5406 238.771 24.5406C253.048 24.5406 264.621 13.7493 264.621 0.437402C264.621 0.291294 264.62 0.14549 264.617 0H297.411C297.408 0.14549 297.407 0.291294 297.407 0.437402C297.407 13.7493 308.98 24.5406 323.257 24.5406C337.533 24.5406 349.107 13.7493 349.107 0.437402C349.107 0.291294 349.105 0.14549 349.103 0H381.896C381.894 0.14549 381.892 0.291294 381.892 0.437402C381.892 13.7493 393.466 24.5406 407.742 24.5406C422.019 24.5406 433.593 13.7493 433.593 0.437402C433.593 0.291294 433.591 0.14549 433.588 0H466.382C466.379 0.14549 466.378 0.291294 466.378 0.437402C466.378 13.7493 477.952 24.5406 492.228 24.5406C506.505 24.5406 518.078 13.7493 518.078 0.437402C518.078 0.291294 518.077 0.14549 518.074 0H550.868C550.865 0.14549 550.864 0.291294 550.864 0.437402C550.864 13.7493 562.437 24.5406 576.714 24.5406C590.991 24.5406 602.564 13.7493 602.564 0.437402C602.564 0.291294 602.563 0.14549 602.56 0H635.354C635.351 0.14549 635.35 0.291294 635.35 0.437402C635.35 13.7493 646.923 24.5406 661.2 24.5406C675.476 24.5406 687.05 13.7493 687.05 0.437402C687.05 0.291294 687.048 0.14549 687.046 0H731V420H0V0H43.9534C43.9506 0.14549 43.9492 0.291294 43.9492 0.437402C43.9492 13.7493 55.5227 24.5406 69.7993 24.5406Z" fill="white"/>
</svg>
