<svg width="50" height="50" viewBox="0 0 50 50" fill="none" xmlns="http://www.w3.org/2000/svg">
<g clip-path="url(#clip0_392_8800)">
<rect x="5" y="8" width="41" height="30" fill="white"/>
<path fill-rule="evenodd" clip-rule="evenodd" d="M7.50195 0.000488281H42.502C46.6441 0.000488281 50.002 3.35835 50.002 7.50049V42.5005C50.002 46.6426 46.6441 50.0005 42.502 50.0005H7.50195C3.35982 50.0005 0.00195312 46.6426 0.00195312 42.5005V7.50049C0.00195312 3.35835 3.35982 0.000488281 7.50195 0.000488281ZM9.08611 16.1604V33.8331C9.08611 33.9558 9.12701 34.1604 9.20883 34.4467L19.5793 24.4751L9.17815 15.5774C9.11679 15.9456 9.08611 16.1399 9.08611 16.1604ZM10.9884 14.2581C10.7838 14.2581 10.61 14.2888 10.4668 14.3501L20.8986 23.2785L22.2793 24.3831L25.01 26.6229L27.7407 24.3831L29.1213 23.2785L39.5532 14.3501C39.3691 14.2888 39.185 14.2581 39.0009 14.2581H10.9884ZM20.96 25.6104L10.4975 35.6433C10.6611 35.7047 10.8247 35.7354 10.9884 35.7354H39.0009C39.185 35.7354 39.3588 35.7047 39.5225 35.6433L29.06 25.6104L25.01 28.8933L20.96 25.6104ZM40.8111 15.5774L30.4407 24.4751L40.8111 34.4467C40.8725 34.2217 40.9032 34.0172 40.9032 33.8331V16.1604C40.9032 15.9558 40.8725 15.7615 40.8111 15.5774Z" fill="#333333"/>
</g>
<defs>
<clipPath id="clip0_392_8800">
<rect width="50" height="50" fill="white"/>
</clipPath>
</defs>
</svg>
