<svg width="50" height="50" viewBox="0 0 50 50" fill="none" xmlns="http://www.w3.org/2000/svg">
<g clip-path="url(#clip0_400_1829)">
<path d="M42.5 0H7.5C3.35786 0 0 3.35786 0 7.5V42.5C0 46.6421 3.35786 50 7.5 50H42.5C46.6421 50 50 46.6421 50 42.5V7.5C50 3.35786 46.6421 0 42.5 0Z" fill="#5C4B8D"/>
<g clip-path="url(#clip1_400_1829)">
<path d="M9.85547 13.5088C9.85547 12.5422 10.1938 11.7447 10.8705 11.1163C11.5471 10.488 12.4268 10.1738 13.5095 10.1738C14.5728 10.1738 15.4331 10.4832 16.0905 11.1018C16.7671 11.7398 17.1055 12.5712 17.1055 13.5958C17.1055 14.5238 16.7768 15.2972 16.1195 15.9158C15.4428 16.5538 14.5535 16.8728 13.4515 16.8728H13.4225C12.3591 16.8728 11.4988 16.5538 10.8415 15.9158C10.1841 15.2778 9.85547 14.4755 9.85547 13.5088ZM10.2325 38.8838V19.5118H16.6705V38.8838H10.2325ZM20.2375 38.8838H26.6755V28.0668C26.6755 27.3902 26.7528 26.8682 26.9075 26.5008C27.1781 25.8435 27.589 25.2877 28.14 24.8333C28.691 24.379 29.3821 24.1518 30.2135 24.1518C32.3788 24.1518 33.4615 25.6115 33.4615 28.5308V38.8838H39.8995V27.7768C39.8995 24.9155 39.2228 22.7453 37.8695 21.2663C36.5161 19.7873 34.7278 19.0478 32.5045 19.0478C30.0105 19.0478 28.0675 20.1208 26.6755 22.2668V22.3248H26.6465L26.6755 22.2668V19.5118H20.2375C20.2761 20.1305 20.2955 22.0542 20.2955 25.2828C20.2955 28.5115 20.2761 33.0452 20.2375 38.8838Z" fill="white"/>
</g>
<path d="M42.5 0H7.5C3.35786 0 0 3.35786 0 7.5V42.5C0 46.6421 3.35786 50 7.5 50H42.5C46.6421 50 50 46.6421 50 42.5V7.5C50 3.35786 46.6421 0 42.5 0Z" fill="#5C4B8D"/>
<g clip-path="url(#clip2_400_1829)">
<path d="M9.85547 13.5088C9.85547 12.5422 10.1938 11.7447 10.8705 11.1163C11.5471 10.488 12.4268 10.1738 13.5095 10.1738C14.5728 10.1738 15.4331 10.4832 16.0905 11.1018C16.7671 11.7398 17.1055 12.5712 17.1055 13.5958C17.1055 14.5238 16.7768 15.2972 16.1195 15.9158C15.4428 16.5538 14.5535 16.8728 13.4515 16.8728H13.4225C12.3591 16.8728 11.4988 16.5538 10.8415 15.9158C10.1841 15.2778 9.85547 14.4755 9.85547 13.5088ZM10.2325 38.8838V19.5118H16.6705V38.8838H10.2325ZM20.2375 38.8838H26.6755V28.0668C26.6755 27.3902 26.7528 26.8682 26.9075 26.5008C27.1781 25.8435 27.589 25.2877 28.14 24.8333C28.691 24.379 29.3821 24.1518 30.2135 24.1518C32.3788 24.1518 33.4615 25.6115 33.4615 28.5308V38.8838H39.8995V27.7768C39.8995 24.9155 39.2228 22.7453 37.8695 21.2663C36.5161 19.7873 34.7278 19.0478 32.5045 19.0478C30.0105 19.0478 28.0675 20.1208 26.6755 22.2668V22.3248H26.6465L26.6755 22.2668V19.5118H20.2375C20.2761 20.1305 20.2955 22.0542 20.2955 25.2828C20.2955 28.5115 20.2761 33.0452 20.2375 38.8838Z" fill="white"/>
</g>
</g>
<defs>
<clipPath id="clip0_400_1829">
<rect width="50" height="50" fill="white"/>
</clipPath>
<clipPath id="clip1_400_1829">
<rect width="29.9062" height="29" fill="white" transform="translate(10 10)"/>
</clipPath>
<clipPath id="clip2_400_1829">
<rect width="29.9062" height="29" fill="white" transform="translate(10 10)"/>
</clipPath>
</defs>
</svg>
