<svg width="732" height="493" viewBox="0 0 732 493" fill="none" xmlns="http://www.w3.org/2000/svg">
<g clip-path="url(#clip0_400_1851)">
<rect width="732" height="493" rx="30" fill="#E4F0F9"/>
<rect y="380" width="1920" height="162" fill="#92C57D"/>
<g clip-path="url(#clip1_400_1851)">
<path d="M548.352 167.153C550.435 167.183 552.547 166.911 554.57 167.651C555.234 169.133 554.796 170.75 555.098 172.472C555.505 170.81 554.947 169.102 556.169 167.848C558.041 167.621 559.806 168.18 561.587 168.619C563.172 171.278 561.844 174.089 561.934 177.051C563.534 174.558 561.391 171.173 564.213 169.284C568.695 169.556 572.8 171.248 576.95 172.729C579.712 173.712 579.712 173.742 581.327 171.445C583.168 168.815 585.175 166.337 587.56 164.161C588.842 162.997 590.186 161.924 591.74 161.153C595.377 159.37 598.486 160.216 600.644 163.662C602.606 166.775 603.27 170.311 603.406 173.893C603.572 177.822 603.692 181.797 603.315 185.711C603.044 188.446 603.843 190.335 605.564 192.3C610.604 198.027 614.287 204.586 615.932 212.051C619.297 227.285 614.83 240.387 603.798 251.056C600.961 253.807 600.81 255.787 601.927 259.157C605.594 270.249 609.201 281.372 613.17 292.373C613.562 293.477 613.562 294.822 614.875 295.774C618.875 291.799 623.025 288.006 627.371 284.409C632.004 280.556 636.622 276.672 641.18 272.712C645.934 268.572 650.069 263.872 653.887 258.854C660.452 250.18 661.765 240.75 658.278 230.579C657.011 226.862 655.502 223.204 654.174 219.502C652.453 214.711 651.246 209.83 651.744 204.677C652.604 195.715 657.328 189.217 665.07 185.076C683.089 175.434 706.752 183.232 711.989 206.067C713.876 214.318 712.804 222.479 711.008 230.594C707.96 244.452 700.142 255.167 689.246 263.932C679.165 272.032 668.631 279.528 658.339 287.341C648.001 295.184 638.358 303.738 630.057 313.757C627.537 316.795 625.334 320.059 623.417 323.52C622.723 324.789 622.557 325.983 622.889 327.404C625.334 337.71 626.994 348.153 628.352 358.656C631.868 385.979 613.924 404.869 592.887 410.159C577.584 413.997 562.191 413.756 546.782 410.884C546.45 410.824 546.164 410.506 545.862 410.325C548.956 407.847 550.253 404.461 550.45 400.638C550.902 391.556 552.004 382.518 552.23 373.391C552.442 364.792 552.97 356.193 553.634 347.609C554.298 339.146 555.053 330.683 556.003 322.25C554.66 329.792 554.162 337.423 553.543 345.04C552.049 363.552 552.049 382.156 549.952 400.623C549.846 401.605 549.755 402.588 549.454 403.524C548.593 406.169 547.914 406.169 545.681 404.628C542.798 402.633 541.636 399.867 540.912 396.663C539.237 389.319 538.618 381.838 538.09 374.343C536.792 356.026 537.637 337.68 537.275 319.349C537.38 333.388 537.29 347.443 537.305 361.482C537.305 371.335 537.984 381.158 539.433 390.906C540.384 397.283 541.938 403.464 545.62 408.92C545.907 409.343 545.983 409.826 545.907 410.325C542.044 410.113 538.527 408.602 534.951 407.348C526.907 404.507 519.482 400.426 512.464 395.606C500.663 387.475 495.034 375.884 494.188 361.83C493.54 351.175 495.381 340.733 497.494 330.351C502.413 306.322 509.461 282.913 518.546 260.139C519.603 257.509 519.255 257.464 517.037 256.24C508.103 251.344 500.829 244.77 496.12 235.551C491.517 226.559 490.687 217.295 493.751 207.654C496.528 198.919 501.206 191.348 507.56 184.819C509.084 183.263 509.597 181.797 509.265 179.605C508.465 174.195 508.767 168.785 510.412 163.541C511.468 160.171 512.993 156.892 516.871 156.151C520.855 155.395 523.149 158.297 525.352 161.002C526.831 162.831 527.888 164.931 528.778 167.092C529.488 168.785 530.363 169.072 532.159 168.649C536.701 167.561 541.334 167.002 546.043 167.198C547.129 168.709 546.647 170.447 546.828 172.215C547.492 170.523 546.345 168.392 548.261 167.183L548.352 167.153Z" fill="#FDBE00"/>
<path d="M564.228 169.268C563.398 171.989 563.835 174.86 563.217 177.61C563.02 178.457 562.885 179.515 561.798 179.379C560.802 179.258 560.636 178.26 560.727 177.338C561.013 174.422 561.315 171.505 561.602 168.604C561.889 168.619 562.175 168.634 562.477 168.664C563.02 169.132 563.881 168.664 564.379 169.314L564.243 169.268H564.228Z" fill="#191303"/>
<path d="M548.351 167.153C548.291 169.45 548.261 171.732 548.17 174.029C548.155 174.679 547.838 175.238 547.114 175.223C546.435 175.208 545.997 174.709 545.997 174.044C545.997 171.747 546.073 169.465 546.118 167.168C546.857 167.168 547.597 167.168 548.351 167.168V167.153Z" fill="#010100"/>
<path d="M556.169 167.848C556.214 169.904 556.274 171.959 556.274 174.014C556.274 174.664 555.942 175.238 555.218 175.223C554.539 175.223 554.086 174.709 554.116 174.029C554.207 171.898 553.482 169.707 554.569 167.637C555.097 167.697 555.641 167.773 556.184 167.833L556.169 167.848Z" fill="#020200"/>
<path d="M564.349 169.314C563.624 169.374 563.021 169.072 562.447 168.664C563.202 168.543 563.851 168.664 564.349 169.314Z" fill="#FDBE00"/>
<path d="M517.067 235.747C516.162 234.115 516.418 232.408 516.78 230.7C518.833 228.811 521.172 230.141 523.526 230.171C521.745 228.826 519.406 229.143 517.837 227.708C517.746 226.62 518.637 225.834 518.772 224.806C521.202 222.751 523.315 225.396 525.73 225.229C524.628 223.778 522.319 224.126 521.504 222.358C525.322 218.172 530.468 217.22 535.705 216.615C538.98 216.237 542.285 216.479 545.499 217.31C547.552 217.99 547.356 220.167 548.261 221.602C549.423 223.416 550.525 223.778 552.396 222.585C554.615 221.164 556.064 219.124 557.437 216.993C565.164 214.711 572.694 215.195 580.014 218.595C581.146 219.124 582.157 219.789 582.911 220.801C581.146 222.796 578.399 222.328 576.271 223.446C574.883 224.171 573.268 224.459 572.136 225.773C575.411 224.368 578.701 223.038 582.247 222.615C583.666 222.449 585.16 221.95 586.307 223.355C586.79 225.154 588.827 226.408 588.193 228.599C585.733 230.095 582.881 229.053 580.285 229.823C578.535 230.337 576.679 230.549 575.003 231.516C578.52 230.247 582.142 230.277 585.779 230.413C587.077 230.458 588.54 230.156 589.401 231.607C589.084 233.858 588.646 236.065 587.62 238.12C585.733 239.435 583.832 238.332 581.991 238.014C579.214 237.546 576.513 237.198 573.856 238.498C576.845 237.606 579.818 238.135 582.73 238.785C583.907 239.042 585.507 238.891 585.869 240.644C581.568 246.266 575.411 248.23 568.801 248.94C564.137 249.439 559.474 248.865 554.977 247.354C551.959 246.341 549.106 246.387 546.073 247.792C541.802 249.757 537.229 250.573 532.475 250.044C525.277 249.258 520.749 244.966 517.595 238.815C517.942 236.14 520.553 236.972 522.077 236.004C520.357 235.188 518.637 236.76 517.037 235.763L517.067 235.747Z" fill="#FFE8A3"/>
<path d="M545.952 410.295C543.658 408.481 542.345 406.063 541.364 403.343C538.693 395.848 537.712 388.065 537.033 380.206C535.78 365.834 536.308 351.417 536.278 337.015C536.278 331.106 536.052 325.197 535.916 319.289C535.916 318.805 535.75 318.291 535.855 317.823C536.037 316.946 535.765 315.556 537.199 315.631C538.617 315.707 538.27 317.037 538.3 317.944C538.934 332.95 538.617 347.972 538.844 362.993C539.025 374.297 539.462 385.632 542.149 396.724C542.496 398.16 543.009 399.55 543.371 400.971C543.658 402.059 543.869 402.814 545.273 401.983C546.042 401.53 546.57 402.255 546.782 403.086C546.993 403.887 546.691 404.824 547.687 405.791C548.321 404.28 548.698 402.86 548.834 401.364C549.8 390.211 550.675 379.058 551.098 367.86C551.671 352.611 552.713 337.393 554.705 322.251C554.72 322.13 554.72 322.009 554.75 321.888C555.037 320.618 555.052 318.593 556.652 318.835C558.523 319.122 557.512 321.026 557.346 322.235C556.078 331.258 555.354 340.34 554.72 349.423C553.573 366.122 553.211 382.866 551.732 399.535C551.505 402.119 551.007 404.643 550.208 407.106C549.513 409.222 548.215 410.446 545.876 410.28L545.937 410.31L545.952 410.295Z" fill="#020100"/>
<path d="M584.179 400.653C584.255 392.402 584.33 384.151 584.405 375.899C584.587 358.535 585.296 341.201 588.027 324.004C588.224 322.795 588.435 321.57 588.646 320.361C588.812 319.379 588.918 318.185 590.276 318.427C591.378 318.608 591.227 319.712 591.136 320.543C590.774 323.596 590.382 326.648 589.959 329.701C588.269 341.912 587.288 354.168 587.197 366.499C587.107 379.179 586.79 391.858 586.564 404.537C586.533 405.897 586.382 407.257 585.718 408.466C584.798 410.144 583.274 410.386 581.734 409.071C580.301 407.847 579.41 406.199 578.58 404.552C575.788 398.991 574.355 393.006 573.298 386.946C570.899 373.134 568.469 359.306 566.839 345.372C566.13 339.267 565.707 333.116 565.224 326.981C565.134 325.862 564.56 324.049 566.235 323.898C568.031 323.732 567.503 325.59 567.594 326.694C569.238 348.319 572.8 369.673 576.845 390.966C577.207 392.901 577.765 394.79 578.339 396.679C579.44 400.351 579.471 400.336 582.776 401.439C583.409 401.847 583.606 402.527 583.817 403.132C583.877 402.996 583.787 402.92 583.787 402.814C583.53 402.013 583.847 401.333 584.179 400.668V400.653Z" fill="#020100"/>
<path d="M557.422 216.993C557.271 221.285 553.649 222.66 550.857 224.64C549.966 225.275 549.016 224.459 548.427 223.597C547.114 221.663 546.163 219.562 545.499 217.326C545.665 212.188 546.918 207.125 546.495 201.941C545.122 200.052 544.594 197.604 542.602 196.169C541.938 196.169 542.27 196.697 542.179 197.015C541.213 202.198 539.417 203.543 533.471 203.558C528.672 201.836 528.34 201.412 527.797 196.305C526.258 195.806 524.93 197.604 523.36 196.849C522.907 197.015 522.455 197.257 521.987 197.317C521.504 197.378 520.991 197.272 520.81 196.697C520.659 196.199 520.689 195.67 521.157 195.383C522.077 194.793 523.013 194.189 524.024 193.766C528.37 191.937 532.913 191.076 537.622 191.287C545.529 191.65 550.087 196.924 549.393 204.903C549.197 207.216 548.925 209.543 548.548 211.825C548.276 213.472 548.774 213.986 550.464 213.956C553.196 213.895 555.882 214.213 557.437 216.993H557.422Z" fill="#010100"/>
<path d="M559.761 201.05C557.211 200.476 557.06 200.098 558.629 198.163C565.36 189.776 577.162 189.67 584.104 197.937C584.647 198.586 585.16 199.282 585.613 200.007C586.02 200.672 586.111 201.473 585.447 202.002C584.692 202.606 584.134 201.821 583.515 201.503C582.036 200.868 581.327 198.662 579.833 198.798C578.293 198.949 578.354 201.352 577.116 202.349C576.648 202.727 576.226 203.166 575.683 203.453C575.094 203.815 574.46 204.057 573.826 204.284C573.494 204.344 573.147 204.359 572.8 204.359C571.925 204.254 571.11 204.707 570.25 204.647C566.884 204.027 565.043 201.7 563.956 198.677C562.13 198.979 561.512 201.035 559.761 201.05Z" fill="#020101"/>
<path d="M586.322 223.341C581.433 223.19 576.875 224.353 572.634 226.786C572.106 227.089 571.623 227.481 571.065 227.693C570.793 227.784 570.34 227.617 570.069 227.421C569.571 227.089 569.676 226.545 569.933 226.121C570.582 225.003 571.668 224.444 572.77 223.87C575.97 222.207 579.425 221.467 582.927 220.787C586.579 220.636 590.216 220.152 593.883 220.288C595.483 220.348 597.052 220.484 598.577 220.968C599.542 221.27 600.554 221.724 600.146 222.948C599.814 223.991 598.878 223.718 597.988 223.537C594.125 222.782 590.231 222.872 586.337 223.341H586.322Z" fill="#0C0903"/>
<path d="M596.086 182.039C596.086 183.837 596.086 185.318 596.086 186.799C596.086 187.842 595.875 188.915 594.592 188.885C593.551 188.854 593.324 187.872 593.309 186.965C593.249 184.26 593.234 181.555 593.173 178.835C593.158 177.973 593.173 177.097 592.977 176.266C592.645 174.739 591.936 174.483 590.638 175.48C588.737 176.916 587.424 178.85 586.428 180.996C586.111 181.661 585.914 182.386 585.507 182.991C585.235 183.399 584.677 183.58 584.194 183.278C583.922 183.097 583.756 182.749 583.575 182.447C583.515 182.356 583.53 182.205 583.53 182.084C583.515 179.228 588.45 172.926 591.212 172.261C593.173 171.793 594.773 172.714 595.241 175.011C595.739 177.414 595.845 179.893 596.086 182.024V182.039Z" fill="#0B0800"/>
<path d="M521.519 211.145C521.504 211.764 521.353 212.354 520.961 212.853C519.104 215.195 514.079 215.422 511.951 213.261C510.095 211.372 510.487 208.682 512.796 207.382C514.864 206.218 519.104 206.989 520.704 208.772C521.323 209.467 521.579 210.238 521.534 211.13L521.519 211.145Z" fill="#FF6D32"/>
<path d="M521.489 222.373C523.21 222.978 524.96 223.537 526.65 224.232C527.299 224.504 527.963 225.048 527.631 225.94C527.284 226.831 526.605 226.695 525.82 226.469C523.511 225.774 521.323 224.504 518.773 224.837C514.2 224.217 509.733 224.973 505.281 225.925C504.692 226.046 504.119 226.333 503.545 226.529C502.881 226.741 502.308 226.575 501.961 225.985C501.478 225.139 502.051 224.565 502.655 224.157C503.47 223.597 504.421 223.356 505.402 223.174C510.729 222.192 516.086 221.648 521.504 222.388L521.489 222.373Z" fill="#0E0A02"/>
<path d="M589.416 231.592C584.179 230.957 578.973 230.594 574.098 233.239C573.344 233.647 572.725 233.738 572.272 232.937C571.819 232.136 572.317 231.486 572.921 231.078C574.566 229.96 576.483 229.567 578.369 229.129C581.614 228.358 584.919 228.721 588.209 228.615C590.231 228.962 592.268 229.28 594.276 229.673C595.106 229.839 595.905 230.126 596.69 230.443C597.43 230.746 597.897 231.32 597.641 232.166C597.354 233.103 596.524 233.012 595.83 232.816C593.732 232.227 591.635 231.577 589.416 231.607V231.592Z" fill="#0D0A06"/>
<path d="M519.527 170.629C518.259 172.155 518.531 173.561 518.47 174.86C518.41 176.447 518.576 178.049 518.621 179.636C518.621 180.225 518.667 180.92 517.852 181.056C516.931 181.207 516.554 180.618 516.327 179.847C516.297 179.726 516.267 179.605 516.252 179.485C515.935 176.538 515.845 173.591 516.478 170.689C516.765 169.39 517.233 167.999 518.833 167.697C520.432 167.395 521.444 168.422 522.092 169.616C523.617 172.412 524.99 175.298 526.394 178.155C526.756 178.895 526.68 179.636 525.88 180.044C525.035 180.482 524.447 179.893 524.085 179.243C523.436 178.064 522.907 176.825 522.289 175.616C521.474 174.014 520.961 172.216 519.512 170.598L519.527 170.629Z" fill="#090700"/>
<path d="M587.696 214.409C587.077 214.409 586.473 214.44 585.854 214.409C584.043 214.288 582.746 213.14 582.414 211.583C582.097 210.117 583.621 209.241 584.813 208.712C587.213 207.654 589.718 207.11 592.253 208.38C594.336 209.422 594.517 211.206 592.736 212.717C591.076 214.122 590.155 214.44 587.696 214.424V214.409Z" fill="#FF6C32"/>
<path d="M517.837 227.723C519.889 228.01 521.956 228.146 523.903 228.993C524.839 229.401 525.895 229.763 525.428 231.018C524.99 232.166 524.009 231.622 523.224 231.335C521.126 230.564 519.014 230.081 516.78 230.715C513.324 230.7 510.079 231.698 506.82 232.65C505.839 232.937 504.496 233.693 504.043 232.242C503.605 230.851 505.084 230.458 506.065 230.141C509.883 228.872 513.898 228.464 517.837 227.738V227.723Z" fill="#0F0B04"/>
<path d="M585.885 240.629C581.629 239.36 577.388 238.075 572.981 240.024C572.363 240.297 571.744 240.176 571.397 239.556C570.899 238.695 571.502 238.09 572.136 237.773C574.762 236.458 577.569 236.322 580.406 236.76C582.836 237.138 585.236 237.652 587.635 238.105C588.918 238.982 590.593 239.133 591.725 240.297C592.359 240.946 592.812 241.672 592.102 242.503C591.453 243.259 590.789 242.745 590.216 242.337C588.903 241.415 587.454 240.901 585.885 240.629Z" fill="#0C0804"/>
<path d="M533.35 203.226C538.813 203.407 541.802 200.279 541.364 195.851C541.334 195.126 541.545 194.687 542.39 195.005C544.941 196.622 546.721 198.692 546.51 201.941C542.405 204.48 537.908 204.465 533.35 203.876C533.184 203.725 533.139 203.573 533.199 203.437C533.26 203.301 533.32 203.226 533.38 203.226H533.35Z" fill="#F9EEC4"/>
<path d="M559.761 201.05C560.908 199.146 562.673 197.892 564.862 196.048C564.696 200.43 566.733 202.803 570.204 204.027C570.642 204.526 571.487 204.178 571.864 204.813C567.035 206.113 562.824 205.463 559.776 201.05H559.761Z" fill="#F8EDC1"/>
<path d="M533.35 203.226C533.35 203.437 533.35 203.664 533.335 203.876C530.362 203.604 527.797 202.379 525.548 200.46C524.401 199.493 523.556 198.375 523.375 196.848C524.975 195.745 526.695 195.035 528.944 194.884C527.933 199.1 529.532 201.805 533.366 203.241L533.35 203.226Z" fill="#F5EBBF"/>
<path d="M517.067 235.748C518.802 235.249 520.478 234.312 522.394 234.796C523.345 235.038 524.537 235.158 524.371 236.488C524.205 237.743 523.088 237.32 522.289 237.259C520.508 237.123 518.878 237.38 517.625 238.816C516.509 239.133 515.754 239.904 515.165 240.841C514.637 241.672 514.018 242.201 513.143 241.37C512.389 240.629 512.721 239.813 513.219 239.073C514.2 237.622 515.86 236.972 517.052 235.778L517.067 235.748Z" fill="#110D05"/>
<path d="M575.396 203.166C577.162 201.398 578.52 199.433 578.595 196.592C580.95 197.71 582.564 199.267 583.515 201.488C580.995 202.788 578.52 204.224 575.547 204.148C575.411 204.072 575.29 203.997 575.155 203.921C575.049 203.619 575.109 203.362 575.381 203.166H575.396Z" fill="#F3EABD"/>
<path d="M673.596 212.822C673.4 213.699 673.445 214.923 672.072 214.862C671.061 214.817 670.714 213.91 670.684 212.988C670.654 211.946 671.227 211.387 672.268 211.402C673.159 211.402 673.627 211.855 673.596 212.822Z" fill="#FFE391"/>
<path d="M612.279 344.798C611.177 344.662 610.876 344.058 610.845 343.287C610.8 342.184 611.343 341.443 612.43 341.247C613.124 341.126 613.668 341.564 613.607 342.214C613.517 343.272 613.185 344.284 612.279 344.783V344.798Z" fill="#FFE189"/>
<path d="M517.807 305.234C516.961 305.295 516.403 304.932 516.463 304.237C516.569 303.073 517.52 302.665 518.516 302.469C519.18 302.333 519.844 302.589 519.889 303.315C519.98 304.826 518.622 304.826 517.807 305.234Z" fill="#FFE28E"/>
<path d="M675.814 187.101C675.86 188.008 675.452 188.733 674.547 188.93C673.732 189.111 673.128 188.597 673.158 187.766C673.188 186.874 673.732 186.179 674.637 186.013C675.331 185.892 675.664 186.421 675.814 187.101Z" fill="#FEDF81"/>
<path d="M684.719 214.5C685.7 214.53 686.167 214.893 686.213 215.588C686.258 216.449 685.7 216.978 684.9 217.054C684.07 217.145 683.451 216.691 683.466 215.815C683.481 214.923 684.311 214.757 684.704 214.5H684.719Z" fill="#FEDD78"/>
<path d="M517.429 269.78C517.459 268.919 518.002 268.481 518.787 268.345C519.557 268.209 520.387 268.299 520.387 269.282C520.387 270.113 519.647 270.521 518.862 270.596C518.244 270.657 517.625 270.596 517.429 269.78Z" fill="#FEE085"/>
<path d="M657.418 199.387C656.422 199.387 655.954 199.025 655.924 198.33C655.894 197.483 656.437 196.954 657.237 196.864C658.067 196.773 658.671 197.241 658.656 198.118C658.656 199.04 657.795 199.13 657.418 199.387Z" fill="#FEDE7E"/>
<path d="M667.574 195.776C666.609 195.746 665.899 195.337 665.839 194.325C665.794 193.645 666.262 193.161 666.926 193.131C667.74 193.101 668.269 193.645 668.435 194.416C668.586 195.111 668.254 195.564 667.574 195.761V195.776Z" fill="#FFDF81"/>
<path d="M680.886 249.183C680.705 250.059 679.98 250.467 679.09 250.513C678.411 250.543 677.973 250.089 678.064 249.349C678.169 248.352 678.848 247.838 679.769 247.868C680.373 247.898 680.871 248.321 680.871 249.168L680.886 249.183Z" fill="#FEE188"/>
<path d="M530.891 185.529C530.679 186.406 530.121 186.844 529.336 186.678C528.763 186.572 528.219 186.134 528.34 185.408C528.476 184.592 529.08 184.154 529.864 184.29C530.453 184.396 530.891 184.864 530.906 185.514L530.891 185.529Z" fill="#FEDC75"/>
<path d="M659.38 205.16C659.44 206.037 658.897 206.264 658.278 206.279C657.509 206.309 656.86 206.007 656.754 205.13C656.679 204.45 656.996 203.876 657.629 203.785C658.61 203.664 659.078 204.39 659.365 205.16H659.38Z" fill="#FFE28E"/>
<path d="M692.763 194.899C692.023 194.763 691.45 194.385 691.525 193.524C691.586 192.889 692.069 192.451 692.717 192.451C693.532 192.451 694.061 192.98 694 193.811C693.94 194.43 693.487 194.838 692.763 194.899Z" fill="#FEDB73"/>
<path d="M656.528 267.846C657.312 267.907 657.871 268.315 657.856 269.176C657.856 269.841 657.373 270.294 656.724 270.325C655.909 270.37 655.351 269.886 655.351 269.04C655.351 268.36 655.864 268.028 656.513 267.846H656.528Z" fill="#FEDD77"/>
<path d="M573.811 267.937C573.434 268.723 572.815 269.267 571.834 269.055C571.079 268.889 570.898 268.239 571.17 267.65C571.547 266.804 572.287 266.35 573.237 266.713C573.705 266.894 573.962 267.333 573.796 267.952L573.811 267.937Z" fill="#FFE493"/>
<path d="M617.742 368.872C618.27 368.978 618.753 369.22 618.738 369.764C618.723 370.761 618.074 371.32 617.138 371.396C616.67 371.426 616.203 370.988 616.188 370.459C616.157 369.431 616.791 368.963 617.727 368.872H617.742Z" fill="#FEE187"/>
<path d="M677.399 203.468C677.248 203.921 677.112 204.45 676.508 204.42C675.678 204.374 675.21 203.86 675.165 203.044C675.12 202.319 675.573 201.851 676.237 201.911C677.082 201.987 677.399 202.651 677.399 203.468Z" fill="#FFE28B"/>
<path d="M501.538 334.733C501.372 335.625 500.677 335.761 499.938 335.716C499.304 335.67 498.715 335.353 498.836 334.627C498.987 333.827 499.666 333.479 500.451 333.539C501.1 333.6 501.507 334.008 501.538 334.733Z" fill="#FEDF82"/>
<path d="M682.47 187.056C683.089 187.131 683.723 187.494 683.692 188.37C683.662 189.156 682.983 189.247 682.349 189.217C681.655 189.187 681.157 188.794 681.142 188.129C681.127 187.449 681.565 187.025 682.485 187.071L682.47 187.056Z" fill="#FFE28C"/>
<path d="M664.103 221.134C664.767 221.134 665.326 221.331 665.431 222.041C665.567 223.008 664.873 223.265 664.103 223.28C663.515 223.28 662.805 223.265 662.745 222.479C662.67 221.573 663.349 221.285 664.103 221.134Z" fill="#FFE391"/>
<path d="M529.91 286.132C530.77 286.087 531.359 286.51 531.51 287.326C531.6 287.825 531.238 288.248 530.68 288.323C529.91 288.429 529.17 288.354 528.974 287.432C528.823 286.706 529.261 286.314 529.925 286.132H529.91Z" fill="#FFE28C"/>
<path d="M566.114 186.482C566.084 187.192 565.722 187.615 565.027 187.675C564.333 187.736 563.835 187.403 563.76 186.708C563.684 186.013 564.107 185.59 564.801 185.53C565.495 185.469 565.918 185.862 566.114 186.482Z" fill="#FFE28C"/>
<path d="M601.851 286.676C601.172 286.525 600.719 286.147 600.809 285.452C600.9 284.711 601.519 284.515 602.137 284.56C602.786 284.606 603.33 284.908 603.149 285.694C602.998 286.344 602.485 286.661 601.836 286.691L601.851 286.676Z" fill="#FEE084"/>
<path d="M573.706 175.933C573.615 176.644 573.208 177.082 572.574 177.067C571.865 177.067 571.623 176.477 571.623 175.843C571.623 175.193 571.94 174.634 572.649 174.739C573.253 174.815 573.66 175.284 573.691 175.933H573.706Z" fill="#FEDC74"/>
<path d="M688.899 200.717C688.853 201.216 688.672 201.654 688.114 201.73C687.118 201.851 686.529 201.367 686.424 200.385C686.363 199.78 686.892 199.554 687.344 199.523C688.159 199.478 688.657 199.962 688.899 200.717Z" fill="#FEE083"/>
<path d="M704.76 203.241C705.349 203.241 705.817 203.423 705.892 203.967C705.998 204.798 705.53 205.327 704.76 205.493C704.096 205.629 703.538 205.357 703.538 204.616C703.538 203.815 704.051 203.347 704.776 203.241H704.76Z" fill="#FEDF82"/>
<path d="M648.076 289.744C647.805 290.454 647.382 291.029 646.492 290.787C645.994 290.651 645.647 290.212 645.783 289.668C645.979 288.883 646.507 288.384 647.367 288.611C647.865 288.731 648.182 289.109 648.076 289.744Z" fill="#FEDC74"/>
<path d="M695.509 249.666C694.814 249.394 694.271 248.971 694.467 248.109C694.588 247.565 695.071 247.293 695.509 247.369C696.293 247.52 696.686 248.094 696.535 248.925C696.444 249.485 696.037 249.666 695.494 249.666H695.509Z" fill="#FFE596"/>
<path d="M670.653 237.863C670.578 238.558 670.14 239.027 669.491 239.012C668.782 238.997 668.389 238.438 668.586 237.742C668.752 237.138 669.219 236.684 669.944 236.79C670.517 236.881 670.713 237.304 670.653 237.863Z" fill="#FFE28E"/>
<path d="M593.007 195.398C592.992 195.564 592.555 195.836 592.072 195.821C591.408 195.791 590.985 195.383 591.076 194.627C591.151 194.053 591.589 193.751 592.057 193.766C592.721 193.796 593.128 194.234 592.992 195.398H593.007Z" fill="#FEDE7E"/>
<path d="M512.811 173.122C513.687 173.031 514.079 173.485 514.139 174.15C514.169 174.648 513.898 175.087 513.279 175.132C512.54 175.192 512.072 174.8 512.042 174.104C512.026 173.621 512.328 173.182 512.811 173.107V173.122Z" fill="#FEE085"/>
<path d="M706.104 235.763C706.134 236.579 705.787 237.032 705.138 237.123C704.444 237.214 704.006 236.76 704.006 236.111C704.006 235.446 704.489 235.053 705.153 235.068C705.651 235.068 706.028 235.34 706.104 235.763Z" fill="#FEE18A"/>
<path d="M597.293 267.604C597.972 267.741 598.38 268.149 598.349 268.844C598.319 269.388 598.017 269.781 597.459 269.781C596.584 269.766 596.116 269.267 596.237 268.375C596.312 267.801 596.795 267.65 597.293 267.604Z" fill="#FFE495"/>
<path d="M697.244 199.448C697.184 199.886 696.867 200.219 696.339 200.249C695.629 200.279 695.192 199.841 695.147 199.176C695.101 198.481 695.569 198.058 696.248 198.118C696.912 198.178 697.29 198.632 697.244 199.448Z" fill="#FFE493"/>
<path d="M536.746 182.341C536.173 182.159 535.66 181.842 535.69 181.117C535.72 180.421 536.158 179.983 536.852 180.089C537.561 180.195 537.818 180.799 537.757 181.449C537.712 181.963 537.365 182.31 536.761 182.341H536.746Z" fill="#FEDE7D"/>
<path d="M502.232 202.909C502.126 203.407 501.93 203.846 501.356 203.906C500.602 203.997 500.179 203.589 500.149 202.894C500.134 202.41 500.406 201.957 500.994 201.881C501.749 201.79 502.081 202.229 502.232 202.894V202.909Z" fill="#FEE188"/>
<path d="M618.165 330.079C618.029 330.744 617.667 331.167 616.927 331.091C616.323 331.031 616.067 330.577 616.097 330.094C616.142 329.429 616.535 328.976 617.289 329.066C617.878 329.142 618.044 329.595 618.15 330.079H618.165Z" fill="#FFE085"/>
<path d="M587.122 170.961C587.228 171.777 586.82 172.155 586.171 172.231C585.688 172.291 585.236 172.079 585.1 171.551C584.919 170.886 585.19 170.372 585.854 170.206C586.533 170.024 586.956 170.402 587.122 170.961Z" fill="#FEE18A"/>
<path d="M556.773 207.563C556.637 208.228 556.169 208.5 555.52 208.424C554.856 208.349 554.389 207.956 554.464 207.291C554.524 206.656 555.022 206.248 555.702 206.354C556.35 206.445 556.698 206.883 556.773 207.563Z" fill="#FEDD78"/>
<path d="M547.069 183.323C547.567 183.429 548.005 183.61 548.065 184.2C548.141 184.94 547.733 185.409 547.054 185.394C546.39 185.394 545.953 184.925 546.043 184.17C546.119 183.58 546.571 183.429 547.069 183.308V183.323Z" fill="#FEE085"/>
<path d="M594.471 164.917C595.06 165.007 595.407 165.415 595.362 166.095C595.331 166.609 595.03 166.957 594.486 167.002C593.792 167.047 593.339 166.67 593.309 166.02C593.279 165.37 593.686 164.947 594.471 164.917Z" fill="#FEE188"/>
<path d="M514.094 188.839C514.094 188.189 514.305 187.615 514.999 187.464C515.709 187.328 516.131 187.766 516.176 188.446C516.222 189.156 515.693 189.564 515.09 189.67C514.562 189.761 514.245 189.338 514.094 188.824V188.839Z" fill="#FFE086"/>
<path d="M674.109 195.005C673.4 194.975 672.962 194.597 672.993 193.917C673.023 193.237 673.506 192.889 674.185 192.919C674.713 192.95 675.075 193.237 675.105 193.781C675.151 194.476 674.743 194.839 674.109 194.99V195.005Z" fill="#FEE28B"/>
<path d="M584.677 264.461C584.511 264.28 584.073 264.023 584.088 263.796C584.164 262.708 585.069 262.648 585.869 262.587C586.216 262.557 586.503 262.905 586.352 263.313C586.095 264.023 585.628 264.522 584.662 264.461H584.677Z" fill="#FEE28B"/>
<path d="M552.441 195.881C553.015 195.942 553.302 196.335 553.286 196.849C553.286 197.347 552.985 197.831 552.411 197.77C551.777 197.71 551.294 197.317 551.385 196.592C551.46 196.002 551.943 195.896 552.441 195.881Z" fill="#FEDD78"/>
<path d="M537.501 173.621C537.365 174.21 536.927 174.376 536.414 174.346C535.811 174.316 535.524 173.863 535.569 173.349C535.614 172.654 536.037 172.2 536.807 172.487C537.305 172.669 537.576 173.062 537.516 173.621H537.501Z" fill="#FFE187"/>
<path d="M694.211 224.096C694.165 224.61 693.652 224.761 693.184 224.761C692.52 224.746 692.053 224.383 692.128 223.612C692.188 223.038 692.626 222.721 693.124 222.781C693.743 222.857 694.241 223.235 694.211 224.096Z" fill="#FEE084"/>
<path d="M575.441 182.915C575.35 183.474 575.003 183.867 574.49 183.762C573.871 183.641 573.388 183.202 573.554 182.462C573.69 181.903 574.158 181.767 574.686 181.857C575.26 181.963 575.426 182.386 575.441 182.9V182.915Z" fill="#FEDE7E"/>
<path d="M606.861 210.978C606.725 211.462 606.514 211.885 605.971 211.961C605.427 212.036 605.065 211.779 604.975 211.22C604.869 210.51 605.171 210.041 605.91 210.057C606.438 210.057 606.71 210.48 606.861 210.978Z" fill="#FEE38F"/>
<path d="M505.914 192.828C505.914 193.433 505.688 193.826 505.174 193.947C504.435 194.113 504.058 193.645 503.997 193.01C503.952 192.466 504.405 192.164 504.918 192.148C505.386 192.148 505.869 192.269 505.929 192.813L505.914 192.828Z" fill="#FEDF7F"/>
<path d="M555.34 180.845C554.811 180.739 554.419 180.391 554.419 179.893C554.419 179.394 554.826 179.001 555.355 178.986C555.928 178.956 556.23 179.379 556.215 179.893C556.215 180.406 555.898 180.784 555.34 180.845Z" fill="#FFE79E"/>
<path d="M597.233 173.288C596.735 173.168 596.327 172.835 596.327 172.351C596.327 171.626 596.855 171.354 597.534 171.475C598.078 171.566 598.319 171.928 598.244 172.472C598.153 173.032 597.731 173.198 597.248 173.288H597.233Z" fill="#FEDE7D"/>
<path d="M708.85 220.318C708.82 220.923 708.473 221.331 707.975 221.331C707.492 221.331 707.13 220.923 707.13 220.364C707.13 219.94 707.447 219.714 707.824 219.668C708.352 219.593 708.76 219.789 708.865 220.318H708.85Z" fill="#FFE8A1"/>
<path d="M519.27 163.012C519.18 163.556 518.848 163.843 518.319 163.783C517.776 163.722 517.52 163.299 517.58 162.8C517.64 162.271 518.033 161.999 518.561 162.03C519.18 162.06 519.24 162.543 519.285 163.027L519.27 163.012Z" fill="#FFE494"/>
<path d="M583.515 403.661C583.183 402.95 582.715 402.285 582.776 401.439C583.244 401.182 583.711 400.925 584.179 400.653C584.179 401.621 584.179 402.603 584.179 403.57C583.998 403.963 583.772 403.993 583.5 403.661H583.515Z" fill="#C28B00"/>
<path d="M627.22 305.959C626.782 306.035 626.586 305.763 626.511 305.415C626.405 304.977 626.707 304.796 627.054 304.705C627.492 304.599 627.673 304.901 627.763 305.249C627.884 305.687 627.567 305.838 627.22 305.959Z" fill="#FFE8A1"/>
<path d="M601.851 199.01C602.288 198.934 602.545 199.161 602.59 199.554C602.605 199.735 602.47 200.052 602.304 200.128C601.956 200.309 601.564 200.204 601.413 199.841C601.277 199.493 601.474 199.161 601.851 198.995V199.01Z" fill="#FFE69A"/>
<path d="M571.864 204.813C571.215 204.752 570.596 204.631 570.204 204.027C571.215 204.027 572.241 204.027 573.253 204.042C573.464 204.193 573.524 204.344 573.449 204.48C573.373 204.601 573.283 204.662 573.207 204.662C572.755 204.707 572.317 204.752 571.864 204.813Z" fill="#C7E5B9"/>
<path d="M573.207 204.677C573.207 204.465 573.237 204.269 573.267 204.057C573.433 203.891 573.614 203.861 573.811 203.966C574.339 203.634 574.867 203.589 575.395 203.966L575.561 204.163C574.867 204.752 574.052 204.782 573.207 204.692V204.677Z" fill="#F3EABD"/>
<path d="M549.861 235.189C546.556 238.831 544.232 239.48 541.032 237.818C538.738 236.639 537.169 233.919 537.576 231.788C537.697 231.154 537.984 230.594 538.753 230.655C539.266 230.7 539.674 230.972 539.795 231.516C539.961 232.227 539.991 232.997 540.293 233.647C541.123 235.4 542.617 236.11 544.518 235.99C546.299 235.884 547.039 234.69 547.401 233.118C547.672 231.924 547.914 230.715 548.246 229.537C548.382 229.053 548.819 228.736 549.332 228.69C549.876 228.66 550.283 229.023 550.479 229.476C550.721 230.035 550.917 230.625 550.992 231.229C551.309 233.405 552.743 234.433 554.75 234.675C556.652 234.901 558.131 233.934 558.976 232.302C559.881 230.564 560.591 228.721 561.27 226.877C561.587 226.015 561.843 225.109 562.945 225.381C564.032 225.638 564.001 226.635 563.775 227.481C563.066 230.096 562.236 232.695 560.485 234.826C557.814 238.045 554.162 238.166 549.876 235.173L549.861 235.189Z" fill="#070604"/>
<path d="M583.515 403.66C583.741 403.63 583.967 403.6 584.194 403.57C584.194 403.963 584.481 404.477 583.801 404.552C583.741 404.552 583.62 403.963 583.515 403.66Z" fill="#714C00"/>
<path d="M542.375 195.005C542.043 195.292 541.696 195.564 541.364 195.851C541.032 195.519 540.67 195.035 541.002 194.673C541.485 194.159 542.028 194.401 542.39 195.005H542.375Z" fill="#81A387"/>
<path d="M575.381 203.967C574.853 203.967 574.325 203.967 573.812 203.967C574.219 203.438 574.777 203.256 575.411 203.181C575.411 203.438 575.411 203.71 575.396 203.967H575.381Z" fill="#C7E5B9"/>
</g>
<g clip-path="url(#clip2_400_1851)">
<path d="M192.258 194.025C190.383 194.052 188.481 193.807 186.66 194.473C186.062 195.804 186.456 197.257 186.184 198.806C185.817 197.312 186.32 195.777 185.219 194.649C183.534 194.446 181.944 194.948 180.341 195.342C178.914 197.733 180.11 200.259 180.028 202.922C178.588 200.68 180.517 197.638 177.976 195.94C173.94 196.184 170.244 197.706 166.507 199.037C164.02 199.92 164.02 199.947 162.566 197.882C160.908 195.519 159.101 193.291 156.954 191.335C155.799 190.289 154.589 189.325 153.189 188.632C149.914 187.029 147.115 187.79 145.172 190.887C143.405 193.685 142.807 196.863 142.685 200.083C142.536 203.614 142.427 207.187 142.767 210.705C143.011 213.164 142.291 214.862 140.742 216.627C136.203 221.775 132.887 227.671 131.406 234.381C128.376 248.073 132.398 259.85 142.332 269.44C144.886 271.912 145.022 273.691 144.017 276.721C140.715 286.691 137.467 296.688 133.893 306.577C133.539 307.569 133.539 308.777 132.357 309.633C128.756 306.061 125.019 302.651 121.105 299.418C116.934 295.955 112.775 292.464 108.671 288.905C104.391 285.183 100.667 280.959 97.2292 276.449C91.3179 268.652 90.1356 260.176 93.2747 251.034C94.4162 247.693 95.7751 244.406 96.971 241.078C98.5202 236.772 99.6073 232.384 99.1589 227.752C98.3843 219.697 94.1309 213.856 87.1596 210.134C70.9341 201.468 49.6263 208.477 44.9108 229.002C43.2122 236.418 44.177 243.754 45.7942 251.048C48.5392 263.504 55.5784 273.134 65.3897 281.013C74.4673 288.294 83.9526 295.031 93.2204 302.054C102.529 309.103 111.212 316.792 118.687 325.798C120.956 328.528 122.94 331.462 124.666 334.572C125.291 335.713 125.44 336.787 125.141 338.063C122.94 347.327 121.445 356.713 120.222 366.154C117.056 390.713 133.213 407.692 152.157 412.446C165.936 415.896 179.797 415.679 193.672 413.098C193.971 413.044 194.229 412.759 194.501 412.596C191.715 410.368 190.546 407.325 190.369 403.889C189.962 395.725 188.97 387.602 188.766 379.398C188.576 371.669 188.1 363.94 187.502 356.224C186.904 348.618 186.225 341.011 185.369 333.431C186.578 340.21 187.027 347.069 187.584 353.915C188.929 370.555 188.929 387.276 190.818 403.875C190.913 404.758 190.995 405.641 191.266 406.483C192.041 408.86 192.652 408.86 194.664 407.475C197.259 405.682 198.306 403.196 198.958 400.316C200.466 393.715 201.023 386.991 201.499 380.254C202.668 363.79 201.907 347.3 202.233 330.823C202.138 343.442 202.219 356.075 202.206 368.694C202.206 377.55 201.594 386.38 200.29 395.141C199.433 400.873 198.034 406.429 194.718 411.332C194.46 411.713 194.392 412.147 194.46 412.596C197.939 412.406 201.105 411.047 204.326 409.92C211.569 407.366 218.254 403.699 224.573 399.365C235.2 392.058 240.269 381.639 241.03 369.006C241.614 359.43 239.956 350.044 238.054 340.712C233.624 319.114 227.278 298.074 219.097 277.603C218.146 275.24 218.458 275.199 220.456 274.099C228.501 269.698 235.051 263.789 239.291 255.503C243.435 247.421 244.183 239.094 241.424 230.428C238.924 222.577 234.711 215.772 228.99 209.904C227.617 208.504 227.155 207.187 227.454 205.217C228.175 200.354 227.903 195.492 226.422 190.778C225.47 187.749 224.098 184.801 220.605 184.136C217.018 183.457 214.952 186.065 212.968 188.496C211.637 190.14 210.685 192.028 209.884 193.97C209.245 195.492 208.457 195.75 206.84 195.369C202.749 194.391 198.577 193.889 194.337 194.065C193.359 195.424 193.794 196.986 193.631 198.575C193.033 197.054 194.066 195.138 192.34 194.052L192.258 194.025Z" fill="#F79392"/>
<path d="M177.962 195.926C178.709 198.371 178.315 200.952 178.872 203.424C179.049 204.185 179.171 205.136 180.15 205.014C181.046 204.905 181.196 204.008 181.114 203.18C180.856 200.558 180.584 197.937 180.326 195.329C180.068 195.342 179.81 195.356 179.538 195.383C179.049 195.804 178.274 195.383 177.826 195.967L177.948 195.926H177.962Z" fill="#191303"/>
<path d="M192.258 194.024C192.312 196.089 192.34 198.14 192.421 200.205C192.435 200.789 192.72 201.292 193.372 201.278C193.984 201.264 194.378 200.816 194.378 200.218C194.378 198.154 194.31 196.103 194.269 194.038C193.603 194.038 192.937 194.038 192.258 194.038V194.024Z" fill="#010100"/>
<path d="M185.219 194.65C185.178 196.497 185.124 198.344 185.124 200.192C185.124 200.776 185.423 201.292 186.075 201.278C186.686 201.278 187.094 200.817 187.067 200.205C186.985 198.29 187.638 196.32 186.659 194.459C186.184 194.514 185.694 194.582 185.205 194.636L185.219 194.65Z" fill="#020200"/>
<path d="M177.853 195.967C178.505 196.022 179.049 195.75 179.565 195.383C178.886 195.274 178.302 195.383 177.853 195.967Z" fill="#FDBE00"/>
<path d="M220.428 255.68C221.243 254.213 221.012 252.678 220.686 251.143C218.838 249.445 216.732 250.641 214.612 250.668C216.215 249.459 218.322 249.744 219.735 248.454C219.817 247.476 219.015 246.769 218.893 245.846C216.705 243.998 214.802 246.375 212.628 246.226C213.62 244.922 215.699 245.234 216.433 243.645C212.995 239.882 208.361 239.027 203.645 238.483C200.697 238.144 197.721 238.361 194.826 239.108C192.978 239.719 193.155 241.675 192.339 242.966C191.293 244.596 190.301 244.922 188.616 243.849C186.618 242.572 185.314 240.738 184.077 238.823C177.119 236.772 170.338 237.207 163.748 240.263C162.728 240.738 161.818 241.336 161.139 242.246C162.728 244.039 165.202 243.618 167.118 244.623C168.368 245.275 169.822 245.533 170.841 246.715C167.892 245.452 164.93 244.256 161.736 243.876C160.459 243.727 159.114 243.278 158.081 244.542C157.646 246.158 155.812 247.285 156.382 249.255C158.597 250.6 161.166 249.663 163.503 250.355C165.079 250.817 166.751 251.007 168.259 251.877C165.093 250.736 161.832 250.763 158.557 250.885C157.388 250.926 156.07 250.654 155.295 251.958C155.581 253.982 155.975 255.965 156.899 257.813C158.597 258.994 160.31 258.003 161.967 257.718C164.468 257.296 166.9 256.984 169.292 258.152C166.601 257.351 163.924 257.826 161.302 258.41C160.242 258.641 158.801 258.505 158.475 260.081C162.348 265.134 167.892 266.9 173.844 267.538C178.043 267.987 182.243 267.47 186.292 266.112C189.01 265.202 191.578 265.243 194.31 266.506C198.155 268.272 202.273 269.005 206.554 268.53C213.036 267.824 217.112 263.966 219.953 258.437C219.64 256.033 217.289 256.78 215.917 255.911C217.466 255.177 219.015 256.59 220.455 255.694L220.428 255.68Z" fill="#FFDB73"/>
<path d="M194.419 412.568C196.485 410.938 197.667 408.765 198.55 406.32C200.956 399.583 201.839 392.587 202.45 385.524C203.578 372.606 203.103 359.647 203.13 346.702C203.13 341.391 203.334 336.08 203.456 330.769C203.456 330.334 203.605 329.872 203.51 329.451C203.347 328.663 203.592 327.414 202.301 327.482C201.023 327.55 201.336 328.745 201.309 329.56C200.738 343.048 201.023 356.55 200.82 370.052C200.657 380.213 200.263 390.4 197.844 400.37C197.531 401.661 197.069 402.911 196.743 404.187C196.485 405.165 196.294 405.845 195.031 405.097C194.338 404.69 193.862 405.342 193.672 406.089C193.482 406.809 193.753 407.651 192.856 408.52C192.286 407.162 191.946 405.885 191.824 404.541C190.954 394.516 190.166 384.491 189.785 374.426C189.269 360.72 188.331 347.042 186.537 333.431C186.524 333.323 186.524 333.214 186.497 333.105C186.238 331.964 186.225 330.144 184.784 330.361C183.099 330.619 184.01 332.331 184.159 333.418C185.301 341.527 185.953 349.691 186.524 357.854C187.557 372.864 187.883 387.914 189.214 402.897C189.418 405.22 189.867 407.488 190.587 409.702C191.212 411.604 192.381 412.704 194.487 412.555L194.433 412.582L194.419 412.568Z" fill="#020100"/>
<path d="M159.997 403.902C159.929 396.486 159.861 389.069 159.793 381.653C159.63 366.045 158.991 350.465 156.532 335.007C156.355 333.92 156.165 332.82 155.975 331.733C155.825 330.85 155.73 329.777 154.507 329.995C153.515 330.158 153.651 331.149 153.732 331.896C154.058 334.64 154.412 337.384 154.792 340.128C156.314 351.103 157.198 362.12 157.279 373.204C157.361 384.6 157.646 395.997 157.85 407.393C157.877 408.616 158.013 409.838 158.611 410.925C159.44 412.433 160.812 412.65 162.198 411.468C163.489 410.368 164.291 408.887 165.039 407.407C167.553 402.408 168.844 397.029 169.795 391.582C171.955 379.167 174.143 366.738 175.611 354.214C176.25 348.726 176.63 343.198 177.065 337.683C177.147 336.678 177.663 335.048 176.155 334.912C174.537 334.762 175.013 336.433 174.931 337.425C173.45 356.863 170.243 376.056 166.601 395.195C166.275 396.934 165.772 398.632 165.256 400.33C164.264 403.631 164.237 403.617 161.261 404.609C160.69 404.975 160.513 405.587 160.323 406.13C160.269 406.008 160.35 405.94 160.35 405.845C160.581 405.125 160.296 404.513 159.997 403.916V403.902Z" fill="#020100"/>
<path d="M184.091 238.823C184.226 242.68 187.488 243.916 190.002 245.696C190.804 246.266 191.66 245.533 192.19 244.759C193.372 243.02 194.228 241.132 194.826 239.121C194.676 234.503 193.549 229.953 193.929 225.294C195.166 223.596 195.641 221.395 197.435 220.105C198.033 220.105 197.734 220.58 197.816 220.865C198.685 225.524 200.302 226.733 205.657 226.747C209.978 225.198 210.277 224.818 210.766 220.227C212.152 219.779 213.348 221.395 214.761 220.716C215.169 220.865 215.577 221.083 215.998 221.137C216.433 221.191 216.895 221.096 217.058 220.58C217.194 220.132 217.167 219.656 216.745 219.398C215.916 218.869 215.074 218.325 214.163 217.945C210.25 216.301 206.159 215.527 201.92 215.717C194.799 216.043 190.695 220.784 191.32 227.956C191.497 230.034 191.741 232.126 192.081 234.177C192.326 235.658 191.877 236.12 190.355 236.092C187.895 236.038 185.477 236.323 184.077 238.823H184.091Z" fill="#010100"/>
<path d="M181.984 224.492C184.281 223.976 184.417 223.637 183.003 221.898C176.943 214.359 166.316 214.264 160.065 221.694C159.576 222.278 159.114 222.903 158.706 223.555C158.339 224.153 158.257 224.873 158.855 225.348C159.535 225.891 160.038 225.185 160.595 224.9C161.927 224.329 162.565 222.346 163.911 222.468C165.297 222.604 165.242 224.764 166.357 225.661C166.778 226 167.158 226.394 167.648 226.652C168.178 226.978 168.748 227.195 169.319 227.399C169.618 227.454 169.931 227.467 170.243 227.467C171.031 227.372 171.765 227.78 172.54 227.725C175.57 227.168 177.228 225.076 178.206 222.36C179.851 222.631 180.408 224.479 181.984 224.492Z" fill="#020101"/>
<path d="M158.068 244.528C162.471 244.392 166.575 245.438 170.393 247.625C170.869 247.897 171.304 248.25 171.807 248.44C172.051 248.522 172.459 248.372 172.703 248.196C173.152 247.897 173.057 247.408 172.826 247.027C172.241 246.022 171.263 245.52 170.271 245.003C167.39 243.509 164.278 242.844 161.125 242.232C157.837 242.097 154.562 241.662 151.26 241.784C149.819 241.838 148.406 241.961 147.034 242.395C146.164 242.667 145.253 243.075 145.62 244.175C145.919 245.112 146.762 244.868 147.563 244.705C151.042 244.025 154.548 244.107 158.054 244.528H158.068Z" fill="#0C0903"/>
<path d="M149.275 207.404C149.275 209.021 149.275 210.352 149.275 211.683C149.275 212.62 149.466 213.585 150.621 213.558C151.558 213.53 151.762 212.647 151.776 211.832C151.83 209.401 151.844 206.97 151.898 204.525C151.912 203.75 151.898 202.962 152.075 202.215C152.374 200.843 153.012 200.613 154.181 201.509C155.893 202.799 157.075 204.538 157.972 206.467C158.258 207.065 158.434 207.717 158.801 208.26C159.046 208.627 159.549 208.79 159.984 208.518C160.228 208.355 160.378 208.043 160.541 207.771C160.595 207.689 160.581 207.554 160.581 207.445C160.595 204.878 156.151 199.213 153.665 198.616C151.898 198.195 150.458 199.023 150.036 201.088C149.588 203.248 149.493 205.475 149.275 207.391V207.404Z" fill="#0B0800"/>
<path d="M216.419 233.566C216.433 234.123 216.569 234.653 216.922 235.101C218.594 237.206 223.119 237.41 225.035 235.468C226.706 233.77 226.353 231.352 224.274 230.184C222.412 229.138 218.594 229.831 217.153 231.433C216.596 232.058 216.365 232.751 216.406 233.552L216.419 233.566Z" fill="#FFDB73"/>
<path d="M216.446 243.658C214.897 244.202 213.321 244.704 211.799 245.329C211.215 245.574 210.617 246.063 210.916 246.864C211.228 247.666 211.84 247.543 212.546 247.34C214.625 246.715 216.596 245.574 218.892 245.873C223.01 245.316 227.032 245.995 231.041 246.851C231.571 246.959 232.088 247.217 232.604 247.394C233.202 247.584 233.718 247.435 234.031 246.905C234.466 246.144 233.949 245.628 233.406 245.261C232.672 244.759 231.816 244.541 230.933 244.378C226.136 243.495 221.311 243.006 216.433 243.672L216.446 243.658Z" fill="#0E0A02"/>
<path d="M155.282 251.944C159.997 251.374 164.685 251.048 169.075 253.425C169.754 253.792 170.311 253.873 170.719 253.153C171.127 252.433 170.678 251.849 170.135 251.483C168.653 250.477 166.928 250.124 165.229 249.73C162.307 249.038 159.331 249.364 156.369 249.269C154.548 249.581 152.713 249.866 150.906 250.219C150.159 250.369 149.438 250.627 148.732 250.912C148.066 251.184 147.645 251.7 147.876 252.461C148.134 253.303 148.881 253.221 149.506 253.045C151.395 252.515 153.284 251.931 155.282 251.958V251.944Z" fill="#0D0A06"/>
<path d="M218.213 197.149C219.355 198.521 219.11 199.784 219.164 200.952C219.219 202.379 219.069 203.818 219.029 205.245C219.029 205.774 218.988 206.399 219.722 206.522C220.551 206.657 220.89 206.128 221.094 205.435C221.121 205.326 221.148 205.218 221.162 205.109C221.447 202.46 221.529 199.811 220.958 197.203C220.7 196.035 220.279 194.785 218.838 194.514C217.398 194.242 216.487 195.166 215.903 196.239C214.531 198.752 213.294 201.346 212.03 203.914C211.704 204.579 211.772 205.245 212.492 205.611C213.253 206.005 213.783 205.476 214.109 204.892C214.694 203.832 215.169 202.718 215.726 201.632C216.46 200.192 216.922 198.575 218.227 197.122L218.213 197.149Z" fill="#090700"/>
<path d="M156.831 236.5C157.388 236.5 157.931 236.527 158.488 236.5C160.119 236.392 161.288 235.359 161.587 233.96C161.872 232.642 160.5 231.855 159.426 231.379C157.265 230.428 155.01 229.939 152.727 231.08C150.851 232.018 150.688 233.62 152.292 234.979C153.787 236.242 154.616 236.527 156.831 236.514V236.5Z" fill="#FFDB73"/>
<path d="M219.735 248.467C217.887 248.725 216.025 248.847 214.272 249.608C213.43 249.975 212.478 250.301 212.9 251.428C213.294 252.46 214.177 251.971 214.884 251.713C216.772 251.02 218.675 250.586 220.686 251.156C223.798 251.143 226.72 252.039 229.655 252.895C230.538 253.153 231.748 253.832 232.155 252.528C232.55 251.279 231.218 250.925 230.334 250.64C226.896 249.499 223.282 249.132 219.735 248.48V248.467Z" fill="#0F0B04"/>
<path d="M158.462 260.067C162.294 258.926 166.112 257.772 170.08 259.524C170.638 259.769 171.195 259.66 171.507 259.103C171.956 258.329 171.412 257.785 170.841 257.5C168.477 256.318 165.949 256.196 163.395 256.59C161.207 256.93 159.046 257.391 156.885 257.799C155.73 258.587 154.222 258.723 153.203 259.769C152.632 260.353 152.224 261.005 152.863 261.752C153.447 262.431 154.045 261.969 154.562 261.602C155.744 260.774 157.048 260.312 158.462 260.067Z" fill="#0C0804"/>
<path d="M205.766 226.448C200.847 226.611 198.156 223.8 198.55 219.82C198.577 219.168 198.387 218.774 197.626 219.059C195.329 220.512 193.726 222.373 193.916 225.294C197.612 227.576 201.662 227.562 205.766 227.033C205.915 226.897 205.956 226.761 205.902 226.639C205.847 226.516 205.793 226.448 205.739 226.448H205.766Z" fill="#F9EEC4"/>
<path d="M181.984 224.492C180.952 222.781 179.362 221.653 177.391 219.996C177.541 223.935 175.706 226.068 172.581 227.168C172.187 227.616 171.426 227.304 171.086 227.874C175.434 229.043 179.226 228.459 181.971 224.492H181.984Z" fill="#F8EDC1"/>
<path d="M205.766 226.448C205.766 226.638 205.766 226.842 205.779 227.032C208.456 226.788 210.766 225.688 212.791 223.962C213.824 223.093 214.585 222.088 214.748 220.716C213.308 219.724 211.758 219.086 209.734 218.95C210.644 222.74 209.204 225.171 205.752 226.462L205.766 226.448Z" fill="#F5EBBF"/>
<path d="M220.428 255.68C218.866 255.232 217.357 254.389 215.631 254.824C214.775 255.041 213.702 255.15 213.851 256.345C214.001 257.473 215.006 257.093 215.727 257.038C217.33 256.916 218.798 257.147 219.926 258.437C220.931 258.723 221.611 259.415 222.141 260.258C222.616 261.005 223.173 261.48 223.962 260.733C224.641 260.067 224.342 259.334 223.894 258.668C223.01 257.364 221.516 256.78 220.442 255.707L220.428 255.68Z" fill="#110D05"/>
<path d="M167.906 226.394C166.316 224.805 165.093 223.039 165.025 220.485C162.906 221.491 161.452 222.89 160.595 224.886C162.865 226.055 165.093 227.345 167.77 227.277C167.893 227.209 168.002 227.141 168.124 227.073C168.219 226.802 168.165 226.571 167.92 226.394H167.906Z" fill="#F3EABD"/>
<path d="M160.595 406.605C160.894 405.967 161.315 405.369 161.261 404.609C160.84 404.378 160.418 404.147 159.997 403.902C159.997 404.772 159.997 405.655 159.997 406.524C160.16 406.877 160.364 406.904 160.609 406.605H160.595Z" fill="#C28B00"/>
<path d="M171.086 227.874C171.671 227.82 172.228 227.711 172.581 227.168C171.671 227.168 170.747 227.168 169.836 227.182C169.646 227.317 169.591 227.453 169.659 227.575C169.727 227.684 169.809 227.738 169.877 227.738C170.284 227.779 170.679 227.82 171.086 227.874Z" fill="#C7E5B9"/>
<path d="M169.877 227.752C169.877 227.562 169.85 227.385 169.823 227.195C169.673 227.046 169.51 227.019 169.333 227.114C168.858 226.815 168.382 226.774 167.907 227.114L167.757 227.29C168.382 227.82 169.116 227.847 169.877 227.766V227.752Z" fill="#F3EABD"/>
<path d="M190.899 255.177C193.875 258.451 195.968 259.035 198.849 257.541C200.914 256.481 202.327 254.036 201.961 252.121C201.852 251.55 201.594 251.048 200.901 251.102C200.439 251.143 200.072 251.387 199.963 251.876C199.813 252.515 199.786 253.208 199.514 253.792C198.767 255.367 197.422 256.006 195.71 255.897C194.106 255.802 193.44 254.729 193.114 253.316C192.869 252.243 192.652 251.157 192.353 250.097C192.231 249.662 191.837 249.377 191.375 249.336C190.885 249.309 190.518 249.635 190.342 250.043C190.124 250.545 189.948 251.075 189.88 251.618C189.594 253.574 188.303 254.498 186.496 254.715C184.784 254.919 183.452 254.05 182.691 252.583C181.876 251.021 181.237 249.364 180.626 247.706C180.34 246.932 180.109 246.117 179.117 246.362C178.139 246.592 178.166 247.489 178.37 248.25C179.008 250.6 179.756 252.936 181.332 254.851C183.737 257.744 187.026 257.853 190.885 255.164L190.899 255.177Z" fill="#070604"/>
<path d="M160.595 406.605C160.391 406.578 160.187 406.551 159.983 406.524C159.983 406.877 159.725 407.339 160.337 407.407C160.391 407.407 160.5 406.877 160.595 406.605Z" fill="#714C00"/>
<path d="M197.639 219.059C197.938 219.317 198.251 219.561 198.55 219.819C198.849 219.521 199.175 219.086 198.876 218.76C198.441 218.298 197.952 218.515 197.626 219.059H197.639Z" fill="#81A387"/>
<path d="M167.92 227.114C168.395 227.114 168.871 227.114 169.333 227.114C168.966 226.639 168.463 226.476 167.893 226.408C167.893 226.639 167.893 226.883 167.906 227.114H167.92Z" fill="#C7E5B9"/>
</g>
<g clip-path="url(#clip3_400_1851)">
<path d="M514.831 59.8804C519.621 59.8804 522.926 59.8325 526.255 59.8804C529.392 59.9283 531.883 61.2694 533.703 63.808C537.798 69.5797 535.547 75.2317 528.554 76.1657C524.315 76.7405 520.004 76.5968 515.789 77.435C514.472 77.6984 513.107 77.9619 511.862 78.4409C510.185 79.0875 508.413 80.1173 508.844 82.1769C509.275 84.2844 511.359 83.542 512.772 83.542C515.885 83.542 518.998 83.1588 522.112 83.2786C525.68 83.4462 526.973 85.2424 526.207 88.715C525.177 93.3611 521.609 95.2291 517.442 96.211C515.55 96.666 513.586 96.7618 511.694 97.1929C510.999 97.3366 510.233 97.8156 510.425 98.8454C510.616 99.8034 511.478 99.9471 512.197 100.019C513.777 100.187 515.286 99.7794 516.723 99.1328C519.932 97.7437 523.142 96.3308 526.135 94.4627C527.62 93.5287 529.153 92.5947 530.781 92.0199C535.332 90.3914 537.75 91.8284 538.876 96.5703C540.816 104.737 536.721 112.089 528.482 114.053C519.142 116.256 509.61 116.855 500.103 114.843C495.001 113.766 491.697 110.221 491.385 105.216C490.834 96.4744 490.499 87.7091 490.212 78.9677C490.14 76.6447 490.595 74.3216 490.834 71.9986C491.505 65.676 495.385 62.4669 501.228 60.9341C506.234 59.617 511.287 60.0241 514.855 59.8564L514.831 59.8804Z" fill="#D7E01E"/>
<path d="M287.292 87.9477C287.292 93.2165 287.363 98.4852 287.292 103.754C287.124 112.926 281.424 117.716 272.347 116.423C268.468 115.872 266.456 113.789 266.169 109.885C266.025 107.754 266.121 105.574 266.767 103.515C267.366 101.527 267.366 100.138 264.708 99.8743C261.235 99.539 259.607 100.281 259.439 102.82C259.367 103.946 259.774 105.119 259.918 106.269C260.493 110.603 259.367 112.831 255.894 114.339C251.751 116.136 247.68 115.393 245.261 112.352C242.866 109.31 242.243 105.598 241.717 101.958C240.375 93.0488 240.375 84.068 240.519 75.111C240.543 73.3628 240.711 71.6384 241.333 69.938C242.459 66.8965 244.59 65.0764 247.776 64.7172C250.099 64.4777 252.47 64.4537 254.793 64.5495C261.187 64.813 262.983 66.7528 263.007 73.243C263.007 74.2249 262.959 75.1829 262.888 76.1648C262.792 77.9131 263.247 79.374 265.258 79.4937C267.294 79.6134 269.354 79.2782 269.737 76.8114C270.024 74.8955 269.833 72.9077 269.952 70.9679C270.216 67.0881 272.108 64.3819 275.82 63.0168C281.807 60.8374 287.052 64.0226 287.363 70.417C287.651 76.2606 287.411 82.1281 287.411 87.9716C287.387 87.9716 287.339 87.9716 287.315 87.9716L287.292 87.9477Z" fill="#EDD356"/>
<path d="M317.228 99.1799C316.27 101.742 315.887 104.209 315.624 106.724C315.001 112.591 313.348 114.028 307.313 114.076C304.966 114.076 302.619 114.076 300.296 113.765C295.818 113.142 294.237 110.987 294.74 106.508C295.363 101.096 296.057 95.6834 296.704 90.2709C297.47 83.7089 298.141 77.1229 298.979 70.5609C299.769 64.382 303.218 62.7535 308.152 66.4656C311.864 69.2437 315.648 72.0457 318.402 75.9973C319.695 77.8653 321.036 79.901 323.67 80.811C325.491 78.3922 324.509 75.5662 324.628 73.0037C325.083 63.7594 328.819 60.2867 337.896 61.0292C342.207 61.3884 344.41 63.7115 344.769 68.166C345.272 74.249 343.931 80.2123 343.261 86.1996C342.518 92.9532 341.249 99.6828 340.004 106.365C339.405 109.55 339.165 113.43 335.453 114.603C331.55 115.848 329.514 112.328 327.335 110.005C324.94 107.466 322.928 104.544 320.749 101.814C319.934 100.784 319.455 99.3476 317.228 99.132V99.1799Z" fill="#F89394"/>
<path d="M453.545 82.5822C450.216 82.4385 447.175 82.3667 444.133 82.199C435.679 81.6961 431.081 73.2421 435.176 65.7221C436.446 63.3991 438.625 62.5608 441.044 62.4411C450.815 61.9142 460.562 62.2256 470.214 63.902C475.842 64.8839 477.375 68.0931 474.668 73.2421C471.387 79.4449 467.651 85.4082 464.227 91.5391C463.34 93.1437 461.137 94.9878 462.718 96.7121C464.61 98.7717 467.077 97.239 469.16 96.1373C471.914 94.7004 474.597 93.0719 477.71 92.4013C481.638 91.5391 483.601 92.7366 484.416 96.6882C485.421 101.574 484.607 106.435 483.745 111.201C483.098 114.818 480.081 115.728 476.752 116.302C467.555 117.883 458.479 116.398 449.378 115.584C446.864 115.368 444.325 115.057 441.882 114.41C435.655 112.734 434.123 108.615 438.026 103.49C441.93 98.3646 446.241 93.5748 450.36 88.6173C451.677 87.0128 453.258 85.504 453.593 82.5822H453.545Z" fill="#EF6E78"/>
<path d="M161.512 76.6671C162.038 78.9662 164.242 79.3973 165.655 80.6187C167.714 82.4148 169.894 84.0434 172.049 85.7198C183.09 94.4372 176.288 108.902 166.996 112.136C157.632 115.369 148.507 113.525 139.814 109.525C136.7 108.112 134.617 105.262 135.096 101.478C135.623 97.2872 137.131 93.5751 141.059 91.3239C143.406 90.0067 145.609 90.9886 147.789 91.8028C149.777 92.5453 151.621 93.7667 153.848 93.8146C155.5 93.8385 157.081 93.3595 157.392 91.4915C157.704 89.5995 156.363 88.6416 154.758 88.2105C153.081 87.7555 151.285 87.6836 149.609 87.1807C140.556 84.5224 136.341 77.5771 138.305 67.7581C139.574 61.3876 144.532 58.3461 150.208 57.0289C157.943 55.2327 165.703 55.592 172.911 59.5436C173.247 59.7351 173.606 59.8788 173.941 60.0704C181.94 64.8602 182.012 72.2365 174.181 77.5292C172.169 78.8943 170.277 78.8225 168.121 77.8885C166.541 77.194 165.008 76.1642 163.164 76.26C162.613 76.2839 162.086 76.5234 161.488 76.6671H161.512Z" fill="#F16C4B"/>
<path d="M209.96 85.9114C207.589 87.971 207.23 90.0785 208.332 92.4734C209.817 95.6826 212.068 96.5447 215.445 95.1796C218.319 94.0061 220.977 92.3297 223.995 91.4196C227.563 90.3419 231.083 89.9108 233.766 92.9284C236.687 96.2094 236.328 100.161 234.7 103.945C231.874 110.459 226.365 113.692 219.708 114.794C212.283 116.039 204.931 115.201 197.866 112.327C184.024 106.675 178.467 84.8097 191.208 74.2722C200.285 66.7522 210.2 63.7825 221.671 67.1593C224.881 68.0933 227.802 69.6979 230.125 72.2125C233.838 76.2599 233.311 80.6426 228.593 83.3967C225.24 85.3605 221.695 87.0609 218.007 88.3302C213.553 89.8629 213.577 89.9108 209.96 85.9114Z" fill="#4FCAD2"/>
<path d="M571.997 114.892C566.561 114.963 561.1 115.011 555.688 114.197C551.665 113.598 549.437 111.467 548.551 107.635C546.779 100.115 547.641 92.5232 547.761 84.9554C547.833 80.6924 548.336 76.4295 548.647 72.1666C549.174 65.0777 552.623 61.629 559.711 61.198C561.077 61.1261 562.442 61.1261 563.807 61.174C571.878 61.3895 574.895 65.0058 573.817 73.2203C573.41 76.3098 572.907 79.3752 572.548 82.4647C572.356 84.189 572.189 85.9852 572.356 87.7095C572.716 91.5174 574.129 92.8106 577.961 92.9304C580.882 93.0262 583.756 92.5711 586.678 92.1401C592.689 91.23 596.353 94.2955 596.904 100.379C597.671 108.833 593.863 113.91 585.409 114.844C580.978 115.323 576.476 114.939 571.997 114.939V114.892Z" fill="#4FA3A5"/>
<path d="M396.547 84.1871C393.553 83.9955 391.541 85.3606 389.314 85.6959C385.075 86.3425 382.991 85.169 381.794 81.1456C380.716 77.5293 380.788 73.7933 381.626 70.177C382.441 66.6086 384.428 64.8363 388.284 64.7645C399.588 64.525 410.892 64.4771 422.196 64.525C425.788 64.525 427.68 66.3451 428.638 70.153C429.644 74.1525 429.572 78.2957 429.117 82.367C428.758 85.5762 426.698 87.0131 423.441 86.9652C422.866 86.9652 422.268 86.8933 421.693 86.7976C412.425 85.3367 412.401 85.3367 412.712 94.4133C412.856 98.7002 413.191 102.963 413.407 107.25C413.67 112.088 412.233 114.075 407.659 115.225C404.019 116.159 400.354 116.279 396.666 115.393C391.445 114.123 389.961 112.136 390.2 106.723C390.32 104.137 391.182 101.766 391.9 99.3468C393.385 94.3894 394.942 89.4559 396.57 84.235L396.547 84.1871Z" fill="#4CBD92"/>
<path d="M351.809 90.678C351.809 85.7924 351.618 80.9068 351.857 76.0451C352.193 69.0999 356.001 64.4299 362.323 61.8194C367.951 59.4964 373.364 61.9871 373.627 67.9025C374.154 80.1644 376.74 92.3065 375.543 104.664C374.848 111.921 371.567 115.034 364.239 115.369C363.066 115.417 361.892 115.393 360.742 115.274C354.612 114.699 352.312 112.663 351.905 106.508C351.546 101.263 351.833 95.9707 351.833 90.7019L351.809 90.678Z" fill="#FEAF36"/>
<path d="M381.986 137.691C381.986 135.344 382.058 133.021 382.681 130.722C384.477 124.064 386.441 122.938 393.051 124.782C396.164 125.644 396.907 126.65 396.14 129.859C395.494 132.518 394.751 135.128 394.967 137.906C395.134 139.966 395.541 142.049 398.2 141.81C400.691 141.594 401.002 139.511 401.05 137.451C401.098 135.607 400.259 134.026 399.565 132.446C398.439 129.835 399.397 128.303 401.768 127.393C407.947 125.046 410.102 125.381 411.803 131.608C412.976 135.918 414.246 140.157 412.976 144.78C411.851 148.827 409.576 151.797 405.84 153.497C400.834 155.772 395.637 155.892 390.464 154.12C386.944 152.898 384.645 150.36 383.351 146.863C382.25 143.893 381.986 140.804 382.01 137.667L381.986 137.691Z" fill="#F16C4C"/>
<path d="M361.294 154.742C360.839 154.742 360.648 154.742 360.456 154.742C353.272 154.567 349.567 150.887 349.344 143.702C349.224 139.822 349.033 135.919 349.176 132.039C349.368 127.129 351.499 124.902 356.385 124.758C360.265 124.663 364.168 125.094 367.833 126.554C374.802 129.357 379.376 139.463 376.981 146.576C375.76 150.168 373.125 152.348 369.653 153.569C366.875 154.527 363.977 154.934 361.294 154.742Z" fill="#D7E01F"/>
<path d="M298.931 143.319C296.416 144.875 294.452 144.684 292.417 143.534C292.321 146.408 294.141 148.013 294.404 150.12C294.787 153.186 293.83 154.455 290.74 154.718C284.921 155.221 282.454 153.665 281.927 148.061C281.328 141.69 280.969 135.224 282.406 128.901C283.292 124.974 285.28 124.279 288.681 126.578C289.638 127.225 290.477 128.063 291.363 128.83C294.205 131.256 297.142 131.28 300.176 128.901C307.337 123.273 307.409 123.273 308.893 132.278C309.564 136.302 310.043 140.373 310.187 144.444C310.283 147.127 309.851 149.905 307.552 151.892C305.636 153.569 303.457 154.263 301.086 153.353C298.739 152.443 298.284 150.264 298.308 148.037C298.308 146.887 298.619 145.738 298.955 143.343L298.931 143.319Z" fill="#50A3A5"/>
<path d="M317.73 140.85C317.73 137.785 317.491 135.989 317.778 134.312C318.497 129.929 320.149 126.074 324.819 124.493C329.729 122.817 334.255 123.942 337.632 127.582C343.236 133.689 343.595 141.209 341.943 148.873C341.44 151.22 339.572 152.849 337.297 153.807C332.794 155.723 328.22 155.603 323.646 154.166C321.251 153.423 319.91 151.579 319.024 149.28C317.802 146.119 317.754 142.838 317.706 140.85H317.73Z" fill="#EF6E78"/>
<path d="M431.273 156.394C428.878 156.275 425.525 156.442 422.556 154.598C420.807 153.521 419.418 152.06 420.065 149.808C420.64 147.797 422.148 146.456 424.352 146.432C426.483 146.432 428.615 146.743 430.746 146.791C431.848 146.815 433.261 147.054 433.716 145.617C434.267 143.893 432.902 143.199 431.704 142.576C430.674 142.049 429.549 141.69 428.495 141.211C423.945 139.223 422.771 137.69 422.963 134.05C423.178 130.362 425.789 126.77 429.453 125.907C434.434 124.734 439.152 125.692 443.2 128.949C445.092 130.482 446.385 132.469 444.828 135.056C443.391 137.403 441.475 137.738 438.386 136.014C437.021 135.247 435.44 133.811 434.338 135.463C433.357 136.948 435.153 138.241 436.278 139.247C437.284 140.157 438.434 140.899 439.511 141.738C443.271 144.707 444.541 148.108 443.2 151.868C441.834 155.7 438.553 156.179 435.129 156.323C434.147 156.371 433.189 156.323 431.297 156.323L431.273 156.394Z" fill="#F29729"/>
<path d="M358.54 140.229C358.827 138.792 358.252 136.637 360.743 136.374C362.779 136.134 364.79 138.673 364.719 141.116C364.647 143.486 363.258 144.516 361.03 144.588C359.09 144.636 358.468 143.558 358.54 140.253V140.229Z" fill="#CCE7FC"/>
<path d="M326.065 138.983C325.993 137.282 326.209 135.103 328.867 134.528C330.567 134.169 332.603 137.139 332.579 139.629C332.579 141.976 330.807 144.467 329.13 144.252C326.352 143.892 326.089 141.737 326.041 138.983H326.065Z" fill="#CCE7FC"/>
</g>
<g clip-path="url(#clip4_400_1851)">
<path d="M457.779 391.267C464.692 383.671 471.733 376.175 478.957 368.863C479.765 368.041 480.586 367.176 481.536 366.581C482.91 365.717 484.071 366.496 483.986 368.112C483.958 368.565 483.83 369.018 483.675 369.444C480.218 378.881 477.966 388.688 474.679 398.168C473.688 401.045 472.512 403.794 469.976 405.664C466.945 407.889 463.488 409.419 459.805 409.774C451.15 410.581 442.523 410.213 434.023 408.002C428.838 406.656 424.957 404.02 422.35 399.103C417.647 390.232 413.27 381.191 408.85 372.193C408.595 371.683 408.454 371.116 408.227 370.577C407.887 369.77 407.859 368.99 408.567 368.367C409.304 367.701 410.125 367.927 410.805 368.367C411.783 368.976 412.689 369.699 413.596 370.407C418.129 374.007 422.067 378.201 426.076 382.793C426.813 381.46 426.501 380.327 426.388 379.264C425.382 369.656 426.26 360.105 427.394 350.596C429.504 333.053 432.649 315.694 436.899 298.533C437.338 296.747 437.848 294.962 438.429 293.219C438.698 292.425 439.307 291.844 440.285 292.028C441.092 292.184 441.404 292.836 441.531 293.516C441.673 294.31 441.715 295.118 441.715 295.925C441.687 302.855 441.644 309.784 441.602 316.714C441.489 333.577 441.517 350.441 442.027 367.304C442.112 370.18 442.353 373.057 442.523 375.948C443.727 376.175 443.783 375.098 444.138 374.503C450.101 364.583 457.014 355.344 464.267 346.345C465.061 345.367 465.797 343.454 467.426 344.404C468.956 345.297 467.865 346.912 467.455 348.159C462.907 361.99 459.748 376.161 456.929 390.431C456.618 391.309 456.986 391.493 457.765 391.252L457.779 391.267Z" fill="#087474"/>
</g>
<g clip-path="url(#clip5_400_1851)">
<path d="M52.1604 416.71C50.4304 407.41 49.9204 397.96 48.8304 388.59C48.6704 387.22 48.7204 385.83 48.7004 384.44C48.7004 383.83 48.9404 383.29 49.5304 383.08C50.2904 382.81 50.8104 383.28 51.1204 383.88C51.6804 384.96 52.2104 386.07 52.6304 387.21C55.8404 395.93 59.7804 404.33 63.8804 412.65C64.2004 413.3 64.5504 413.94 64.9004 414.61C65.7504 414.55 65.9104 413.84 66.2204 413.34C67.5704 411.21 68.8704 409.05 70.2204 406.91C70.6104 406.29 71.0604 405.7 71.5304 405.14C72.0504 404.51 72.6204 403.82 73.5604 404.08C74.6804 404.39 74.6304 405.4 74.6404 406.29C74.6604 409.13 74.6404 411.97 74.6404 414.97C75.5904 414.81 75.9804 414.03 76.5004 413.49C82.0004 407.7 87.6104 402.01 93.9404 397.09C95.4204 395.94 96.8904 394.77 98.6704 394.1C101.1 393.18 102.34 394.13 101.96 396.69C101.83 397.57 101.59 398.45 101.26 399.28C97.8504 407.91 94.7204 416.64 91.2904 425.26C88.7304 431.7 83.9104 434.58 77.4804 435.8C69.2304 437.38 61.8504 435.01 54.7404 431.22C52.7604 430.17 51.4304 428.35 50.0504 426.63C47.7904 423.82 46.1004 420.66 44.6504 417.37C44.6204 417.3 44.5704 417.23 44.5504 417.15C44.1604 415.91 43.4804 414.43 44.5904 413.48C45.7104 412.52 46.8604 413.72 47.8604 414.34C49.1004 415.12 50.2904 415.97 51.5104 416.79C51.7304 416.84 51.9804 417.06 52.1504 416.7L52.1604 416.71Z" fill="#087474"/>
</g>
<g clip-path="url(#clip6_400_1851)">
<path d="M656.156 472.38C647.151 462.48 637.98 452.71 628.569 443.179C627.517 442.108 626.447 440.981 625.211 440.206C623.421 439.079 621.908 440.095 622.018 442.2C622.055 442.792 622.221 443.383 622.424 443.937C626.927 456.237 629.861 469.018 634.142 481.375C635.434 485.124 636.965 488.707 640.268 491.145C644.217 494.045 648.72 496.04 653.518 496.501C664.792 497.554 676.03 497.074 687.102 494.193C693.856 492.438 698.912 489.003 702.307 482.594C708.433 471.032 714.135 459.248 719.893 447.52C720.225 446.855 720.409 446.116 720.705 445.414C721.148 444.361 721.184 443.346 720.262 442.533C719.302 441.665 718.232 441.96 717.346 442.533C716.073 443.327 714.892 444.269 713.711 445.193C707.806 449.884 702.676 455.351 697.454 461.335C696.494 459.599 696.9 458.121 697.048 456.736C698.358 444.214 697.214 431.765 695.738 419.372C692.988 396.507 688.892 373.881 683.356 351.514C682.784 349.187 682.12 346.86 681.363 344.588C681.012 343.554 680.219 342.797 678.946 343.037C677.894 343.24 677.488 344.09 677.322 344.976C677.137 346.011 677.082 347.063 677.082 348.116C677.119 357.148 677.174 366.179 677.23 375.211C677.377 397.19 677.34 419.169 676.676 441.148C676.565 444.897 676.252 448.646 676.03 452.414C674.462 452.71 674.388 451.306 673.926 450.53C666.158 437.602 657.153 425.559 647.705 413.831C646.671 412.557 645.712 410.063 643.59 411.301C641.597 412.464 643.018 414.57 643.553 416.195C649.476 434.222 653.591 452.691 657.263 471.29C657.669 472.435 657.19 472.675 656.175 472.361L656.156 472.38Z" fill="#087474"/>
</g>
<g clip-path="url(#clip7_400_1851)">
<path d="M69.6318 121.683C70.5599 120.727 71.1821 120.043 71.8686 119.406C72.7916 118.549 73.9217 118.157 75.0764 118.691C76.3069 119.247 76.5256 120.457 76.3957 121.671C76.2429 122.932 75.9679 124.177 75.7339 125.457C76.7615 126.074 77.7737 125.479 78.7663 125.339C81.4944 124.956 84.2166 124.556 86.9795 124.902C87.7124 124.998 88.4568 125.071 89.1444 125.319C90.1118 125.675 91.2474 125.982 91.3853 127.268C91.5168 128.479 90.7617 129.258 89.8543 129.875C87.652 131.37 85.2199 132.449 82.8466 133.614C82.3719 133.847 81.8913 134.062 81.4109 134.307C78.4434 135.773 77.1562 138.107 77.5494 141.308C77.8797 144.154 78.1519 147.002 77.7212 149.869C77.5446 151.06 77.2806 152.224 76.0001 152.688C74.5052 153.236 73.5734 152.245 72.7582 151.281C70.9517 149.152 69.903 146.594 69.1557 143.921C68.576 141.882 68.0775 139.824 67.434 137.798C66.7844 135.724 66.6677 135.668 64.4687 136.09C61.2485 136.712 58.0466 137.444 54.8205 138.048C52.958 138.403 51.0596 138.624 49.1469 138.518C47.9958 138.451 47.0749 138.089 46.6533 136.94C46.2079 135.721 46.8639 134.908 47.7476 134.222C50.0866 132.386 52.5197 130.684 55.1057 129.231C57.848 127.694 57.854 127.711 57.2356 124.449C56.6175 121.215 56.1039 117.974 56.3219 114.655C56.4118 113.523 56.4491 112.351 56.9752 111.272C57.8788 109.419 59.129 108.78 61.1269 109.392C63.6839 110.16 65.5739 111.822 66.6507 114.263C67.6741 116.576 68.5471 118.962 69.6435 121.688L69.6318 121.683Z" fill="#704D85"/>
</g>
<g clip-path="url(#clip8_400_1851)">
<path d="M374.977 256.663C375.093 258.5 375.226 260.336 375.309 262.189C375.375 263.579 374.778 264.72 373.319 264.687C372.093 264.671 371.479 263.562 371.429 262.404C371.297 259.443 371.131 256.498 370.236 253.603C368.876 253.569 368.561 254.761 367.965 255.588C364.832 259.972 361.715 264.373 358.582 268.774C358.201 269.32 357.852 269.932 357.338 270.346C356.344 271.14 355.167 270.577 354.984 269.303C354.769 267.814 355.614 266.755 356.394 265.63C359.444 261.213 362.478 256.779 365.694 252.08C363.787 251.799 362.511 252.544 361.234 253.106C360.09 253.619 358.814 254.297 358.051 252.841C357.14 251.154 358.648 250.426 359.825 249.814C361.019 249.202 362.328 248.821 363.572 248.325C364.168 248.093 364.948 248.143 365.412 246.919C362.444 243.924 359.079 241.144 355.283 238.878C354.471 238.398 353.592 238.018 352.829 237.472C352.133 236.975 351.702 236.264 352.216 235.387C352.68 234.593 353.476 234.295 354.305 234.576C356.626 235.354 358.781 236.462 360.687 238.001C363.157 240.003 365.627 242.005 368.479 244.321C369.092 241.972 368.843 240.152 368.396 238.382C367.998 236.777 367.898 235.172 368.18 233.567C368.329 232.723 368.91 232.111 369.855 232.095C370.882 232.095 371.197 232.823 371.33 233.666C371.678 236.065 372.026 238.448 372.407 241.012C374.016 240.913 374.496 239.507 375.226 238.497C378.574 233.931 381.873 229.332 385.205 224.765C385.603 224.219 385.968 223.64 386.416 223.144C387.095 222.383 387.957 221.936 388.919 222.532C390.079 223.243 390.112 224.335 389.416 225.328C387.36 228.322 385.222 231.267 383.1 234.229C380.912 237.29 378.74 240.35 376.055 244.106C379.867 243.279 382.918 242.667 385.951 241.972C388.09 241.475 390.245 241.558 392.4 241.641C393.511 241.674 394.174 242.352 394.24 243.411C394.29 244.387 393.511 244.702 392.682 244.95C391.24 245.363 389.781 245.529 388.305 245.661C383.465 246.141 378.84 247.531 374.082 248.953C374.844 250.955 376.535 251.683 377.779 252.841C382.901 257.623 388.024 262.437 393.096 267.268C393.859 267.996 394.472 268.906 395.102 269.783C395.517 270.379 395.517 271.074 395.019 271.653C394.422 272.364 393.61 272.579 392.848 272.116C391.936 271.553 391.124 270.825 390.344 270.097C386.001 266.044 381.691 261.974 377.348 257.937C376.701 257.342 376.204 256.365 374.944 256.614L374.977 256.663Z" fill="#FF8BB0"/>
<path d="M444.437 207.807C448.283 207.096 452.129 206.384 455.958 205.656C457.964 205.276 459.986 205.177 462.009 205.21C463.136 205.21 464.297 205.392 464.363 206.815C464.446 208.237 463.285 208.519 462.191 208.717C460.865 208.949 459.522 209.147 458.196 209.329C452.875 210.09 447.586 211 441.784 212.638C444.884 215.335 447.586 217.668 450.255 220.034C451.565 221.192 452.924 222.333 453.703 223.955C454.002 224.583 454.068 225.278 453.571 225.857C452.957 226.569 452.112 226.668 451.366 226.238C450.57 225.775 449.891 225.08 449.194 224.451C446.691 222.218 444.205 219.968 440.922 217.023C441.469 219.951 441.784 221.953 442.232 223.922C442.613 225.642 442.829 227.379 442.613 229.133C442.48 230.209 441.834 230.92 440.756 230.87C439.878 230.837 439.364 230.126 439.215 229.249C438.734 226.602 438.286 223.938 437.772 221.308C437.474 219.786 437.043 218.28 436.513 216.096C434.092 219.256 432.335 222.019 431.042 225.08C430.611 226.089 429.848 226.618 428.804 226.238C427.594 225.791 427.295 224.765 427.743 223.591C428.075 222.714 428.472 221.854 428.937 221.026C429.981 219.157 431.075 217.32 432.153 215.451C430.561 214.442 429.401 215.451 428.157 215.732C427.196 215.964 426.185 216.08 425.754 214.955C425.273 213.714 425.953 212.804 427.063 212.39C428.821 211.728 430.644 211.249 432.633 210.636C432.335 209.065 430.893 208.452 429.865 207.559C428.34 206.236 426.682 205.061 425.057 203.853C424.212 203.224 423.632 202.513 424.195 201.487C424.859 200.296 425.92 200.313 426.964 200.941C428.008 201.57 429.003 202.265 429.981 202.96C431.059 203.737 432.103 204.548 433.247 205.408C434.125 204.035 433.446 202.943 433.23 201.835C433.031 200.776 433.346 199.932 434.44 199.634C435.568 199.336 436.214 200.015 436.612 200.974C437.176 202.298 437.143 203.853 438.369 205.359C440.309 202.496 442.182 199.733 444.072 196.987C444.752 195.994 445.481 195.018 446.244 194.059C446.99 193.116 447.968 192.619 449.062 193.331C450.239 194.108 449.907 195.217 449.277 196.176C447.421 198.989 445.531 201.768 443.657 204.581C443.21 205.243 442.845 205.971 442.447 206.666C442.282 208.469 443.309 208.188 444.42 207.807H444.437Z" fill="#F9C801"/>
<path d="M457.135 265.995C454.781 267.897 453.388 269.767 452.31 271.918C451.846 272.844 451.2 273.506 450.089 273.125C448.945 272.745 448.995 271.703 449.061 270.76C449.244 268.46 451.349 267.202 452.294 265.035C450.984 264.009 449.476 264.655 448.133 264.506C447.122 264.39 446.21 264.076 446.21 262.884C446.21 261.726 447.072 261.23 448.083 261.18C449.807 261.098 451.548 261.164 453.62 261.164C453.056 259.079 451.548 258.302 450.537 257.143C449.923 256.432 449.161 255.836 448.614 255.075C448.116 254.38 448.083 253.52 448.697 252.842C449.36 252.114 450.189 252.246 450.885 252.776C452.576 254.05 454.2 255.406 456.289 257.061C456.372 255.34 456.405 254.083 456.488 252.809C456.571 251.617 457.068 250.658 458.411 250.674C459.654 250.691 459.787 251.7 459.886 252.693C459.969 253.586 459.588 254.612 460.782 255.373C462.539 254.463 463.583 252.676 465.042 251.353C465.738 250.724 466.352 249.98 467.114 249.434C467.943 248.821 468.871 248.755 469.651 249.599C470.33 250.327 470.131 251.138 469.617 251.799C468.623 253.073 467.578 254.298 466.501 255.489C465.092 257.044 463.616 258.533 462.589 260.734C465.738 260.518 468.905 260.303 472.054 260.055C472.717 260.006 473.364 259.757 474.044 259.708C474.939 259.642 475.652 260.072 475.917 260.932C476.248 261.991 475.735 262.901 474.723 263.166C472.519 263.761 470.297 264.291 467.993 264.34C466.7 264.373 465.374 264.208 463.898 264.77C464.495 266.723 466.169 267.649 466.982 269.138C467.512 270.114 468.125 271.107 466.982 272.017C465.904 272.877 464.943 272.315 464.147 271.488C463.417 270.726 462.738 269.916 461.809 268.873C461.097 270.032 461.395 271.09 461.378 272.067C461.362 273.407 461.511 274.763 461.428 276.103C461.345 277.526 461.561 279.528 459.538 279.528C457.267 279.528 458.063 277.411 457.947 276.087C457.648 272.927 457.433 269.767 457.151 265.995H457.135Z" fill="#74CCB5"/>
<path d="M444.436 207.808C443.972 208.039 443.525 208.37 443.027 208.453C442.547 208.536 441.668 208.453 441.602 208.238C441.353 207.543 441.9 207.03 442.48 206.666C442.878 207.493 443.674 207.626 444.453 207.808H444.436Z" fill="#FDF3C8"/>
</g>
</g>
<defs>
<clipPath id="clip0_400_1851">
<rect width="732" height="493" rx="30" fill="white"/>
</clipPath>
<clipPath id="clip1_400_1851">
<rect width="221" height="257" fill="white" transform="translate(492 156)"/>
</clipPath>
<clipPath id="clip2_400_1851">
<rect width="199" height="231" fill="white" transform="matrix(-1 0 0 1 243 184)"/>
</clipPath>
<clipPath id="clip3_400_1851">
<rect width="462" height="100.418" fill="white" transform="translate(135 56)"/>
</clipPath>
<clipPath id="clip4_400_1851">
<rect width="76" height="118.156" fill="white" transform="translate(408 292)"/>
</clipPath>
<clipPath id="clip5_400_1851">
<rect width="58.05" height="53.3" fill="white" transform="translate(44 383)"/>
</clipPath>
<clipPath id="clip6_400_1851">
<rect width="99" height="154" fill="white" transform="matrix(-1 0 0 1 721 343)"/>
</clipPath>
<clipPath id="clip7_400_1851">
<rect width="38.3034" height="33.2444" fill="white" transform="translate(58.5713 108) rotate(25.9964)"/>
</clipPath>
<clipPath id="clip8_400_1851">
<rect width="124" height="86.5116" fill="white" transform="translate(352 193)"/>
</clipPath>
</defs>
</svg>
